<?xml version="1.0" encoding="utf-8"?>
<!-- Generator: Adobe Illustrator 21.0.0, SVG Export Plug-In . SVG Version: 6.00 Build 0)  -->
<svg version="1.1" id="Calque_1" xmlns="http://www.w3.org/2000/svg" xmlns:xlink="http://www.w3.org/1999/xlink" x="0px" y="0px"
	 viewBox="0 0 381 457.5" style="enable-background:new 0 0 381 457.5;" xml:space="preserve">
<style type="text/css">
	.st0{fill:none;stroke:#FFFFFF;stroke-width:2;stroke-miterlimit:10;}
	.st1{fill:#FFFFFF;}
</style>
<g>
	<circle id="XMLID_202_" class="st0" cx="114.4" cy="114.4" r="28.1"/>
	<circle id="XMLID_201_" class="st0" cx="190.6" cy="114.4" r="28.1"/>
	<circle id="XMLID_200_" class="st0" cx="266.9" cy="114.4" r="28.1"/>
	<circle id="XMLID_199_" class="st0" cx="342.9" cy="114.4" r="28.1"/>
	<circle id="XMLID_198_" class="st0" cx="38.1" cy="114.4" r="28.1"/>
	<g id="XMLID_196_">
		<path id="XMLID_197_" class="st1" d="M95.3,35.1c0,0.6,0.5,1.1,1.1,1.1h1.2c0.3,1.3,1.5,2.3,3,2.3h1.6c0.5,1.9,2.2,3.3,4.3,3.3
			c2.1,0,3.8-1.4,4.3-3.3h7.7c0.5,1.9,2.2,3.3,4.3,3.3c2.4,0,4.3-1.9,4.4-4.2c2.9-1.4,4.9-4.4,4.9-7.8V28c0-0.6-0.5-1.1-1.1-1.1
			h-3.5l-5.4-5.8c-0.2-0.2-0.5-0.3-0.8-0.3h-9.7c-2.6,0-5,1.3-6.4,3.4l-2.3,3.4c-2.7,1.1-4.8,3.5-5.2,6.5h-1.3
			C95.8,34,95.3,34.5,95.3,35.1z M104.4,38.4h4c-0.4,0.7-1.1,1.2-2,1.2C105.6,39.6,104.8,39.1,104.4,38.4z M123.3,36.3h-22.7
			c-0.5,0-0.9-0.4-0.9-0.9c0-3.5,2.8-6.3,6.3-6.3h23.9v0.7C129.9,33.3,126.9,36.3,123.3,36.3L123.3,36.3z M120.7,38.4h2.6
			c0.5,0,1,0,1.5-0.1c-0.4,0.8-1.2,1.4-2.1,1.4C121.8,39.6,121.1,39.1,120.7,38.4z M111.6,22.9h3.6v4H106h-0.1l1.1-1.6
			C108,23.8,109.7,22.9,111.6,22.9z M120.8,22.9l3.7,4h-7.2v-4H120.8z"/>
	</g>
	<circle id="XMLID_195_" class="st0" cx="114.4" cy="38.1" r="28.1"/>
	<g id="XMLID_193_">
		<path id="XMLID_194_" class="st1" d="M172.3,35.1c0,0.6,0.5,1.1,1.1,1.1h1.2c0.3,1.3,1.5,2.3,3,2.3h1.6c0.5,1.9,2.2,3.3,4.3,3.3
			s3.8-1.4,4.3-3.3h7.7c0.5,1.9,2.2,3.3,4.3,3.3c2.4,0,4.3-1.9,4.4-4.2c2.9-1.4,4.9-4.4,4.9-7.8V28c0-0.6-0.5-1.1-1.1-1.1h-3.5
			l-5.4-5.8c-0.2-0.2-0.5-0.3-0.8-0.3h-9.7c-2.6,0-5,1.3-6.4,3.4l-2.3,3.4c-2.7,1.1-4.8,3.5-5.2,6.5h-1.3
			C172.8,34,172.3,34.5,172.3,35.1z M181.4,38.4h4c-0.4,0.7-1.1,1.2-2,1.2C182.6,39.6,181.8,39.1,181.4,38.4z M200.3,36.3h-22.7
			c-0.5,0-0.9-0.4-0.9-0.9c0-3.5,2.8-6.3,6.3-6.3h23.9v0.7C206.9,33.3,203.9,36.3,200.3,36.3L200.3,36.3z M197.7,38.4h2.6
			c0.5,0,1,0,1.5-0.1c-0.4,0.8-1.2,1.4-2.1,1.4C198.8,39.6,198.1,39.1,197.7,38.4z M188.6,22.9h3.6v4H183h-0.1l1.1-1.6
			C185,23.8,186.7,22.9,188.6,22.9z M197.8,22.9l3.7,4h-7.2v-4H197.8z"/>
	</g>
	<circle id="XMLID_192_" class="st0" cx="190.6" cy="38.1" r="28.1"/>
	<g id="XMLID_190_">
		<path id="XMLID_191_" class="st1" d="M248.6,35.1c0,0.6,0.5,1.1,1.1,1.1h1.2c0.3,1.3,1.5,2.3,3,2.3h1.6c0.5,1.9,2.2,3.3,4.3,3.3
			s3.8-1.4,4.3-3.3h7.7c0.5,1.9,2.2,3.3,4.3,3.3c2.4,0,4.3-1.9,4.4-4.2c2.9-1.4,4.9-4.4,4.9-7.8V28c0-0.6-0.5-1.1-1.1-1.1h-3.6
			l-5.4-5.8c-0.2-0.2-0.5-0.3-0.8-0.3h-9.7c-2.6,0-5,1.3-6.4,3.4l-2.3,3.4c-2.7,1.1-4.8,3.5-5.2,6.5h-1.3
			C249,34,248.6,34.5,248.6,35.1z M257.7,38.4h4c-0.4,0.7-1.1,1.2-2,1.2C258.8,39.6,258.1,39.1,257.7,38.4z M276.6,36.3h-22.7
			c-0.5,0-0.9-0.4-0.9-0.9c0-3.5,2.8-6.3,6.3-6.3h23.9v0.7C283.1,33.3,280.2,36.3,276.6,36.3L276.6,36.3z M273.9,38.4h2.6
			c0.5,0,1,0,1.5-0.1c-0.4,0.8-1.2,1.4-2.1,1.4C275.1,39.6,274.3,39.1,273.9,38.4z M264.8,22.9h3.6v4h-9.2h-0.1l1.1-1.6
			C261.2,23.8,263,22.9,264.8,22.9z M274,22.9l3.7,4h-7.2v-4H274z"/>
	</g>
	<circle id="XMLID_189_" class="st0" cx="266.9" cy="38.1" r="28.1"/>
	<g id="XMLID_187_">
		<path id="XMLID_188_" class="st1" d="M324.6,35.1c0,0.6,0.5,1.1,1.1,1.1h1.2c0.3,1.3,1.5,2.3,3,2.3h1.6c0.5,1.9,2.2,3.3,4.3,3.3
			s3.8-1.4,4.3-3.3h7.7c0.5,1.9,2.2,3.3,4.3,3.3c2.4,0,4.3-1.9,4.4-4.2c2.9-1.4,4.9-4.4,4.9-7.8V28c0-0.6-0.5-1.1-1.1-1.1h-3.6
			l-5.4-5.8c-0.2-0.2-0.5-0.3-0.8-0.3h-9.7c-2.6,0-5,1.3-6.4,3.4l-2.3,3.4c-2.7,1.1-4.8,3.5-5.2,6.5h-1.3
			C325,34,324.6,34.5,324.6,35.1z M333.7,38.4h4c-0.4,0.7-1.1,1.2-2,1.2C334.8,39.6,334.1,39.1,333.7,38.4z M352.6,36.3h-22.7
			c-0.5,0-0.9-0.4-0.9-0.9c0-3.5,2.8-6.3,6.3-6.3h23.9v0.7C359.1,33.3,356.2,36.3,352.6,36.3L352.6,36.3z M349.9,38.4h2.6
			c0.5,0,1,0,1.5-0.1c-0.4,0.8-1.2,1.4-2.1,1.4C351.1,39.6,350.3,39.1,349.9,38.4z M340.8,22.9h3.6v4h-9.2h-0.1l1.1-1.6
			C337.2,23.8,339,22.9,340.8,22.9z M350,22.9l3.7,4h-7.2v-4H350z"/>
	</g>
	<circle id="XMLID_186_" class="st0" cx="342.9" cy="38.1" r="28.1"/>
	<g id="XMLID_182_">
		<g id="XMLID_184_">
			<path id="XMLID_185_" class="st1" d="M18.5,41.9c0,0.6,0.5,1.1,1.1,1.1h1.2c0.3,1.3,1.5,2.3,3,2.3h1.6c0.5,1.9,2.2,3.3,4.3,3.3
				s3.8-1.4,4.3-3.3h7.7c0.5,1.9,2.2,3.3,4.3,3.3c2.4,0,4.3-1.9,4.4-4.2c2.9-1.4,4.9-4.4,4.9-7.8v-1.8c0-0.6-0.5-1.1-1.1-1.1h-3.5
				l-5.4-5.8c-0.2-0.2-0.5-0.3-0.8-0.3h-9.7c-2.6,0-5,1.3-6.4,3.4l-2.3,3.4c-2.7,1.1-4.8,3.5-5.2,6.5h-1.3
				C19,40.9,18.5,41.3,18.5,41.9z M27.6,45.3h4c-0.4,0.7-1.1,1.2-2,1.2S28,46,27.6,45.3z M46.5,43.2H23.7c-0.5,0-0.9-0.4-0.9-0.9
				c0-3.5,2.8-6.3,6.3-6.3H53v0.7C53,40.2,50.1,43.2,46.5,43.2L46.5,43.2z M43.9,45.3h2.6c0.5,0,1,0,1.5-0.1
				c-0.4,0.8-1.2,1.4-2.1,1.4C45,46.5,44.2,46,43.9,45.3z M34.8,29.8h3.6v4h-9.2h-0.1l1.1-1.6C31.1,30.7,32.9,29.8,34.8,29.8z
				 M44,29.8l3.7,4h-7.2v-4H44z"/>
		</g>
		<circle id="XMLID_183_" class="st0" cx="36.8" cy="38.1" r="28.1"/>
	</g>
	<circle id="XMLID_181_" class="st0" cx="114.4" cy="190.6" r="28.1"/>
	<circle id="XMLID_180_" class="st0" cx="190.6" cy="190.6" r="28.1"/>
	<circle id="XMLID_179_" class="st0" cx="266.9" cy="190.6" r="28.1"/>
	<circle id="XMLID_178_" class="st0" cx="342.9" cy="190.6" r="28.1"/>
	<circle id="XMLID_177_" class="st0" cx="38.1" cy="190.6" r="28.1"/>
	<g id="XMLID_175_">
		<path id="XMLID_176_" class="st1" d="M20.1,195.4c0.4,0.5,1,0.7,1.7,0.7H22c0.4,1.6,1.9,2.7,3.5,2.7c1.7,0,3.1-1.2,3.5-2.7h16.2
			c0.4,1.6,1.9,2.7,3.5,2.7c1.7,0,3.1-1.2,3.5-2.7h3.1c0.4,0,0.8-0.3,0.9-0.6c0-0.1,1-3.2-0.5-5.7c-0.9-1.5-2.6-2.4-4.9-2.7
			c-1.1-0.1-2.2-0.5-3.1-0.9c-10.3-5.1-17.8-4.2-22.3-2.5l-2.2-0.3c-0.5-0.1-1,0.3-1.1,0.8c-0.1,0.4,0.1,0.7,0.4,0.9
			c-1.6,1-2.6,2.8-2.8,4.7l-0.4,4C19.5,194.3,19.7,194.9,20.1,195.4z M25.6,193.4c1,0,1.8,0.8,1.8,1.8s-0.8,1.8-1.8,1.8
			s-1.8-0.8-1.8-1.8S24.6,193.4,25.6,193.4z M48.8,193.4c1,0,1.8,0.8,1.8,1.8s-0.8,1.8-1.8,1.8s-1.8-0.8-1.8-1.8
			S47.9,193.4,48.8,193.4z M22,194.3h-0.2c-0.1,0-0.2-0.1-0.3-0.1c0,0-0.1-0.1-0.1-0.3l0.4-4c0.1-1.5,1-2.8,2.3-3.5
			c0.5-0.3,1.1-0.6,1.8-0.8c0.1,0,0.2-0.1,0.3-0.1c4.1-1.5,11.1-2.3,20.8,2.5c1.2,0.6,2.4,1,3.7,1.1c1.7,0.2,2.9,0.8,3.5,1.8
			c0.7,1.2,0.6,2.6,0.5,3.4h-2.4c-0.4-1.6-1.9-2.7-3.5-2.7s-3.1,1.2-3.5,2.7H29.1c-0.4-1.6-1.9-2.7-3.5-2.7
			C23.9,191.5,22.4,192.7,22,194.3L22,194.3z"/>
	</g>
	<g id="XMLID_173_">
		<path id="XMLID_174_" class="st1" d="M96.4,190.8c0.4,0.5,1,0.7,1.7,0.7h0.2c0.4,1.6,1.9,2.7,3.5,2.7c1.7,0,3.1-1.2,3.5-2.7h16.2
			c0.4,1.6,1.9,2.7,3.5,2.7c1.7,0,3.1-1.2,3.5-2.7h3.1c0.4,0,0.8-0.3,0.9-0.6c0-0.1,1-3.2-0.5-5.7c-0.9-1.5-2.6-2.4-4.9-2.7
			c-1.1-0.1-2.2-0.5-3.1-0.9c-10.3-5.1-17.8-4.2-22.3-2.5l-2.2-0.3c-0.5-0.1-1,0.3-1.1,0.8c-0.1,0.4,0.1,0.7,0.4,0.9
			c-1.6,1-2.6,2.8-2.8,4.7l-0.4,4C95.7,189.7,95.9,190.3,96.4,190.8z M101.8,188.8c1,0,1.8,0.8,1.8,1.8s-0.8,1.8-1.8,1.8
			s-1.8-0.8-1.8-1.8C100,189.6,100.8,188.8,101.8,188.8z M125.1,188.8c1,0,1.8,0.8,1.8,1.8s-0.8,1.8-1.8,1.8s-1.8-0.8-1.8-1.8
			C123.3,189.6,124.1,188.8,125.1,188.8z M98.3,189.6h-0.2c-0.1,0-0.2-0.1-0.3-0.1c0,0-0.1-0.1-0.1-0.3l0.4-4c0.1-1.5,1-2.8,2.3-3.5
			c0.5-0.3,1.1-0.6,1.8-0.8c0.1,0,0.2-0.1,0.3-0.1c4.1-1.5,11.1-2.3,20.8,2.5c1.2,0.6,2.4,1,3.7,1.1c1.7,0.2,2.9,0.8,3.5,1.8
			c0.7,1.2,0.6,2.6,0.5,3.4h-2.4c-0.4-1.6-1.9-2.7-3.5-2.7s-3.1,1.2-3.5,2.7h-16.2c-0.4-1.6-1.9-2.7-3.5-2.7
			C100.1,186.9,98.7,188.1,98.3,189.6L98.3,189.6z"/>
	</g>
	<g id="XMLID_171_">
		<path id="XMLID_172_" class="st1" d="M172.6,190.8c0.4,0.5,1,0.7,1.7,0.7h0.2c0.4,1.6,1.9,2.7,3.5,2.7s3.1-1.2,3.5-2.7h16.2
			c0.4,1.6,1.9,2.7,3.5,2.7c1.7,0,3.1-1.2,3.5-2.7h3.1c0.4,0,0.8-0.3,0.9-0.6c0-0.1,1-3.2-0.5-5.7c-0.9-1.5-2.6-2.4-4.9-2.7
			c-1.1-0.1-2.2-0.5-3.1-0.9c-10.3-5.1-17.8-4.2-22.3-2.5l-2.2-0.3c-0.5-0.1-1,0.3-1.1,0.8c-0.1,0.4,0.1,0.7,0.4,0.9
			c-1.6,1-2.6,2.8-2.8,4.7l-0.4,4C172,189.7,172.2,190.3,172.6,190.8z M178.1,188.8c1,0,1.8,0.8,1.8,1.8s-0.8,1.8-1.8,1.8
			s-1.8-0.8-1.8-1.8C176.3,189.6,177.1,188.8,178.1,188.8z M201.3,188.8c1,0,1.8,0.8,1.8,1.8s-0.8,1.8-1.8,1.8s-1.8-0.8-1.8-1.8
			C199.6,189.6,200.4,188.8,201.3,188.8z M174.5,189.6h-0.2c-0.1,0-0.2-0.1-0.3-0.1c0,0-0.1-0.1-0.1-0.3l0.4-4
			c0.1-1.5,1-2.8,2.3-3.5c0.5-0.3,1.1-0.6,1.8-0.8c0.1,0,0.2-0.1,0.3-0.1c4.1-1.5,11.1-2.3,20.8,2.5c1.2,0.6,2.4,1,3.7,1.1
			c1.7,0.2,2.9,0.8,3.5,1.8c0.7,1.2,0.6,2.6,0.5,3.4h-2.4c-0.4-1.6-1.9-2.7-3.5-2.7c-1.7,0-3.1,1.2-3.5,2.7h-16.2
			c-0.4-1.6-1.9-2.7-3.5-2.7C176.5,186.9,174.9,188.1,174.5,189.6L174.5,189.6z"/>
	</g>
	<g id="XMLID_169_">
		<path id="XMLID_170_" class="st1" d="M248.9,190.8c0.4,0.5,1,0.7,1.7,0.7h0.2c0.4,1.6,1.9,2.7,3.5,2.7s3.1-1.2,3.5-2.7H274
			c0.4,1.6,1.9,2.7,3.5,2.7c1.7,0,3.1-1.2,3.5-2.7h3.1c0.4,0,0.8-0.3,0.9-0.6c0-0.1,1-3.2-0.5-5.7c-0.9-1.5-2.6-2.4-4.9-2.7
			c-1.1-0.1-2.2-0.5-3.1-0.9c-10.3-5.1-17.8-4.2-22.3-2.5l-2.2-0.3c-0.5-0.1-1,0.3-1.1,0.8c-0.1,0.4,0.1,0.7,0.4,0.9
			c-1.6,1-2.6,2.8-2.8,4.7l-0.4,4C248.2,189.7,248.4,190.3,248.9,190.8z M254.3,188.8c1,0,1.8,0.8,1.8,1.8s-0.8,1.8-1.8,1.8
			s-1.8-0.8-1.8-1.8C252.5,189.6,253.3,188.8,254.3,188.8z M277.6,188.8c1,0,1.8,0.8,1.8,1.8s-0.8,1.8-1.8,1.8s-1.8-0.8-1.8-1.8
			C275.8,189.6,276.6,188.8,277.6,188.8z M250.8,189.6h-0.2c-0.1,0-0.2-0.1-0.3-0.1c0,0-0.1-0.1-0.1-0.3l0.4-4
			c0.1-1.5,1-2.8,2.3-3.5c0.5-0.3,1.1-0.6,1.8-0.8c0.1,0,0.2-0.1,0.3-0.1c4.1-1.5,11.1-2.3,20.8,2.5c1.2,0.6,2.4,1,3.7,1.1
			c1.7,0.2,2.9,0.8,3.5,1.8c0.7,1.2,0.6,2.6,0.5,3.4h-2.4c-0.4-1.6-1.9-2.7-3.5-2.7c-1.7,0-3.1,1.2-3.5,2.7h-16.2
			c-0.4-1.6-1.9-2.7-3.5-2.7C252.8,186.9,251.2,188.1,250.8,189.6L250.8,189.6z"/>
	</g>
	<g id="XMLID_167_">
		<path id="XMLID_168_" class="st1" d="M324.9,190.8c0.4,0.5,1,0.7,1.7,0.7h0.2c0.4,1.6,1.9,2.7,3.5,2.7c1.7,0,3.1-1.2,3.5-2.7H350
			c0.4,1.6,1.9,2.7,3.5,2.7s3.1-1.2,3.5-2.7h3.1c0.4,0,0.8-0.3,0.9-0.6c0-0.1,1-3.2-0.5-5.7c-0.9-1.5-2.6-2.4-4.9-2.7
			c-1.1-0.1-2.2-0.5-3.1-0.9c-10.3-5.1-17.8-4.2-22.3-2.5l-2.2-0.3c-0.5-0.1-1,0.3-1.1,0.8c-0.1,0.4,0.1,0.7,0.4,0.9
			c-1.6,1-2.6,2.8-2.8,4.7l-0.4,4C324.2,189.7,324.4,190.3,324.9,190.8z M330.3,188.8c1,0,1.8,0.8,1.8,1.8s-0.8,1.8-1.8,1.8
			s-1.8-0.8-1.8-1.8C328.5,189.6,329.3,188.8,330.3,188.8z M353.6,188.8c1,0,1.8,0.8,1.8,1.8s-0.8,1.8-1.8,1.8s-1.8-0.8-1.8-1.8
			C351.8,189.6,352.6,188.8,353.6,188.8z M326.8,189.6h-0.2c-0.1,0-0.2-0.1-0.3-0.1c0,0-0.1-0.1-0.1-0.3l0.4-4
			c0.1-1.5,1-2.8,2.3-3.5c0.5-0.3,1.1-0.6,1.8-0.8c0.1,0,0.2-0.1,0.3-0.1c4.1-1.5,11.1-2.3,20.8,2.5c1.2,0.6,2.4,1,3.7,1.1
			c1.7,0.2,2.9,0.8,3.5,1.8c0.7,1.2,0.6,2.6,0.5,3.4h-2.4c-0.4-1.6-1.9-2.7-3.5-2.7c-1.7,0-3.1,1.2-3.5,2.7h-16.2
			c-0.4-1.6-1.9-2.7-3.5-2.7C328.6,186.9,327.2,188.1,326.8,189.6L326.8,189.6z"/>
	</g>
	<circle id="XMLID_166_" class="st0" cx="114.4" cy="266.9" r="28.1"/>
	<circle id="XMLID_165_" class="st0" cx="190.6" cy="266.9" r="28.1"/>
	<circle id="XMLID_164_" class="st0" cx="266.9" cy="266.9" r="28.1"/>
	<circle id="XMLID_163_" class="st0" cx="342.9" cy="266.9" r="28.1"/>
	<circle id="XMLID_162_" class="st0" cx="38.1" cy="266.9" r="28.1"/>
	<g id="XMLID_160_">
		<path id="XMLID_161_" class="st1" d="M57.3,266.9l-1.1-0.7l-0.8-2.2c-0.1-0.4-0.5-0.7-0.9-0.7l-11.2-0.7l-3.3-2.3
			c-1.7-1.2-3.8-1.6-5.8-1.1l-2.4,0.6c-2.6,0.6-5.1,1.6-7.5,3h-0.1h-2.8l-0.9-0.9c-0.4-0.4-1.1-0.4-1.5,0s-0.4,1.1,0,1.5l1.2,1.2
			c0.2,0.2,0.5,0.3,0.7,0.3h0.2c-0.6,0.5-1.2,1-1.8,1.5c-0.2,0.2-0.3,0.5-0.3,0.8v0.9l-0.7,1.4c-0.1,0.1-0.1,0.3-0.1,0.5
			c0,1.3,1,2.3,2.3,2.3h3.8c0.5,1.7,2,2.9,3.8,2.9s3.4-1.2,3.8-2.9h12.8c0.5,1.7,2,2.9,3.8,2.9s3.4-1.2,3.8-2.9h2.6
			c1,0,2-0.7,2.2-1.7l0.5-1.6C58.1,267.9,57.8,267.2,57.3,266.9z M55.4,269.7c0,0.1-0.1,0.2-0.2,0.2h-2.6c-0.5-1.7-2-2.9-3.8-2.9
			s-3.4,1.2-3.8,2.9H32.2c-0.5-1.7-2-2.9-3.8-2.9s-3.4,1.2-3.8,2.9h-3.9c-0.1,0-0.2,0-0.2-0.1l0.6-1.3c0.1-0.1,0.1-0.3,0.1-0.5v-0.6
			c3.2-2.8,7-4.7,11.1-5.7l2.4-0.6c1.4-0.3,2.9,0,4.1,0.8l3.5,2.5c0.2,0.1,0.3,0.2,0.5,0.2l10.8,0.7l0.7,1.9
			c0.1,0.2,0.2,0.4,0.4,0.5l1,0.7L55.4,269.7z M50.7,270.9c0,1-0.9,1.9-1.9,1.9s-1.9-0.9-1.9-1.9s0.9-1.9,1.9-1.9
			S50.7,269.8,50.7,270.9z M30.2,270.9c0,1-0.9,1.9-1.9,1.9c-1,0-1.9-0.9-1.9-1.9s0.9-1.9,1.9-1.9S30.2,269.8,30.2,270.9z"/>
	</g>
	<g id="XMLID_158_">
		<path id="XMLID_159_" class="st1" d="M133.5,262.2l-1.1-0.7l-0.8-2.2c-0.1-0.4-0.5-0.7-0.9-0.7l-11.2-0.7l-3.3-2.3
			c-1.7-1.2-3.8-1.6-5.8-1.1l-2.4,0.6c-2.6,0.6-5.1,1.6-7.5,3h-0.1h-2.7l-0.9-0.9c-0.4-0.4-1.1-0.4-1.5,0c-0.4,0.4-0.4,1.1,0,1.5
			l1.2,1.2c0.2,0.2,0.5,0.3,0.7,0.3h0.2c-0.6,0.5-1.2,1-1.8,1.5c-0.2,0.2-0.3,0.5-0.3,0.8v0.9l-0.7,1.4c-0.1,0.1-0.1,0.3-0.1,0.5
			c0,1.3,1,2.3,2.3,2.3h3.8c0.5,1.7,2,2.9,3.8,2.9c1.8,0,3.4-1.2,3.8-2.9H121c0.5,1.7,2,2.9,3.8,2.9c1.8,0,3.4-1.2,3.8-2.9h2.6
			c1,0,2-0.7,2.2-1.7l0.5-1.6C134.3,263.3,134.1,262.6,133.5,262.2z M131.7,265c0,0.1-0.1,0.2-0.2,0.2h-2.6c-0.5-1.7-2-2.9-3.8-2.9
			c-1.8,0-3.4,1.2-3.8,2.9h-12.8c-0.5-1.7-2-2.9-3.8-2.9c-1.8,0-3.4,1.2-3.8,2.9h-3.8c-0.1,0-0.2,0-0.2-0.1l0.6-1.3
			c0.1-0.1,0.1-0.3,0.1-0.5v-0.6c3.2-2.8,7-4.7,11.1-5.7l2.4-0.6c1.4-0.3,2.9,0,4.1,0.8l3.5,2.5c0.2,0.1,0.3,0.2,0.5,0.2l10.8,0.7
			l0.7,1.9c0.1,0.2,0.2,0.4,0.4,0.5l1,0.7L131.7,265z M126.9,266.2c0,1-0.9,1.9-1.9,1.9s-1.9-0.9-1.9-1.9s0.9-1.9,1.9-1.9
			C126,264.3,126.9,265.2,126.9,266.2z M106.4,266.2c0,1-0.9,1.9-1.9,1.9s-1.9-0.9-1.9-1.9s0.9-1.9,1.9-1.9
			C105.6,264.3,106.4,265.2,106.4,266.2z"/>
	</g>
	<g id="XMLID_156_">
		<path id="XMLID_157_" class="st1" d="M209.5,262.2l-1.1-0.7l-0.8-2.2c-0.1-0.4-0.5-0.7-0.9-0.7l-11.2-0.7l-3.3-2.3
			c-1.7-1.2-3.8-1.6-5.8-1.1l-2.4,0.6c-2.6,0.6-5.1,1.6-7.5,3h-0.1h-2.8l-0.9-1.1c-0.4-0.4-1.1-0.4-1.5,0c-0.4,0.4-0.4,1.1,0,1.5
			l1.2,1.2c0.2,0.2,0.5,0.3,0.7,0.3h0.2c-0.6,0.5-1.2,1-1.8,1.5c-0.2,0.2-0.3,0.5-0.3,0.8v0.9l-0.7,1.4c-0.1,0.1-0.1,0.3-0.1,0.5
			c0,1.3,1,2.3,2.3,2.3h3.8c0.5,1.7,2,2.9,3.8,2.9s3.4-1.2,3.8-2.9h12.8c0.5,1.7,2,2.9,3.8,2.9s3.4-1.2,3.8-2.9h2.6
			c1,0,2-0.7,2.2-1.7l0.5-1.6C210.3,263.3,210,262.6,209.5,262.2z M207.6,265c0,0.1-0.1,0.2-0.2,0.2h-2.6c-0.5-1.7-2-2.9-3.8-2.9
			s-3.4,1.2-3.8,2.9h-12.8c-0.5-1.7-2-2.9-3.8-2.9c-1.8,0-3.4,1.2-3.8,2.9H173c-0.1,0-0.2,0-0.2-0.1l0.6-1.3
			c0.1-0.1,0.1-0.3,0.1-0.5v-0.6c3.2-2.8,7-4.7,11.1-5.7l2.4-0.6c1.4-0.3,2.9,0,4.1,0.8l3.5,2.5c0.2,0.1,0.3,0.2,0.5,0.2l10.8,0.7
			l0.7,1.9c0.1,0.2,0.2,0.4,0.4,0.5l1,0.7L207.6,265z M202.9,266.2c0,1-0.9,1.9-1.9,1.9s-1.9-0.9-1.9-1.9s0.9-1.9,1.9-1.9
			S202.9,265.2,202.9,266.2z M182.4,266.2c0,1-0.9,1.9-1.9,1.9s-1.9-0.9-1.9-1.9s0.9-1.9,1.9-1.9S182.4,265.2,182.4,266.2z"/>
	</g>
	<g id="XMLID_154_">
		<path id="XMLID_155_" class="st1" d="M286,262.2l-1.1-0.7l-0.8-2.2c-0.1-0.4-0.5-0.7-0.9-0.7l-11.2-0.7l-3.3-2.3
			c-1.7-1.2-3.8-1.6-5.8-1.1l-2.4,0.6c-2.6,0.6-5.1,1.6-7.5,3h-0.1h-2.8l-0.9-0.9c-0.4-0.4-1.1-0.4-1.5,0s-0.4,1.1,0,1.5l1.2,1.2
			c0.2,0.2,0.5,0.3,0.7,0.3h0.2c-0.6,0.5-1.2,1-1.8,1.5c-0.2,0.2-0.3,0.5-0.3,0.8v0.9l-0.7,1.4c-0.1,0.1-0.1,0.3-0.1,0.5
			c0,1.3,1,2.3,2.3,2.3h3.8c0.5,1.7,2,2.9,3.8,2.9c1.8,0,3.4-1.2,3.8-2.9h13.1c0.5,1.7,2,2.9,3.8,2.9s3.4-1.2,3.8-2.9h2.6
			c1,0,2-0.7,2.2-1.7l0.5-1.6C286.8,263.3,286.6,262.6,286,262.2z M284.2,265c0,0.1-0.1,0.2-0.2,0.2h-2.6c-0.5-1.7-2-2.9-3.8-2.9
			c-1.8,0-3.4,1.2-3.8,2.9H261c-0.5-1.7-2-2.9-3.8-2.9c-1.8,0-3.4,1.2-3.8,2.9h-3.8c-0.1,0-0.2,0-0.2-0.1l0.6-1.3
			c0.1-0.1,0.1-0.3,0.1-0.5v-0.6c3.2-2.8,7-4.7,11.1-5.7l2.4-0.6c1.4-0.3,2.9,0,4.1,0.8l3.5,2.5c0.2,0.1,0.3,0.2,0.5,0.2l10.8,0.7
			l0.7,1.9c0.1,0.2,0.2,0.4,0.4,0.5l1,0.7L284.2,265z M279.4,266.2c0,1-0.9,1.9-1.9,1.9s-1.9-0.9-1.9-1.9s0.9-1.9,1.9-1.9
			S279.4,265.2,279.4,266.2z M258.9,266.2c0,1-0.9,1.9-1.9,1.9s-1.9-0.9-1.9-1.9s0.9-1.9,1.9-1.9S258.9,265.2,258.9,266.2z"/>
	</g>
	<g id="XMLID_152_">
		<path id="XMLID_153_" class="st1" d="M362,262.2l-1.1-0.7l-0.8-2.2c-0.1-0.4-0.5-0.7-0.9-0.7l-11.2-0.7l-3.3-2.3
			c-1.7-1.2-3.8-1.6-5.8-1.1l-2.4,0.6c-2.6,0.6-5.1,1.6-7.5,3h-0.1h-2.8l-0.9-0.9c-0.4-0.4-1.1-0.4-1.5,0s-0.4,1.1,0,1.5l1.2,1.2
			c0.2,0.2,0.5,0.3,0.7,0.3h0.2c-0.6,0.5-1.2,1-1.8,1.5c-0.2,0.2-0.3,0.5-0.3,0.8v0.9l-0.7,1.4c-0.1,0.1-0.1,0.3-0.1,0.5
			c0,1.3,1,2.3,2.3,2.3h3.8c0.5,1.7,2,2.9,3.8,2.9c1.8,0,3.4-1.2,3.8-2.9h13.1c0.5,1.7,2,2.9,3.8,2.9s3.4-1.2,3.8-2.9h2.6
			c1,0,2-0.7,2.2-1.7l0.5-1.6C362.8,263.3,362.6,262.6,362,262.2z M360.2,265c0,0.1-0.1,0.2-0.2,0.2h-2.6c-0.5-1.7-2-2.9-3.8-2.9
			s-3.4,1.2-3.8,2.9H337c-0.5-1.7-2-2.9-3.8-2.9s-3.4,1.2-3.8,2.9h-3.8c-0.1,0-0.2,0-0.2-0.1l0.6-1.3c0.1-0.1,0.1-0.3,0.1-0.5v-0.6
			c3.2-2.8,7-4.7,11.1-5.7l2.4-0.6c1.4-0.3,2.9,0,4.1,0.8l3.5,2.5c0.2,0.1,0.3,0.2,0.5,0.2l10.8,0.7l0.7,1.9
			c0.1,0.2,0.2,0.4,0.4,0.5l1,0.7L360.2,265z M355.4,266.2c0,1-0.9,1.9-1.9,1.9s-1.9-0.9-1.9-1.9s0.9-1.9,1.9-1.9
			C354.6,264.3,355.4,265.2,355.4,266.2z M334.9,266.2c0,1-0.9,1.9-1.9,1.9s-1.9-0.9-1.9-1.9s0.9-1.9,1.9-1.9
			S334.9,265.2,334.9,266.2z"/>
	</g>
	<circle id="XMLID_151_" class="st0" cx="114.4" cy="343.1" r="28.1"/>
	<circle id="XMLID_150_" class="st0" cx="190.6" cy="343.1" r="28.1"/>
	<circle id="XMLID_149_" class="st0" cx="266.9" cy="343.1" r="28.1"/>
	<circle id="XMLID_148_" class="st0" cx="342.9" cy="343.1" r="28.1"/>
	<circle id="XMLID_147_" class="st0" cx="38.1" cy="343.1" r="28.1"/>
	<g id="XMLID_122_">
		<path id="XMLID_146_" class="st1" d="M54.9,118.8h-0.4v-1.4c0.3-0.1,0.6-0.4,0.6-0.8s-0.2-0.7-0.6-0.8c-0.2-2.5-2-4.5-4.5-4.9
			l-4.4-0.7l-1-1.3c-1.6-2.1-3.9-3.4-6.5-3.5l0,0h-4.4c-6,0-11.1,4.3-12.4,9.9c-0.5,0-0.8,0.4-0.8,0.9v0.4c0,0.2,0.1,0.4,0.2,0.6
			c-0.1,0.4-0.1,0.8-0.1,1.2v0.6c0,0.5,0.4,0.9,0.9,0.9h0.4l2.6,0.1c0.1,1.9,1.7,3.5,3.6,3.5s3.5-1.5,3.6-3.3l11.5,0.2l0,0l0,0h1.5
			c0.3,1.7,1.8,3.1,3.6,3.1s3.2-1.3,3.6-2.9l3.1,0.1l0,0c0.5,0,0.9-0.4,0.9-0.9C55.8,119.2,55.4,118.8,54.9,118.8z M50.1,119.8
			c0,1-0.8,1.9-1.9,1.9c-1,0-1.9-0.8-1.9-1.9c0-1,0.8-1.9,1.9-1.9S50.1,118.7,50.1,119.8z M26.2,120H27c0.1,0.5,0.5,0.9,1,0.9
			s0.9-0.4,1-0.8h0.8c-0.1,0.9-0.9,1.6-1.9,1.6C27.1,121.6,26.3,120.9,26.2,120z M33.7,107.1h4.4c2.1,0.1,4,1.1,5.2,2.8l1.2,1.6
			c0.1,0.2,0.3,0.3,0.6,0.3l4.7,0.8c1.7,0.3,2.9,1.6,3.1,3.3c-1.1-1.3-2.7-2.1-4.5-2.1c-2.8,0-5.3,2-5.8,4.7l-8.3-0.2V117
			c0-2.9-2.3-5.2-5.2-5.2h-1.7c-1.1,0-2.1,0.3-3,0.7C26.1,109.3,29.6,107.1,33.7,107.1z M22.4,118.1c0.1-2.5,2.3-4.5,4.8-4.5h1.7
			c1.9,0,3.5,1.6,3.5,3.5v1.1h-10C22.4,118.2,22.4,118.1,22.4,118.1z M48.2,116.1c-1.6,0-2.9,1-3.4,2.4h-0.6c0.5-1.8,2.1-3,4-3
			c2,0,3.6,1.3,4.1,3.2h-0.7C51.2,117.2,49.9,116.1,48.2,116.1z"/>
		<circle id="XMLID_145_" class="st1" cx="48.2" cy="119.8" r="1.1"/>
		<path id="XMLID_137_" class="st1" d="M35.5,112.9h7.1c0.3,0,0.6-0.2,0.8-0.5c0.1-0.3,0.1-0.6-0.1-0.9l-0.8-1l0,0
			c-1.1-1.4-2.7-2.3-4.5-2.4l0,0h-2.5c-0.5,0-0.9,0.4-0.9,0.9v3.1C34.6,112.5,35,112.9,35.5,112.9z M36.3,109.9h1.6
			c1.1,0.1,2.1,0.5,2.8,1.3h-4.4L36.3,109.9L36.3,109.9z"/>
	</g>
	<g id="XMLID_114_">
		<path id="XMLID_119_" class="st1" d="M131,111.9h-0.4v-1.4c0.3-0.1,0.6-0.4,0.6-0.8s-0.2-0.7-0.6-0.8c-0.2-2.5-2-4.5-4.5-4.9
			l-4.4-0.7l-1-1.3c-1.6-2.1-3.9-3.4-6.5-3.5l0,0h-4.5c-6,0-11.1,4.3-12.4,9.9c-0.5,0-0.8,0.4-0.8,0.9v0.4c0,0.2,0.1,0.4,0.2,0.6
			c-0.1,0.4-0.1,0.8-0.1,1.2v0.6c0,0.5,0.4,0.9,0.9,0.9h0.4l2.6,0.1c0.1,1.9,1.7,3.5,3.6,3.5s3.5-1.5,3.6-3.3l11.5,0.2l0,0l0,0h1.5
			c0.3,1.7,1.8,3.1,3.6,3.1c1.8,0,3.2-1.3,3.6-2.9l3.1,0.1l0,0c0.5,0,0.9-0.4,0.9-0.9C131.8,112.3,131.5,111.9,131,111.9z
			 M126.1,112.9c0,1-0.8,1.9-1.9,1.9c-1,0-1.9-0.8-1.9-1.9c0-1,0.8-1.9,1.9-1.9C125.3,111,126.1,111.9,126.1,112.9z M102.2,113.1
			h0.8c0.1,0.5,0.5,0.9,1,0.9s0.9-0.4,1-0.8h0.8c-0.1,0.9-0.9,1.6-1.9,1.6C103.1,114.8,102.3,114,102.2,113.1z M109.7,100.2h4.4
			c2.1,0.1,4,1.1,5.2,2.8l1.2,1.6c0.1,0.2,0.3,0.3,0.6,0.3l4.7,0.8c1.7,0.3,2.9,1.6,3.1,3.3c-1.1-1.3-2.7-2.1-4.5-2.1
			c-2.8,0-5.3,2-5.8,4.7l-8.3-0.2v-1.3c0-2.9-2.3-5.2-5.2-5.2h-1.7c-1.1,0-2.1,0.3-3,0.7C102.2,102.4,105.7,100.2,109.7,100.2z
			 M98.4,111.2c0.1-2.5,2.3-4.5,4.8-4.5h1.7c1.9,0,3.5,1.6,3.5,3.5v1.1L98.4,111.2L98.4,111.2z M124.3,109.3c-1.6,0-2.9,1-3.4,2.4
			h-0.6c0.5-1.8,2.1-3,4-3c2,0,3.6,1.3,4.1,3.2h-0.7C127.3,110.4,125.9,109.3,124.3,109.3z"/>
		<circle id="XMLID_118_" class="st1" cx="124.3" cy="112.9" r="1.1"/>
		<path id="XMLID_115_" class="st1" d="M111.5,106.1h7.1c0.3,0,0.6-0.2,0.8-0.5c0.1-0.3,0.1-0.6-0.1-0.9l-0.8-1l0,0
			c-1.1-1.4-2.7-2.3-4.5-2.4l0,0h-2.5c-0.5,0-0.9,0.4-0.9,0.9v3.1C110.6,105.7,111,106.1,111.5,106.1z M112.4,103h1.6
			c1.1,0.1,2.1,0.5,2.8,1.3h-4.4V103L112.4,103z"/>
	</g>
	<g id="XMLID_106_">
		<path id="XMLID_113_" class="st1" d="M208.5,111.9h-0.4v-1.4c0.3-0.1,0.6-0.4,0.6-0.8s-0.2-0.7-0.6-0.8c-0.2-2.5-2-4.5-4.5-4.9
			l-4.4-0.7l-1-1.3c-1.6-2.1-3.9-3.4-6.5-3.5l0,0h-4.4c-6,0-11.1,4.3-12.4,9.9c-0.5,0-0.8,0.4-0.8,0.9v0.4c0,0.2,0.1,0.4,0.2,0.6
			c-0.1,0.4-0.1,0.8-0.1,1.2v0.6c0,0.5,0.4,0.9,0.9,0.9h0.4l2.6,0.1c0.1,1.9,1.7,3.5,3.6,3.5s3.5-1.5,3.6-3.3l11.5,0.2l0,0l0,0h1.5
			c0.3,1.7,1.8,3.1,3.6,3.1c1.8,0,3.2-1.3,3.6-2.9l3.1,0.1l0,0c0.5,0,0.9-0.4,0.9-0.9C209.4,112.3,209,111.9,208.5,111.9z
			 M203.7,112.9c0,1-0.8,1.9-1.9,1.9c-1,0-1.9-0.8-1.9-1.9c0-1,0.8-1.9,1.9-1.9C202.9,111,203.7,111.9,203.7,112.9z M179.8,113.1
			h0.8c0.1,0.5,0.5,0.9,1,0.9s0.9-0.4,1-0.8h0.8c-0.1,0.9-0.9,1.6-1.9,1.6C180.7,114.8,179.9,114,179.8,113.1z M187.3,100.2h4.4
			c2.1,0.1,4,1.1,5.2,2.8l1.2,1.6c0.1,0.2,0.3,0.3,0.6,0.3l4.7,0.8c1.7,0.3,2.9,1.6,3.1,3.3c-1.1-1.3-2.7-2.1-4.5-2.1
			c-2.8,0-5.3,2-5.8,4.7l-8.3-0.2v-1.3c0-2.9-2.3-5.2-5.2-5.2H181c-1.1,0-2.1,0.3-3,0.7C179.7,102.4,183.2,100.2,187.3,100.2z
			 M176,111.2c0.1-2.5,2.3-4.5,4.8-4.5h1.7c1.9,0,3.5,1.6,3.5,3.5v1.1L176,111.2L176,111.2z M201.8,109.3c-1.6,0-2.9,1-3.4,2.4h-0.6
			c0.5-1.8,2.1-3,4-3c2,0,3.6,1.3,4.1,3.2h-0.7C204.8,110.4,203.5,109.3,201.8,109.3z"/>
		<circle id="XMLID_110_" class="st1" cx="201.8" cy="112.9" r="1.1"/>
		<path id="XMLID_109_" class="st1" d="M189.1,106.1h7.1c0.3,0,0.6-0.2,0.8-0.5c0.1-0.3,0.1-0.6-0.1-0.9l-0.8-1l0,0
			c-1.1-1.4-2.7-2.3-4.5-2.4l0,0h-2.5c-0.5,0-0.9,0.4-0.9,0.9v3.1C188.2,105.7,188.6,106.1,189.1,106.1z M189.9,103h1.6
			c1.1,0.1,2.1,0.5,2.8,1.3h-4.4V103z"/>
	</g>
	<g id="XMLID_102_">
		<path id="XMLID_105_" class="st1" d="M284.2,111.9h-0.4v-1.4c0.3-0.1,0.6-0.4,0.6-0.8s-0.2-0.7-0.6-0.8c-0.2-2.5-2-4.5-4.5-4.9
			l-4.4-0.7l-1-1.3c-1.6-2.1-3.9-3.4-6.5-3.5l0,0H263c-6,0-11.1,4.3-12.4,9.9c-0.5,0-0.8,0.4-0.8,0.9v0.4c0,0.2,0.1,0.4,0.2,0.6
			c-0.1,0.4-0.1,0.8-0.1,1.2v0.6c0,0.5,0.4,0.9,0.9,0.9h0.4l2.6,0.1c0.1,1.9,1.7,3.5,3.6,3.5c1.9,0,3.5-1.5,3.6-3.3l11.5,0.2l0,0
			l0,0h1.5c0.3,1.7,1.8,3.1,3.6,3.1c1.8,0,3.2-1.3,3.6-2.9l3.1,0.1l0,0c0.5,0,0.9-0.4,0.9-0.9C285.1,112.3,284.7,111.9,284.2,111.9z
			 M279.4,112.9c0,1-0.8,1.9-1.9,1.9c-1,0-1.9-0.8-1.9-1.9c0-1,0.8-1.9,1.9-1.9C278.5,111,279.4,111.9,279.4,112.9z M255.5,113.1
			h0.8c0.1,0.5,0.5,0.9,1,0.9s0.9-0.4,1-0.8h0.8c-0.1,0.9-0.9,1.6-1.9,1.6C256.4,114.8,255.6,114,255.5,113.1z M262.9,100.2h4.4
			c2.1,0.1,4,1.1,5.2,2.8l1.2,1.6c0.1,0.2,0.3,0.3,0.6,0.3l4.7,0.8c1.7,0.3,2.9,1.6,3.1,3.3c-1.1-1.3-2.7-2.1-4.5-2.1
			c-2.8,0-5.3,2-5.8,4.7l-8.3-0.2v-1.3c0-2.9-2.3-5.2-5.2-5.2h-1.7c-1.1,0-2.1,0.3-3,0.7C255.4,102.4,258.9,100.2,262.9,100.2z
			 M251.7,111.2c0.1-2.5,2.3-4.5,4.8-4.5h1.7c1.9,0,3.5,1.6,3.5,3.5v1.1L251.7,111.2L251.7,111.2z M277.5,109.3
			c-1.6,0-2.9,1-3.4,2.4h-0.6c0.5-1.8,2.1-3,4-3c2,0,3.6,1.3,4.1,3.2h-0.7C280.5,110.4,279.1,109.3,277.5,109.3z"/>
		<circle id="XMLID_104_" class="st1" cx="277.5" cy="112.9" r="1.1"/>
		<path id="XMLID_103_" class="st1" d="M264.7,106.1h7.1c0.3,0,0.6-0.2,0.8-0.5c0.1-0.3,0.1-0.6-0.1-0.9l-0.8-1l0,0
			c-1.1-1.4-2.7-2.3-4.5-2.4l0,0h-2.5c-0.5,0-0.9,0.4-0.9,0.9v3.1C263.9,105.7,264.3,106.1,264.7,106.1z M265.6,103h1.6
			c1.1,0.1,2.1,0.5,2.8,1.3h-4.4L265.6,103L265.6,103z"/>
	</g>
	<g id="XMLID_86_">
		<path id="XMLID_95_" class="st1" d="M359.7,111.9h-0.4v-1.4c0.3-0.1,0.6-0.4,0.6-0.8s-0.2-0.7-0.6-0.8c-0.2-2.5-2-4.5-4.5-4.9
			l-4.4-0.7l-1-1.3c-1.6-2.1-3.9-3.4-6.5-3.5l0,0h-4.4c-6,0-11.1,4.3-12.4,9.9c-0.5,0-0.8,0.4-0.8,0.9v0.4c0,0.2,0.1,0.4,0.2,0.6
			c-0.1,0.4-0.1,0.8-0.1,1.2v0.6c0,0.5,0.4,0.9,0.9,0.9h0.4l2.6,0.1c0.1,1.9,1.7,3.5,3.6,3.5s3.5-1.5,3.6-3.3l11.5,0.2l0,0l0,0h1.5
			c0.3,1.7,1.8,3.1,3.6,3.1c1.8,0,3.2-1.3,3.6-2.9l3.1,0.1l0,0c0.5,0,0.9-0.4,0.9-0.9C360.6,112.3,360.2,111.9,359.7,111.9z
			 M354.8,112.9c0,1-0.8,1.9-1.9,1.9c-1,0-1.9-0.8-1.9-1.9c0-1,0.8-1.9,1.9-1.9S354.8,111.9,354.8,112.9z M330.9,113.1h0.8
			c0.1,0.5,0.5,0.9,1,0.9s0.9-0.4,1-0.8h0.8c-0.1,0.9-0.9,1.6-1.9,1.6C331.8,114.8,331,114,330.9,113.1z M338.4,100.2h4.4
			c2.1,0.1,4,1.1,5.2,2.8l1.2,1.6c0.1,0.2,0.3,0.3,0.6,0.3l4.7,0.8c1.7,0.3,2.9,1.6,3.1,3.3c-1.1-1.3-2.7-2.1-4.5-2.1
			c-2.8,0-5.3,2-5.8,4.7l-8.3-0.2v-1.3c0-2.9-2.3-5.2-5.2-5.2h-1.7c-1.1,0-2.1,0.3-3,0.7C330.9,102.4,334.4,100.2,338.4,100.2z
			 M327.1,111.2c0.1-2.5,2.3-4.5,4.8-4.5h1.7c1.9,0,3.5,1.6,3.5,3.5v1.1L327.1,111.2L327.1,111.2z M353,109.3c-1.6,0-2.9,1-3.4,2.4
			H349c0.5-1.8,2.1-3,4-3c2,0,3.6,1.3,4.1,3.2h-0.7C356,110.4,354.6,109.3,353,109.3z"/>
		<circle id="XMLID_92_" class="st1" cx="353" cy="112.9" r="1.1"/>
		<path id="XMLID_91_" class="st1" d="M340.2,106.1h7.1c0.3,0,0.6-0.2,0.8-0.5c0.1-0.3,0.1-0.6-0.1-0.9l-0.8-1l0,0
			c-1.1-1.4-2.7-2.3-4.5-2.4l0,0h-2.5c-0.5,0-0.9,0.4-0.9,0.9v3.1C339.3,105.7,339.7,106.1,340.2,106.1z M341.1,103h1.6
			c1.1,0.1,2.1,0.5,2.8,1.3h-4.4L341.1,103L341.1,103z"/>
	</g>
	<g id="XMLID_69_">
		<path id="XMLID_70_" class="st1" d="M18.4,339.6v5.4c0,0.4,0.2,0.8,0.6,1l4,1.9c0.1,0,0.2,0.1,0.3,0.1c0.4,1.5,1.8,2.6,3.5,2.6
			c1.6,0,3-1.1,3.5-2.6H47c0.5,1.5,1.8,2.6,3.5,2.6c1.6,0,3-1.1,3.5-2.5h1.8l0,0c0.5,0,0.9-0.3,1-0.8l1.1-4.8
			c0.1-0.4-0.1-0.9-0.4-1.1c-3.1-2.2-10.7-2.2-12.5-2.2c-0.6-0.3-2-1.2-3.9-2.2c-0.7-0.4-1.4-0.7-2.1-0.8
			c-5.9-1.4-14.2,1.9-15.6,2.5h-1.7l-0.9-0.4c-0.5-0.2-1.1-0.2-1.6,0.1C18.7,338.5,18.4,339,18.4,339.6z M26.8,348.4
			c-0.8,0-1.5-0.7-1.5-1.5s0.7-1.5,1.5-1.5s1.5,0.7,1.5,1.5S27.6,348.4,26.8,348.4z M50.4,345.4c0.8,0,1.5,0.7,1.5,1.5
			s-0.7,1.5-1.5,1.5s-1.5-0.7-1.5-1.5S49.6,345.4,50.4,345.4z M55.6,342.6l-0.8,3.2h-1c-0.5-1.5-1.8-2.5-3.5-2.5
			c-1.6,0-3,1.1-3.5,2.5H30.1c-0.5-1.5-1.8-2.5-3.4-2.5s-2.9,1-3.4,2.4l-2.9-1.3v-4l0.5,0.2c0.1,0.1,0.3,0.1,0.5,0.1h2
			c0.1,0,0.3,0,0.4-0.1c0.1,0,8.8-3.7,14.5-2.4c0.5,0.1,1.1,0.3,1.6,0.6c0.2,0.1,0.4,0.2,0.6,0.3h-5.1c-0.6,0-1.1,0.5-1.1,1.1
			s0.5,1.1,1.1,1.1h9.2l0,0C46.9,341.1,52.9,341.3,55.6,342.6z"/>
	</g>
	<g id="XMLID_57_">
		<path id="XMLID_58_" class="st1" d="M94.6,334.9v5.4c0,0.4,0.2,0.8,0.6,1l4,1.9c0.1,0,0.2,0.1,0.3,0.1c0.4,1.5,1.8,2.6,3.5,2.6
			c1.6,0,3-1.1,3.5-2.6h16.7c0.5,1.5,1.8,2.6,3.5,2.6c1.6,0,3-1.1,3.5-2.5h1.8l0,0c0.5,0,0.9-0.3,1-0.8l1.1-4.8
			c0.1-0.4-0.1-0.9-0.4-1.1c-3.1-2.2-10.7-2.2-12.5-2.2c-0.6-0.3-2-1.2-3.9-2.2c-0.7-0.4-1.4-0.7-2.1-0.8
			c-5.9-1.4-14.2,1.9-15.6,2.5H98l-0.9-0.4c-0.5-0.2-1.1-0.2-1.6,0.1C94.9,333.8,94.6,334.4,94.6,334.9z M103,343.7
			c-0.8,0-1.5-0.7-1.5-1.5s0.7-1.5,1.5-1.5s1.5,0.7,1.5,1.5S103.8,343.7,103,343.7z M126.6,340.8c0.8,0,1.5,0.7,1.5,1.5
			s-0.7,1.5-1.5,1.5s-1.5-0.7-1.5-1.5C125.1,341.5,125.8,340.8,126.6,340.8z M131.8,338l-0.8,3.2h-1c-0.5-1.5-1.8-2.5-3.5-2.5
			c-1.6,0-3,1.1-3.5,2.5h-16.7c-0.5-1.5-1.8-2.5-3.4-2.5s-2.9,1-3.4,2.4l-2.9-1.3v-4l0.5,0.2c0.1,0.1,0.3,0.1,0.5,0.1h2
			c0.1,0,0.3,0,0.4-0.1c0.1,0,8.8-3.7,14.5-2.4c0.5,0.1,1.1,0.3,1.6,0.6c0.2,0.1,0.4,0.2,0.6,0.3h-5.1c-0.6,0-1.1,0.5-1.1,1.1
			s0.5,1.1,1.1,1.1h9.2l0,0C123.1,336.5,129,336.7,131.8,338z"/>
	</g>
	<g id="XMLID_48_">
		<path id="XMLID_56_" class="st1" d="M170.6,334.9v5.4c0,0.4,0.2,0.8,0.6,1l4,1.9c0.1,0,0.2,0.1,0.3,0.1c0.4,1.5,1.8,2.6,3.5,2.6
			c1.6,0,3-1.1,3.5-2.6h16.7c0.5,1.5,1.8,2.6,3.5,2.6c1.6,0,3-1.1,3.5-2.5h1.8l0,0c0.5,0,0.9-0.3,1-0.8l1.1-4.8
			c0.1-0.4-0.1-0.9-0.4-1.1c-3.1-2.2-10.7-2.2-12.5-2.2c-0.6-0.3-2-1.2-3.9-2.2c-0.7-0.4-1.4-0.7-2.1-0.8
			c-5.9-1.4-14.2,1.9-15.6,2.5H174l-0.9-0.4c-0.5-0.2-1.1-0.2-1.6,0.1C170.9,333.8,170.6,334.4,170.6,334.9z M179,343.7
			c-0.8,0-1.5-0.7-1.5-1.5s0.7-1.5,1.5-1.5s1.5,0.7,1.5,1.5S179.8,343.7,179,343.7z M202.6,340.8c0.8,0,1.5,0.7,1.5,1.5
			s-0.7,1.5-1.5,1.5c-0.8,0-1.5-0.7-1.5-1.5C201.1,341.5,201.8,340.8,202.6,340.8z M207.8,338l-0.8,3.2h-1c-0.5-1.5-1.8-2.5-3.5-2.5
			c-1.6,0-3,1.1-3.5,2.5h-16.7c-0.5-1.5-1.8-2.5-3.4-2.5c-1.6,0-2.9,1-3.4,2.4l-2.9-1.3v-4l0.5,0.2c0.1,0.1,0.3,0.1,0.5,0.1h2
			c0.1,0,0.3,0,0.4-0.1c0.1,0,8.8-3.7,14.5-2.4c0.5,0.1,1.1,0.3,1.6,0.6c0.2,0.1,0.4,0.2,0.6,0.3h-5.1c-0.6,0-1.1,0.5-1.1,1.1
			s0.5,1.1,1.1,1.1h9.2l0,0C199.1,336.5,205,336.7,207.8,338z"/>
	</g>
	<g id="XMLID_32_">
		<path id="XMLID_39_" class="st1" d="M247.2,334.9v5.4c0,0.4,0.2,0.8,0.6,1l4,1.9c0.1,0,0.2,0.1,0.3,0.1c0.4,1.5,1.8,2.6,3.5,2.6
			c1.6,0,3-1.1,3.5-2.6h16.7c0.5,1.5,1.8,2.6,3.5,2.6c1.6,0,3-1.1,3.5-2.5h1.8l0,0c0.5,0,0.9-0.3,1-0.8l1.1-4.8
			c0.1-0.4-0.1-0.9-0.4-1.1c-3.1-2.2-10.7-2.2-12.5-2.2c-0.6-0.3-2-1.2-3.9-2.2c-0.7-0.4-1.4-0.7-2.1-0.8
			c-5.9-1.4-14.2,1.9-15.6,2.5h-1.6l-0.9-0.4c-0.5-0.2-1.1-0.2-1.6,0.1C247.4,333.8,247.2,334.4,247.2,334.9z M255.5,343.7
			c-0.8,0-1.5-0.7-1.5-1.5s0.7-1.5,1.5-1.5c0.8,0,1.5,0.7,1.5,1.5S256.4,343.7,255.5,343.7z M279.2,340.8c0.8,0,1.5,0.7,1.5,1.5
			s-0.7,1.5-1.5,1.5c-0.8,0-1.5-0.7-1.5-1.5C277.7,341.5,278.3,340.8,279.2,340.8z M284.4,338l-0.8,3.2h-1c-0.5-1.5-1.8-2.5-3.5-2.5
			c-1.6,0-3,1.1-3.5,2.5h-16.7c-0.5-1.5-1.8-2.5-3.4-2.5c-1.6,0-2.9,1-3.4,2.4l-2.9-1.3v-4l0.5,0.2c0.1,0.1,0.3,0.1,0.5,0.1h2
			c0.1,0,0.3,0,0.4-0.1c0.1,0,8.8-3.7,14.5-2.4c0.5,0.1,1.1,0.3,1.6,0.6c0.2,0.1,0.4,0.2,0.6,0.3h-5.1c-0.6,0-1.1,0.5-1.1,1.1
			s0.5,1.1,1.1,1.1h9.2l0,0C275.7,336.5,281.6,336.7,284.4,338z"/>
	</g>
	<g id="XMLID_30_">
		<path id="XMLID_31_" class="st1" d="M323.2,334.9v5.4c0,0.4,0.2,0.8,0.6,1l4,1.9c0.1,0,0.2,0.1,0.3,0.1c0.4,1.5,1.8,2.6,3.5,2.6
			c1.6,0,3-1.1,3.5-2.6h16.7c0.5,1.5,1.8,2.6,3.5,2.6c1.6,0,3-1.1,3.5-2.5h1.8l0,0c0.5,0,0.9-0.3,1-0.8l1.1-4.8
			c0.1-0.4-0.1-0.9-0.4-1.1c-3.1-2.2-10.7-2.2-12.5-2.2c-0.6-0.3-2-1.2-3.9-2.2c-0.7-0.4-1.4-0.7-2.1-0.8
			c-5.9-1.4-14.2,1.9-15.6,2.5h-1.6l-0.9-0.4c-0.5-0.2-1.1-0.2-1.6,0.1C323.4,333.8,323.2,334.4,323.2,334.9z M331.5,343.7
			c-0.8,0-1.5-0.7-1.5-1.5s0.7-1.5,1.5-1.5s1.5,0.7,1.5,1.5S332.4,343.7,331.5,343.7z M355.2,340.8c0.8,0,1.5,0.7,1.5,1.5
			s-0.7,1.5-1.5,1.5s-1.5-0.7-1.5-1.5C353.7,341.5,354.3,340.8,355.2,340.8z M360.3,338l-0.8,3.2h-1c-0.5-1.5-1.8-2.5-3.5-2.5
			c-1.6,0-3,1.1-3.5,2.5h-16.7c-0.5-1.5-1.8-2.5-3.4-2.5c-1.6,0-2.9,1-3.4,2.4l-2.9-1.3v-4l0.5,0.2c0.1,0.1,0.3,0.1,0.5,0.1h2
			c0.1,0,0.3,0,0.4-0.1c0.1,0,8.8-3.7,14.5-2.4c0.5,0.1,1.1,0.3,1.6,0.6c0.2,0.1,0.4,0.2,0.6,0.3h-5.1c-0.6,0-1.1,0.5-1.1,1.1
			s0.5,1.1,1.1,1.1h9.2l0,0C351.6,336.5,357.6,336.7,360.3,338z"/>
	</g>
	<circle id="XMLID_29_" class="st0" cx="114.4" cy="419.4" r="28.1"/>
	<circle id="XMLID_28_" class="st0" cx="190.6" cy="419.4" r="28.1"/>
	<circle id="XMLID_23_" class="st0" cx="266.9" cy="419.4" r="28.1"/>
	<circle id="XMLID_22_" class="st0" cx="342.9" cy="419.4" r="28.1"/>
	<circle id="XMLID_21_" class="st0" cx="38.1" cy="419.4" r="28.1"/>
	<g id="XMLID_19_">
		<path id="XMLID_20_" class="st1" d="M58.5,420.2l-0.5-2.3c-0.1-0.4-0.4-0.7-0.8-0.7l-4.9-0.6c-1.5-1.1-3.9-2.8-4.1-3
			c-0.6-0.5-1.4-0.8-2.1-0.8H30.7c-1.1,0-2.2,0.2-3.3,0.6c-0.8,0.3-1.6,0.7-2.3,1.2l-2.8,1.9c-0.1,0-0.1,0.1-0.2,0.1h-1.3
			c-1.1,0-2.1,0.7-2.4,1.7l-0.6,1.8c-0.2,0.6-0.2,1.3,0,1.9c0.5,1.2,1.6,1.9,2.8,1.9H22c0.4,1.2,1.6,2.1,3,2.1s2.5-0.9,3-2.1h20.5
			c0.4,1.2,1.6,2.1,3,2.1s2.5-0.9,3-2.1h1.1c1.3,0,2.4-0.8,2.9-2C58.6,421.3,58.6,420.8,58.5,420.2z M56.6,421.2
			c-0.1,0.4-0.6,0.7-1,0.7h-1.1c-0.4-1.2-1.6-2.1-3-2.1s-2.5,0.9-3,2.1H28c-0.4-1.2-1.6-2.1-3-2.1s-2.5,0.9-3,2.1h-1.3
			c-0.4,0-0.8-0.3-1-0.7c-0.1-0.2-0.1-0.4,0-0.6l0.6-1.8c0.1-0.3,0.3-0.4,0.6-0.4h30.8l4.4,0.6l0.4,1.7
			C56.6,420.8,56.6,421,56.6,421.2z M52.7,422.9c0,0.6-0.5,1.2-1.2,1.2c-0.6,0-1.2-0.5-1.2-1.2c0-0.6,0.5-1.2,1.2-1.2
			S52.7,422.2,52.7,422.9z M26.3,422.9c0,0.6-0.5,1.2-1.2,1.2c-0.6,0-1.2-0.5-1.2-1.2c0-0.6,0.5-1.2,1.2-1.2
			C25.7,421.7,26.3,422.2,26.3,422.9z M35.7,414.7v1.8h-4v-1.8H35.7z M41.7,414.7v1.8h-4v-1.8H41.7z M43.6,416.5v-1.8H46
			c0.3,0,0.6,0.1,0.9,0.3c0.1,0.1,1,0.8,2,1.5H43.6L43.6,416.5z M29.8,414.8v1.7h-4.1l0.6-0.4c0.6-0.4,1.2-0.7,1.8-0.9
			C28.6,414.9,29.2,414.8,29.8,414.8z"/>
	</g>
	<g id="XMLID_17_">
		<path id="XMLID_18_" class="st1" d="M134.7,416.4l-0.5-2.3c-0.1-0.4-0.4-0.7-0.8-0.7l-4.9-0.6c-1.5-1.1-3.9-2.8-4.1-3
			c-0.6-0.5-1.4-0.8-2.1-0.8H107c-1.1,0-2.2,0.2-3.3,0.6c-0.8,0.3-1.6,0.7-2.3,1.2l-2.8,1.9c-0.1,0-0.1,0.1-0.2,0.1h-1.3
			c-1.1,0-2.1,0.7-2.4,1.7l-0.6,1.8c-0.2,0.6-0.2,1.3,0,1.9c0.5,1.2,1.6,1.9,2.8,1.9h1.4c0.4,1.2,1.6,2.1,3,2.1c1.4,0,2.5-0.9,3-2.1
			h20.5c0.4,1.2,1.6,2.1,3,2.1c1.4,0,2.5-0.9,3-2.1h1.1c1.3,0,2.4-0.8,2.9-2C134.8,417.5,134.8,417,134.7,416.4z M132.8,417.4
			c-0.1,0.4-0.6,0.7-1,0.7h-1.1c-0.4-1.2-1.6-2.1-3-2.1c-1.4,0-2.5,0.9-3,2.1h-20.5c-0.4-1.2-1.6-2.1-3-2.1c-1.4,0-2.5,0.9-3,2.1
			h-1.4c-0.4,0-0.8-0.3-1-0.7c-0.1-0.2-0.1-0.4,0-0.6l0.6-1.8c0.1-0.3,0.3-0.4,0.6-0.4h30.8l4.4,0.6l0.4,1.7
			C132.9,417,132.9,417.2,132.8,417.4z M128.9,419.1c0,0.6-0.5,1.2-1.2,1.2c-0.6,0-1.2-0.5-1.2-1.2c0-0.6,0.5-1.2,1.2-1.2
			S128.9,418.4,128.9,419.1z M102.5,419.1c0,0.6-0.5,1.2-1.2,1.2c-0.6,0-1.2-0.5-1.2-1.2c0-0.6,0.5-1.2,1.2-1.2
			C102,417.9,102.5,418.4,102.5,419.1z M112,410.9v1.8h-4v-1.8H112z M117.9,410.9v1.8h-4v-1.8H117.9z M119.9,412.7v-1.8h2.4
			c0.3,0,0.6,0.1,0.9,0.3c0.1,0.1,1,0.8,2,1.5H119.9L119.9,412.7z M106,411v1.7h-4.1l0.6-0.4c0.6-0.4,1.2-0.7,1.8-0.9
			C104.9,411.2,105.4,411,106,411z"/>
	</g>
	<g id="XMLID_10_">
		<path id="XMLID_12_" class="st1" d="M211,416.4l-0.5-2.3c-0.1-0.4-0.4-0.7-0.8-0.7l-4.9-0.6c-1.5-1.1-3.9-2.8-4.1-3
			c-0.6-0.5-1.4-0.8-2.1-0.8h-15.3c-1.1,0-2.2,0.2-3.3,0.6c-0.8,0.3-1.6,0.7-2.3,1.2l-2.8,1.9c-0.1,0-0.1,0.1-0.2,0.1h-1.3
			c-1.1,0-2.1,0.7-2.4,1.7l-0.6,1.8c-0.2,0.6-0.2,1.3,0,1.9c0.5,1.2,1.6,1.9,2.8,1.9h1.4c0.4,1.2,1.6,2.1,3,2.1c1.4,0,2.5-0.9,3-2.1
			h20.5c0.4,1.2,1.6,2.1,3,2.1c1.4,0,2.5-0.9,3-2.1h1.1c1.3,0,2.4-0.8,2.9-2C211.1,417.5,211.1,417,211,416.4z M209.1,417.4
			c-0.1,0.4-0.6,0.7-1,0.7H207c-0.4-1.2-1.6-2.1-3-2.1s-2.5,0.9-3,2.1h-20.5c-0.4-1.2-1.6-2.1-3-2.1s-2.5,0.9-3,2.1h-1.4
			c-0.4,0-0.8-0.3-1-0.7c-0.1-0.2-0.1-0.4,0-0.6l0.6-1.8c0.1-0.3,0.3-0.4,0.6-0.4h30.8l4.4,0.6l0.4,1.7
			C209.1,417,209.1,417.2,209.1,417.4z M205.2,419.1c0,0.6-0.5,1.2-1.2,1.2c-0.6,0-1.2-0.5-1.2-1.2c0-0.6,0.5-1.2,1.2-1.2
			S205.2,418.4,205.2,419.1z M178.8,419.1c0,0.6-0.5,1.2-1.2,1.2c-0.6,0-1.2-0.5-1.2-1.2c0-0.6,0.5-1.2,1.2-1.2
			C178.2,417.9,178.8,418.4,178.8,419.1z M188.2,410.9v1.8h-4v-1.8H188.2z M194.2,410.9v1.8h-4v-1.8H194.2z M196.1,412.7v-1.8h2.4
			c0.3,0,0.6,0.1,0.9,0.3c0.1,0.1,1,0.8,2,1.5H196.1L196.1,412.7z M182.3,411v1.7h-4.1l0.6-0.4c0.6-0.4,1.2-0.7,1.8-0.9
			C181.1,411.2,181.7,411,182.3,411z"/>
	</g>
	<g id="XMLID_4_">
		<path id="XMLID_9_" class="st1" d="M287.2,416.4l-0.5-2.3c-0.1-0.4-0.4-0.7-0.8-0.7l-4.9-0.6c-1.5-1.1-3.9-2.8-4.1-3
			c-0.6-0.5-1.4-0.8-2.1-0.8h-15.3c-1.1,0-2.2,0.2-3.3,0.6c-0.8,0.3-1.6,0.7-2.3,1.2l-2.8,1.9c-0.1,0-0.1,0.1-0.2,0.1h-1.2
			c-1.1,0-2.1,0.7-2.4,1.7l-0.6,1.8c-0.2,0.6-0.2,1.3,0,1.9c0.5,1.2,1.6,1.9,2.8,1.9h1.4c0.4,1.2,1.6,2.1,3,2.1s2.5-0.9,3-2.1h20.5
			c0.4,1.2,1.6,2.1,3,2.1s2.5-0.9,3-2.1h1.1c1.3,0,2.4-0.8,2.9-2C287.2,417.5,287.3,417,287.2,416.4z M285.2,417.4
			c-0.1,0.4-0.6,0.7-1,0.7h-1.1c-0.4-1.2-1.6-2.1-3-2.1c-1.4,0-2.5,0.9-3,2.1h-20.4c-0.4-1.2-1.6-2.1-3-2.1s-2.5,0.9-3,2.1h-1.4
			c-0.4,0-0.8-0.3-1-0.7c-0.1-0.2-0.1-0.4,0-0.6l0.6-1.8c0.1-0.3,0.3-0.4,0.6-0.4h30.8l4.4,0.6l0.4,1.7
			C285.3,417,285.3,417.2,285.2,417.4z M281.4,419.1c0,0.6-0.5,1.2-1.2,1.2c-0.6,0-1.2-0.5-1.2-1.2c0-0.6,0.5-1.2,1.2-1.2
			C280.8,417.9,281.4,418.4,281.4,419.1z M254.9,419.1c0,0.6-0.5,1.2-1.2,1.2c-0.6,0-1.2-0.5-1.2-1.2c0-0.6,0.5-1.2,1.2-1.2
			S254.9,418.4,254.9,419.1z M264.4,410.9v1.8h-4v-1.8H264.4z M270.4,410.9v1.8h-4v-1.8H270.4z M272.3,412.7v-1.8h2.4
			c0.3,0,0.6,0.1,0.9,0.3c0.1,0.1,1,0.8,2,1.5H272.3L272.3,412.7z M258.4,411v1.7h-4.1l0.6-0.4c0.6-0.4,1.2-0.7,1.8-0.9
			C257.3,411.2,257.9,411,258.4,411z"/>
	</g>
	<g id="XMLID_2_">
		<path id="XMLID_3_" class="st1" d="M363.2,416.4l-0.5-2.3c-0.1-0.4-0.4-0.7-0.8-0.7l-4.9-0.6c-1.5-1.1-3.9-2.8-4.1-3
			c-0.6-0.5-1.4-0.8-2.1-0.8h-15.3c-1.1,0-2.2,0.2-3.3,0.6c-0.8,0.3-1.6,0.7-2.3,1.2l-2.8,1.9c-0.1,0-0.1,0.1-0.2,0.1h-1.3
			c-1.1,0-2.1,0.7-2.4,1.7l-0.6,1.8c-0.2,0.6-0.2,1.3,0,1.9c0.5,1.2,1.6,1.9,2.8,1.9h1.4c0.4,1.2,1.6,2.1,3,2.1s2.5-0.9,3-2.1h20.5
			c0.4,1.2,1.6,2.1,3,2.1s2.5-0.9,3-2.1h1.1c1.3,0,2.4-0.8,2.9-2C363.3,417.5,363.4,417,363.2,416.4z M361.3,417.4
			c-0.1,0.4-0.6,0.7-1,0.7h-1.1c-0.4-1.2-1.6-2.1-3-2.1s-2.5,0.9-3,2.1h-20.5c-0.4-1.2-1.6-2.1-3-2.1s-2.5,0.9-3,2.1h-1.4
			c-0.4,0-0.8-0.3-1-0.7c-0.1-0.2-0.1-0.4,0-0.6l0.6-1.8c0.1-0.3,0.3-0.4,0.6-0.4h30.8l4.4,0.6l0.4,1.7
			C361.4,417,361.4,417.2,361.3,417.4z M357.5,419.1c0,0.6-0.5,1.2-1.2,1.2c-0.6,0-1.2-0.5-1.2-1.2c0-0.6,0.5-1.2,1.2-1.2
			C356.9,417.9,357.5,418.4,357.5,419.1z M331,419.1c0,0.6-0.5,1.2-1.2,1.2c-0.6,0-1.2-0.5-1.2-1.2c0-0.6,0.5-1.2,1.2-1.2
			C330.5,417.9,331,418.4,331,419.1z M340.5,410.9v1.8h-4v-1.8H340.5z M346.5,410.9v1.8h-4v-1.8H346.5z M348.4,412.7v-1.8h2.4
			c0.3,0,0.6,0.1,0.9,0.3c0.1,0.1,1,0.8,2,1.5H348.4L348.4,412.7z M334.5,411v1.7h-4.1l0.6-0.4c0.6-0.4,1.2-0.7,1.8-0.9
			C333.4,411.2,334,411,334.5,411z"/>
	</g>
	<g>
		<g>
			<path class="st1" d="M111.8,56.7c-0.2,0-0.4-0.1-0.6-0.2c-0.3-0.2-0.5-0.6-0.4-1l0.4-2.4l-1.7-1.7c-0.3-0.3-0.4-0.7-0.3-1
				c0.1-0.4,0.4-0.6,0.8-0.7l2.4-0.4l1.1-2.2c0.2-0.3,0.5-0.6,0.9-0.6l0,0c0.4,0,0.7,0.2,0.9,0.6l1.1,2.2l2.4,0.3
				c0.4,0.1,0.7,0.3,0.8,0.7s0,0.8-0.3,1l-1.7,1.7l0.4,2.4c0.1,0.4-0.1,0.8-0.4,1s-0.7,0.3-1.1,0.1l-2.1-1.1l-2.1,1.1
				C112.2,56.7,112,56.7,111.8,56.7z M112.4,51.5l0.5,0.5c0.3,0.3,0.4,0.7,0.4,1.1l-0.1,0.8l0.7-0.4c0.4-0.2,0.8-0.2,1.2,0l0.7,0.3
				l-0.1-0.7c-0.1-0.4,0.1-0.8,0.4-1.1l0.5-0.5l-0.8-0.1c-0.4-0.1-0.8-0.3-1-0.7l-0.3-0.7l-0.3,0.7c-0.2,0.4-0.5,0.6-1,0.7
				L112.4,51.5z"/>
		</g>
		<g>
			<path class="st1" d="M181.3,56.7c-0.2,0-0.4-0.1-0.6-0.2c-0.3-0.2-0.5-0.6-0.4-1l0.4-2.4l-1.7-1.7c-0.3-0.3-0.4-0.7-0.3-1
				c0.1-0.4,0.4-0.6,0.8-0.7l2.4-0.4l1.1-2.2c0.2-0.3,0.5-0.6,0.9-0.6l0,0c0.4,0,0.7,0.2,0.9,0.6l1.1,2.2l2.4,0.3
				c0.4,0.1,0.7,0.3,0.8,0.7s0,0.8-0.3,1l-1.7,1.7l0.4,2.4c0.1,0.4-0.1,0.8-0.4,1c-0.3,0.2-0.7,0.3-1.1,0.1l-2.1-1.1l-2.1,1.1
				C181.7,56.7,181.5,56.7,181.3,56.7z M181.9,51.5l0.5,0.5c0.3,0.3,0.4,0.7,0.4,1.1l-0.1,0.8l0.7-0.4c0.4-0.2,0.8-0.2,1.2,0
				l0.7,0.3l-0.1-0.7c-0.1-0.4,0.1-0.8,0.4-1.1l0.5-0.5l-0.8-0.1c-0.4-0.1-0.8-0.3-1-0.7L184,50l-0.3,0.7c-0.2,0.4-0.5,0.6-1,0.7
				L181.9,51.5z"/>
		</g>
		<g>
			<path class="st1" d="M194.8,56.7c-0.2,0-0.4-0.1-0.6-0.2c-0.3-0.2-0.5-0.6-0.4-1l0.4-2.4l-1.7-1.7c-0.3-0.3-0.4-0.7-0.3-1
				c0.1-0.4,0.4-0.6,0.8-0.7l2.4-0.4l1.1-2.2c0.2-0.3,0.5-0.6,0.9-0.6l0,0c0.4,0,0.7,0.2,0.9,0.6l1.1,2.2l2.4,0.3
				c0.4,0.1,0.7,0.3,0.8,0.7s0,0.8-0.3,1l-1.7,1.7l0.4,2.4c0.1,0.4-0.1,0.8-0.4,1s-0.7,0.3-1.1,0.1l-2.1-1.1l-2.1,1.1
				C195.1,56.7,195,56.7,194.8,56.7z M195.3,51.5l0.5,0.5c0.3,0.3,0.4,0.7,0.4,1.1l-0.1,0.8l0.7-0.4c0.4-0.2,0.8-0.2,1.2,0l0.7,0.3
				l-0.1-0.7c-0.1-0.4,0.1-0.8,0.4-1.1l0.5-0.5l-0.8-0.1c-0.4-0.1-0.8-0.3-1-0.7l-0.3-0.7l-0.3,0.7c-0.2,0.4-0.5,0.6-1,0.7
				L195.3,51.5z"/>
		</g>
		<g>
			<path class="st1" d="M252.9,56.7c-0.2,0-0.4-0.1-0.6-0.2c-0.3-0.2-0.5-0.6-0.4-1l0.4-2.4l-1.7-1.7c-0.3-0.3-0.4-0.7-0.3-1
				c0.1-0.4,0.4-0.6,0.8-0.7l2.4-0.4l1.1-2.2c0.2-0.3,0.5-0.6,0.9-0.6l0,0c0.4,0,0.7,0.2,0.9,0.6l1.1,2.2l2.4,0.3
				c0.4,0.1,0.7,0.3,0.8,0.7s0,0.8-0.3,1l-1.7,1.7l0.4,2.4c0.1,0.4-0.1,0.8-0.4,1c-0.3,0.2-0.7,0.3-1.1,0.1l-2.1-1.1l-2.1,1.1
				C253.2,56.7,253.1,56.7,252.9,56.7z M253.4,51.5l0.5,0.5c0.3,0.3,0.4,0.7,0.4,1.1l-0.1,0.8l0.7-0.4c0.4-0.2,0.8-0.2,1.2,0
				l0.7,0.3l-0.1-0.7c-0.1-0.4,0.1-0.8,0.4-1.1l0.5-0.5l-0.8-0.1c-0.4-0.1-0.8-0.3-1-0.7l-0.3-0.7l-0.3,0.7c-0.2,0.4-0.5,0.6-1,0.7
				L253.4,51.5z"/>
		</g>
		<g>
			<path class="st1" d="M275.8,56.7c-0.2,0-0.4-0.1-0.6-0.2c-0.3-0.2-0.5-0.6-0.4-1l0.4-2.4l-1.7-1.7c-0.3-0.3-0.4-0.7-0.3-1
				c0.1-0.4,0.4-0.6,0.8-0.7l2.4-0.4l1.1-2.2c0.2-0.3,0.5-0.6,0.9-0.6l0,0c0.4,0,0.7,0.2,0.9,0.6l1.1,2.2l2.4,0.3
				c0.4,0.1,0.7,0.3,0.8,0.7c0.1,0.4,0,0.8-0.3,1l-1.7,1.7l0.4,2.4c0.1,0.4-0.1,0.8-0.4,1s-0.7,0.3-1.1,0.1l-2.1-1.1l-2.1,1.1
				C276.1,56.7,276,56.7,275.8,56.7z M276.3,51.5l0.5,0.5c0.3,0.3,0.4,0.7,0.4,1.1l-0.1,0.8l0.7-0.4c0.4-0.2,0.8-0.2,1.2,0l0.7,0.3
				l-0.1-0.7c-0.1-0.4,0.1-0.8,0.4-1.1l0.5-0.5l-0.8-0.1c-0.4-0.1-0.8-0.3-1-0.7l-0.3-0.7l-0.3,0.7c-0.2,0.4-0.5,0.6-1,0.7
				L276.3,51.5z"/>
		</g>
		<g>
			<path class="st1" d="M330.4,56.7c-0.2,0-0.4-0.1-0.6-0.2c-0.3-0.2-0.5-0.6-0.4-1l0.4-2.4l-1.7-1.7c-0.3-0.3-0.4-0.7-0.3-1
				c0.1-0.4,0.4-0.6,0.8-0.7l2.4-0.4l1.1-2.2c0.2-0.3,0.5-0.6,0.9-0.6l0,0c0.4,0,0.7,0.2,0.9,0.6l1.1,2.2l2.4,0.3
				c0.4,0.1,0.7,0.3,0.8,0.7s0,0.8-0.3,1l-1.7,1.7l0.4,2.4c0.1,0.4-0.1,0.8-0.4,1c-0.3,0.2-0.7,0.3-1.1,0.1l-2.1-1.1l-2.1,1.1
				C330.8,56.7,330.6,56.7,330.4,56.7z M331,51.5l0.5,0.5c0.3,0.3,0.4,0.7,0.4,1.1l-0.1,0.8l0.7-0.4c0.4-0.2,0.8-0.2,1.2,0l0.7,0.3
				l-0.1-0.7c-0.1-0.4,0.1-0.8,0.4-1.1l0.5-0.5l-0.8-0.1c-0.4-0.1-0.8-0.3-1-0.7l-0.3-0.7l-0.3,0.7c-0.2,0.4-0.5,0.6-1,0.7L331,51.5
				z"/>
		</g>
		<g>
			<path class="st1" d="M350.2,56.7c-0.2,0-0.4-0.1-0.6-0.2c-0.3-0.2-0.5-0.6-0.4-1l0.4-2.4l-1.7-1.7c-0.3-0.3-0.4-0.7-0.3-1
				c0.1-0.4,0.4-0.6,0.8-0.7l2.4-0.4l1.1-2.2c0.2-0.3,0.5-0.6,0.9-0.6l0,0c0.4,0,0.7,0.2,0.9,0.6l1.1,2.2l2.4,0.3
				c0.4,0.1,0.7,0.3,0.8,0.7s0,0.8-0.3,1L356,53l0.4,2.4c0.1,0.4-0.1,0.8-0.4,1s-0.7,0.3-1.1,0.1l-2.1-1.1l-2.1,1.1
				C350.5,56.7,350.4,56.7,350.2,56.7z M350.7,51.5l0.5,0.5c0.3,0.3,0.4,0.7,0.4,1.1l-0.1,0.8l0.7-0.4c0.4-0.2,0.8-0.2,1.2,0
				l0.7,0.3l-0.1-0.7c-0.1-0.4,0.1-0.8,0.4-1.1l0.5-0.5l-0.8-0.1c-0.4-0.1-0.8-0.3-1-0.7l-0.3-0.7l-0.3,0.7c-0.2,0.4-0.5,0.6-1,0.7
				L350.7,51.5z"/>
		</g>
		<g>
			<path class="st1" d="M340.3,51.6c-0.2,0-0.4-0.1-0.6-0.2c-0.3-0.2-0.5-0.6-0.4-1l0.4-2.4l-1.7-1.7c-0.3-0.3-0.4-0.7-0.3-1
				c0.1-0.4,0.4-0.6,0.8-0.7l2.4-0.4L342,42c0.2-0.3,0.5-0.6,0.9-0.6l0,0c0.4,0,0.7,0.2,0.9,0.6l1.1,2.2l2.4,0.3
				c0.4,0.1,0.7,0.3,0.8,0.7c0.1,0.4,0,0.8-0.3,1l-1.7,1.7l0.4,2.4c0.1,0.4-0.1,0.8-0.4,1s-0.7,0.3-1.1,0.1l-2.1-1.1l-2.1,1.1
				C340.6,51.5,340.5,51.6,340.3,51.6z M340.8,46.3l0.5,0.5c0.3,0.3,0.4,0.7,0.4,1.1l-0.1,0.8l0.7-0.4c0.4-0.2,0.8-0.2,1.2,0
				l0.7,0.3l-0.1-0.7c-0.1-0.4,0.1-0.8,0.4-1.1l0.5-0.5l-0.8-0.1c-0.4-0.1-0.8-0.3-1-0.7l-0.3-0.7l-0.3,0.7c-0.2,0.4-0.5,0.6-1,0.7
				L340.8,46.3z"/>
		</g>
		<g>
			<path class="st1" d="M340.3,61.4c-0.2,0-0.4-0.1-0.6-0.2c-0.3-0.2-0.5-0.6-0.4-1l0.4-2.4l-1.7-1.7c-0.3-0.3-0.4-0.7-0.3-1
				c0.1-0.4,0.4-0.6,0.8-0.7l2.4-0.4l1.1-2.2c0.2-0.3,0.5-0.6,0.9-0.6l0,0c0.4,0,0.7,0.2,0.9,0.6l1.1,2.2l2.4,0.3
				c0.4,0.1,0.7,0.3,0.8,0.7c0.1,0.4,0,0.8-0.3,1l-1.7,1.7l0.4,2.4c0.1,0.4-0.1,0.8-0.4,1s-0.7,0.3-1.1,0.1l-2.1-1.1l-2.1,1.1
				C340.6,61.4,340.5,61.4,340.3,61.4z M340.8,56.2l0.5,0.5c0.3,0.3,0.4,0.7,0.4,1.1l-0.1,0.8l0.7-0.4c0.4-0.2,0.8-0.2,1.2,0
				l0.7,0.3l-0.1-0.7c-0.1-0.4,0.1-0.8,0.4-1.1l0.5-0.5l-0.8-0.1c-0.4-0.1-0.8-0.3-1-0.7l-0.3-0.7l-0.3,0.7c-0.2,0.4-0.5,0.6-1,0.7
				L340.8,56.2z"/>
		</g>
		<g>
			<path class="st1" d="M264.3,60c-0.2,0-0.4-0.1-0.6-0.2c-0.3-0.2-0.5-0.6-0.4-1l0.4-2.4l-1.7-1.7c-0.3-0.3-0.4-0.7-0.3-1
				c0.1-0.4,0.4-0.6,0.8-0.7l2.4-0.4l1.1-2.2c0.2-0.3,0.5-0.6,0.9-0.6l0,0c0.4,0,0.7,0.2,0.9,0.6l1.1,2.2l2.4,0.3
				c0.4,0.1,0.7,0.3,0.8,0.7c0.1,0.4,0,0.8-0.3,1l-1.7,1.7l0.4,2.4c0.1,0.4-0.1,0.8-0.4,1s-0.7,0.3-1.1,0.1l-2.1-1.1l-2.1,1.1
				C264.6,59.9,264.5,60,264.3,60z M264.8,54.7l0.5,0.5c0.3,0.3,0.4,0.7,0.4,1.1l-0.1,0.8l0.7-0.4c0.4-0.2,0.8-0.2,1.2,0l0.7,0.3
				l-0.1-0.7c-0.1-0.4,0.1-0.8,0.4-1.1l0.5-0.5l-0.8-0.1c-0.4-0.1-0.8-0.3-1-0.7l-0.3-0.7l-0.3,0.7c-0.2,0.4-0.5,0.6-1,0.7
				L264.8,54.7z"/>
		</g>
	</g>
	<g>
		<g>
			<path class="st1" d="M111.8,133.9c-0.2,0-0.4-0.1-0.6-0.2c-0.3-0.2-0.5-0.6-0.4-1l0.4-2.4l-1.7-1.7c-0.3-0.3-0.4-0.7-0.3-1
				c0.1-0.4,0.4-0.6,0.8-0.7l2.4-0.4l1.1-2.2c0.2-0.3,0.5-0.6,0.9-0.6l0,0c0.4,0,0.7,0.2,0.9,0.6l1.1,2.2l2.4,0.3
				c0.4,0.1,0.7,0.3,0.8,0.7s0,0.8-0.3,1l-1.7,1.7l0.4,2.4c0.1,0.4-0.1,0.8-0.4,1c-0.3,0.2-0.7,0.3-1.1,0.1l-2.1-1.1l-2.1,1.1
				C112.2,133.8,112,133.9,111.8,133.9z M112.4,128.6l0.5,0.5c0.3,0.3,0.4,0.7,0.4,1.1l-0.1,0.8l0.7-0.4c0.4-0.2,0.8-0.2,1.2,0
				l0.7,0.3l-0.1-0.7c-0.1-0.4,0.1-0.8,0.4-1.1l0.5-0.5l-0.9-0.1c-0.4-0.1-0.8-0.3-1-0.7l-0.3-0.7l-0.3,0.7c-0.2,0.4-0.5,0.6-1,0.7
				L112.4,128.6z"/>
		</g>
		<g>
			<path class="st1" d="M181.3,133.9c-0.2,0-0.4-0.1-0.6-0.2c-0.3-0.2-0.5-0.6-0.4-1l0.4-2.4l-1.7-1.7c-0.3-0.3-0.4-0.7-0.3-1
				c0.1-0.4,0.4-0.6,0.8-0.7l2.4-0.4l1.1-2.2c0.2-0.3,0.5-0.6,0.9-0.6l0,0c0.4,0,0.7,0.2,0.9,0.6l1.1,2.2l2.4,0.3
				c0.4,0.1,0.7,0.3,0.8,0.7s0,0.8-0.3,1l-1.7,1.7l0.4,2.4c0.1,0.4-0.1,0.8-0.4,1c-0.3,0.2-0.7,0.3-1.1,0.1l-2.1-1.1l-2.1,1.1
				C181.7,133.8,181.5,133.9,181.3,133.9z M181.9,128.6l0.5,0.5c0.3,0.3,0.4,0.7,0.4,1.1l-0.1,0.8l0.7-0.4c0.4-0.2,0.8-0.2,1.2,0
				l0.7,0.3l-0.1-0.7c-0.1-0.4,0.1-0.8,0.4-1.1l0.5-0.5l-0.8-0.1c-0.4-0.1-0.8-0.3-1-0.7l-0.3-0.7l-0.3,0.7c-0.2,0.4-0.5,0.6-1,0.7
				L181.9,128.6z"/>
		</g>
		<g>
			<path class="st1" d="M194.8,133.9c-0.2,0-0.4-0.1-0.6-0.2c-0.3-0.2-0.5-0.6-0.4-1l0.4-2.4l-1.7-1.7c-0.3-0.3-0.4-0.7-0.3-1
				c0.1-0.4,0.4-0.6,0.8-0.7l2.4-0.4l1.1-2.2c0.2-0.3,0.5-0.6,0.9-0.6l0,0c0.4,0,0.7,0.2,0.9,0.6l1.1,2.2l2.4,0.3
				c0.4,0.1,0.7,0.3,0.8,0.7s0,0.8-0.3,1l-1.7,1.7l0.4,2.4c0.1,0.4-0.1,0.8-0.4,1c-0.3,0.2-0.7,0.3-1.1,0.1l-2.1-1.1l-2.1,1.1
				C195.1,133.8,195,133.9,194.8,133.9z M195.3,128.6l0.5,0.5c0.3,0.3,0.4,0.7,0.4,1.1l-0.1,0.8l0.7-0.4c0.4-0.2,0.8-0.2,1.2,0
				l0.7,0.3l-0.1-0.7c-0.1-0.4,0.1-0.8,0.4-1.1l0.5-0.5l-0.8-0.1c-0.4-0.1-0.8-0.3-1-0.7l-0.3-0.7l-0.3,0.7c-0.2,0.4-0.5,0.6-1,0.7
				L195.3,128.6z"/>
		</g>
		<g>
			<path class="st1" d="M252.9,133.9c-0.2,0-0.4-0.1-0.6-0.2c-0.3-0.2-0.5-0.6-0.4-1l0.4-2.4l-1.7-1.7c-0.3-0.3-0.4-0.7-0.3-1
				c0.1-0.4,0.4-0.6,0.8-0.7l2.4-0.4l1.1-2.2c0.2-0.3,0.5-0.6,0.9-0.6l0,0c0.4,0,0.7,0.2,0.9,0.6l1.1,2.2l2.4,0.3
				c0.4,0.1,0.7,0.3,0.8,0.7s0,0.8-0.3,1l-1.7,1.7l0.4,2.4c0.1,0.4-0.1,0.8-0.4,1c-0.3,0.2-0.7,0.3-1.1,0.1l-2.1-1.1l-2.1,1.1
				C253.2,133.8,253.1,133.9,252.9,133.9z M253.4,128.6l0.5,0.5c0.3,0.3,0.4,0.7,0.4,1.1l-0.1,0.8l0.7-0.4c0.4-0.2,0.8-0.2,1.2,0
				l0.7,0.3l-0.1-0.7c-0.1-0.4,0.1-0.8,0.4-1.1l0.5-0.5l-0.8-0.1c-0.4-0.1-0.8-0.3-1-0.7l-0.3-0.7l-0.3,0.7c-0.2,0.4-0.5,0.6-1,0.7
				L253.4,128.6z"/>
		</g>
		<g>
			<path class="st1" d="M275.8,133.9c-0.2,0-0.4-0.1-0.6-0.2c-0.3-0.2-0.5-0.6-0.4-1l0.4-2.4l-1.7-1.7c-0.3-0.3-0.4-0.7-0.3-1
				c0.1-0.4,0.4-0.6,0.8-0.7l2.4-0.4l1.1-2.2c0.2-0.3,0.5-0.6,0.9-0.6l0,0c0.4,0,0.7,0.2,0.9,0.6l1.1,2.2l2.4,0.3
				c0.4,0.1,0.7,0.3,0.8,0.7c0.1,0.4,0,0.8-0.3,1l-1.7,1.7l0.4,2.4c0.1,0.4-0.1,0.8-0.4,1s-0.7,0.3-1.1,0.1l-2.1-1.1l-2.1,1.1
				C276.1,133.8,276,133.9,275.8,133.9z M276.3,128.6l0.5,0.5c0.3,0.3,0.4,0.7,0.4,1.1l-0.1,0.8l0.7-0.4c0.4-0.2,0.8-0.2,1.2,0
				l0.7,0.3l-0.1-0.7c-0.1-0.4,0.1-0.8,0.4-1.1l0.5-0.5l-0.8-0.1c-0.4-0.1-0.8-0.3-1-0.7l-0.3-0.7l-0.3,0.7c-0.2,0.4-0.5,0.6-1,0.7
				L276.3,128.6z"/>
		</g>
		<g>
			<path class="st1" d="M330.4,133.9c-0.2,0-0.4-0.1-0.6-0.2c-0.3-0.2-0.5-0.6-0.4-1l0.4-2.4l-1.7-1.7c-0.3-0.3-0.4-0.7-0.3-1
				c0.1-0.4,0.4-0.6,0.8-0.7l2.4-0.4l1.1-2.2c0.2-0.3,0.5-0.6,0.9-0.6l0,0c0.4,0,0.7,0.2,0.9,0.6l1.1,2.2l2.4,0.3
				c0.4,0.1,0.7,0.3,0.8,0.7s0,0.8-0.3,1l-1.7,1.7l0.4,2.4c0.1,0.4-0.1,0.8-0.4,1c-0.3,0.2-0.7,0.3-1.1,0.1l-2.1-1.1l-2.1,1.1
				C330.8,133.8,330.6,133.9,330.4,133.9z M331,128.6l0.5,0.5c0.3,0.3,0.4,0.7,0.4,1.1l-0.1,0.8l0.7-0.4c0.4-0.2,0.8-0.2,1.2,0
				l0.7,0.3l-0.1-0.7c-0.1-0.4,0.1-0.8,0.4-1.1l0.5-0.5l-0.8-0.1c-0.4-0.1-0.8-0.3-1-0.7l-0.3-0.7l-0.3,0.7c-0.2,0.4-0.5,0.6-1,0.7
				L331,128.6z"/>
		</g>
		<g>
			<path class="st1" d="M350.2,133.9c-0.2,0-0.4-0.1-0.6-0.2c-0.3-0.2-0.5-0.6-0.4-1l0.4-2.4l-1.7-1.7c-0.3-0.3-0.4-0.7-0.3-1
				c0.1-0.4,0.4-0.6,0.8-0.7l2.4-0.4l1.1-2.2c0.2-0.3,0.5-0.6,0.9-0.6l0,0c0.4,0,0.7,0.2,0.9,0.6l1.1,2.2l2.4,0.3
				c0.4,0.1,0.7,0.3,0.8,0.7s0,0.8-0.3,1l-1.7,1.7l0.4,2.4c0.1,0.4-0.1,0.8-0.4,1s-0.7,0.3-1.1,0.1l-2.1-1.1l-2.1,1.1
				C350.5,133.8,350.4,133.9,350.2,133.9z M350.7,128.6l0.5,0.5c0.3,0.3,0.4,0.7,0.4,1.1l-0.1,0.8l0.7-0.4c0.4-0.2,0.8-0.2,1.2,0
				l0.7,0.3l-0.1-0.7c-0.1-0.4,0.1-0.8,0.4-1.1l0.5-0.5l-0.8-0.1c-0.4-0.1-0.8-0.3-1-0.7l-0.3-0.7l-0.3,0.7c-0.2,0.4-0.5,0.6-1,0.7
				L350.7,128.6z"/>
		</g>
		<g>
			<path class="st1" d="M340.3,128.8c-0.2,0-0.4-0.1-0.6-0.2c-0.3-0.2-0.5-0.6-0.4-1l0.4-2.4l-1.7-1.7c-0.3-0.3-0.4-0.7-0.3-1
				c0.1-0.4,0.4-0.6,0.8-0.7l2.4-0.4l1.1-2.2c0.2-0.3,0.5-0.6,0.9-0.6l0,0c0.4,0,0.7,0.2,0.9,0.6l1.1,2.2l2.4,0.3
				c0.4,0.1,0.7,0.3,0.8,0.7c0.1,0.4,0,0.8-0.3,1l-1.7,1.7l0.4,2.4c0.1,0.4-0.1,0.8-0.4,1s-0.7,0.3-1.1,0.1l-2.1-1.1l-2.1,1.1
				C340.6,128.7,340.5,128.8,340.3,128.8z M340.8,123.5l0.5,0.5c0.3,0.3,0.4,0.7,0.4,1.1l-0.1,0.8l0.7-0.4c0.4-0.2,0.8-0.2,1.2,0
				l0.7,0.3l-0.1-0.7c-0.1-0.4,0.1-0.8,0.4-1.1l0.5-0.5l-0.8-0.1c-0.4-0.1-0.8-0.3-1-0.7l-0.3-0.7l-0.3,0.7c-0.2,0.4-0.5,0.6-1,0.7
				L340.8,123.5z"/>
		</g>
		<g>
			<path class="st1" d="M340.3,138.6c-0.2,0-0.4-0.1-0.6-0.2c-0.3-0.2-0.5-0.6-0.4-1l0.4-2.4l-1.7-1.7c-0.3-0.3-0.4-0.7-0.3-1
				c0.1-0.4,0.4-0.6,0.8-0.7l2.4-0.4l1.1-2.2c0.2-0.3,0.5-0.6,0.9-0.6l0,0c0.4,0,0.7,0.2,0.9,0.6l1.1,2.2l2.4,0.3
				c0.4,0.1,0.7,0.3,0.8,0.7c0.1,0.4,0,0.8-0.3,1l-1.7,1.7l0.4,2.4c0.1,0.4-0.1,0.8-0.4,1s-0.7,0.3-1.1,0.1l-2.1-1.1l-2.1,1.1
				C340.6,138.5,340.5,138.6,340.3,138.6z M340.8,133.3l0.5,0.5c0.3,0.3,0.4,0.7,0.4,1.1l-0.1,0.8l0.7-0.4c0.4-0.2,0.8-0.2,1.2,0
				l0.7,0.3l-0.1-0.7c-0.1-0.4,0.1-0.8,0.4-1.1l0.5-0.5l-0.8-0.1c-0.4-0.1-0.8-0.3-1-0.7l-0.3-0.7l-0.3,0.7c-0.2,0.4-0.5,0.6-1,0.7
				L340.8,133.3z"/>
		</g>
		<g>
			<path class="st1" d="M264.3,137.1c-0.2,0-0.4-0.1-0.6-0.2c-0.3-0.2-0.5-0.6-0.4-1l0.4-2.4l-1.7-1.7c-0.3-0.3-0.4-0.7-0.3-1
				c0.1-0.4,0.4-0.6,0.8-0.7l2.4-0.4l1.1-2.2c0.2-0.3,0.5-0.6,0.9-0.6l0,0c0.4,0,0.7,0.2,0.9,0.6l1.1,2.2l2.4,0.3
				c0.4,0.1,0.7,0.3,0.8,0.7c0.1,0.4,0,0.8-0.3,1l-1.7,1.7l0.4,2.4c0.1,0.4-0.1,0.8-0.4,1s-0.7,0.3-1.1,0.1l-2.1-1.1l-2.1,1.1
				C264.6,137.1,264.5,137.1,264.3,137.1z M264.8,131.9l0.5,0.5c0.3,0.3,0.4,0.7,0.4,1.1l-0.1,0.8l0.7-0.4c0.4-0.2,0.8-0.2,1.2,0
				l0.7,0.3l-0.1-0.7c-0.1-0.4,0.1-0.8,0.4-1.1l0.5-0.5l-0.8-0.1c-0.4-0.1-0.8-0.3-1-0.7l-0.3-0.7l-0.3,0.7c-0.2,0.4-0.5,0.6-1,0.7
				L264.8,131.9z"/>
		</g>
	</g>
	<g>
		<g>
			<path class="st1" d="M111.8,209.4c-0.2,0-0.4-0.1-0.6-0.2c-0.3-0.2-0.5-0.6-0.4-1l0.4-2.4l-1.7-1.7c-0.3-0.3-0.4-0.7-0.3-1
				c0.1-0.4,0.4-0.6,0.8-0.7l2.4-0.4l1.1-2.2c0.2-0.3,0.5-0.6,0.9-0.6l0,0c0.4,0,0.7,0.2,0.9,0.6l1.1,2.2l2.4,0.3
				c0.4,0.1,0.7,0.3,0.8,0.7s0,0.8-0.3,1l-1.7,1.7l0.4,2.4c0.1,0.4-0.1,0.8-0.4,1c-0.3,0.2-0.7,0.3-1.1,0.1l-2.1-1.1l-2.1,1.1
				C112.2,209.4,112,209.4,111.8,209.4z M112.4,204.2l0.5,0.5c0.3,0.3,0.4,0.7,0.4,1.1l-0.1,0.8l0.7-0.4c0.4-0.2,0.8-0.2,1.2,0
				l0.7,0.3l-0.1-0.7c-0.1-0.4,0.1-0.8,0.4-1.1l0.5-0.5l-0.8-0.1c-0.4-0.1-0.8-0.3-1-0.7l-0.3-0.7l-0.3,0.7c-0.2,0.4-0.5,0.6-1,0.7
				L112.4,204.2z"/>
		</g>
		<g>
			<path class="st1" d="M181.3,209.4c-0.2,0-0.4-0.1-0.6-0.2c-0.3-0.2-0.5-0.6-0.4-1l0.4-2.4l-1.7-1.7c-0.3-0.3-0.4-0.7-0.3-1
				c0.1-0.4,0.4-0.6,0.8-0.7l2.4-0.4l1.1-2.2c0.2-0.3,0.5-0.6,0.9-0.6l0,0c0.4,0,0.7,0.2,0.9,0.6l1.1,2.2l2.4,0.3
				c0.4,0.1,0.7,0.3,0.8,0.7s0,0.8-0.3,1l-1.7,1.7l0.4,2.4c0.1,0.4-0.1,0.8-0.4,1c-0.3,0.2-0.7,0.3-1.1,0.1l-2.1-1.1l-2.1,1.1
				C181.7,209.4,181.5,209.4,181.3,209.4z M181.9,204.2l0.5,0.5c0.3,0.3,0.4,0.7,0.4,1.1l-0.1,0.8l0.7-0.4c0.4-0.2,0.8-0.2,1.2,0
				l0.7,0.3l-0.1-0.7c-0.1-0.4,0.1-0.8,0.4-1.1l0.5-0.5l-0.8-0.1c-0.4-0.1-0.8-0.3-1-0.7l-0.3-0.7l-0.3,0.7c-0.2,0.4-0.5,0.6-1,0.7
				L181.9,204.2z"/>
		</g>
		<g>
			<path class="st1" d="M194.8,209.4c-0.2,0-0.4-0.1-0.6-0.2c-0.3-0.2-0.5-0.6-0.4-1l0.4-2.4l-1.7-1.7c-0.3-0.3-0.4-0.7-0.3-1
				c0.1-0.4,0.4-0.6,0.8-0.7l2.4-0.4l1.1-2.2c0.2-0.3,0.5-0.6,0.9-0.6l0,0c0.4,0,0.7,0.2,0.9,0.6l1.1,2.2l2.4,0.3
				c0.4,0.1,0.7,0.3,0.8,0.7s0,0.8-0.3,1l-1.7,1.7l0.4,2.4c0.1,0.4-0.1,0.8-0.4,1c-0.3,0.2-0.7,0.3-1.1,0.1l-2.1-1.1l-2.1,1.1
				C195.1,209.4,195,209.4,194.8,209.4z M195.3,204.2l0.5,0.5c0.3,0.3,0.4,0.7,0.4,1.1l-0.1,0.8l0.7-0.4c0.4-0.2,0.8-0.2,1.2,0
				l0.7,0.3l-0.1-0.7c-0.1-0.4,0.1-0.8,0.4-1.1l0.5-0.5l-0.8-0.1c-0.4-0.1-0.8-0.3-1-0.7l-0.3-0.7l-0.3,0.7c-0.2,0.4-0.5,0.6-1,0.7
				L195.3,204.2z"/>
		</g>
		<g>
			<path class="st1" d="M252.9,209.4c-0.2,0-0.4-0.1-0.6-0.2c-0.3-0.2-0.5-0.6-0.4-1l0.4-2.4l-1.7-1.7c-0.3-0.3-0.4-0.7-0.3-1
				c0.1-0.4,0.4-0.6,0.8-0.7l2.4-0.4l1.1-2.2c0.2-0.3,0.5-0.6,0.9-0.6l0,0c0.4,0,0.7,0.2,0.9,0.6l1.1,2.2l2.4,0.3
				c0.4,0.1,0.7,0.3,0.8,0.7s0,0.8-0.3,1l-1.7,1.7l0.4,2.4c0.1,0.4-0.1,0.8-0.4,1c-0.3,0.2-0.7,0.3-1.1,0.1l-2.1-1.1l-2.1,1.1
				C253.2,209.4,253.1,209.4,252.9,209.4z M253.4,204.2l0.5,0.5c0.3,0.3,0.4,0.7,0.4,1.1l-0.1,0.8l0.7-0.4c0.4-0.2,0.8-0.2,1.2,0
				l0.7,0.3l-0.1-0.7c-0.1-0.4,0.1-0.8,0.4-1.1l0.5-0.5l-0.8-0.1c-0.4-0.1-0.8-0.3-1-0.7l-0.3-0.7l-0.3,0.7c-0.2,0.4-0.5,0.6-1,0.7
				L253.4,204.2z"/>
		</g>
		<g>
			<path class="st1" d="M275.8,209.4c-0.2,0-0.4-0.1-0.6-0.2c-0.3-0.2-0.5-0.6-0.4-1l0.4-2.4l-1.7-1.7c-0.3-0.3-0.4-0.7-0.3-1
				c0.1-0.4,0.4-0.6,0.8-0.7l2.4-0.4l1.1-2.2c0.2-0.3,0.5-0.6,0.9-0.6l0,0c0.4,0,0.7,0.2,0.9,0.6l1.1,2.2l2.4,0.3
				c0.4,0.1,0.7,0.3,0.8,0.7c0.1,0.4,0,0.8-0.3,1l-1.7,1.7l0.4,2.4c0.1,0.4-0.1,0.8-0.4,1s-0.7,0.3-1.1,0.1l-2.1-1.1l-2.1,1.1
				C276.1,209.4,276,209.4,275.8,209.4z M276.3,204.2l0.5,0.5c0.3,0.3,0.4,0.7,0.4,1.1l-0.1,0.8l0.7-0.4c0.4-0.2,0.8-0.2,1.2,0
				l0.7,0.3l-0.1-0.7c-0.1-0.4,0.1-0.8,0.4-1.1l0.5-0.5l-0.8-0.1c-0.4-0.1-0.8-0.3-1-0.7l-0.3-0.7l-0.3,0.7c-0.2,0.4-0.5,0.6-1,0.7
				L276.3,204.2z"/>
		</g>
		<g>
			<path class="st1" d="M330.4,209.4c-0.2,0-0.4-0.1-0.6-0.2c-0.3-0.2-0.5-0.6-0.4-1l0.4-2.4l-1.7-1.7c-0.3-0.3-0.4-0.7-0.3-1
				c0.1-0.4,0.4-0.6,0.8-0.7l2.4-0.4l1.1-2.2c0.2-0.3,0.5-0.6,0.9-0.6l0,0c0.4,0,0.7,0.2,0.9,0.6l1.1,2.2l2.4,0.3
				c0.4,0.1,0.7,0.3,0.8,0.7s0,0.8-0.3,1l-1.7,1.7l0.4,2.4c0.1,0.4-0.1,0.8-0.4,1c-0.3,0.2-0.7,0.3-1.1,0.1l-2.1-1.1l-2.1,1.1
				C330.8,209.4,330.6,209.4,330.4,209.4z M331,204.2l0.5,0.5c0.3,0.3,0.4,0.7,0.4,1.1l-0.1,0.8l0.7-0.4c0.4-0.2,0.8-0.2,1.2,0
				l0.7,0.3l-0.1-0.7c-0.1-0.4,0.1-0.8,0.4-1.1l0.5-0.5l-0.8-0.1c-0.4-0.1-0.8-0.3-1-0.7l-0.3-0.7l-0.3,0.7c-0.2,0.4-0.5,0.6-1,0.7
				L331,204.2z"/>
		</g>
		<g>
			<path class="st1" d="M350.2,209.4c-0.2,0-0.4-0.1-0.6-0.2c-0.3-0.2-0.5-0.6-0.4-1l0.4-2.4l-1.7-1.7c-0.3-0.3-0.4-0.7-0.3-1
				c0.1-0.4,0.4-0.6,0.8-0.7l2.4-0.4l1.1-2.2c0.2-0.3,0.5-0.6,0.9-0.6l0,0c0.4,0,0.7,0.2,0.9,0.6l1.1,2.2l2.4,0.3
				c0.4,0.1,0.7,0.3,0.8,0.7s0,0.8-0.3,1l-1.7,1.7l0.4,2.4c0.1,0.4-0.1,0.8-0.4,1s-0.7,0.3-1.1,0.1l-2.1-1.1l-2.1,1.1
				C350.5,209.4,350.4,209.4,350.2,209.4z M350.7,204.2l0.5,0.5c0.3,0.3,0.4,0.7,0.4,1.1l-0.1,0.8l0.7-0.4c0.4-0.2,0.8-0.2,1.2,0
				l0.7,0.3l-0.1-0.7c-0.1-0.4,0.1-0.8,0.4-1.1l0.5-0.5l-0.8-0.1c-0.4-0.1-0.8-0.3-1-0.7l-0.3-0.7l-0.3,0.7c-0.2,0.4-0.5,0.6-1,0.7
				L350.7,204.2z"/>
		</g>
		<g>
			<path class="st1" d="M340.3,204.3c-0.2,0-0.4-0.1-0.6-0.2c-0.3-0.2-0.5-0.6-0.4-1l0.4-2.4L338,199c-0.3-0.3-0.4-0.7-0.3-1
				c0.1-0.4,0.4-0.6,0.8-0.7l2.4-0.4l1.1-2.2c0.2-0.3,0.5-0.6,0.9-0.6l0,0c0.4,0,0.7,0.2,0.9,0.6l1.1,2.2l2.4,0.3
				c0.4,0.1,0.7,0.3,0.8,0.7c0.1,0.4,0,0.8-0.3,1l-1.7,1.7l0.4,2.4c0.1,0.4-0.1,0.8-0.4,1s-0.7,0.3-1.1,0.1l-2.1-1.1l-2.1,1.1
				C340.6,204.3,340.5,204.3,340.3,204.3z M340.8,199l0.5,0.5c0.3,0.3,0.4,0.7,0.4,1.1l-0.1,0.8l0.7-0.4c0.4-0.2,0.8-0.2,1.2,0
				l0.7,0.3l-0.1-0.7c-0.1-0.4,0.1-0.8,0.4-1.1l0.5-0.5l-0.8-0.1c-0.4-0.1-0.8-0.3-1-0.7l-0.3-0.7l-0.3,0.7c-0.2,0.4-0.5,0.6-1,0.7
				L340.8,199z"/>
		</g>
		<g>
			<path class="st1" d="M340.3,214.1c-0.2,0-0.4-0.1-0.6-0.2c-0.3-0.2-0.5-0.6-0.4-1l0.4-2.4l-1.7-1.7c-0.3-0.3-0.4-0.7-0.3-1
				c0.1-0.4,0.4-0.6,0.8-0.7l2.4-0.4l1.1-2.2c0.2-0.3,0.5-0.6,0.9-0.6l0,0c0.4,0,0.7,0.2,0.9,0.6l1.1,2.2l2.4,0.3
				c0.4,0.1,0.7,0.3,0.8,0.7c0.1,0.4,0,0.8-0.3,1l-1.7,1.7l0.4,2.4c0.1,0.4-0.1,0.8-0.4,1s-0.7,0.3-1.1,0.1l-2.1-1.1l-2.1,1.1
				C340.6,214.1,340.5,214.1,340.3,214.1z M340.8,208.9l0.5,0.5c0.3,0.3,0.4,0.7,0.4,1.1l-0.1,0.8l0.7-0.4c0.4-0.2,0.8-0.2,1.2,0
				l0.7,0.3l-0.1-0.7c-0.1-0.4,0.1-0.8,0.4-1.1l0.5-0.5l-0.8-0.1c-0.4-0.1-0.8-0.3-1-0.7l-0.3-0.7l-0.3,0.7c-0.2,0.4-0.5,0.6-1,0.7
				L340.8,208.9z"/>
		</g>
		<g>
			<path class="st1" d="M264.3,212.7c-0.2,0-0.4-0.1-0.6-0.2c-0.3-0.2-0.5-0.6-0.4-1l0.4-2.4l-1.7-1.7c-0.3-0.3-0.4-0.7-0.3-1
				c0.1-0.4,0.4-0.6,0.8-0.7l2.4-0.4l1.1-2.2c0.2-0.3,0.5-0.6,0.9-0.6l0,0c0.4,0,0.7,0.2,0.9,0.6l1.1,2.2l2.4,0.3
				c0.4,0.1,0.7,0.3,0.8,0.7c0.1,0.4,0,0.8-0.3,1l-1.7,1.7l0.4,2.4c0.1,0.4-0.1,0.8-0.4,1s-0.7,0.3-1.1,0.1l-2.1-1.1l-2.1,1.1
				C264.6,212.6,264.5,212.7,264.3,212.7z M264.8,207.4l0.5,0.5c0.3,0.3,0.4,0.7,0.4,1.1l-0.1,0.8l0.7-0.4c0.4-0.2,0.8-0.2,1.2,0
				l0.7,0.3l-0.1-0.7c-0.1-0.4,0.1-0.8,0.4-1.1l0.5-0.5l-0.8-0.1c-0.4-0.1-0.8-0.3-1-0.7l-0.3-0.7l-0.3,0.7c-0.2,0.4-0.5,0.6-1,0.7
				L264.8,207.4z"/>
		</g>
	</g>
	<g>
		<g>
			<path class="st1" d="M111.8,285.4c-0.2,0-0.4-0.1-0.6-0.2c-0.3-0.2-0.5-0.6-0.4-1l0.4-2.4l-1.7-1.7c-0.3-0.3-0.4-0.7-0.3-1
				c0.1-0.4,0.4-0.6,0.8-0.7l2.4-0.4l1.1-2.2c0.2-0.3,0.5-0.6,0.9-0.6l0,0c0.4,0,0.7,0.2,0.9,0.6l1.1,2.2l2.4,0.3
				c0.4,0.1,0.7,0.3,0.8,0.7s0,0.8-0.3,1l-1.7,1.7l0.4,2.4c0.1,0.4-0.1,0.8-0.4,1c-0.3,0.2-0.7,0.3-1.1,0.1l-2.1-1.1l-2.1,1.1
				C112.2,285.4,112,285.4,111.8,285.4z M112.4,280.2l0.5,0.5c0.3,0.3,0.4,0.7,0.4,1.1l-0.1,0.8l0.7-0.4c0.4-0.2,0.8-0.2,1.2,0
				l0.7,0.3l-0.1-0.7c-0.1-0.4,0.1-0.8,0.4-1.1l0.5-0.5l-0.8-0.1c-0.4-0.1-0.8-0.3-1-0.7l-0.3-0.7l-0.3,0.7c-0.2,0.4-0.5,0.6-1,0.7
				L112.4,280.2z"/>
		</g>
		<g>
			<path class="st1" d="M181.3,285.4c-0.2,0-0.4-0.1-0.6-0.2c-0.3-0.2-0.5-0.6-0.4-1l0.4-2.4l-1.7-1.7c-0.3-0.3-0.4-0.7-0.3-1
				c0.1-0.4,0.4-0.6,0.8-0.7l2.4-0.4l1.1-2.2c0.2-0.3,0.5-0.6,0.9-0.6l0,0c0.4,0,0.7,0.2,0.9,0.6l1.1,2.2l2.4,0.3
				c0.4,0.1,0.7,0.3,0.8,0.7s0,0.8-0.3,1l-1.7,1.7l0.4,2.4c0.1,0.4-0.1,0.8-0.4,1c-0.3,0.2-0.7,0.3-1.1,0.1l-2.1-1.1l-2.1,1.1
				C181.7,285.4,181.5,285.4,181.3,285.4z M181.9,280.2l0.5,0.5c0.3,0.3,0.4,0.7,0.4,1.1l-0.1,0.8l0.7-0.4c0.4-0.2,0.8-0.2,1.2,0
				l0.7,0.3l-0.1-0.7c-0.1-0.4,0.1-0.8,0.4-1.1l0.5-0.5l-0.8-0.1c-0.4-0.1-0.8-0.3-1-0.7l-0.3-0.7l-0.3,0.7c-0.2,0.4-0.5,0.6-1,0.7
				L181.9,280.2z"/>
		</g>
		<g>
			<path class="st1" d="M194.8,285.4c-0.2,0-0.4-0.1-0.6-0.2c-0.3-0.2-0.5-0.6-0.4-1l0.4-2.4l-1.7-1.7c-0.3-0.3-0.4-0.7-0.3-1
				c0.1-0.4,0.4-0.6,0.8-0.7l2.4-0.4l1.1-2.2c0.2-0.3,0.5-0.6,0.9-0.6l0,0c0.4,0,0.7,0.2,0.9,0.6l1.1,2.2l2.4,0.3
				c0.4,0.1,0.7,0.3,0.8,0.7s0,0.8-0.3,1l-1.7,1.7l0.4,2.4c0.1,0.4-0.1,0.8-0.4,1c-0.3,0.2-0.7,0.3-1.1,0.1l-2.1-1.1l-2.1,1.1
				C195.1,285.4,195,285.4,194.8,285.4z M195.3,280.2l0.5,0.5c0.3,0.3,0.4,0.7,0.4,1.1l-0.1,0.8l0.7-0.4c0.4-0.2,0.8-0.2,1.2,0
				l0.7,0.3l-0.1-0.7c-0.1-0.4,0.1-0.8,0.4-1.1l0.5-0.5l-0.8-0.1c-0.4-0.1-0.8-0.3-1-0.7l-0.3-0.7l-0.3,0.7c-0.2,0.4-0.5,0.6-1,0.7
				L195.3,280.2z"/>
		</g>
		<g>
			<path class="st1" d="M252.9,285.4c-0.2,0-0.4-0.1-0.6-0.2c-0.3-0.2-0.5-0.6-0.4-1l0.4-2.4l-1.7-1.7c-0.3-0.3-0.4-0.7-0.3-1
				c0.1-0.4,0.4-0.6,0.8-0.7l2.4-0.4l1.1-2.2c0.2-0.3,0.5-0.6,0.9-0.6l0,0c0.4,0,0.7,0.2,0.9,0.6l1.1,2.2l2.4,0.3
				c0.4,0.1,0.7,0.3,0.8,0.7s0,0.8-0.3,1l-1.7,1.7l0.4,2.4c0.1,0.4-0.1,0.8-0.4,1c-0.3,0.2-0.7,0.3-1.1,0.1l-2.1-1.1l-2.1,1.1
				C253.2,285.4,253.1,285.4,252.9,285.4z M253.4,280.2l0.5,0.5c0.3,0.3,0.4,0.7,0.4,1.1l-0.1,0.8l0.7-0.4c0.4-0.2,0.8-0.2,1.2,0
				l0.7,0.3l-0.1-0.7c-0.1-0.4,0.1-0.8,0.4-1.1l0.5-0.5l-0.8-0.1c-0.4-0.1-0.8-0.3-1-0.7l-0.3-0.7l-0.3,0.7c-0.2,0.4-0.5,0.6-1,0.7
				L253.4,280.2z"/>
		</g>
		<g>
			<path class="st1" d="M275.8,285.4c-0.2,0-0.4-0.1-0.6-0.2c-0.3-0.2-0.5-0.6-0.4-1l0.4-2.4l-1.7-1.7c-0.3-0.3-0.4-0.7-0.3-1
				c0.1-0.4,0.4-0.6,0.8-0.7l2.4-0.4l1.1-2.2c0.2-0.3,0.5-0.6,0.9-0.6l0,0c0.4,0,0.7,0.2,0.9,0.6l1.1,2.2l2.4,0.3
				c0.4,0.1,0.7,0.3,0.8,0.7c0.1,0.4,0,0.8-0.3,1l-1.7,1.7l0.4,2.4c0.1,0.4-0.1,0.8-0.4,1s-0.7,0.3-1.1,0.1l-2.1-1.1l-2.1,1.1
				C276.1,285.4,276,285.4,275.8,285.4z M276.3,280.2l0.5,0.5c0.3,0.3,0.4,0.7,0.4,1.1l-0.1,0.8l0.7-0.4c0.4-0.2,0.8-0.2,1.2,0
				l0.7,0.3l-0.1-0.7c-0.1-0.4,0.1-0.8,0.4-1.1l0.5-0.5l-0.8-0.1c-0.4-0.1-0.8-0.3-1-0.7l-0.3-0.7l-0.3,0.7c-0.2,0.4-0.5,0.6-1,0.7
				L276.3,280.2z"/>
		</g>
		<g>
			<path class="st1" d="M330.4,285.4c-0.2,0-0.4-0.1-0.6-0.2c-0.3-0.2-0.5-0.6-0.4-1l0.4-2.4l-1.7-1.7c-0.3-0.3-0.4-0.7-0.3-1
				c0.1-0.4,0.4-0.6,0.8-0.7l2.4-0.4l1.1-2.2c0.2-0.3,0.5-0.6,0.9-0.6l0,0c0.4,0,0.7,0.2,0.9,0.6l1.1,2.2l2.4,0.3
				c0.4,0.1,0.7,0.3,0.8,0.7s0,0.8-0.3,1l-1.7,1.7l0.4,2.4c0.1,0.4-0.1,0.8-0.4,1c-0.3,0.2-0.7,0.3-1.1,0.1l-2.1-1.1l-2.1,1.1
				C330.8,285.4,330.6,285.4,330.4,285.4z M331,280.2l0.5,0.5c0.3,0.3,0.4,0.7,0.4,1.1l-0.1,0.8l0.7-0.4c0.4-0.2,0.8-0.2,1.2,0
				l0.7,0.3l-0.1-0.7c-0.1-0.4,0.1-0.8,0.4-1.1l0.5-0.5l-0.8-0.1c-0.4-0.1-0.8-0.3-1-0.7l-0.3-0.7l-0.3,0.7c-0.2,0.4-0.5,0.6-1,0.7
				L331,280.2z"/>
		</g>
		<g>
			<path class="st1" d="M350.2,285.4c-0.2,0-0.4-0.1-0.6-0.2c-0.3-0.2-0.5-0.6-0.4-1l0.4-2.4l-1.7-1.7c-0.3-0.3-0.4-0.7-0.3-1
				c0.1-0.4,0.4-0.6,0.8-0.7l2.4-0.4l1.1-2.2c0.2-0.3,0.5-0.6,0.9-0.6l0,0c0.4,0,0.7,0.2,0.9,0.6l1.1,2.2l2.4,0.3
				c0.4,0.1,0.7,0.3,0.8,0.7s0,0.8-0.3,1l-1.7,1.7l0.4,2.4c0.1,0.4-0.1,0.8-0.4,1s-0.7,0.3-1.1,0.1l-2.1-1.1l-2.1,1.1
				C350.5,285.4,350.4,285.4,350.2,285.4z M350.7,280.2l0.5,0.5c0.3,0.3,0.4,0.7,0.4,1.1l-0.1,0.8l0.7-0.4c0.4-0.2,0.8-0.2,1.2,0
				l0.7,0.3l-0.1-0.7c-0.1-0.4,0.1-0.8,0.4-1.1l0.5-0.5l-0.8-0.1c-0.4-0.1-0.8-0.3-1-0.7l-0.3-0.7l-0.3,0.7c-0.2,0.4-0.5,0.6-1,0.7
				L350.7,280.2z"/>
		</g>
		<g>
			<path class="st1" d="M340.3,280.3c-0.2,0-0.4-0.1-0.6-0.2c-0.3-0.2-0.5-0.6-0.4-1l0.4-2.4L338,275c-0.3-0.3-0.4-0.7-0.3-1
				c0.1-0.4,0.4-0.6,0.8-0.7l2.4-0.4l1.1-2.2c0.2-0.3,0.5-0.6,0.9-0.6l0,0c0.4,0,0.7,0.2,0.9,0.6l1.1,2.2l2.4,0.3
				c0.4,0.1,0.7,0.3,0.8,0.7c0.1,0.4,0,0.8-0.3,1l-1.7,1.7l0.4,2.4c0.1,0.4-0.1,0.8-0.4,1s-0.7,0.3-1.1,0.1l-2.1-1.1l-2.1,1.1
				C340.6,280.3,340.5,280.3,340.3,280.3z M340.8,275l0.5,0.5c0.3,0.3,0.4,0.7,0.4,1.1l-0.1,0.8l0.7-0.4c0.4-0.2,0.8-0.2,1.2,0
				l0.7,0.3l-0.1-0.7c-0.1-0.4,0.1-0.8,0.4-1.1l0.5-0.5l-0.8-0.1c-0.4-0.1-0.8-0.3-1-0.7l-0.3-0.7l-0.3,0.7c-0.2,0.4-0.5,0.6-1,0.7
				L340.8,275z"/>
		</g>
		<g>
			<path class="st1" d="M340.3,290.1c-0.2,0-0.4-0.1-0.6-0.2c-0.3-0.2-0.5-0.6-0.4-1l0.4-2.4l-1.7-1.7c-0.3-0.3-0.4-0.7-0.3-1
				c0.1-0.4,0.4-0.6,0.8-0.7l2.4-0.4l1.1-2.2c0.2-0.3,0.5-0.6,0.9-0.6l0,0c0.4,0,0.7,0.2,0.9,0.6l1.1,2.2l2.4,0.3
				c0.4,0.1,0.7,0.3,0.8,0.7c0.1,0.4,0,0.8-0.3,1l-1.7,1.7l0.4,2.4c0.1,0.4-0.1,0.8-0.4,1s-0.7,0.3-1.1,0.1l-2.1-1.1l-2.1,1.1
				C340.6,290.1,340.5,290.1,340.3,290.1z M340.8,284.9l0.5,0.5c0.3,0.3,0.4,0.7,0.4,1.1l-0.1,0.8l0.7-0.4c0.4-0.2,0.8-0.2,1.2,0
				l0.7,0.3l-0.1-0.7c-0.1-0.4,0.1-0.8,0.4-1.1l0.5-0.5l-0.8-0.1c-0.4-0.1-0.8-0.3-1-0.7l-0.3-0.7l-0.3,0.7c-0.2,0.4-0.5,0.6-1,0.7
				L340.8,284.9z"/>
		</g>
		<g>
			<path class="st1" d="M264.3,288.7c-0.2,0-0.4-0.1-0.6-0.2c-0.3-0.2-0.5-0.6-0.4-1l0.4-2.4l-1.7-1.7c-0.3-0.3-0.4-0.7-0.3-1
				c0.1-0.4,0.4-0.6,0.8-0.7l2.4-0.4l1.1-2.2c0.2-0.3,0.5-0.6,0.9-0.6l0,0c0.4,0,0.7,0.2,0.9,0.6l1.1,2.2l2.4,0.3
				c0.4,0.1,0.7,0.3,0.8,0.7c0.1,0.4,0,0.8-0.3,1l-1.7,1.7l0.4,2.4c0.1,0.4-0.1,0.8-0.4,1s-0.7,0.3-1.1,0.1l-2.1-1.1l-2.1,1.1
				C264.6,288.6,264.5,288.7,264.3,288.7z M264.8,283.4l0.5,0.5c0.3,0.3,0.4,0.7,0.4,1.1l-0.1,0.8l0.7-0.4c0.4-0.2,0.8-0.2,1.2,0
				l0.7,0.3l-0.1-0.7c-0.1-0.4,0.1-0.8,0.4-1.1l0.5-0.5l-0.8-0.1c-0.4-0.1-0.8-0.3-1-0.7l-0.3-0.7l-0.3,0.7c-0.2,0.4-0.5,0.6-1,0.7
				L264.8,283.4z"/>
		</g>
	</g>
	<g>
		<g>
			<path class="st1" d="M111.8,361.9c-0.2,0-0.4-0.1-0.6-0.2c-0.3-0.2-0.5-0.6-0.4-1l0.4-2.4l-1.7-1.7c-0.3-0.3-0.4-0.7-0.3-1
				c0.1-0.4,0.4-0.6,0.8-0.7l2.4-0.4l1.1-2.2c0.2-0.3,0.5-0.6,0.9-0.6l0,0c0.4,0,0.7,0.2,0.9,0.6l1.1,2.2l2.4,0.3
				c0.4,0.1,0.7,0.3,0.8,0.7s0,0.8-0.3,1l-1.7,1.7l0.4,2.4c0.1,0.4-0.1,0.8-0.4,1c-0.3,0.2-0.7,0.3-1.1,0.1l-2.1-1.1l-2.1,1.1
				C112.2,361.9,112,361.9,111.8,361.9z M112.4,356.7l0.5,0.5c0.3,0.3,0.4,0.7,0.4,1.1l-0.1,0.8l0.7-0.4c0.4-0.2,0.8-0.2,1.2,0
				l0.7,0.3l-0.1-0.7c-0.1-0.4,0.1-0.8,0.4-1.1l0.5-0.5l-0.9-0.2c-0.4-0.1-0.8-0.3-1-0.7l-0.3-0.7l-0.3,0.7c-0.2,0.4-0.5,0.6-1,0.7
				L112.4,356.7z"/>
		</g>
		<g>
			<path class="st1" d="M181.3,361.9c-0.2,0-0.4-0.1-0.6-0.2c-0.3-0.2-0.5-0.6-0.4-1l0.4-2.4l-1.7-1.7c-0.3-0.3-0.4-0.7-0.3-1
				c0.1-0.4,0.4-0.6,0.8-0.7l2.4-0.4l1.1-2.2c0.2-0.3,0.5-0.6,0.9-0.6l0,0c0.4,0,0.7,0.2,0.9,0.6l1.1,2.2l2.4,0.3
				c0.4,0.1,0.7,0.3,0.8,0.7s0,0.8-0.3,1l-1.7,1.7l0.4,2.4c0.1,0.4-0.1,0.8-0.4,1c-0.3,0.2-0.7,0.3-1.1,0.1l-2.1-1.1l-2.1,1.1
				C181.7,361.9,181.5,361.9,181.3,361.9z M181.9,356.7l0.5,0.5c0.3,0.3,0.4,0.7,0.4,1.1l-0.1,0.8l0.7-0.4c0.4-0.2,0.8-0.2,1.2,0
				l0.7,0.3l-0.1-0.7c-0.1-0.4,0.1-0.8,0.4-1.1l0.5-0.5l-0.8-0.1c-0.4-0.1-0.8-0.3-1-0.7l-0.3-0.7l-0.3,0.7c-0.2,0.4-0.5,0.6-1,0.7
				L181.9,356.7z"/>
		</g>
		<g>
			<path class="st1" d="M194.8,361.9c-0.2,0-0.4-0.1-0.6-0.2c-0.3-0.2-0.5-0.6-0.4-1l0.4-2.4l-1.7-1.7c-0.3-0.3-0.4-0.7-0.3-1
				c0.1-0.4,0.4-0.6,0.8-0.7l2.4-0.4l1.1-2.2c0.2-0.3,0.5-0.6,0.9-0.6l0,0c0.4,0,0.7,0.2,0.9,0.6l1.1,2.2l2.4,0.3
				c0.4,0.1,0.7,0.3,0.8,0.7s0,0.8-0.3,1l-1.7,1.7l0.4,2.4c0.1,0.4-0.1,0.8-0.4,1c-0.3,0.2-0.7,0.3-1.1,0.1l-2.1-1.1l-2.1,1.1
				C195.1,361.9,195,361.9,194.8,361.9z M195.3,356.7l0.5,0.5c0.3,0.3,0.4,0.7,0.4,1.1l-0.1,0.8l0.7-0.4c0.4-0.2,0.8-0.2,1.2,0
				l0.7,0.3l-0.1-0.7c-0.1-0.4,0.1-0.8,0.4-1.1l0.5-0.5l-0.8-0.2c-0.4-0.1-0.8-0.3-1-0.7l-0.3-0.7l-0.3,0.7c-0.2,0.4-0.5,0.6-1,0.7
				L195.3,356.7z"/>
		</g>
		<g>
			<path class="st1" d="M252.9,361.9c-0.2,0-0.4-0.1-0.6-0.2c-0.3-0.2-0.5-0.6-0.4-1l0.4-2.4l-1.7-1.7c-0.3-0.3-0.4-0.7-0.3-1
				c0.1-0.4,0.4-0.6,0.8-0.7l2.4-0.4l1.1-2.2c0.2-0.3,0.5-0.6,0.9-0.6l0,0c0.4,0,0.7,0.2,0.9,0.6l1.1,2.2l2.4,0.3
				c0.4,0.1,0.7,0.3,0.8,0.7s0,0.8-0.3,1l-1.7,1.7l0.4,2.4c0.1,0.4-0.1,0.8-0.4,1c-0.3,0.2-0.7,0.3-1.1,0.1l-2.1-1.1l-2.1,1.1
				C253.2,361.9,253.1,361.9,252.9,361.9z M253.4,356.7l0.5,0.5c0.3,0.3,0.4,0.7,0.4,1.1l-0.1,0.8l0.7-0.4c0.4-0.2,0.8-0.2,1.2,0
				l0.7,0.3l-0.1-0.7c-0.1-0.4,0.1-0.8,0.4-1.1l0.5-0.5l-0.8-0.1c-0.4-0.1-0.8-0.3-1-0.7l-0.3-0.7l-0.3,0.7c-0.2,0.4-0.5,0.6-1,0.7
				L253.4,356.7z"/>
		</g>
		<g>
			<path class="st1" d="M275.8,361.9c-0.2,0-0.4-0.1-0.6-0.2c-0.3-0.2-0.5-0.6-0.4-1l0.4-2.4l-1.7-1.7c-0.3-0.3-0.4-0.7-0.3-1
				c0.1-0.4,0.4-0.6,0.8-0.7l2.4-0.4l1.1-2.2c0.2-0.3,0.5-0.6,0.9-0.6l0,0c0.4,0,0.7,0.2,0.9,0.6l1.1,2.2l2.4,0.3
				c0.4,0.1,0.7,0.3,0.8,0.7c0.1,0.4,0,0.8-0.3,1l-1.7,1.7l0.4,2.4c0.1,0.4-0.1,0.8-0.4,1s-0.7,0.3-1.1,0.1l-2.1-1.1l-2.1,1.1
				C276.1,361.9,276,361.9,275.8,361.9z M276.3,356.7l0.5,0.5c0.3,0.3,0.4,0.7,0.4,1.1l-0.1,0.8l0.7-0.4c0.4-0.2,0.8-0.2,1.2,0
				l0.7,0.3l-0.1-0.7c-0.1-0.4,0.1-0.8,0.4-1.1l0.5-0.5l-0.8-0.2c-0.4-0.1-0.8-0.3-1-0.7l-0.3-0.7l-0.3,0.7c-0.2,0.4-0.5,0.6-1,0.7
				L276.3,356.7z"/>
		</g>
		<g>
			<path class="st1" d="M330.4,361.9c-0.2,0-0.4-0.1-0.6-0.2c-0.3-0.2-0.5-0.6-0.4-1l0.4-2.4l-1.7-1.7c-0.3-0.3-0.4-0.7-0.3-1
				c0.1-0.4,0.4-0.6,0.8-0.7l2.4-0.4l1.1-2.2c0.2-0.3,0.5-0.6,0.9-0.6l0,0c0.4,0,0.7,0.2,0.9,0.6l1.1,2.2l2.4,0.3
				c0.4,0.1,0.7,0.3,0.8,0.7s0,0.8-0.3,1l-1.7,1.7l0.4,2.4c0.1,0.4-0.1,0.8-0.4,1c-0.3,0.2-0.7,0.3-1.1,0.1l-2.1-1.1l-2.1,1.1
				C330.8,361.9,330.6,361.9,330.4,361.9z M331,356.7l0.5,0.5c0.3,0.3,0.4,0.7,0.4,1.1l-0.1,0.8l0.7-0.4c0.4-0.2,0.8-0.2,1.2,0
				l0.7,0.3l-0.1-0.7c-0.1-0.4,0.1-0.8,0.4-1.1l0.5-0.5l-0.8-0.1c-0.4-0.1-0.8-0.3-1-0.7l-0.3-0.7l-0.3,0.7c-0.2,0.4-0.5,0.6-1,0.7
				L331,356.7z"/>
		</g>
		<g>
			<path class="st1" d="M350.2,361.9c-0.2,0-0.4-0.1-0.6-0.2c-0.3-0.2-0.5-0.6-0.4-1l0.4-2.4l-1.7-1.7c-0.3-0.3-0.4-0.7-0.3-1
				c0.1-0.4,0.4-0.6,0.8-0.7l2.4-0.4l1.1-2.2c0.2-0.3,0.5-0.6,0.9-0.6l0,0c0.4,0,0.7,0.2,0.9,0.6l1.1,2.2l2.4,0.3
				c0.4,0.1,0.7,0.3,0.8,0.7s0,0.8-0.3,1l-1.7,1.7l0.4,2.4c0.1,0.4-0.1,0.8-0.4,1s-0.7,0.3-1.1,0.1l-2.1-1.1l-2.1,1.1
				C350.5,361.9,350.4,361.9,350.2,361.9z M350.7,356.7l0.5,0.5c0.3,0.3,0.4,0.7,0.4,1.1l-0.1,0.8l0.7-0.4c0.4-0.2,0.8-0.2,1.2,0
				l0.7,0.3l-0.1-0.7c-0.1-0.4,0.1-0.8,0.4-1.1l0.5-0.5l-0.8-0.1c-0.4-0.1-0.8-0.3-1-0.7l-0.3-0.7l-0.3,0.7c-0.2,0.4-0.5,0.6-1,0.7
				L350.7,356.7z"/>
		</g>
		<g>
			<path class="st1" d="M340.3,356.8c-0.2,0-0.4-0.1-0.6-0.2c-0.3-0.2-0.5-0.6-0.4-1l0.4-2.4l-1.7-1.7c-0.3-0.3-0.4-0.7-0.3-1
				c0.1-0.4,0.4-0.6,0.8-0.7l2.4-0.4l1.1-2.2c0.2-0.3,0.5-0.6,0.9-0.6l0,0c0.4,0,0.7,0.2,0.9,0.6l1.1,2.2l2.4,0.3
				c0.4,0.1,0.7,0.3,0.8,0.7c0.1,0.4,0,0.8-0.3,1l-1.7,1.7l0.4,2.4c0.1,0.4-0.1,0.8-0.4,1s-0.7,0.3-1.1,0.1l-2.1-1.1l-2.1,1.1
				C340.6,356.8,340.5,356.8,340.3,356.8z M340.8,351.5l0.5,0.5c0.3,0.3,0.4,0.7,0.4,1.1l-0.1,0.8l0.7-0.4c0.4-0.2,0.8-0.2,1.2,0
				l0.7,0.3l-0.1-0.7c-0.1-0.4,0.1-0.8,0.4-1.1l0.5-0.5l-0.8-0.1c-0.4-0.1-0.8-0.3-1-0.7l-0.3-0.7l-0.3,0.7c-0.2,0.4-0.5,0.6-1,0.7
				L340.8,351.5z"/>
		</g>
		<g>
			<path class="st1" d="M340.3,366.6c-0.2,0-0.4-0.1-0.6-0.2c-0.3-0.2-0.5-0.6-0.4-1l0.4-2.4l-1.7-1.7c-0.3-0.3-0.4-0.7-0.3-1
				c0.1-0.4,0.4-0.6,0.8-0.7l2.4-0.4l1.1-2.2c0.2-0.3,0.5-0.6,0.9-0.6l0,0c0.4,0,0.7,0.2,0.9,0.6l1.1,2.2l2.4,0.3
				c0.4,0.1,0.7,0.3,0.8,0.7c0.1,0.4,0,0.8-0.3,1l-1.7,1.7l0.4,2.4c0.1,0.4-0.1,0.8-0.4,1s-0.7,0.3-1.1,0.1l-2.1-1.1l-2.1,1.1
				C340.6,366.6,340.5,366.6,340.3,366.6z M340.8,361.4l0.5,0.5c0.3,0.3,0.4,0.7,0.4,1.1l-0.1,0.8l0.7-0.4c0.4-0.2,0.8-0.2,1.2,0
				l0.7,0.3l-0.1-0.7c-0.1-0.4,0.1-0.8,0.4-1.1l0.5-0.5l-0.8-0.1c-0.4-0.1-0.8-0.3-1-0.7l-0.3-0.7l-0.3,0.7c-0.2,0.4-0.5,0.6-1,0.7
				L340.8,361.4z"/>
		</g>
		<g>
			<path class="st1" d="M264.3,365.2c-0.2,0-0.4-0.1-0.6-0.2c-0.3-0.2-0.5-0.6-0.4-1l0.4-2.4l-1.7-1.7c-0.3-0.3-0.4-0.7-0.3-1
				c0.1-0.4,0.4-0.6,0.8-0.7l2.4-0.4l1.1-2.2c0.2-0.3,0.5-0.6,0.9-0.6l0,0c0.4,0,0.7,0.2,0.9,0.6l1.1,2.2l2.4,0.3
				c0.4,0.1,0.7,0.3,0.8,0.7c0.1,0.4,0,0.8-0.3,1l-1.7,1.7l0.4,2.4c0.1,0.4-0.1,0.8-0.4,1s-0.7,0.3-1.1,0.1l-2.1-1.1l-2.1,1.1
				C264.6,365.1,264.5,365.2,264.3,365.2z M264.8,359.9l0.5,0.5c0.3,0.3,0.4,0.7,0.4,1.1l-0.1,0.8l0.7-0.4c0.4-0.2,0.8-0.2,1.2,0
				l0.7,0.3l-0.1-0.7c-0.1-0.4,0.1-0.8,0.4-1.1l0.5-0.5l-0.8-0.1c-0.4-0.1-0.8-0.3-1-0.7l-0.3-0.7l-0.3,0.7c-0.2,0.4-0.5,0.6-1,0.7
				L264.8,359.9z"/>
		</g>
	</g>
	<g>
		<g>
			<path class="st1" d="M111.8,438.1c-0.2,0-0.4-0.1-0.6-0.2c-0.3-0.2-0.5-0.6-0.4-1l0.4-2.4l-1.7-1.7c-0.3-0.3-0.4-0.7-0.3-1
				c0.1-0.4,0.4-0.6,0.8-0.7l2.4-0.4l1.1-2.2c0.2-0.3,0.5-0.6,0.9-0.6l0,0c0.4,0,0.7,0.2,0.9,0.6l1.1,2.2l2.4,0.3
				c0.4,0.1,0.7,0.3,0.8,0.7s0,0.8-0.3,1l-1.7,1.7l0.4,2.4c0.1,0.4-0.1,0.8-0.4,1c-0.3,0.2-0.7,0.3-1.1,0.1l-2.1-1.1l-2.1,1.1
				C112.2,438.1,112,438.1,111.8,438.1z M112.4,432.9l0.5,0.5c0.3,0.3,0.4,0.7,0.4,1.1l-0.1,0.8l0.7-0.4c0.4-0.2,0.8-0.2,1.2,0
				l0.7,0.3l-0.1-0.7c-0.1-0.4,0.1-0.8,0.4-1.1l0.5-0.5l-0.8-0.1c-0.4-0.1-0.8-0.3-1-0.7l-0.3-0.7l-0.3,0.7c-0.2,0.4-0.5,0.6-1,0.7
				L112.4,432.9z"/>
		</g>
		<g>
			<path class="st1" d="M181.3,438.1c-0.2,0-0.4-0.1-0.6-0.2c-0.3-0.2-0.5-0.6-0.4-1l0.4-2.4l-1.7-1.7c-0.3-0.3-0.4-0.7-0.3-1
				c0.1-0.4,0.4-0.6,0.8-0.7l2.4-0.4l1.1-2.2c0.2-0.3,0.5-0.6,0.9-0.6l0,0c0.4,0,0.7,0.2,0.9,0.6l1.1,2.2l2.4,0.3
				c0.4,0.1,0.7,0.3,0.8,0.7s0,0.8-0.3,1l-1.7,1.7l0.4,2.4c0.1,0.4-0.1,0.8-0.4,1c-0.3,0.2-0.7,0.3-1.1,0.1l-2.1-1.1l-2.1,1.1
				C181.7,438.1,181.5,438.1,181.3,438.1z M181.9,432.9l0.5,0.5c0.3,0.3,0.4,0.7,0.4,1.1l-0.1,0.8l0.7-0.4c0.4-0.2,0.8-0.2,1.2,0
				l0.7,0.3l-0.1-0.7c-0.1-0.4,0.1-0.8,0.4-1.1l0.5-0.5l-0.8-0.1c-0.4-0.1-0.8-0.3-1-0.7l-0.3-0.7l-0.3,0.7c-0.2,0.4-0.5,0.6-1,0.7
				L181.9,432.9z"/>
		</g>
		<g>
			<path class="st1" d="M194.8,438.1c-0.2,0-0.4-0.1-0.6-0.2c-0.3-0.2-0.5-0.6-0.4-1l0.4-2.4l-1.7-1.7c-0.3-0.3-0.4-0.7-0.3-1
				c0.1-0.4,0.4-0.6,0.8-0.7l2.4-0.4l1.1-2.2c0.2-0.3,0.5-0.6,0.9-0.6l0,0c0.4,0,0.7,0.2,0.9,0.6l1.1,2.2l2.4,0.3
				c0.4,0.1,0.7,0.3,0.8,0.7s0,0.8-0.3,1l-1.7,1.7l0.4,2.4c0.1,0.4-0.1,0.8-0.4,1c-0.3,0.2-0.7,0.3-1.1,0.1l-2.1-1.1l-2.1,1.1
				C195.1,438.1,195,438.1,194.8,438.1z M195.3,432.9l0.5,0.5c0.3,0.3,0.4,0.7,0.4,1.1l-0.1,0.8l0.7-0.4c0.4-0.2,0.8-0.2,1.2,0
				l0.7,0.3l-0.1-0.7c-0.1-0.4,0.1-0.8,0.4-1.1l0.5-0.5l-0.8-0.1c-0.4-0.1-0.8-0.3-1-0.7l-0.3-0.7l-0.3,0.7c-0.2,0.4-0.5,0.6-1,0.7
				L195.3,432.9z"/>
		</g>
		<g>
			<path class="st1" d="M252.9,438.1c-0.2,0-0.4-0.1-0.6-0.2c-0.3-0.2-0.5-0.6-0.4-1l0.4-2.4l-1.7-1.7c-0.3-0.3-0.4-0.7-0.3-1
				c0.1-0.4,0.4-0.6,0.8-0.7l2.4-0.4l1.1-2.2c0.2-0.3,0.5-0.6,0.9-0.6l0,0c0.4,0,0.7,0.2,0.9,0.6l1.1,2.2l2.4,0.3
				c0.4,0.1,0.7,0.3,0.8,0.7s0,0.8-0.3,1l-1.7,1.7l0.4,2.4c0.1,0.4-0.1,0.8-0.4,1c-0.3,0.2-0.7,0.3-1.1,0.1l-2.1-1.1l-2.1,1.1
				C253.2,438.1,253.1,438.1,252.9,438.1z M253.4,432.9l0.5,0.5c0.3,0.3,0.4,0.7,0.4,1.1l-0.1,0.8l0.7-0.4c0.4-0.2,0.8-0.2,1.2,0
				l0.7,0.3l-0.1-0.7c-0.1-0.4,0.1-0.8,0.4-1.1l0.5-0.5l-0.8-0.1c-0.4-0.1-0.8-0.3-1-0.7l-0.3-0.7l-0.3,0.7c-0.2,0.4-0.5,0.6-1,0.7
				L253.4,432.9z"/>
		</g>
		<g>
			<path class="st1" d="M275.8,438.1c-0.2,0-0.4-0.1-0.6-0.2c-0.3-0.2-0.5-0.6-0.4-1l0.4-2.4l-1.7-1.7c-0.3-0.3-0.4-0.7-0.3-1
				c0.1-0.4,0.4-0.6,0.8-0.7l2.4-0.4l1.1-2.2c0.2-0.3,0.5-0.6,0.9-0.6l0,0c0.4,0,0.7,0.2,0.9,0.6l1.1,2.2l2.4,0.3
				c0.4,0.1,0.7,0.3,0.8,0.7c0.1,0.4,0,0.8-0.3,1l-1.7,1.7l0.4,2.4c0.1,0.4-0.1,0.8-0.4,1s-0.7,0.3-1.1,0.1l-2.1-1.1l-2.1,1.1
				C276.1,438.1,276,438.1,275.8,438.1z M276.3,432.9l0.5,0.5c0.3,0.3,0.4,0.7,0.4,1.1l-0.1,0.8l0.7-0.4c0.4-0.2,0.8-0.2,1.2,0
				l0.7,0.3l-0.1-0.7c-0.1-0.4,0.1-0.8,0.4-1.1l0.5-0.5l-0.8-0.1c-0.4-0.1-0.8-0.3-1-0.7l-0.3-0.7l-0.3,0.7c-0.2,0.4-0.5,0.6-1,0.7
				L276.3,432.9z"/>
		</g>
		<g>
			<path class="st1" d="M330.4,438.1c-0.2,0-0.4-0.1-0.6-0.2c-0.3-0.2-0.5-0.6-0.4-1l0.4-2.4l-1.7-1.7c-0.3-0.3-0.4-0.7-0.3-1
				c0.1-0.4,0.4-0.6,0.8-0.7l2.4-0.4l1.1-2.2c0.2-0.3,0.5-0.6,0.9-0.6l0,0c0.4,0,0.7,0.2,0.9,0.6l1.1,2.2l2.4,0.3
				c0.4,0.1,0.7,0.3,0.8,0.7s0,0.8-0.3,1l-1.7,1.7l0.4,2.4c0.1,0.4-0.1,0.8-0.4,1c-0.3,0.2-0.7,0.3-1.1,0.1l-2.1-1.1l-2.1,1.1
				C330.8,438.1,330.6,438.1,330.4,438.1z M331,432.9l0.5,0.5c0.3,0.3,0.4,0.7,0.4,1.1l-0.1,0.8l0.7-0.4c0.4-0.2,0.8-0.2,1.2,0
				l0.7,0.3l-0.1-0.7c-0.1-0.4,0.1-0.8,0.4-1.1l0.5-0.5l-0.8-0.1c-0.4-0.1-0.8-0.3-1-0.7l-0.3-0.7l-0.3,0.7c-0.2,0.4-0.5,0.6-1,0.7
				L331,432.9z"/>
		</g>
		<g>
			<path class="st1" d="M350.2,438.1c-0.2,0-0.4-0.1-0.6-0.2c-0.3-0.2-0.5-0.6-0.4-1l0.4-2.4l-1.7-1.7c-0.3-0.3-0.4-0.7-0.3-1
				c0.1-0.4,0.4-0.6,0.8-0.7l2.4-0.4l1.1-2.2c0.2-0.3,0.5-0.6,0.9-0.6l0,0c0.4,0,0.7,0.2,0.9,0.6l1.1,2.2l2.4,0.3
				c0.4,0.1,0.7,0.3,0.8,0.7s0,0.8-0.3,1l-1.7,1.7l0.4,2.4c0.1,0.4-0.1,0.8-0.4,1s-0.7,0.3-1.1,0.1l-2.1-1.1l-2.1,1.1
				C350.5,438.1,350.4,438.1,350.2,438.1z M350.7,432.9l0.5,0.5c0.3,0.3,0.4,0.7,0.4,1.1l-0.1,0.8l0.7-0.4c0.4-0.2,0.8-0.2,1.2,0
				l0.7,0.3l-0.1-0.7c-0.1-0.4,0.1-0.8,0.4-1.1l0.5-0.5l-0.8-0.1c-0.4-0.1-0.8-0.3-1-0.7l-0.3-0.7l-0.3,0.7c-0.2,0.4-0.5,0.6-1,0.7
				L350.7,432.9z"/>
		</g>
		<g>
			<path class="st1" d="M340.3,433c-0.2,0-0.4-0.1-0.6-0.2c-0.3-0.2-0.5-0.6-0.4-1l0.4-2.4l-1.7-1.7c-0.3-0.3-0.4-0.7-0.3-1
				c0.1-0.4,0.4-0.6,0.8-0.7l2.4-0.4l1.1-2.2c0.2-0.3,0.5-0.6,0.9-0.6l0,0c0.4,0,0.7,0.2,0.9,0.6l1.1,2.2l2.4,0.3
				c0.4,0.1,0.7,0.3,0.8,0.7c0.1,0.4,0,0.8-0.3,1l-1.7,1.7l0.4,2.4c0.1,0.4-0.1,0.8-0.4,1s-0.7,0.3-1.1,0.1l-2.1-1.1l-2.1,1.1
				C340.6,433,340.5,433,340.3,433z M340.8,427.7l0.5,0.5c0.3,0.3,0.4,0.7,0.4,1.1l-0.1,0.8l0.7-0.4c0.4-0.2,0.8-0.2,1.2,0l0.7,0.3
				l-0.1-0.7c-0.1-0.4,0.1-0.8,0.4-1.1l0.5-0.5l-0.8-0.1c-0.4-0.1-0.8-0.3-1-0.7l-0.3-0.7l-0.3,0.7c-0.2,0.4-0.5,0.6-1,0.7
				L340.8,427.7z"/>
		</g>
		<g>
			<path class="st1" d="M340.3,442.8c-0.2,0-0.4-0.1-0.6-0.2c-0.3-0.2-0.5-0.6-0.4-1l0.4-2.4l-1.7-1.7c-0.3-0.3-0.4-0.7-0.3-1
				c0.1-0.4,0.4-0.6,0.8-0.7l2.4-0.4l1.1-2.2c0.2-0.3,0.5-0.6,0.9-0.6l0,0c0.4,0,0.7,0.2,0.9,0.6l1.1,2.2l2.4,0.3
				c0.4,0.1,0.7,0.3,0.8,0.7c0.1,0.4,0,0.8-0.3,1l-1.7,1.7l0.4,2.4c0.1,0.4-0.1,0.8-0.4,1s-0.7,0.3-1.1,0.1l-2.1-1.1l-2.1,1.1
				C340.6,442.8,340.5,442.8,340.3,442.8z M340.8,437.6l0.5,0.5c0.3,0.3,0.4,0.7,0.4,1.1l-0.1,0.8l0.7-0.4c0.4-0.2,0.8-0.2,1.2,0
				l0.7,0.3l-0.1-0.7c-0.1-0.4,0.1-0.8,0.4-1.1l0.5-0.5l-0.8-0.1c-0.4-0.1-0.8-0.3-1-0.7l-0.3-0.7l-0.3,0.7c-0.2,0.4-0.5,0.6-1,0.7
				L340.8,437.6z"/>
		</g>
		<g>
			<path class="st1" d="M264.3,441.4c-0.2,0-0.4-0.1-0.6-0.2c-0.3-0.2-0.5-0.6-0.4-1l0.4-2.4l-1.7-1.7c-0.3-0.3-0.4-0.7-0.3-1
				c0.1-0.4,0.4-0.6,0.8-0.7l2.4-0.4l1.1-2.2c0.2-0.3,0.5-0.6,0.9-0.6l0,0c0.4,0,0.7,0.2,0.9,0.6l1.1,2.2l2.4,0.3
				c0.4,0.1,0.7,0.3,0.8,0.7c0.1,0.4,0,0.8-0.3,1l-1.7,1.7l0.4,2.4c0.1,0.4-0.1,0.8-0.4,1s-0.7,0.3-1.1,0.1l-2.1-1.1l-2.1,1.1
				C264.6,441.3,264.5,441.4,264.3,441.4z M264.8,436.1l0.5,0.5c0.3,0.3,0.4,0.7,0.4,1.1l-0.1,0.8l0.7-0.4c0.4-0.2,0.8-0.2,1.2,0
				l0.7,0.3l-0.1-0.7c-0.1-0.4,0.1-0.8,0.4-1.1l0.5-0.5l-0.8-0.1c-0.4-0.1-0.8-0.3-1-0.7l-0.3-0.7l-0.3,0.7c-0.2,0.4-0.5,0.6-1,0.7
				L264.8,436.1z"/>
		</g>
	</g>
</g>
</svg>
