<?xml version="1.0" encoding="utf-8"?>
<!-- Generator: Adobe Illustrator 19.0.0, SVG Export Plug-In . SVG Version: 6.00 Build 0)  -->
<svg version="1.1" id="Calque_1" xmlns="http://www.w3.org/2000/svg" xmlns:xlink="http://www.w3.org/1999/xlink" x="0px" y="0px"
	 viewBox="-92.5 272.6 381 457.5" style="enable-background:new -92.5 272.6 381 457.5;" xml:space="preserve">
<style type="text/css">
	.st0{fill:none;stroke:#221A16;stroke-width:2;stroke-miterlimit:10;}
	.st1{fill:#221A16;}
</style>
<g>
	<circle id="XMLID_202_" class="st0" cx="21.9" cy="387" r="28.1"/>
	<circle id="XMLID_201_" class="st0" cx="98.1" cy="387" r="28.1"/>
	<circle id="XMLID_200_" class="st0" cx="174.4" cy="387" r="28.1"/>
	<circle id="XMLID_199_" class="st0" cx="250.4" cy="387" r="28.1"/>
	<circle id="XMLID_198_" class="st0" cx="-54.4" cy="387" r="28.1"/>
	<g id="XMLID_196_">
		<path id="XMLID_197_" class="st1" d="M2.8,307.7c0,0.6,0.5,1.1,1.1,1.1h1.2c0.3,1.3,1.5,2.3,3,2.3h1.6c0.5,1.9,2.2,3.3,4.3,3.3
			s3.8-1.4,4.3-3.3H26c0.5,1.9,2.2,3.3,4.3,3.3c2.4,0,4.3-1.9,4.4-4.2c2.9-1.4,4.9-4.4,4.9-7.8v-1.8c0-0.6-0.5-1.1-1.1-1.1H35
			l-5.4-5.8c-0.2-0.2-0.5-0.3-0.8-0.3h-9.7c-2.6,0-5,1.3-6.4,3.4l-2.3,3.4c-2.7,1.1-4.8,3.5-5.2,6.5H3.9
			C3.3,306.6,2.8,307.1,2.8,307.7z M11.9,311h4c-0.4,0.7-1.1,1.2-2,1.2C13.1,312.2,12.3,311.7,11.9,311z M30.8,308.9H8.1
			c-0.5,0-0.9-0.4-0.9-0.9c0-3.5,2.8-6.3,6.3-6.3h23.9v0.7C37.4,305.9,34.4,308.9,30.8,308.9L30.8,308.9z M28.2,311h2.6
			c0.5,0,1,0,1.5-0.1c-0.4,0.8-1.2,1.4-2.1,1.4C29.3,312.2,28.6,311.7,28.2,311z M19.1,295.5h3.6v4h-9.2h-0.1l1.1-1.6
			C15.5,296.4,17.2,295.5,19.1,295.5z M28.3,295.5l3.7,4h-7.2v-4H28.3z"/>
	</g>
	<circle id="XMLID_195_" class="st0" cx="21.9" cy="310.7" r="28.1"/>
	<g id="XMLID_193_">
		<path id="XMLID_194_" class="st1" d="M79.8,307.7c0,0.6,0.5,1.1,1.1,1.1h1.2c0.3,1.3,1.5,2.3,3,2.3h1.6c0.5,1.9,2.2,3.3,4.3,3.3
			c2.1,0,3.8-1.4,4.3-3.3h7.7c0.5,1.9,2.2,3.3,4.3,3.3c2.4,0,4.3-1.9,4.4-4.2c2.9-1.4,4.9-4.4,4.9-7.8v-1.8c0-0.6-0.5-1.1-1.1-1.1
			H112l-5.4-5.8c-0.2-0.2-0.5-0.3-0.8-0.3h-9.7c-2.6,0-5,1.3-6.4,3.4l-2.3,3.4c-2.7,1.1-4.8,3.5-5.2,6.5h-1.3
			C80.3,306.6,79.8,307.1,79.8,307.7z M88.9,311h4c-0.4,0.7-1.1,1.2-2,1.2C90.1,312.2,89.3,311.7,88.9,311z M107.8,308.9H85.1
			c-0.5,0-0.9-0.4-0.9-0.9c0-3.5,2.8-6.3,6.3-6.3h23.9v0.7C114.4,305.9,111.4,308.9,107.8,308.9L107.8,308.9z M105.2,311h2.6
			c0.5,0,1,0,1.5-0.1c-0.4,0.8-1.2,1.4-2.1,1.4C106.3,312.2,105.6,311.7,105.2,311z M96.1,295.5h3.6v4h-9.2h-0.1l1.1-1.6
			C92.5,296.4,94.2,295.5,96.1,295.5z M105.3,295.5l3.7,4h-7.2v-4H105.3z"/>
	</g>
	<circle id="XMLID_192_" class="st0" cx="98.1" cy="310.7" r="28.1"/>
	<g id="XMLID_190_">
		<path id="XMLID_191_" class="st1" d="M156.1,307.7c0,0.6,0.5,1.1,1.1,1.1h1.2c0.3,1.3,1.5,2.3,3,2.3h1.6c0.5,1.9,2.2,3.3,4.3,3.3
			s3.8-1.4,4.3-3.3h7.7c0.5,1.9,2.2,3.3,4.3,3.3c2.4,0,4.3-1.9,4.4-4.2c2.9-1.4,4.9-4.4,4.9-7.8v-1.8c0-0.6-0.5-1.1-1.1-1.1h-3.6
			l-5.4-5.8c-0.2-0.2-0.5-0.3-0.8-0.3h-9.7c-2.6,0-5,1.3-6.4,3.4l-2.3,3.4c-2.7,1.1-4.8,3.5-5.2,6.5h-1.3
			C156.5,306.6,156.1,307.1,156.1,307.7z M165.2,311h4c-0.4,0.7-1.1,1.2-2,1.2S165.6,311.7,165.2,311z M184.1,308.9h-22.7
			c-0.5,0-0.9-0.4-0.9-0.9c0-3.5,2.8-6.3,6.3-6.3h23.9v0.7C190.6,305.9,187.7,308.9,184.1,308.9L184.1,308.9z M181.4,311h2.6
			c0.5,0,1,0,1.5-0.1c-0.4,0.8-1.2,1.4-2.1,1.4C182.6,312.2,181.8,311.7,181.4,311z M172.3,295.5h3.6v4h-9.2h-0.1l1.1-1.6
			C168.7,296.4,170.5,295.5,172.3,295.5z M181.5,295.5l3.7,4H178v-4H181.5z"/>
	</g>
	<circle id="XMLID_189_" class="st0" cx="174.4" cy="310.7" r="28.1"/>
	<g id="XMLID_187_">
		<path id="XMLID_188_" class="st1" d="M232.1,307.7c0,0.6,0.5,1.1,1.1,1.1h1.2c0.3,1.3,1.5,2.3,3,2.3h1.6c0.5,1.9,2.2,3.3,4.3,3.3
			s3.8-1.4,4.3-3.3h7.7c0.5,1.9,2.2,3.3,4.3,3.3c2.4,0,4.3-1.9,4.4-4.2c2.9-1.4,4.9-4.4,4.9-7.8v-1.8c0-0.6-0.5-1.1-1.1-1.1h-3.6
			l-5.4-5.8c-0.2-0.2-0.5-0.3-0.8-0.3h-9.7c-2.6,0-5,1.3-6.4,3.4l-2.3,3.4c-2.7,1.1-4.8,3.5-5.2,6.5h-1.3
			C232.5,306.6,232.1,307.1,232.1,307.7z M241.2,311h4c-0.4,0.7-1.1,1.2-2,1.2S241.6,311.7,241.2,311z M260.1,308.9h-22.7
			c-0.5,0-0.9-0.4-0.9-0.9c0-3.5,2.8-6.3,6.3-6.3h23.9v0.7C266.6,305.9,263.7,308.9,260.1,308.9L260.1,308.9z M257.4,311h2.6
			c0.5,0,1,0,1.5-0.1c-0.4,0.8-1.2,1.4-2.1,1.4C258.6,312.2,257.8,311.7,257.4,311z M248.3,295.5h3.6v4h-9.2h-0.1l1.1-1.6
			C244.7,296.4,246.5,295.5,248.3,295.5z M257.5,295.5l3.7,4H254v-4H257.5z"/>
	</g>
	<circle id="XMLID_186_" class="st0" cx="250.4" cy="310.7" r="28.1"/>
	<g id="XMLID_182_">
		<g id="XMLID_184_">
			<path id="XMLID_185_" class="st1" d="M-74,314.5c0,0.6,0.5,1.1,1.1,1.1h1.2c0.3,1.3,1.5,2.3,3,2.3h1.6c0.5,1.9,2.2,3.3,4.3,3.3
				s3.8-1.4,4.3-3.3h7.7c0.5,1.9,2.2,3.3,4.3,3.3c2.4,0,4.3-1.9,4.4-4.2c2.9-1.4,4.9-4.4,4.9-7.8v-1.8c0-0.6-0.5-1.1-1.1-1.1h-3.5
				l-5.4-5.8c-0.2-0.2-0.5-0.3-0.8-0.3h-9.7c-2.6,0-5,1.3-6.4,3.4l-2.3,3.4c-2.7,1.1-4.8,3.5-5.2,6.5h-1.3
				C-73.5,313.5-74,313.9-74,314.5z M-64.9,317.9h4c-0.4,0.7-1.1,1.2-2,1.2S-64.5,318.6-64.9,317.9z M-46,315.8h-22.8
				c-0.5,0-0.9-0.4-0.9-0.9c0-3.5,2.8-6.3,6.3-6.3h23.9v0.7C-39.5,312.8-42.4,315.8-46,315.8L-46,315.8z M-48.6,317.9h2.6
				c0.5,0,1,0,1.5-0.1c-0.4,0.8-1.2,1.4-2.1,1.4C-47.5,319.1-48.3,318.6-48.6,317.9z M-57.7,302.4h3.6v4h-9.2h-0.1l1.1-1.6
				C-61.4,303.3-59.6,302.4-57.7,302.4z M-48.5,302.4l3.7,4H-52v-4H-48.5z"/>
		</g>
		<circle id="XMLID_183_" class="st0" cx="-55.7" cy="310.7" r="28.1"/>
	</g>
	<circle id="XMLID_181_" class="st0" cx="21.9" cy="463.2" r="28.1"/>
	<circle id="XMLID_180_" class="st0" cx="98.1" cy="463.2" r="28.1"/>
	<circle id="XMLID_179_" class="st0" cx="174.4" cy="463.2" r="28.1"/>
	<circle id="XMLID_178_" class="st0" cx="250.4" cy="463.2" r="28.1"/>
	<circle id="XMLID_177_" class="st0" cx="-54.4" cy="463.2" r="28.1"/>
	<g id="XMLID_175_">
		<path id="XMLID_176_" class="st1" d="M-72.4,468c0.4,0.5,1,0.7,1.7,0.7h0.2c0.4,1.6,1.9,2.7,3.5,2.7c1.7,0,3.1-1.2,3.5-2.7h16.2
			c0.4,1.6,1.9,2.7,3.5,2.7c1.7,0,3.1-1.2,3.5-2.7h3.1c0.4,0,0.8-0.3,0.9-0.6c0-0.1,1-3.2-0.5-5.7c-0.9-1.5-2.6-2.4-4.9-2.7
			c-1.1-0.1-2.2-0.5-3.1-0.9c-10.3-5.1-17.8-4.2-22.3-2.5l-2.2-0.3c-0.5-0.1-1,0.3-1.1,0.8c-0.1,0.4,0.1,0.7,0.4,0.9
			c-1.6,1-2.6,2.8-2.8,4.7l-0.4,4C-73,466.9-72.8,467.5-72.4,468z M-66.9,466c1,0,1.8,0.8,1.8,1.8s-0.8,1.8-1.8,1.8
			s-1.8-0.8-1.8-1.8S-67.9,466-66.9,466z M-43.7,466c1,0,1.8,0.8,1.8,1.8s-0.8,1.8-1.8,1.8s-1.8-0.8-1.8-1.8S-44.6,466-43.7,466z
			 M-70.5,466.9h-0.2c-0.1,0-0.2-0.1-0.3-0.1c0,0-0.1-0.1-0.1-0.3l0.4-4c0.1-1.5,1-2.8,2.3-3.5c0.5-0.3,1.1-0.6,1.8-0.8
			c0.1,0,0.2-0.1,0.3-0.1c4.1-1.5,11.1-2.3,20.8,2.5c1.2,0.6,2.4,1,3.7,1.1c1.7,0.2,2.9,0.8,3.5,1.8c0.7,1.2,0.6,2.6,0.5,3.4h-2.4
			c-0.4-1.6-1.9-2.7-3.5-2.7s-3.1,1.2-3.5,2.7h-16.2c-0.4-1.6-1.9-2.7-3.5-2.7C-68.6,464.1-70.1,465.3-70.5,466.9L-70.5,466.9z"/>
	</g>
	<g id="XMLID_173_">
		<path id="XMLID_174_" class="st1" d="M3.9,463.4c0.4,0.5,1,0.7,1.7,0.7h0.2c0.4,1.6,1.9,2.7,3.5,2.7c1.7,0,3.1-1.2,3.5-2.7H29
			c0.4,1.6,1.9,2.7,3.5,2.7c1.7,0,3.1-1.2,3.5-2.7h3.1c0.4,0,0.8-0.3,0.9-0.6c0-0.1,1-3.2-0.5-5.7c-0.9-1.5-2.6-2.4-4.9-2.7
			c-1.1-0.1-2.2-0.5-3.1-0.9c-10.3-5.1-17.8-4.2-22.3-2.5L7,451.4c-0.5-0.1-1,0.3-1.1,0.8c-0.1,0.4,0.1,0.7,0.4,0.9
			c-1.6,1-2.6,2.8-2.8,4.7l-0.4,4C3.2,462.3,3.4,462.9,3.9,463.4z M9.3,461.4c1,0,1.8,0.8,1.8,1.8s-0.8,1.8-1.8,1.8
			s-1.8-0.8-1.8-1.8C7.5,462.2,8.3,461.4,9.3,461.4z M32.6,461.4c1,0,1.8,0.8,1.8,1.8s-0.8,1.8-1.8,1.8s-1.8-0.8-1.8-1.8
			C30.8,462.2,31.6,461.4,32.6,461.4z M5.8,462.2H5.6c-0.1,0-0.2-0.1-0.3-0.1c0,0-0.1-0.1-0.1-0.3l0.4-4c0.1-1.5,1-2.8,2.3-3.5
			c0.5-0.3,1.1-0.6,1.8-0.8c0.1,0,0.2-0.1,0.3-0.1c4.1-1.5,11.1-2.3,20.8,2.5c1.2,0.6,2.4,1,3.7,1.1c1.7,0.2,2.9,0.8,3.5,1.8
			c0.7,1.2,0.6,2.6,0.5,3.4h-2.4c-0.4-1.6-1.9-2.7-3.5-2.7s-3.1,1.2-3.5,2.7H12.9c-0.4-1.6-1.9-2.7-3.5-2.7
			C7.6,459.5,6.2,460.7,5.8,462.2L5.8,462.2z"/>
	</g>
	<g id="XMLID_171_">
		<path id="XMLID_172_" class="st1" d="M80.1,463.4c0.4,0.5,1,0.7,1.7,0.7H82c0.4,1.6,1.9,2.7,3.5,2.7s3.1-1.2,3.5-2.7h16.2
			c0.4,1.6,1.9,2.7,3.5,2.7c1.7,0,3.1-1.2,3.5-2.7h3.1c0.4,0,0.8-0.3,0.9-0.6c0-0.1,1-3.2-0.5-5.7c-0.9-1.5-2.6-2.4-4.9-2.7
			c-1.1-0.1-2.2-0.5-3.1-0.9c-10.3-5.1-17.8-4.2-22.3-2.5l-2.2-0.3c-0.5-0.1-1,0.3-1.1,0.8c-0.1,0.4,0.1,0.7,0.4,0.9
			c-1.6,1-2.6,2.8-2.8,4.7l-0.4,4C79.5,462.3,79.7,462.9,80.1,463.4z M85.6,461.4c1,0,1.8,0.8,1.8,1.8s-0.8,1.8-1.8,1.8
			s-1.8-0.8-1.8-1.8C83.8,462.2,84.6,461.4,85.6,461.4z M108.8,461.4c1,0,1.8,0.8,1.8,1.8s-0.8,1.8-1.8,1.8s-1.8-0.8-1.8-1.8
			C107.1,462.2,107.9,461.4,108.8,461.4z M82,462.2h-0.2c-0.1,0-0.2-0.1-0.3-0.1c0,0-0.1-0.1-0.1-0.3l0.4-4c0.1-1.5,1-2.8,2.3-3.5
			c0.5-0.3,1.1-0.6,1.8-0.8c0.1,0,0.2-0.1,0.3-0.1c4.1-1.5,11.1-2.3,20.8,2.5c1.2,0.6,2.4,1,3.7,1.1c1.7,0.2,2.9,0.8,3.5,1.8
			c0.7,1.2,0.6,2.6,0.5,3.4h-2.4c-0.4-1.6-1.9-2.7-3.5-2.7c-1.7,0-3.1,1.2-3.5,2.7H89.1c-0.4-1.6-1.9-2.7-3.5-2.7
			S82.4,460.7,82,462.2L82,462.2z"/>
	</g>
	<g id="XMLID_169_">
		<path id="XMLID_170_" class="st1" d="M156.4,463.4c0.4,0.5,1,0.7,1.7,0.7h0.2c0.4,1.6,1.9,2.7,3.5,2.7s3.1-1.2,3.5-2.7h16.2
			c0.4,1.6,1.9,2.7,3.5,2.7c1.7,0,3.1-1.2,3.5-2.7h3.1c0.4,0,0.8-0.3,0.9-0.6c0-0.1,1-3.2-0.5-5.7c-0.9-1.5-2.6-2.4-4.9-2.7
			c-1.1-0.1-2.2-0.5-3.1-0.9c-10.3-5.1-17.8-4.2-22.3-2.5l-2.2-0.3c-0.5-0.1-1,0.3-1.1,0.8c-0.1,0.4,0.1,0.7,0.4,0.9
			c-1.6,1-2.6,2.8-2.8,4.7l-0.4,4C155.7,462.3,155.9,462.9,156.4,463.4z M161.8,461.4c1,0,1.8,0.8,1.8,1.8s-0.8,1.8-1.8,1.8
			s-1.8-0.8-1.8-1.8C160,462.2,160.8,461.4,161.8,461.4z M185.1,461.4c1,0,1.8,0.8,1.8,1.8s-0.8,1.8-1.8,1.8s-1.8-0.8-1.8-1.8
			C183.3,462.2,184.1,461.4,185.1,461.4z M158.3,462.2h-0.2c-0.1,0-0.2-0.1-0.3-0.1c0,0-0.1-0.1-0.1-0.3l0.4-4
			c0.1-1.5,1-2.8,2.3-3.5c0.5-0.3,1.1-0.6,1.8-0.8c0.1,0,0.2-0.1,0.3-0.1c4.1-1.5,11.1-2.3,20.8,2.5c1.2,0.6,2.4,1,3.7,1.1
			c1.7,0.2,2.9,0.8,3.5,1.8c0.7,1.2,0.6,2.6,0.5,3.4h-2.4c-0.4-1.6-1.9-2.7-3.5-2.7c-1.7,0-3.1,1.2-3.5,2.7h-16.2
			c-0.4-1.6-1.9-2.7-3.5-2.7S158.7,460.7,158.3,462.2L158.3,462.2z"/>
	</g>
	<g id="XMLID_167_">
		<path id="XMLID_168_" class="st1" d="M232.4,463.4c0.4,0.5,1,0.7,1.7,0.7h0.2c0.4,1.6,1.9,2.7,3.5,2.7c1.7,0,3.1-1.2,3.5-2.7h16.2
			c0.4,1.6,1.9,2.7,3.5,2.7s3.1-1.2,3.5-2.7h3.1c0.4,0,0.8-0.3,0.9-0.6c0-0.1,1-3.2-0.5-5.7c-0.9-1.5-2.6-2.4-4.9-2.7
			c-1.1-0.1-2.2-0.5-3.1-0.9c-10.3-5.1-17.8-4.2-22.3-2.5l-2.2-0.3c-0.5-0.1-1,0.3-1.1,0.8c-0.1,0.4,0.1,0.7,0.4,0.9
			c-1.6,1-2.6,2.8-2.8,4.7l-0.4,4C231.7,462.3,231.9,462.9,232.4,463.4z M237.8,461.4c1,0,1.8,0.8,1.8,1.8s-0.8,1.8-1.8,1.8
			s-1.8-0.8-1.8-1.8C236,462.2,236.8,461.4,237.8,461.4z M261.1,461.4c1,0,1.8,0.8,1.8,1.8s-0.8,1.8-1.8,1.8s-1.8-0.8-1.8-1.8
			C259.3,462.2,260.1,461.4,261.1,461.4z M234.3,462.2h-0.2c-0.1,0-0.2-0.1-0.3-0.1c0,0-0.1-0.1-0.1-0.3l0.4-4
			c0.1-1.5,1-2.8,2.3-3.5c0.5-0.3,1.1-0.6,1.8-0.8c0.1,0,0.2-0.1,0.3-0.1c4.1-1.5,11.1-2.3,20.8,2.5c1.2,0.6,2.4,1,3.7,1.1
			c1.7,0.2,2.9,0.8,3.5,1.8c0.7,1.2,0.6,2.6,0.5,3.4h-2.4c-0.4-1.6-1.9-2.7-3.5-2.7c-1.7,0-3.1,1.2-3.5,2.7h-16.2
			c-0.4-1.6-1.9-2.7-3.5-2.7C236.1,459.5,234.7,460.7,234.3,462.2L234.3,462.2z"/>
	</g>
	<circle id="XMLID_166_" class="st0" cx="21.9" cy="539.5" r="28.1"/>
	<circle id="XMLID_165_" class="st0" cx="98.1" cy="539.5" r="28.1"/>
	<circle id="XMLID_164_" class="st0" cx="174.4" cy="539.5" r="28.1"/>
	<circle id="XMLID_163_" class="st0" cx="250.4" cy="539.5" r="28.1"/>
	<circle id="XMLID_162_" class="st0" cx="-54.4" cy="539.5" r="28.1"/>
	<g id="XMLID_160_">
		<path id="XMLID_161_" class="st1" d="M-35.2,539.5l-1.1-0.7l-0.8-2.2c-0.1-0.4-0.5-0.7-0.9-0.7l-11.2-0.7l-3.3-2.3
			c-1.7-1.2-3.8-1.6-5.8-1.1l-2.4,0.6c-2.6,0.6-5.1,1.6-7.5,3h-0.1h-2.8l-0.9-0.9c-0.4-0.4-1.1-0.4-1.5,0s-0.4,1.1,0,1.5l1.2,1.2
			c0.2,0.2,0.5,0.3,0.7,0.3h0.2c-0.6,0.5-1.2,1-1.8,1.5c-0.2,0.2-0.3,0.5-0.3,0.8v0.9l-0.7,1.4c-0.1,0.1-0.1,0.3-0.1,0.5
			c0,1.3,1,2.3,2.3,2.3h3.8c0.5,1.7,2,2.9,3.8,2.9s3.4-1.2,3.8-2.9h12.8c0.5,1.7,2,2.9,3.8,2.9s3.4-1.2,3.8-2.9h2.6
			c1,0,2-0.7,2.2-1.7l0.5-1.6C-34.4,540.5-34.7,539.8-35.2,539.5z M-37.1,542.3c0,0.1-0.1,0.2-0.2,0.2h-2.6c-0.5-1.7-2-2.9-3.8-2.9
			s-3.4,1.2-3.8,2.9h-12.8c-0.5-1.7-2-2.9-3.8-2.9c-1.8,0-3.4,1.2-3.8,2.9h-3.9c-0.1,0-0.2,0-0.2-0.1l0.6-1.3
			c0.1-0.1,0.1-0.3,0.1-0.5V540c3.2-2.8,7-4.7,11.1-5.7l2.4-0.6c1.4-0.3,2.9,0,4.1,0.8l3.5,2.5c0.2,0.1,0.3,0.2,0.5,0.2l10.8,0.7
			l0.7,1.9c0.1,0.2,0.2,0.4,0.4,0.5l1,0.7L-37.1,542.3z M-41.8,543.5c0,1-0.9,1.9-1.9,1.9s-1.9-0.9-1.9-1.9s0.9-1.9,1.9-1.9
			S-41.8,542.4-41.8,543.5z M-62.3,543.5c0,1-0.9,1.9-1.9,1.9s-1.9-0.9-1.9-1.9s0.9-1.9,1.9-1.9S-62.3,542.4-62.3,543.5z"/>
	</g>
	<g id="XMLID_158_">
		<path id="XMLID_159_" class="st1" d="M41,534.8l-1.1-0.7l-0.8-2.2c-0.1-0.4-0.5-0.7-0.9-0.7L27,530.5l-3.3-2.3
			c-1.7-1.2-3.8-1.6-5.8-1.1l-2.4,0.6c-2.6,0.6-5.1,1.6-7.5,3H7.9H5.2l-0.9-0.9c-0.4-0.4-1.1-0.4-1.5,0s-0.4,1.1,0,1.5l1.2,1.2
			c0.2,0.2,0.5,0.3,0.7,0.3h0.2c-0.6,0.5-1.2,1-1.8,1.5c-0.2,0.2-0.3,0.5-0.3,0.8v0.9l-0.7,1.4C2,537.5,2,537.7,2,537.9
			c0,1.3,1,2.3,2.3,2.3h3.8c0.5,1.7,2,2.9,3.8,2.9s3.4-1.2,3.8-2.9h12.8c0.5,1.7,2,2.9,3.8,2.9s3.4-1.2,3.8-2.9h2.6
			c1,0,2-0.7,2.2-1.7l0.5-1.6C41.8,535.9,41.6,535.2,41,534.8z M39.2,537.6c0,0.1-0.1,0.2-0.2,0.2h-2.6c-0.5-1.7-2-2.9-3.8-2.9
			s-3.4,1.2-3.8,2.9H16c-0.5-1.7-2-2.9-3.8-2.9s-3.4,1.2-3.8,2.9H4.6c-0.1,0-0.2,0-0.2-0.1l0.6-1.3c0.1-0.1,0.1-0.3,0.1-0.5v-0.6
			c3.2-2.8,7-4.7,11.1-5.7l2.4-0.6c1.4-0.3,2.9,0,4.1,0.8l3.5,2.5c0.2,0.1,0.3,0.2,0.5,0.2l10.8,0.7l0.7,1.9
			c0.1,0.2,0.2,0.4,0.4,0.5l1,0.7L39.2,537.6z M34.4,538.8c0,1-0.9,1.9-1.9,1.9c-1,0-1.9-0.9-1.9-1.9s0.9-1.9,1.9-1.9
			C33.5,536.9,34.4,537.8,34.4,538.8z M13.9,538.8c0,1-0.9,1.9-1.9,1.9s-1.9-0.9-1.9-1.9s0.9-1.9,1.9-1.9
			C13.1,536.9,13.9,537.8,13.9,538.8z"/>
	</g>
	<g id="XMLID_156_">
		<path id="XMLID_157_" class="st1" d="M117,534.8l-1.1-0.7l-0.8-2.2c-0.1-0.4-0.5-0.7-0.9-0.7l-11.2-0.7l-3.3-2.3
			c-1.7-1.2-3.8-1.6-5.8-1.1l-2.4,0.6c-2.6,0.6-5.1,1.6-7.5,3h-0.1h-2.8l-0.9-1.1c-0.4-0.4-1.1-0.4-1.5,0s-0.4,1.1,0,1.5l1.2,1.2
			c0.2,0.2,0.5,0.3,0.7,0.3h0.2c-0.6,0.5-1.2,1-1.8,1.5c-0.2,0.2-0.3,0.5-0.3,0.8v0.9l-0.7,1.4c-0.1,0.1-0.1,0.3-0.1,0.5
			c0,1.3,1,2.3,2.3,2.3H84c0.5,1.7,2,2.9,3.8,2.9s3.4-1.2,3.8-2.9h12.8c0.5,1.7,2,2.9,3.8,2.9s3.4-1.2,3.8-2.9h2.6
			c1,0,2-0.7,2.2-1.7l0.5-1.6C117.8,535.9,117.5,535.2,117,534.8z M115.1,537.6c0,0.1-0.1,0.2-0.2,0.2h-2.6c-0.5-1.7-2-2.9-3.8-2.9
			s-3.4,1.2-3.8,2.9H91.9c-0.5-1.7-2-2.9-3.8-2.9s-3.4,1.2-3.8,2.9h-3.8c-0.1,0-0.2,0-0.2-0.1l0.6-1.3c0.1-0.1,0.1-0.3,0.1-0.5v-0.6
			c3.2-2.8,7-4.7,11.1-5.7l2.4-0.6c1.4-0.3,2.9,0,4.1,0.8l3.5,2.5c0.2,0.1,0.3,0.2,0.5,0.2l10.8,0.7l0.7,1.9
			c0.1,0.2,0.2,0.4,0.4,0.5l1,0.7L115.1,537.6z M110.4,538.8c0,1-0.9,1.9-1.9,1.9s-1.9-0.9-1.9-1.9s0.9-1.9,1.9-1.9
			S110.4,537.8,110.4,538.8z M89.9,538.8c0,1-0.9,1.9-1.9,1.9s-1.9-0.9-1.9-1.9s0.9-1.9,1.9-1.9S89.9,537.8,89.9,538.8z"/>
	</g>
	<g id="XMLID_154_">
		<path id="XMLID_155_" class="st1" d="M193.5,534.8l-1.1-0.7l-0.8-2.2c-0.1-0.4-0.5-0.7-0.9-0.7l-11.2-0.7l-3.3-2.3
			c-1.7-1.2-3.8-1.6-5.8-1.1l-2.4,0.6c-2.6,0.6-5.1,1.6-7.5,3h-0.1h-2.8l-0.9-0.9c-0.4-0.4-1.1-0.4-1.5,0s-0.4,1.1,0,1.5l1.2,1.2
			c0.2,0.2,0.5,0.3,0.7,0.3h0.2c-0.6,0.5-1.2,1-1.8,1.5c-0.2,0.2-0.3,0.5-0.3,0.8v0.9l-0.7,1.4c-0.1,0.1-0.1,0.3-0.1,0.5
			c0,1.3,1,2.3,2.3,2.3h3.8c0.5,1.7,2,2.9,3.8,2.9s3.4-1.2,3.8-2.9h13.1c0.5,1.7,2,2.9,3.8,2.9s3.4-1.2,3.8-2.9h2.6
			c1,0,2-0.7,2.2-1.7l0.5-1.6C194.3,535.9,194.1,535.2,193.5,534.8z M191.7,537.6c0,0.1-0.1,0.2-0.2,0.2h-2.6
			c-0.5-1.7-2-2.9-3.8-2.9s-3.4,1.2-3.8,2.9h-12.8c-0.5-1.7-2-2.9-3.8-2.9s-3.4,1.2-3.8,2.9h-3.8c-0.1,0-0.2,0-0.2-0.1l0.6-1.3
			c0.1-0.1,0.1-0.3,0.1-0.5v-0.6c3.2-2.8,7-4.7,11.1-5.7l2.4-0.6c1.4-0.3,2.9,0,4.1,0.8l3.5,2.5c0.2,0.1,0.3,0.2,0.5,0.2l10.8,0.7
			l0.7,1.9c0.1,0.2,0.2,0.4,0.4,0.5l1,0.7L191.7,537.6z M186.9,538.8c0,1-0.9,1.9-1.9,1.9s-1.9-0.9-1.9-1.9s0.9-1.9,1.9-1.9
			S186.9,537.8,186.9,538.8z M166.4,538.8c0,1-0.9,1.9-1.9,1.9s-1.9-0.9-1.9-1.9s0.9-1.9,1.9-1.9S166.4,537.8,166.4,538.8z"/>
	</g>
	<g id="XMLID_152_">
		<path id="XMLID_153_" class="st1" d="M269.5,534.8l-1.1-0.7l-0.8-2.2c-0.1-0.4-0.5-0.7-0.9-0.7l-11.2-0.7l-3.3-2.3
			c-1.7-1.2-3.8-1.6-5.8-1.1l-2.4,0.6c-2.6,0.6-5.1,1.6-7.5,3h-0.1h-2.8l-0.9-0.9c-0.4-0.4-1.1-0.4-1.5,0s-0.4,1.1,0,1.5l1.2,1.2
			c0.2,0.2,0.5,0.3,0.7,0.3h0.2c-0.6,0.5-1.2,1-1.8,1.5c-0.2,0.2-0.3,0.5-0.3,0.8v0.9l-0.7,1.4c-0.1,0.1-0.1,0.3-0.1,0.5
			c0,1.3,1,2.3,2.3,2.3h3.8c0.5,1.7,2,2.9,3.8,2.9s3.4-1.2,3.8-2.9h13.1c0.5,1.7,2,2.9,3.8,2.9s3.4-1.2,3.8-2.9h2.6
			c1,0,2-0.7,2.2-1.7l0.5-1.6C270.3,535.9,270.1,535.2,269.5,534.8z M267.7,537.6c0,0.1-0.1,0.2-0.2,0.2h-2.6
			c-0.5-1.7-2-2.9-3.8-2.9s-3.4,1.2-3.8,2.9h-12.8c-0.5-1.7-2-2.9-3.8-2.9s-3.4,1.2-3.8,2.9h-3.8c-0.1,0-0.2,0-0.2-0.1l0.6-1.3
			c0.1-0.1,0.1-0.3,0.1-0.5v-0.6c3.2-2.8,7-4.7,11.1-5.7l2.4-0.6c1.4-0.3,2.9,0,4.1,0.8l3.5,2.5c0.2,0.1,0.3,0.2,0.5,0.2l10.8,0.7
			l0.7,1.9c0.1,0.2,0.2,0.4,0.4,0.5l1,0.7L267.7,537.6z M262.9,538.8c0,1-0.9,1.9-1.9,1.9s-1.9-0.9-1.9-1.9s0.9-1.9,1.9-1.9
			C262.1,536.9,262.9,537.8,262.9,538.8z M242.4,538.8c0,1-0.9,1.9-1.9,1.9s-1.9-0.9-1.9-1.9s0.9-1.9,1.9-1.9
			S242.4,537.8,242.4,538.8z"/>
	</g>
	<circle id="XMLID_151_" class="st0" cx="21.9" cy="615.7" r="28.1"/>
	<circle id="XMLID_150_" class="st0" cx="98.1" cy="615.7" r="28.1"/>
	<circle id="XMLID_149_" class="st0" cx="174.4" cy="615.7" r="28.1"/>
	<circle id="XMLID_148_" class="st0" cx="250.4" cy="615.7" r="28.1"/>
	<circle id="XMLID_147_" class="st0" cx="-54.4" cy="615.7" r="28.1"/>
	<g id="XMLID_122_">
		<path id="XMLID_146_" class="st1" d="M-37.6,391.4H-38V390c0.3-0.1,0.6-0.4,0.6-0.8s-0.2-0.7-0.6-0.8c-0.2-2.5-2-4.5-4.5-4.9
			l-4.4-0.7l-1-1.3c-1.6-2.1-3.9-3.4-6.5-3.5l0,0h-4.4c-6,0-11.1,4.3-12.4,9.9c-0.5,0-0.8,0.4-0.8,0.9v0.4c0,0.2,0.1,0.4,0.2,0.6
			c-0.1,0.4-0.1,0.8-0.1,1.2v0.6c0,0.5,0.4,0.9,0.9,0.9h0.4l2.6,0.1c0.1,1.9,1.7,3.5,3.6,3.5s3.5-1.5,3.6-3.3l11.5,0.2l0,0l0,0h1.5
			c0.3,1.7,1.8,3.1,3.6,3.1s3.2-1.3,3.6-2.9l3.1,0.1l0,0c0.5,0,0.9-0.4,0.9-0.9C-36.7,391.8-37.1,391.4-37.6,391.4z M-42.4,392.4
			c0,1-0.8,1.9-1.9,1.9c-1,0-1.9-0.8-1.9-1.9c0-1,0.8-1.9,1.9-1.9C-43.2,390.5-42.4,391.3-42.4,392.4z M-66.3,392.6h0.8
			c0.1,0.5,0.5,0.9,1,0.9s0.9-0.4,1-0.8h0.8c-0.1,0.9-0.9,1.6-1.9,1.6C-65.4,394.2-66.2,393.5-66.3,392.6z M-58.8,379.7h4.4
			c2.1,0.1,4,1.1,5.2,2.8l1.2,1.6c0.1,0.2,0.3,0.3,0.6,0.3l4.7,0.8c1.7,0.3,2.9,1.6,3.1,3.3c-1.1-1.3-2.7-2.1-4.5-2.1
			c-2.8,0-5.3,2-5.8,4.7l-8.3-0.2v-1.3c0-2.9-2.3-5.2-5.2-5.2h-1.7c-1.1,0-2.1,0.3-3,0.7C-66.4,381.9-62.9,379.7-58.8,379.7z
			 M-70.1,390.7c0.1-2.5,2.3-4.5,4.8-4.5h1.7c1.9,0,3.5,1.6,3.5,3.5v1.1h-10V390.7z M-44.3,388.7c-1.6,0-2.9,1-3.4,2.4h-0.6
			c0.5-1.8,2.1-3,4-3c2,0,3.6,1.3,4.1,3.2h-0.7C-41.3,389.8-42.6,388.7-44.3,388.7z"/>
		<circle id="XMLID_145_" class="st1" cx="-44.3" cy="392.4" r="1.1"/>
		<path id="XMLID_137_" class="st1" d="M-57,385.5h7.1c0.3,0,0.6-0.2,0.8-0.5c0.1-0.3,0.1-0.6-0.1-0.9l-0.8-1l0,0
			c-1.1-1.4-2.7-2.3-4.5-2.4l0,0H-57c-0.5,0-0.9,0.4-0.9,0.9v3.1C-57.9,385.1-57.5,385.5-57,385.5z M-56.2,382.5h1.6
			c1.1,0.1,2.1,0.5,2.8,1.3h-4.4L-56.2,382.5L-56.2,382.5z"/>
	</g>
	<g id="XMLID_114_">
		<path id="XMLID_119_" class="st1" d="M38.5,384.5h-0.4v-1.4c0.3-0.1,0.6-0.4,0.6-0.8s-0.2-0.7-0.6-0.8c-0.2-2.5-2-4.5-4.5-4.9
			l-4.4-0.7l-1-1.3c-1.6-2.1-3.9-3.4-6.5-3.5l0,0h-4.5c-6,0-11.1,4.3-12.4,9.9c-0.5,0-0.8,0.4-0.8,0.9v0.4c0,0.2,0.1,0.4,0.2,0.6
			c-0.1,0.4-0.1,0.8-0.1,1.2v0.6c0,0.5,0.4,0.9,0.9,0.9h0.4l2.6,0.1c0.1,1.9,1.7,3.5,3.6,3.5s3.5-1.5,3.6-3.3l11.5,0.2l0,0l0,0h1.5
			c0.3,1.7,1.8,3.1,3.6,3.1s3.2-1.3,3.6-2.9l3.1,0.1l0,0c0.5,0,0.9-0.4,0.9-0.9C39.3,384.9,39,384.5,38.5,384.5z M33.6,385.5
			c0,1-0.8,1.9-1.9,1.9c-1,0-1.9-0.8-1.9-1.9c0-1,0.8-1.9,1.9-1.9S33.6,384.5,33.6,385.5z M9.7,385.7h0.8c0.1,0.5,0.5,0.9,1,0.9
			s0.9-0.4,1-0.8h0.8c-0.1,0.9-0.9,1.6-1.9,1.6C10.6,387.4,9.8,386.6,9.7,385.7z M17.2,372.8h4.4c2.1,0.1,4,1.1,5.2,2.8l1.2,1.6
			c0.1,0.2,0.3,0.3,0.6,0.3l4.7,0.8c1.7,0.3,2.9,1.6,3.1,3.3c-1.1-1.3-2.7-2.1-4.5-2.1c-2.8,0-5.3,2-5.8,4.7l-8.3-0.2v-1.3
			c0-2.9-2.3-5.2-5.2-5.2h-1.7c-1.1,0-2.1,0.3-3,0.7C9.7,375,13.2,372.8,17.2,372.8z M5.9,383.8c0.1-2.5,2.3-4.5,4.8-4.5h1.7
			c1.9,0,3.5,1.6,3.5,3.5v1.1L5.9,383.8L5.9,383.8z M31.8,381.9c-1.6,0-2.9,1-3.4,2.4h-0.6c0.5-1.8,2.1-3,4-3c2,0,3.6,1.3,4.1,3.2
			h-0.7C34.8,383,33.4,381.9,31.8,381.9z"/>
		<circle id="XMLID_118_" class="st1" cx="31.8" cy="385.5" r="1.1"/>
		<path id="XMLID_115_" class="st1" d="M19,378.7h7.1c0.3,0,0.6-0.2,0.8-0.5c0.1-0.3,0.1-0.6-0.1-0.9l-0.8-1l0,0
			c-1.1-1.4-2.7-2.3-4.5-2.4l0,0H19c-0.5,0-0.9,0.4-0.9,0.9v3.1C18.1,378.3,18.5,378.7,19,378.7z M19.9,375.6h1.6
			c1.1,0.1,2.1,0.5,2.8,1.3h-4.4V375.6L19.9,375.6z"/>
	</g>
	<g id="XMLID_106_">
		<path id="XMLID_113_" class="st1" d="M116,384.5h-0.4v-1.4c0.3-0.1,0.6-0.4,0.6-0.8s-0.2-0.7-0.6-0.8c-0.2-2.5-2-4.5-4.5-4.9
			l-4.4-0.7l-1-1.3c-1.6-2.1-3.9-3.4-6.5-3.5l0,0h-4.4c-6,0-11.1,4.3-12.4,9.9c-0.5,0-0.8,0.4-0.8,0.9v0.4c0,0.2,0.1,0.4,0.2,0.6
			c-0.1,0.4-0.1,0.8-0.1,1.2v0.6c0,0.5,0.4,0.9,0.9,0.9H83l2.6,0.1c0.1,1.9,1.7,3.5,3.6,3.5s3.5-1.5,3.6-3.3l11.5,0.2l0,0l0,0h1.5
			c0.3,1.7,1.8,3.1,3.6,3.1c1.8,0,3.2-1.3,3.6-2.9l3.1,0.1l0,0c0.5,0,0.9-0.4,0.9-0.9C116.9,384.9,116.5,384.5,116,384.5z
			 M111.2,385.5c0,1-0.8,1.9-1.9,1.9c-1,0-1.9-0.8-1.9-1.9c0-1,0.8-1.9,1.9-1.9S111.2,384.5,111.2,385.5z M87.3,385.7h0.8
			c0.1,0.5,0.5,0.9,1,0.9s0.9-0.4,1-0.8h0.8c-0.1,0.9-0.9,1.6-1.9,1.6C88.2,387.4,87.4,386.6,87.3,385.7z M94.8,372.8h4.4
			c2.1,0.1,4,1.1,5.2,2.8l1.2,1.6c0.1,0.2,0.3,0.3,0.6,0.3l4.7,0.8c1.7,0.3,2.9,1.6,3.1,3.3c-1.1-1.3-2.7-2.1-4.5-2.1
			c-2.8,0-5.3,2-5.8,4.7l-8.3-0.2v-1.3c0-2.9-2.3-5.2-5.2-5.2h-1.7c-1.1,0-2.1,0.3-3,0.7C87.2,375,90.7,372.8,94.8,372.8z
			 M83.5,383.8c0.1-2.5,2.3-4.5,4.8-4.5H90c1.9,0,3.5,1.6,3.5,3.5v1.1L83.5,383.8L83.5,383.8z M109.3,381.9c-1.6,0-2.9,1-3.4,2.4
			h-0.6c0.5-1.8,2.1-3,4-3c2,0,3.6,1.3,4.1,3.2h-0.7C112.3,383,111,381.9,109.3,381.9z"/>
		<circle id="XMLID_110_" class="st1" cx="109.3" cy="385.5" r="1.1"/>
		<path id="XMLID_109_" class="st1" d="M96.6,378.7h7.1c0.3,0,0.6-0.2,0.8-0.5c0.1-0.3,0.1-0.6-0.1-0.9l-0.8-1l0,0
			c-1.1-1.4-2.7-2.3-4.5-2.4l0,0h-2.5c-0.5,0-0.9,0.4-0.9,0.9v3.1C95.7,378.3,96.1,378.7,96.6,378.7z M97.4,375.6H99
			c1.1,0.1,2.1,0.5,2.8,1.3h-4.4V375.6z"/>
	</g>
	<g id="XMLID_102_">
		<path id="XMLID_105_" class="st1" d="M191.7,384.5h-0.4v-1.4c0.3-0.1,0.6-0.4,0.6-0.8s-0.2-0.7-0.6-0.8c-0.2-2.5-2-4.5-4.5-4.9
			l-4.4-0.7l-1-1.3c-1.6-2.1-3.9-3.4-6.5-3.5l0,0h-4.4c-6,0-11.1,4.3-12.4,9.9c-0.5,0-0.8,0.4-0.8,0.9v0.4c0,0.2,0.1,0.4,0.2,0.6
			c-0.1,0.4-0.1,0.8-0.1,1.2v0.6c0,0.5,0.4,0.9,0.9,0.9h0.4l2.6,0.1c0.1,1.9,1.7,3.5,3.6,3.5s3.5-1.5,3.6-3.3l11.5,0.2l0,0l0,0h1.5
			c0.3,1.7,1.8,3.1,3.6,3.1s3.2-1.3,3.6-2.9l3.1,0.1l0,0c0.5,0,0.9-0.4,0.9-0.9C192.6,384.9,192.2,384.5,191.7,384.5z M186.9,385.5
			c0,1-0.8,1.9-1.9,1.9c-1,0-1.9-0.8-1.9-1.9c0-1,0.8-1.9,1.9-1.9C186,383.6,186.9,384.5,186.9,385.5z M163,385.7h0.8
			c0.1,0.5,0.5,0.9,1,0.9s0.9-0.4,1-0.8h0.8c-0.1,0.9-0.9,1.6-1.9,1.6C163.9,387.4,163.1,386.6,163,385.7z M170.4,372.8h4.4
			c2.1,0.1,4,1.1,5.2,2.8l1.2,1.6c0.1,0.2,0.3,0.3,0.6,0.3l4.7,0.8c1.7,0.3,2.9,1.6,3.1,3.3c-1.1-1.3-2.7-2.1-4.5-2.1
			c-2.8,0-5.3,2-5.8,4.7L171,384v-1.3c0-2.9-2.3-5.2-5.2-5.2h-1.7c-1.1,0-2.1,0.3-3,0.7C162.9,375,166.4,372.8,170.4,372.8z
			 M159.2,383.8c0.1-2.5,2.3-4.5,4.8-4.5h1.7c1.9,0,3.5,1.6,3.5,3.5v1.1L159.2,383.8L159.2,383.8z M185,381.9c-1.6,0-2.9,1-3.4,2.4
			H181c0.5-1.8,2.1-3,4-3c2,0,3.6,1.3,4.1,3.2h-0.7C188,383,186.6,381.9,185,381.9z"/>
		<circle id="XMLID_104_" class="st1" cx="185" cy="385.5" r="1.1"/>
		<path id="XMLID_103_" class="st1" d="M172.2,378.7h7.1c0.3,0,0.6-0.2,0.8-0.5c0.1-0.3,0.1-0.6-0.1-0.9l-0.8-1l0,0
			c-1.1-1.4-2.7-2.3-4.5-2.4l0,0h-2.5c-0.5,0-0.9,0.4-0.9,0.9v3.1C171.4,378.3,171.8,378.7,172.2,378.7z M173.1,375.6h1.6
			c1.1,0.1,2.1,0.5,2.8,1.3h-4.4L173.1,375.6L173.1,375.6z"/>
	</g>
	<g id="XMLID_86_">
		<path id="XMLID_95_" class="st1" d="M267.2,384.5h-0.4v-1.4c0.3-0.1,0.6-0.4,0.6-0.8s-0.2-0.7-0.6-0.8c-0.2-2.5-2-4.5-4.5-4.9
			l-4.4-0.7l-1-1.3c-1.6-2.1-3.9-3.4-6.5-3.5l0,0H246c-6,0-11.1,4.3-12.4,9.9c-0.5,0-0.8,0.4-0.8,0.9v0.4c0,0.2,0.1,0.4,0.2,0.6
			c-0.1,0.4-0.1,0.8-0.1,1.2v0.6c0,0.5,0.4,0.9,0.9,0.9h0.4l2.6,0.1c0.1,1.9,1.7,3.5,3.6,3.5s3.5-1.5,3.6-3.3l11.5,0.2l0,0l0,0h1.5
			c0.3,1.7,1.8,3.1,3.6,3.1c1.8,0,3.2-1.3,3.6-2.9l3.1,0.1l0,0c0.5,0,0.9-0.4,0.9-0.9C268.1,384.9,267.7,384.5,267.2,384.5z
			 M262.3,385.5c0,1-0.8,1.9-1.9,1.9c-1,0-1.9-0.8-1.9-1.9c0-1,0.8-1.9,1.9-1.9C261.5,383.6,262.3,384.5,262.3,385.5z M238.4,385.7
			h0.8c0.1,0.5,0.5,0.9,1,0.9s0.9-0.4,1-0.8h0.8c-0.1,0.9-0.9,1.6-1.9,1.6C239.3,387.4,238.5,386.6,238.4,385.7z M245.9,372.8h4.4
			c2.1,0.1,4,1.1,5.2,2.8l1.2,1.6c0.1,0.2,0.3,0.3,0.6,0.3l4.7,0.8c1.7,0.3,2.9,1.6,3.1,3.3c-1.1-1.3-2.7-2.1-4.5-2.1
			c-2.8,0-5.3,2-5.8,4.7l-8.3-0.2v-1.3c0-2.9-2.3-5.2-5.2-5.2h-1.7c-1.1,0-2.1,0.3-3,0.7C238.4,375,241.9,372.8,245.9,372.8z
			 M234.6,383.8c0.1-2.5,2.3-4.5,4.8-4.5h1.7c1.9,0,3.5,1.6,3.5,3.5v1.1L234.6,383.8L234.6,383.8z M260.5,381.9
			c-1.6,0-2.9,1-3.4,2.4h-0.6c0.5-1.8,2.1-3,4-3c2,0,3.6,1.3,4.1,3.2h-0.7C263.5,383,262.1,381.9,260.5,381.9z"/>
		<circle id="XMLID_92_" class="st1" cx="260.5" cy="385.5" r="1.1"/>
		<path id="XMLID_91_" class="st1" d="M247.7,378.7h7.1c0.3,0,0.6-0.2,0.8-0.5c0.1-0.3,0.1-0.6-0.1-0.9l-0.8-1l0,0
			c-1.1-1.4-2.7-2.3-4.5-2.4l0,0h-2.5c-0.5,0-0.9,0.4-0.9,0.9v3.1C246.8,378.3,247.2,378.7,247.7,378.7z M248.6,375.6h1.6
			c1.1,0.1,2.1,0.5,2.8,1.3h-4.4L248.6,375.6L248.6,375.6z"/>
	</g>
	<g id="XMLID_69_">
		<path id="XMLID_70_" class="st1" d="M-74.1,612.2v5.4c0,0.4,0.2,0.8,0.6,1l4,1.9c0.1,0,0.2,0.1,0.3,0.1c0.4,1.5,1.8,2.6,3.5,2.6
			c1.6,0,3-1.1,3.5-2.6h16.7c0.5,1.5,1.8,2.6,3.5,2.6c1.6,0,3-1.1,3.5-2.5h1.8l0,0c0.5,0,0.9-0.3,1-0.8l1.1-4.8
			c0.1-0.4-0.1-0.9-0.4-1.1c-3.1-2.2-10.7-2.2-12.5-2.2c-0.6-0.3-2-1.2-3.9-2.2c-0.7-0.4-1.4-0.7-2.1-0.8
			c-5.9-1.4-14.2,1.9-15.6,2.5h-1.7l-0.9-0.4c-0.5-0.2-1.1-0.2-1.6,0.1C-73.8,611.1-74.1,611.6-74.1,612.2z M-65.7,621
			c-0.8,0-1.5-0.7-1.5-1.5c0-0.8,0.7-1.5,1.5-1.5s1.5,0.7,1.5,1.5C-64.2,620.3-64.9,621-65.7,621z M-42.1,618c0.8,0,1.5,0.7,1.5,1.5
			c0,0.8-0.7,1.5-1.5,1.5s-1.5-0.7-1.5-1.5C-43.6,618.7-42.9,618-42.1,618z M-36.9,615.2l-0.8,3.2h-1c-0.5-1.5-1.8-2.5-3.5-2.5
			c-1.6,0-3,1.1-3.5,2.5h-16.7c-0.5-1.5-1.8-2.5-3.4-2.5s-2.9,1-3.4,2.4l-2.9-1.3v-4l0.5,0.2c0.1,0.1,0.3,0.1,0.5,0.1h2
			c0.1,0,0.3,0,0.4-0.1c0.1,0,8.8-3.7,14.5-2.4c0.5,0.1,1.1,0.3,1.6,0.6c0.2,0.1,0.4,0.2,0.6,0.3h-5.1c-0.6,0-1.1,0.5-1.1,1.1
			s0.5,1.1,1.1,1.1h9.2l0,0C-45.6,613.7-39.6,613.9-36.9,615.2z"/>
	</g>
	<g id="XMLID_57_">
		<path id="XMLID_58_" class="st1" d="M2.1,607.5v5.4c0,0.4,0.2,0.8,0.6,1l4,1.9c0.1,0,0.2,0.1,0.3,0.1c0.4,1.5,1.8,2.6,3.5,2.6
			c1.6,0,3-1.1,3.5-2.6h16.7c0.5,1.5,1.8,2.6,3.5,2.6c1.6,0,3-1.1,3.5-2.5h1.8l0,0c0.5,0,0.9-0.3,1-0.8l1.1-4.8
			c0.1-0.4-0.1-0.9-0.4-1.1c-3.1-2.2-10.7-2.2-12.5-2.2c-0.6-0.3-2-1.2-3.9-2.2c-0.7-0.4-1.4-0.7-2.1-0.8
			c-5.9-1.4-14.2,1.9-15.6,2.5H5.5l-0.9-0.4C4.1,606,3.5,606,3,606.3C2.4,606.4,2.1,607,2.1,607.5z M10.5,616.3
			c-0.8,0-1.5-0.7-1.5-1.5c0-0.8,0.7-1.5,1.5-1.5s1.5,0.7,1.5,1.5C12,615.6,11.3,616.3,10.5,616.3z M34.1,613.4
			c0.8,0,1.5,0.7,1.5,1.5c0,0.8-0.7,1.5-1.5,1.5s-1.5-0.7-1.5-1.5C32.6,614.1,33.3,613.4,34.1,613.4z M39.3,610.6l-0.8,3.2h-1
			c-0.5-1.5-1.8-2.5-3.5-2.5c-1.6,0-3,1.1-3.5,2.5H13.8c-0.5-1.5-1.8-2.5-3.4-2.5s-2.9,1-3.4,2.4l-2.9-1.3v-4l0.5,0.2
			c0.1,0.1,0.3,0.1,0.5,0.1h2c0.1,0,0.3,0,0.4-0.1c0.1,0,8.8-3.7,14.5-2.4c0.5,0.1,1.1,0.3,1.6,0.6c0.2,0.1,0.4,0.2,0.6,0.3h-5.1
			c-0.6,0-1.1,0.5-1.1,1.1s0.5,1.1,1.1,1.1h9.2l0,0C30.6,609.1,36.5,609.3,39.3,610.6z"/>
	</g>
	<g id="XMLID_48_">
		<path id="XMLID_56_" class="st1" d="M78.1,607.5v5.4c0,0.4,0.2,0.8,0.6,1l4,1.9c0.1,0,0.2,0.1,0.3,0.1c0.4,1.5,1.8,2.6,3.5,2.6
			c1.6,0,3-1.1,3.5-2.6h16.7c0.5,1.5,1.8,2.6,3.5,2.6c1.6,0,3-1.1,3.5-2.5h1.8l0,0c0.5,0,0.9-0.3,1-0.8l1.1-4.8
			c0.1-0.4-0.1-0.9-0.4-1.1c-3.1-2.2-10.7-2.2-12.5-2.2c-0.6-0.3-2-1.2-3.9-2.2c-0.7-0.4-1.4-0.7-2.1-0.8
			c-5.9-1.4-14.2,1.9-15.6,2.5h-1.6l-0.9-0.4c-0.5-0.2-1.1-0.2-1.6,0.1C78.4,606.4,78.1,607,78.1,607.5z M86.5,616.3
			c-0.8,0-1.5-0.7-1.5-1.5c0-0.8,0.7-1.5,1.5-1.5s1.5,0.7,1.5,1.5C88,615.6,87.3,616.3,86.5,616.3z M110.1,613.4
			c0.8,0,1.5,0.7,1.5,1.5c0,0.8-0.7,1.5-1.5,1.5s-1.5-0.7-1.5-1.5C108.6,614.1,109.3,613.4,110.1,613.4z M115.3,610.6l-0.8,3.2h-1
			c-0.5-1.5-1.8-2.5-3.5-2.5c-1.6,0-3,1.1-3.5,2.5H89.8c-0.5-1.5-1.8-2.5-3.4-2.5s-2.9,1-3.4,2.4l-2.9-1.3v-4l0.5,0.2
			c0.1,0.1,0.3,0.1,0.5,0.1h2c0.1,0,0.3,0,0.4-0.1c0.1,0,8.8-3.7,14.5-2.4c0.5,0.1,1.1,0.3,1.6,0.6c0.2,0.1,0.4,0.2,0.6,0.3h-5.1
			c-0.6,0-1.1,0.5-1.1,1.1s0.5,1.1,1.1,1.1h9.2l0,0C106.6,609.1,112.5,609.3,115.3,610.6z"/>
	</g>
	<g id="XMLID_32_">
		<path id="XMLID_39_" class="st1" d="M154.7,607.5v5.4c0,0.4,0.2,0.8,0.6,1l4,1.9c0.1,0,0.2,0.1,0.3,0.1c0.4,1.5,1.8,2.6,3.5,2.6
			c1.6,0,3-1.1,3.5-2.6h16.7c0.5,1.5,1.8,2.6,3.5,2.6c1.6,0,3-1.1,3.5-2.5h1.8l0,0c0.5,0,0.9-0.3,1-0.8l1.1-4.8
			c0.1-0.4-0.1-0.9-0.4-1.1c-3.1-2.2-10.7-2.2-12.5-2.2c-0.6-0.3-2-1.2-3.9-2.2c-0.7-0.4-1.4-0.7-2.1-0.8
			c-5.9-1.4-14.2,1.9-15.6,2.5h-1.6l-0.9-0.4c-0.5-0.2-1.1-0.2-1.6,0.1C154.9,606.4,154.7,607,154.7,607.5z M163,616.3
			c-0.8,0-1.5-0.7-1.5-1.5c0-0.8,0.7-1.5,1.5-1.5s1.5,0.7,1.5,1.5C164.5,615.6,163.9,616.3,163,616.3z M186.7,613.4
			c0.8,0,1.5,0.7,1.5,1.5c0,0.8-0.7,1.5-1.5,1.5s-1.5-0.7-1.5-1.5C185.2,614.1,185.8,613.4,186.7,613.4z M191.9,610.6l-0.8,3.2h-1
			c-0.5-1.5-1.8-2.5-3.5-2.5c-1.6,0-3,1.1-3.5,2.5h-16.7c-0.5-1.5-1.8-2.5-3.4-2.5s-2.9,1-3.4,2.4l-2.9-1.3v-4l0.5,0.2
			c0.1,0.1,0.3,0.1,0.5,0.1h2c0.1,0,0.3,0,0.4-0.1c0.1,0,8.8-3.7,14.5-2.4c0.5,0.1,1.1,0.3,1.6,0.6c0.2,0.1,0.4,0.2,0.6,0.3h-5.1
			c-0.6,0-1.1,0.5-1.1,1.1s0.5,1.1,1.1,1.1h9.2l0,0C183.2,609.1,189.1,609.3,191.9,610.6z"/>
	</g>
	<g id="XMLID_30_">
		<path id="XMLID_31_" class="st1" d="M230.7,607.5v5.4c0,0.4,0.2,0.8,0.6,1l4,1.9c0.1,0,0.2,0.1,0.3,0.1c0.4,1.5,1.8,2.6,3.5,2.6
			c1.6,0,3-1.1,3.5-2.6h16.7c0.5,1.5,1.8,2.6,3.5,2.6c1.6,0,3-1.1,3.5-2.5h1.8l0,0c0.5,0,0.9-0.3,1-0.8l1.1-4.8
			c0.1-0.4-0.1-0.9-0.4-1.1c-3.1-2.2-10.7-2.2-12.5-2.2c-0.6-0.3-2-1.2-3.9-2.2c-0.7-0.4-1.4-0.7-2.1-0.8
			c-5.9-1.4-14.2,1.9-15.6,2.5h-1.6l-0.9-0.4c-0.5-0.2-1.1-0.2-1.6,0.1C230.9,606.4,230.7,607,230.7,607.5z M239,616.3
			c-0.8,0-1.5-0.7-1.5-1.5c0-0.8,0.7-1.5,1.5-1.5s1.5,0.7,1.5,1.5C240.5,615.6,239.9,616.3,239,616.3z M262.7,613.4
			c0.8,0,1.5,0.7,1.5,1.5c0,0.8-0.7,1.5-1.5,1.5s-1.5-0.7-1.5-1.5C261.2,614.1,261.8,613.4,262.7,613.4z M267.8,610.6l-0.8,3.2h-1
			c-0.5-1.5-1.8-2.5-3.5-2.5c-1.6,0-3,1.1-3.5,2.5h-16.7c-0.5-1.5-1.8-2.5-3.4-2.5s-2.9,1-3.4,2.4l-2.9-1.3v-4l0.5,0.2
			c0.1,0.1,0.3,0.1,0.5,0.1h2c0.1,0,0.3,0,0.4-0.1c0.1,0,8.8-3.7,14.5-2.4c0.5,0.1,1.1,0.3,1.6,0.6c0.2,0.1,0.4,0.2,0.6,0.3h-5.1
			c-0.6,0-1.1,0.5-1.1,1.1s0.5,1.1,1.1,1.1h9.2l0,0C259.1,609.1,265.1,609.3,267.8,610.6z"/>
	</g>
	<circle id="XMLID_29_" class="st0" cx="21.9" cy="692" r="28.1"/>
	<circle id="XMLID_28_" class="st0" cx="98.1" cy="692" r="28.1"/>
	<circle id="XMLID_23_" class="st0" cx="174.4" cy="692" r="28.1"/>
	<circle id="XMLID_22_" class="st0" cx="250.4" cy="692" r="28.1"/>
	<circle id="XMLID_21_" class="st0" cx="-54.4" cy="692" r="28.1"/>
	<g id="XMLID_19_">
		<path id="XMLID_20_" class="st1" d="M-34,692.8l-0.5-2.3c-0.1-0.4-0.4-0.7-0.8-0.7l-4.9-0.6c-1.5-1.1-3.9-2.8-4.1-3
			c-0.6-0.5-1.4-0.8-2.1-0.8h-15.4c-1.1,0-2.2,0.2-3.3,0.6c-0.8,0.3-1.6,0.7-2.3,1.2l-2.8,1.9c-0.1,0-0.1,0.1-0.2,0.1h-1.3
			c-1.1,0-2.1,0.7-2.4,1.7l-0.6,1.8c-0.2,0.6-0.2,1.3,0,1.9c0.5,1.2,1.6,1.9,2.8,1.9h1.4c0.4,1.2,1.6,2.1,3,2.1s2.5-0.9,3-2.1H-44
			c0.4,1.2,1.6,2.1,3,2.1s2.5-0.9,3-2.1h1.1c1.3,0,2.4-0.8,2.9-2C-33.9,693.9-33.9,693.4-34,692.8z M-35.9,693.8
			c-0.1,0.4-0.6,0.7-1,0.7H-38c-0.4-1.2-1.6-2.1-3-2.1s-2.5,0.9-3,2.1h-20.5c-0.4-1.2-1.6-2.1-3-2.1s-2.5,0.9-3,2.1h-1.3
			c-0.4,0-0.8-0.3-1-0.7c-0.1-0.2-0.1-0.4,0-0.6l0.6-1.8c0.1-0.3,0.3-0.4,0.6-0.4h30.8l4.4,0.6l0.4,1.7
			C-35.9,693.4-35.9,693.6-35.9,693.8z M-39.8,695.5c0,0.6-0.5,1.2-1.2,1.2c-0.6,0-1.2-0.5-1.2-1.2c0-0.6,0.5-1.2,1.2-1.2
			S-39.8,694.8-39.8,695.5z M-66.2,695.5c0,0.6-0.5,1.2-1.2,1.2c-0.6,0-1.2-0.5-1.2-1.2c0-0.6,0.5-1.2,1.2-1.2
			C-66.8,694.3-66.2,694.8-66.2,695.5z M-56.8,687.3v1.8h-4v-1.8H-56.8z M-50.8,687.3v1.8h-4v-1.8H-50.8z M-48.9,689.1v-1.8h2.4
			c0.3,0,0.6,0.1,0.9,0.3c0.1,0.1,1,0.8,2,1.5H-48.9L-48.9,689.1z M-62.7,687.4v1.7h-4.1l0.6-0.4c0.6-0.4,1.2-0.7,1.8-0.9
			C-63.9,687.5-63.3,687.4-62.7,687.4z"/>
	</g>
	<g id="XMLID_17_">
		<path id="XMLID_18_" class="st1" d="M42.2,689l-0.5-2.3c-0.1-0.4-0.4-0.7-0.8-0.7l-4.9-0.6c-1.5-1.1-3.9-2.8-4.1-3
			c-0.6-0.5-1.4-0.8-2.1-0.8H14.5c-1.1,0-2.2,0.2-3.3,0.6c-0.8,0.3-1.6,0.7-2.3,1.2l-2.8,1.9c-0.1,0-0.1,0.1-0.2,0.1H4.6
			c-1.1,0-2.1,0.7-2.4,1.7l-0.6,1.8c-0.2,0.6-0.2,1.3,0,1.9c0.5,1.2,1.6,1.9,2.8,1.9h1.4c0.4,1.2,1.6,2.1,3,2.1s2.5-0.9,3-2.1h20.5
			c0.4,1.2,1.6,2.1,3,2.1s2.5-0.9,3-2.1h1.1c1.3,0,2.4-0.8,2.9-2C42.3,690.1,42.3,689.6,42.2,689z M40.3,690c-0.1,0.4-0.6,0.7-1,0.7
			h-1.1c-0.4-1.2-1.6-2.1-3-2.1s-2.5,0.9-3,2.1H11.7c-0.4-1.2-1.6-2.1-3-2.1s-2.5,0.9-3,2.1H4.3c-0.4,0-0.8-0.3-1-0.7
			c-0.1-0.2-0.1-0.4,0-0.6l0.6-1.8c0.1-0.3,0.3-0.4,0.6-0.4h30.8l4.4,0.6l0.4,1.7C40.4,689.6,40.4,689.8,40.3,690z M36.4,691.7
			c0,0.6-0.5,1.2-1.2,1.2c-0.6,0-1.2-0.5-1.2-1.2c0-0.6,0.5-1.2,1.2-1.2C35.9,690.5,36.4,691,36.4,691.7z M10,691.7
			c0,0.6-0.5,1.2-1.2,1.2c-0.6,0-1.2-0.5-1.2-1.2c0-0.6,0.5-1.2,1.2-1.2C9.5,690.5,10,691,10,691.7z M19.5,683.5v1.8h-4v-1.8H19.5z
			 M25.4,683.5v1.8h-4v-1.8H25.4z M27.4,685.3v-1.8h2.4c0.3,0,0.6,0.1,0.9,0.3c0.1,0.1,1,0.8,2,1.5H27.4L27.4,685.3z M13.5,683.6
			v1.7H9.4l0.6-0.4c0.6-0.4,1.2-0.7,1.8-0.9C12.4,683.8,12.9,683.6,13.5,683.6z"/>
	</g>
	<g id="XMLID_10_">
		<path id="XMLID_12_" class="st1" d="M118.5,689l-0.5-2.3c-0.1-0.4-0.4-0.7-0.8-0.7l-4.9-0.6c-1.5-1.1-3.9-2.8-4.1-3
			c-0.6-0.5-1.4-0.8-2.1-0.8H90.8c-1.1,0-2.2,0.2-3.3,0.6c-0.8,0.3-1.6,0.7-2.3,1.2l-2.8,1.9c-0.1,0-0.1,0.1-0.2,0.1h-1.3
			c-1.1,0-2.1,0.7-2.4,1.7l-0.6,1.8c-0.2,0.6-0.2,1.3,0,1.9c0.5,1.2,1.6,1.9,2.8,1.9h1.4c0.4,1.2,1.6,2.1,3,2.1s2.5-0.9,3-2.1h20.5
			c0.4,1.2,1.6,2.1,3,2.1s2.5-0.9,3-2.1h1.1c1.3,0,2.4-0.8,2.9-2C118.6,690.1,118.6,689.6,118.5,689z M116.6,690
			c-0.1,0.4-0.6,0.7-1,0.7h-1.1c-0.4-1.2-1.6-2.1-3-2.1s-2.5,0.9-3,2.1H88c-0.4-1.2-1.6-2.1-3-2.1s-2.5,0.9-3,2.1h-1.4
			c-0.4,0-0.8-0.3-1-0.7c-0.1-0.2-0.1-0.4,0-0.6l0.6-1.8c0.1-0.3,0.3-0.4,0.6-0.4h30.8l4.4,0.6l0.4,1.7
			C116.6,689.6,116.6,689.8,116.6,690z M112.7,691.7c0,0.6-0.5,1.2-1.2,1.2c-0.6,0-1.2-0.5-1.2-1.2c0-0.6,0.5-1.2,1.2-1.2
			C112.2,690.5,112.7,691,112.7,691.7z M86.3,691.7c0,0.6-0.5,1.2-1.2,1.2c-0.6,0-1.2-0.5-1.2-1.2c0-0.6,0.5-1.2,1.2-1.2
			C85.7,690.5,86.3,691,86.3,691.7z M95.7,683.5v1.8h-4v-1.8H95.7z M101.7,683.5v1.8h-4v-1.8H101.7z M103.6,685.3v-1.8h2.4
			c0.3,0,0.6,0.1,0.9,0.3c0.1,0.1,1,0.8,2,1.5H103.6L103.6,685.3z M89.8,683.6v1.7h-4.1l0.6-0.4c0.6-0.4,1.2-0.7,1.8-0.9
			C88.6,683.8,89.2,683.6,89.8,683.6z"/>
	</g>
	<g id="XMLID_4_">
		<path id="XMLID_9_" class="st1" d="M194.7,689l-0.5-2.3c-0.1-0.4-0.4-0.7-0.8-0.7l-4.9-0.6c-1.5-1.1-3.9-2.8-4.1-3
			c-0.6-0.5-1.4-0.8-2.1-0.8H167c-1.1,0-2.2,0.2-3.3,0.6c-0.8,0.3-1.6,0.7-2.3,1.2l-2.8,1.9c-0.1,0-0.1,0.1-0.2,0.1h-1.2
			c-1.1,0-2.1,0.7-2.4,1.7l-0.6,1.8c-0.2,0.6-0.2,1.3,0,1.9c0.5,1.2,1.6,1.9,2.8,1.9h1.4c0.4,1.2,1.6,2.1,3,2.1s2.5-0.9,3-2.1h20.5
			c0.4,1.2,1.6,2.1,3,2.1s2.5-0.9,3-2.1h1.1c1.3,0,2.4-0.8,2.9-2C194.7,690.1,194.8,689.6,194.7,689z M192.7,690
			c-0.1,0.4-0.6,0.7-1,0.7h-1.1c-0.4-1.2-1.6-2.1-3-2.1s-2.5,0.9-3,2.1h-20.4c-0.4-1.2-1.6-2.1-3-2.1s-2.5,0.9-3,2.1h-1.4
			c-0.4,0-0.8-0.3-1-0.7c-0.1-0.2-0.1-0.4,0-0.6l0.6-1.8c0.1-0.3,0.3-0.4,0.6-0.4h30.8l4.4,0.6l0.4,1.7
			C192.8,689.6,192.8,689.8,192.7,690z M188.9,691.7c0,0.6-0.5,1.2-1.2,1.2c-0.6,0-1.2-0.5-1.2-1.2c0-0.6,0.5-1.2,1.2-1.2
			C188.3,690.5,188.9,691,188.9,691.7z M162.4,691.7c0,0.6-0.5,1.2-1.2,1.2c-0.6,0-1.2-0.5-1.2-1.2c0-0.6,0.5-1.2,1.2-1.2
			C161.9,690.5,162.4,691,162.4,691.7z M171.9,683.5v1.8h-4v-1.8H171.9z M177.9,683.5v1.8h-4v-1.8H177.9z M179.8,685.3v-1.8h2.4
			c0.3,0,0.6,0.1,0.9,0.3c0.1,0.1,1,0.8,2,1.5H179.8L179.8,685.3z M165.9,683.6v1.7h-4.1l0.6-0.4c0.6-0.4,1.2-0.7,1.8-0.9
			C164.8,683.8,165.4,683.6,165.9,683.6z"/>
	</g>
	<g id="XMLID_2_">
		<path id="XMLID_3_" class="st1" d="M270.7,689l-0.5-2.3c-0.1-0.4-0.4-0.7-0.8-0.7l-4.9-0.6c-1.5-1.1-3.9-2.8-4.1-3
			c-0.6-0.5-1.4-0.8-2.1-0.8H243c-1.1,0-2.2,0.2-3.3,0.6c-0.8,0.3-1.6,0.7-2.3,1.2l-2.8,1.9c-0.1,0-0.1,0.1-0.2,0.1h-1.3
			c-1.1,0-2.1,0.7-2.4,1.7l-0.6,1.8c-0.2,0.6-0.2,1.3,0,1.9c0.5,1.2,1.6,1.9,2.8,1.9h1.4c0.4,1.2,1.6,2.1,3,2.1s2.5-0.9,3-2.1h20.5
			c0.4,1.2,1.6,2.1,3,2.1s2.5-0.9,3-2.1h1.1c1.3,0,2.4-0.8,2.9-2C270.8,690.1,270.9,689.6,270.7,689z M268.8,690
			c-0.1,0.4-0.6,0.7-1,0.7h-1.1c-0.4-1.2-1.6-2.1-3-2.1s-2.5,0.9-3,2.1h-20.5c-0.4-1.2-1.6-2.1-3-2.1s-2.5,0.9-3,2.1h-1.4
			c-0.4,0-0.8-0.3-1-0.7c-0.1-0.2-0.1-0.4,0-0.6l0.6-1.8c0.1-0.3,0.3-0.4,0.6-0.4h30.8l4.4,0.6l0.4,1.7
			C268.9,689.6,268.9,689.8,268.8,690z M265,691.7c0,0.6-0.5,1.2-1.2,1.2c-0.6,0-1.2-0.5-1.2-1.2c0-0.6,0.5-1.2,1.2-1.2
			C264.4,690.5,265,691,265,691.7z M238.5,691.7c0,0.6-0.5,1.2-1.2,1.2c-0.6,0-1.2-0.5-1.2-1.2c0-0.6,0.5-1.2,1.2-1.2
			C238,690.5,238.5,691,238.5,691.7z M248,683.5v1.8h-4v-1.8H248z M254,683.5v1.8h-4v-1.8H254z M255.9,685.3v-1.8h2.4
			c0.3,0,0.6,0.1,0.9,0.3c0.1,0.1,1,0.8,2,1.5H255.9L255.9,685.3z M242,683.6v1.7h-4.1l0.6-0.4c0.6-0.4,1.2-0.7,1.8-0.9
			C240.9,683.8,241.5,683.6,242,683.6z"/>
	</g>
	<g>
		<g>
			<path class="st1" d="M19.3,329.3c-0.2,0-0.4-0.1-0.6-0.2c-0.3-0.2-0.5-0.6-0.4-1l0.4-2.4L17,324c-0.3-0.3-0.4-0.7-0.3-1
				c0.1-0.4,0.4-0.6,0.8-0.7l2.4-0.4l1.1-2.2c0.2-0.3,0.5-0.6,0.9-0.6l0,0c0.4,0,0.7,0.2,0.9,0.6l1.1,2.2l2.4,0.3
				c0.4,0.1,0.7,0.3,0.8,0.7s0,0.8-0.3,1l-1.7,1.7l0.4,2.4c0.1,0.4-0.1,0.8-0.4,1s-0.7,0.3-1.1,0.1l-2.1-1.1l-2.1,1.1
				C19.7,329.3,19.5,329.3,19.3,329.3z M19.9,324.1l0.5,0.5c0.3,0.3,0.4,0.7,0.4,1.1l-0.1,0.8l0.7-0.4c0.4-0.2,0.8-0.2,1.2,0
				l0.7,0.3l-0.1-0.7c-0.1-0.4,0.1-0.8,0.4-1.1l0.5-0.5l-0.8-0.1c-0.4-0.1-0.8-0.3-1-0.7l-0.3-0.7l-0.3,0.7c-0.2,0.4-0.5,0.6-1,0.7
				L19.9,324.1z"/>
		</g>
		<g>
			<path class="st1" d="M88.8,329.3c-0.2,0-0.4-0.1-0.6-0.2c-0.3-0.2-0.5-0.6-0.4-1l0.4-2.4l-1.7-1.7c-0.3-0.3-0.4-0.7-0.3-1
				c0.1-0.4,0.4-0.6,0.8-0.7l2.4-0.4l1.1-2.2c0.2-0.3,0.5-0.6,0.9-0.6l0,0c0.4,0,0.7,0.2,0.9,0.6l1.1,2.2l2.4,0.3
				c0.4,0.1,0.7,0.3,0.8,0.7s0,0.8-0.3,1l-1.7,1.7L95,328c0.1,0.4-0.1,0.8-0.4,1s-0.7,0.3-1.1,0.1l-2.1-1.1l-2.1,1.1
				C89.2,329.3,89,329.3,88.8,329.3z M89.4,324.1l0.5,0.5c0.3,0.3,0.4,0.7,0.4,1.1l-0.1,0.8l0.7-0.4c0.4-0.2,0.8-0.2,1.2,0l0.7,0.3
				l-0.1-0.7c-0.1-0.4,0.1-0.8,0.4-1.1l0.5-0.5l-0.8-0.1c-0.4-0.1-0.8-0.3-1-0.7l-0.3-0.7l-0.3,0.7c-0.2,0.4-0.5,0.6-1,0.7
				L89.4,324.1z"/>
		</g>
		<g>
			<path class="st1" d="M102.3,329.3c-0.2,0-0.4-0.1-0.6-0.2c-0.3-0.2-0.5-0.6-0.4-1l0.4-2.4L100,324c-0.3-0.3-0.4-0.7-0.3-1
				c0.1-0.4,0.4-0.6,0.8-0.7l2.4-0.4l1.1-2.2c0.2-0.3,0.5-0.6,0.9-0.6l0,0c0.4,0,0.7,0.2,0.9,0.6l1.1,2.2l2.4,0.3
				c0.4,0.1,0.7,0.3,0.8,0.7s0,0.8-0.3,1l-1.7,1.7l0.4,2.4c0.1,0.4-0.1,0.8-0.4,1s-0.7,0.3-1.1,0.1l-2.1-1.1l-2.1,1.1
				C102.6,329.3,102.5,329.3,102.3,329.3z M102.8,324.1l0.5,0.5c0.3,0.3,0.4,0.7,0.4,1.1l-0.1,0.8l0.7-0.4c0.4-0.2,0.8-0.2,1.2,0
				l0.7,0.3l-0.1-0.7c-0.1-0.4,0.1-0.8,0.4-1.1l0.5-0.5l-0.8-0.1c-0.4-0.1-0.8-0.3-1-0.7l-0.3-0.7l-0.3,0.7c-0.2,0.4-0.5,0.6-1,0.7
				L102.8,324.1z"/>
		</g>
		<g>
			<path class="st1" d="M160.4,329.3c-0.2,0-0.4-0.1-0.6-0.2c-0.3-0.2-0.5-0.6-0.4-1l0.4-2.4l-1.7-1.7c-0.3-0.3-0.4-0.7-0.3-1
				c0.1-0.4,0.4-0.6,0.8-0.7l2.4-0.4l1.1-2.2c0.2-0.3,0.5-0.6,0.9-0.6l0,0c0.4,0,0.7,0.2,0.9,0.6l1.1,2.2l2.4,0.3
				c0.4,0.1,0.7,0.3,0.8,0.7s0,0.8-0.3,1l-1.7,1.7l0.4,2.4c0.1,0.4-0.1,0.8-0.4,1c-0.3,0.2-0.7,0.3-1.1,0.1L163,328l-2.1,1.1
				C160.7,329.3,160.6,329.3,160.4,329.3z M160.9,324.1l0.5,0.5c0.3,0.3,0.4,0.7,0.4,1.1l-0.1,0.8l0.7-0.4c0.4-0.2,0.8-0.2,1.2,0
				l0.7,0.3l-0.1-0.7c-0.1-0.4,0.1-0.8,0.4-1.1l0.5-0.5l-0.8-0.1c-0.4-0.1-0.8-0.3-1-0.7l-0.3-0.7l-0.3,0.7c-0.2,0.4-0.5,0.6-1,0.7
				L160.9,324.1z"/>
		</g>
		<g>
			<path class="st1" d="M183.3,329.3c-0.2,0-0.4-0.1-0.6-0.2c-0.3-0.2-0.5-0.6-0.4-1l0.4-2.4L181,324c-0.3-0.3-0.4-0.7-0.3-1
				c0.1-0.4,0.4-0.6,0.8-0.7l2.4-0.4l1.1-2.2c0.2-0.3,0.5-0.6,0.9-0.6l0,0c0.4,0,0.7,0.2,0.9,0.6l1.1,2.2l2.4,0.3
				c0.4,0.1,0.7,0.3,0.8,0.7s0,0.8-0.3,1l-1.7,1.7l0.4,2.4c0.1,0.4-0.1,0.8-0.4,1c-0.3,0.2-0.7,0.3-1.1,0.1l-2.1-1.1l-2.1,1.1
				C183.6,329.3,183.5,329.3,183.3,329.3z M183.8,324.1l0.5,0.5c0.3,0.3,0.4,0.7,0.4,1.1l-0.1,0.8l0.7-0.4c0.4-0.2,0.8-0.2,1.2,0
				l0.7,0.3l-0.1-0.7c-0.1-0.4,0.1-0.8,0.4-1.1l0.5-0.5l-0.8-0.1c-0.4-0.1-0.8-0.3-1-0.7l-0.3-0.7l-0.3,0.7c-0.2,0.4-0.5,0.6-1,0.7
				L183.8,324.1z"/>
		</g>
		<g>
			<path class="st1" d="M237.9,329.3c-0.2,0-0.4-0.1-0.6-0.2c-0.3-0.2-0.5-0.6-0.4-1l0.4-2.4l-1.7-1.7c-0.3-0.3-0.4-0.7-0.3-1
				c0.1-0.4,0.4-0.6,0.8-0.7l2.4-0.4l1.1-2.2c0.2-0.3,0.5-0.6,0.9-0.6l0,0c0.4,0,0.7,0.2,0.9,0.6l1.1,2.2l2.4,0.3
				c0.4,0.1,0.7,0.3,0.8,0.7s0,0.8-0.3,1l-1.7,1.7l0.4,2.4c0.1,0.4-0.1,0.8-0.4,1c-0.3,0.2-0.7,0.3-1.1,0.1l-2.1-1.1l-2.1,1.1
				C238.3,329.3,238.1,329.3,237.9,329.3z M238.5,324.1l0.5,0.5c0.3,0.3,0.4,0.7,0.4,1.1l-0.1,0.8l0.7-0.4c0.4-0.2,0.8-0.2,1.2,0
				l0.7,0.3l-0.1-0.7c-0.1-0.4,0.1-0.8,0.4-1.1l0.5-0.5l-0.8-0.1c-0.4-0.1-0.8-0.3-1-0.7l-0.3-0.7l-0.3,0.7c-0.2,0.4-0.5,0.6-1,0.7
				L238.5,324.1z"/>
		</g>
		<g>
			<path class="st1" d="M257.7,329.3c-0.2,0-0.4-0.1-0.6-0.2c-0.3-0.2-0.5-0.6-0.4-1l0.4-2.4l-1.7-1.7c-0.3-0.3-0.4-0.7-0.3-1
				c0.1-0.4,0.4-0.6,0.8-0.7l2.4-0.4l1.1-2.2c0.2-0.3,0.5-0.6,0.9-0.6l0,0c0.4,0,0.7,0.2,0.9,0.6l1.1,2.2l2.4,0.3
				c0.4,0.1,0.7,0.3,0.8,0.7s0,0.8-0.3,1l-1.7,1.7l0.4,2.4c0.1,0.4-0.1,0.8-0.4,1s-0.7,0.3-1.1,0.1l-2.1-1.1l-2.1,1.1
				C258,329.3,257.9,329.3,257.7,329.3z M258.2,324.1l0.5,0.5c0.3,0.3,0.4,0.7,0.4,1.1l-0.1,0.8l0.7-0.4c0.4-0.2,0.8-0.2,1.2,0
				l0.7,0.3l-0.1-0.7c-0.1-0.4,0.1-0.8,0.4-1.1l0.5-0.5l-0.8-0.1c-0.4-0.1-0.8-0.3-1-0.7l-0.3-0.7l-0.3,0.7c-0.2,0.4-0.5,0.6-1,0.7
				L258.2,324.1z"/>
		</g>
		<g>
			<path class="st1" d="M247.8,324.2c-0.2,0-0.4-0.1-0.6-0.2c-0.3-0.2-0.5-0.6-0.4-1l0.4-2.4l-1.7-1.7c-0.3-0.3-0.4-0.7-0.3-1
				c0.1-0.4,0.4-0.6,0.8-0.7l2.4-0.4l1.1-2.2c0.2-0.3,0.5-0.6,0.9-0.6l0,0c0.4,0,0.7,0.2,0.9,0.6l1.1,2.2l2.4,0.3
				c0.4,0.1,0.7,0.3,0.8,0.7s0,0.8-0.3,1l-1.7,1.7l0.4,2.4c0.1,0.4-0.1,0.8-0.4,1c-0.3,0.2-0.7,0.3-1.1,0.1l-2.1-1.1l-2.1,1.1
				C248.1,324.1,248,324.2,247.8,324.2z M248.3,318.9l0.5,0.5c0.3,0.3,0.4,0.7,0.4,1.1l-0.1,0.8l0.7-0.4c0.4-0.2,0.8-0.2,1.2,0
				l0.7,0.3l-0.1-0.7c-0.1-0.4,0.1-0.8,0.4-1.1l0.5-0.5l-0.8-0.1c-0.4-0.1-0.8-0.3-1-0.7l-0.3-0.7l-0.3,0.7c-0.2,0.4-0.5,0.6-1,0.7
				L248.3,318.9z"/>
		</g>
		<g>
			<path class="st1" d="M247.8,334c-0.2,0-0.4-0.1-0.6-0.2c-0.3-0.2-0.5-0.6-0.4-1l0.4-2.4l-1.7-1.7c-0.3-0.3-0.4-0.7-0.3-1
				c0.1-0.4,0.4-0.6,0.8-0.7l2.4-0.4l1.1-2.2c0.2-0.3,0.5-0.6,0.9-0.6l0,0c0.4,0,0.7,0.2,0.9,0.6l1.1,2.2l2.4,0.3
				c0.4,0.1,0.7,0.3,0.8,0.7s0,0.8-0.3,1l-1.7,1.7l0.4,2.4c0.1,0.4-0.1,0.8-0.4,1c-0.3,0.2-0.7,0.3-1.1,0.1l-2.1-1.1l-2.1,1.1
				C248.1,334,248,334,247.8,334z M248.3,328.8l0.5,0.5c0.3,0.3,0.4,0.7,0.4,1.1l-0.1,0.8l0.7-0.4c0.4-0.2,0.8-0.2,1.2,0l0.7,0.3
				l-0.1-0.7c-0.1-0.4,0.1-0.8,0.4-1.1l0.5-0.5l-0.8-0.1c-0.4-0.1-0.8-0.3-1-0.7l-0.3-0.7l-0.3,0.7c-0.2,0.4-0.5,0.6-1,0.7
				L248.3,328.8z"/>
		</g>
		<g>
			<path class="st1" d="M171.8,332.6c-0.2,0-0.4-0.1-0.6-0.2c-0.3-0.2-0.5-0.6-0.4-1l0.4-2.4l-1.7-1.7c-0.3-0.3-0.4-0.7-0.3-1
				c0.1-0.4,0.4-0.6,0.8-0.7l2.4-0.4l1.1-2.2c0.2-0.3,0.5-0.6,0.9-0.6l0,0c0.4,0,0.7,0.2,0.9,0.6l1.1,2.2l2.4,0.3
				c0.4,0.1,0.7,0.3,0.8,0.7s0,0.8-0.3,1l-1.7,1.7l0.4,2.4c0.1,0.4-0.1,0.8-0.4,1c-0.3,0.2-0.7,0.3-1.1,0.1l-2.1-1.1l-2.1,1.1
				C172.1,332.5,172,332.6,171.8,332.6z M172.3,327.3l0.5,0.5c0.3,0.3,0.4,0.7,0.4,1.1l-0.1,0.8l0.7-0.4c0.4-0.2,0.8-0.2,1.2,0
				l0.7,0.3l-0.1-0.7c-0.1-0.4,0.1-0.8,0.4-1.1l0.5-0.5l-0.8-0.1c-0.4-0.1-0.8-0.3-1-0.7l-0.3-0.7l-0.3,0.7c-0.2,0.4-0.5,0.6-1,0.7
				L172.3,327.3z"/>
		</g>
	</g>
	<g>
		<g>
			<path class="st1" d="M19.3,406.5c-0.2,0-0.4-0.1-0.6-0.2c-0.3-0.2-0.5-0.6-0.4-1l0.4-2.4l-1.7-1.7c-0.3-0.3-0.4-0.7-0.3-1
				c0.1-0.4,0.4-0.6,0.8-0.7l2.4-0.4l1.1-2.2c0.2-0.3,0.5-0.6,0.9-0.6l0,0c0.4,0,0.7,0.2,0.9,0.6l1.1,2.2l2.4,0.3
				c0.4,0.1,0.7,0.3,0.8,0.7s0,0.8-0.3,1l-1.7,1.7l0.4,2.4c0.1,0.4-0.1,0.8-0.4,1s-0.7,0.3-1.1,0.1l-2.1-1.1l-2.1,1.1
				C19.7,406.4,19.5,406.5,19.3,406.5z M19.9,401.2l0.5,0.5c0.3,0.3,0.4,0.7,0.4,1.1l-0.1,0.8l0.7-0.4c0.4-0.2,0.8-0.2,1.2,0
				l0.7,0.3l-0.1-0.7c-0.1-0.4,0.1-0.8,0.4-1.1l0.5-0.5l-0.9-0.1c-0.4-0.1-0.8-0.3-1-0.7l-0.3-0.7l-0.3,0.7c-0.2,0.4-0.5,0.6-1,0.7
				L19.9,401.2z"/>
		</g>
		<g>
			<path class="st1" d="M88.8,406.5c-0.2,0-0.4-0.1-0.6-0.2c-0.3-0.2-0.5-0.6-0.4-1l0.4-2.4l-1.7-1.7c-0.3-0.3-0.4-0.7-0.3-1
				c0.1-0.4,0.4-0.6,0.8-0.7l2.4-0.4l1.1-2.2c0.2-0.3,0.5-0.6,0.9-0.6l0,0c0.4,0,0.7,0.2,0.9,0.6l1.1,2.2l2.4,0.3
				c0.4,0.1,0.7,0.3,0.8,0.7s0,0.8-0.3,1l-1.7,1.7l0.4,2.4c0.1,0.4-0.1,0.8-0.4,1s-0.7,0.3-1.1,0.1l-2.1-1.1l-2.1,1.1
				C89.2,406.4,89,406.5,88.8,406.5z M89.4,401.2l0.5,0.5c0.3,0.3,0.4,0.7,0.4,1.1l-0.1,0.8l0.7-0.4c0.4-0.2,0.8-0.2,1.2,0l0.7,0.3
				l-0.1-0.7c-0.1-0.4,0.1-0.8,0.4-1.1l0.5-0.5l-0.8-0.1c-0.4-0.1-0.8-0.3-1-0.7l-0.3-0.7l-0.3,0.7c-0.2,0.4-0.5,0.6-1,0.7
				L89.4,401.2z"/>
		</g>
		<g>
			<path class="st1" d="M102.3,406.5c-0.2,0-0.4-0.1-0.6-0.2c-0.3-0.2-0.5-0.6-0.4-1l0.4-2.4l-1.7-1.7c-0.3-0.3-0.4-0.7-0.3-1
				c0.1-0.4,0.4-0.6,0.8-0.7l2.4-0.4l1.1-2.2c0.2-0.3,0.5-0.6,0.9-0.6l0,0c0.4,0,0.7,0.2,0.9,0.6l1.1,2.2l2.4,0.3
				c0.4,0.1,0.7,0.3,0.8,0.7s0,0.8-0.3,1l-1.7,1.7l0.4,2.4c0.1,0.4-0.1,0.8-0.4,1s-0.7,0.3-1.1,0.1l-2.1-1.1l-2.1,1.1
				C102.6,406.4,102.5,406.5,102.3,406.5z M102.8,401.2l0.5,0.5c0.3,0.3,0.4,0.7,0.4,1.1l-0.1,0.8l0.7-0.4c0.4-0.2,0.8-0.2,1.2,0
				l0.7,0.3l-0.1-0.7c-0.1-0.4,0.1-0.8,0.4-1.1l0.5-0.5l-0.8-0.1c-0.4-0.1-0.8-0.3-1-0.7l-0.3-0.7l-0.3,0.7c-0.2,0.4-0.5,0.6-1,0.7
				L102.8,401.2z"/>
		</g>
		<g>
			<path class="st1" d="M160.4,406.5c-0.2,0-0.4-0.1-0.6-0.2c-0.3-0.2-0.5-0.6-0.4-1l0.4-2.4l-1.7-1.7c-0.3-0.3-0.4-0.7-0.3-1
				c0.1-0.4,0.4-0.6,0.8-0.7l2.4-0.4l1.1-2.2c0.2-0.3,0.5-0.6,0.9-0.6l0,0c0.4,0,0.7,0.2,0.9,0.6l1.1,2.2l2.4,0.3
				c0.4,0.1,0.7,0.3,0.8,0.7s0,0.8-0.3,1l-1.7,1.7l0.4,2.4c0.1,0.4-0.1,0.8-0.4,1c-0.3,0.2-0.7,0.3-1.1,0.1l-2.1-1.1l-2.1,1.1
				C160.7,406.4,160.6,406.5,160.4,406.5z M160.9,401.2l0.5,0.5c0.3,0.3,0.4,0.7,0.4,1.1l-0.1,0.8l0.7-0.4c0.4-0.2,0.8-0.2,1.2,0
				l0.7,0.3l-0.1-0.7c-0.1-0.4,0.1-0.8,0.4-1.1l0.5-0.5l-0.8-0.1c-0.4-0.1-0.8-0.3-1-0.7l-0.3-0.7l-0.3,0.7c-0.2,0.4-0.5,0.6-1,0.7
				L160.9,401.2z"/>
		</g>
		<g>
			<path class="st1" d="M183.3,406.5c-0.2,0-0.4-0.1-0.6-0.2c-0.3-0.2-0.5-0.6-0.4-1l0.4-2.4l-1.7-1.7c-0.3-0.3-0.4-0.7-0.3-1
				c0.1-0.4,0.4-0.6,0.8-0.7l2.4-0.4l1.1-2.2c0.2-0.3,0.5-0.6,0.9-0.6l0,0c0.4,0,0.7,0.2,0.9,0.6l1.1,2.2l2.4,0.3
				c0.4,0.1,0.7,0.3,0.8,0.7s0,0.8-0.3,1l-1.7,1.7l0.4,2.4c0.1,0.4-0.1,0.8-0.4,1c-0.3,0.2-0.7,0.3-1.1,0.1l-2.1-1.1l-2.1,1.1
				C183.6,406.4,183.5,406.5,183.3,406.5z M183.8,401.2l0.5,0.5c0.3,0.3,0.4,0.7,0.4,1.1l-0.1,0.8l0.7-0.4c0.4-0.2,0.8-0.2,1.2,0
				l0.7,0.3l-0.1-0.7c-0.1-0.4,0.1-0.8,0.4-1.1l0.5-0.5l-0.8-0.1c-0.4-0.1-0.8-0.3-1-0.7l-0.3-0.7l-0.3,0.7c-0.2,0.4-0.5,0.6-1,0.7
				L183.8,401.2z"/>
		</g>
		<g>
			<path class="st1" d="M237.9,406.5c-0.2,0-0.4-0.1-0.6-0.2c-0.3-0.2-0.5-0.6-0.4-1l0.4-2.4l-1.7-1.7c-0.3-0.3-0.4-0.7-0.3-1
				c0.1-0.4,0.4-0.6,0.8-0.7l2.4-0.4l1.1-2.2c0.2-0.3,0.5-0.6,0.9-0.6l0,0c0.4,0,0.7,0.2,0.9,0.6l1.1,2.2l2.4,0.3
				c0.4,0.1,0.7,0.3,0.8,0.7s0,0.8-0.3,1l-1.7,1.7l0.4,2.4c0.1,0.4-0.1,0.8-0.4,1c-0.3,0.2-0.7,0.3-1.1,0.1l-2.1-1.1l-2.1,1.1
				C238.3,406.4,238.1,406.5,237.9,406.5z M238.5,401.2l0.5,0.5c0.3,0.3,0.4,0.7,0.4,1.1l-0.1,0.8l0.7-0.4c0.4-0.2,0.8-0.2,1.2,0
				l0.7,0.3l-0.1-0.7c-0.1-0.4,0.1-0.8,0.4-1.1l0.5-0.5l-0.8-0.1c-0.4-0.1-0.8-0.3-1-0.7l-0.3-0.7l-0.3,0.7c-0.2,0.4-0.5,0.6-1,0.7
				L238.5,401.2z"/>
		</g>
		<g>
			<path class="st1" d="M257.7,406.5c-0.2,0-0.4-0.1-0.6-0.2c-0.3-0.2-0.5-0.6-0.4-1l0.4-2.4l-1.7-1.7c-0.3-0.3-0.4-0.7-0.3-1
				c0.1-0.4,0.4-0.6,0.8-0.7l2.4-0.4l1.1-2.2c0.2-0.3,0.5-0.6,0.9-0.6l0,0c0.4,0,0.7,0.2,0.9,0.6l1.1,2.2l2.4,0.3
				c0.4,0.1,0.7,0.3,0.8,0.7s0,0.8-0.3,1l-1.7,1.7l0.4,2.4c0.1,0.4-0.1,0.8-0.4,1s-0.7,0.3-1.1,0.1l-2.1-1.1l-2.1,1.1
				C258,406.4,257.9,406.5,257.7,406.5z M258.2,401.2l0.5,0.5c0.3,0.3,0.4,0.7,0.4,1.1l-0.1,0.8l0.7-0.4c0.4-0.2,0.8-0.2,1.2,0
				l0.7,0.3l-0.1-0.7c-0.1-0.4,0.1-0.8,0.4-1.1l0.5-0.5l-0.8-0.1c-0.4-0.1-0.8-0.3-1-0.7l-0.3-0.7l-0.3,0.7c-0.2,0.4-0.5,0.6-1,0.7
				L258.2,401.2z"/>
		</g>
		<g>
			<path class="st1" d="M247.8,401.4c-0.2,0-0.4-0.1-0.6-0.2c-0.3-0.2-0.5-0.6-0.4-1l0.4-2.4l-1.7-1.7c-0.3-0.3-0.4-0.7-0.3-1
				c0.1-0.4,0.4-0.6,0.8-0.7l2.4-0.4l1.1-2.2c0.2-0.3,0.5-0.6,0.9-0.6l0,0c0.4,0,0.7,0.2,0.9,0.6l1.1,2.2l2.4,0.3
				c0.4,0.1,0.7,0.3,0.8,0.7s0,0.8-0.3,1l-1.7,1.7l0.4,2.4c0.1,0.4-0.1,0.8-0.4,1c-0.3,0.2-0.7,0.3-1.1,0.1l-2.1-1.1l-2.1,1.1
				C248.1,401.3,248,401.4,247.8,401.4z M248.3,396.1l0.5,0.5c0.3,0.3,0.4,0.7,0.4,1.1l-0.1,0.8l0.7-0.4c0.4-0.2,0.8-0.2,1.2,0
				l0.7,0.3l-0.1-0.7c-0.1-0.4,0.1-0.8,0.4-1.1l0.5-0.5l-0.8-0.1c-0.4-0.1-0.8-0.3-1-0.7l-0.3-0.7l-0.3,0.7c-0.2,0.4-0.5,0.6-1,0.7
				L248.3,396.1z"/>
		</g>
		<g>
			<path class="st1" d="M247.8,411.2c-0.2,0-0.4-0.1-0.6-0.2c-0.3-0.2-0.5-0.6-0.4-1l0.4-2.4l-1.7-1.7c-0.3-0.3-0.4-0.7-0.3-1
				c0.1-0.4,0.4-0.6,0.8-0.7l2.4-0.4l1.1-2.2c0.2-0.3,0.5-0.6,0.9-0.6l0,0c0.4,0,0.7,0.2,0.9,0.6l1.1,2.2l2.4,0.3
				c0.4,0.1,0.7,0.3,0.8,0.7s0,0.8-0.3,1l-1.7,1.7l0.4,2.4c0.1,0.4-0.1,0.8-0.4,1c-0.3,0.2-0.7,0.3-1.1,0.1l-2.1-1.1l-2.1,1.1
				C248.1,411.1,248,411.2,247.8,411.2z M248.3,405.9l0.5,0.5c0.3,0.3,0.4,0.7,0.4,1.1l-0.1,0.8l0.7-0.4c0.4-0.2,0.8-0.2,1.2,0
				l0.7,0.3l-0.1-0.7c-0.1-0.4,0.1-0.8,0.4-1.1l0.5-0.5l-0.8-0.1c-0.4-0.1-0.8-0.3-1-0.7l-0.3-0.7l-0.3,0.7c-0.2,0.4-0.5,0.6-1,0.7
				L248.3,405.9z"/>
		</g>
		<g>
			<path class="st1" d="M171.8,409.7c-0.2,0-0.4-0.1-0.6-0.2c-0.3-0.2-0.5-0.6-0.4-1l0.4-2.4l-1.7-1.7c-0.3-0.3-0.4-0.7-0.3-1
				c0.1-0.4,0.4-0.6,0.8-0.7l2.4-0.4l1.1-2.2c0.2-0.3,0.5-0.6,0.9-0.6l0,0c0.4,0,0.7,0.2,0.9,0.6l1.1,2.2l2.4,0.3
				c0.4,0.1,0.7,0.3,0.8,0.7s0,0.8-0.3,1l-1.7,1.7l0.4,2.4c0.1,0.4-0.1,0.8-0.4,1c-0.3,0.2-0.7,0.3-1.1,0.1l-2.1-1.1l-2.1,1.1
				C172.1,409.7,172,409.7,171.8,409.7z M172.3,404.5l0.5,0.5c0.3,0.3,0.4,0.7,0.4,1.1l-0.1,0.8l0.7-0.4c0.4-0.2,0.8-0.2,1.2,0
				l0.7,0.3l-0.1-0.7c-0.1-0.4,0.1-0.8,0.4-1.1l0.5-0.5l-0.8-0.1c-0.4-0.1-0.8-0.3-1-0.7l-0.3-0.7l-0.3,0.7c-0.2,0.4-0.5,0.6-1,0.7
				L172.3,404.5z"/>
		</g>
	</g>
	<g>
		<g>
			<path class="st1" d="M19.3,482c-0.2,0-0.4-0.1-0.6-0.2c-0.3-0.2-0.5-0.6-0.4-1l0.4-2.4l-1.7-1.7c-0.3-0.3-0.4-0.7-0.3-1
				c0.1-0.4,0.4-0.6,0.8-0.7l2.4-0.4l1.1-2.2c0.2-0.3,0.5-0.6,0.9-0.6l0,0c0.4,0,0.7,0.2,0.9,0.6l1.1,2.2l2.4,0.3
				c0.4,0.1,0.7,0.3,0.8,0.7s0,0.8-0.3,1l-1.7,1.7l0.4,2.4c0.1,0.4-0.1,0.8-0.4,1s-0.7,0.3-1.1,0.1l-2.1-1.1l-2.1,1.1
				C19.7,482,19.5,482,19.3,482z M19.9,476.8l0.5,0.5c0.3,0.3,0.4,0.7,0.4,1.1l-0.1,0.8l0.7-0.4c0.4-0.2,0.8-0.2,1.2,0l0.7,0.3
				l-0.1-0.7c-0.1-0.4,0.1-0.8,0.4-1.1l0.5-0.5l-0.8-0.1c-0.4-0.1-0.8-0.3-1-0.7l-0.3-0.7l-0.3,0.7c-0.2,0.4-0.5,0.6-1,0.7
				L19.9,476.8z"/>
		</g>
		<g>
			<path class="st1" d="M88.8,482c-0.2,0-0.4-0.1-0.6-0.2c-0.3-0.2-0.5-0.6-0.4-1l0.4-2.4l-1.7-1.7c-0.3-0.3-0.4-0.7-0.3-1
				c0.1-0.4,0.4-0.6,0.8-0.7l2.4-0.4l1.1-2.2c0.2-0.3,0.5-0.6,0.9-0.6l0,0c0.4,0,0.7,0.2,0.9,0.6l1.1,2.2l2.4,0.3
				c0.4,0.1,0.7,0.3,0.8,0.7s0,0.8-0.3,1l-1.7,1.7l0.4,2.4c0.1,0.4-0.1,0.8-0.4,1s-0.7,0.3-1.1,0.1l-2.1-1.1l-2.1,1.1
				C89.2,482,89,482,88.8,482z M89.4,476.8l0.5,0.5c0.3,0.3,0.4,0.7,0.4,1.1l-0.1,0.8l0.7-0.4c0.4-0.2,0.8-0.2,1.2,0l0.7,0.3
				l-0.1-0.7c-0.1-0.4,0.1-0.8,0.4-1.1l0.5-0.5l-0.8-0.1c-0.4-0.1-0.8-0.3-1-0.7l-0.3-0.7l-0.3,0.7c-0.2,0.4-0.5,0.6-1,0.7
				L89.4,476.8z"/>
		</g>
		<g>
			<path class="st1" d="M102.3,482c-0.2,0-0.4-0.1-0.6-0.2c-0.3-0.2-0.5-0.6-0.4-1l0.4-2.4l-1.7-1.7c-0.3-0.3-0.4-0.7-0.3-1
				c0.1-0.4,0.4-0.6,0.8-0.7l2.4-0.4l1.1-2.2c0.2-0.3,0.5-0.6,0.9-0.6l0,0c0.4,0,0.7,0.2,0.9,0.6l1.1,2.2l2.4,0.3
				c0.4,0.1,0.7,0.3,0.8,0.7s0,0.8-0.3,1l-1.7,1.7l0.4,2.4c0.1,0.4-0.1,0.8-0.4,1s-0.7,0.3-1.1,0.1l-2.1-1.1l-2.1,1.1
				C102.6,482,102.5,482,102.3,482z M102.8,476.8l0.5,0.5c0.3,0.3,0.4,0.7,0.4,1.1l-0.1,0.8l0.7-0.4c0.4-0.2,0.8-0.2,1.2,0l0.7,0.3
				l-0.1-0.7c-0.1-0.4,0.1-0.8,0.4-1.1l0.5-0.5l-0.8-0.1c-0.4-0.1-0.8-0.3-1-0.7l-0.3-0.7l-0.3,0.7c-0.2,0.4-0.5,0.6-1,0.7
				L102.8,476.8z"/>
		</g>
		<g>
			<path class="st1" d="M160.4,482c-0.2,0-0.4-0.1-0.6-0.2c-0.3-0.2-0.5-0.6-0.4-1l0.4-2.4l-1.7-1.7c-0.3-0.3-0.4-0.7-0.3-1
				c0.1-0.4,0.4-0.6,0.8-0.7l2.4-0.4l1.1-2.2c0.2-0.3,0.5-0.6,0.9-0.6l0,0c0.4,0,0.7,0.2,0.9,0.6l1.1,2.2l2.4,0.3
				c0.4,0.1,0.7,0.3,0.8,0.7s0,0.8-0.3,1l-1.7,1.7l0.4,2.4c0.1,0.4-0.1,0.8-0.4,1c-0.3,0.2-0.7,0.3-1.1,0.1l-2.1-1.1l-2.1,1.1
				C160.7,482,160.6,482,160.4,482z M160.9,476.8l0.5,0.5c0.3,0.3,0.4,0.7,0.4,1.1l-0.1,0.8l0.7-0.4c0.4-0.2,0.8-0.2,1.2,0l0.7,0.3
				l-0.1-0.7c-0.1-0.4,0.1-0.8,0.4-1.1l0.5-0.5l-0.8-0.1c-0.4-0.1-0.8-0.3-1-0.7l-0.3-0.7l-0.3,0.7c-0.2,0.4-0.5,0.6-1,0.7
				L160.9,476.8z"/>
		</g>
		<g>
			<path class="st1" d="M183.3,482c-0.2,0-0.4-0.1-0.6-0.2c-0.3-0.2-0.5-0.6-0.4-1l0.4-2.4l-1.7-1.7c-0.3-0.3-0.4-0.7-0.3-1
				c0.1-0.4,0.4-0.6,0.8-0.7l2.4-0.4l1.1-2.2c0.2-0.3,0.5-0.6,0.9-0.6l0,0c0.4,0,0.7,0.2,0.9,0.6l1.1,2.2l2.4,0.3
				c0.4,0.1,0.7,0.3,0.8,0.7s0,0.8-0.3,1l-1.7,1.7l0.4,2.4c0.1,0.4-0.1,0.8-0.4,1c-0.3,0.2-0.7,0.3-1.1,0.1l-2.1-1.1l-2.1,1.1
				C183.6,482,183.5,482,183.3,482z M183.8,476.8l0.5,0.5c0.3,0.3,0.4,0.7,0.4,1.1l-0.1,0.8l0.7-0.4c0.4-0.2,0.8-0.2,1.2,0l0.7,0.3
				l-0.1-0.7c-0.1-0.4,0.1-0.8,0.4-1.1l0.5-0.5l-0.8-0.1c-0.4-0.1-0.8-0.3-1-0.7l-0.3-0.7l-0.3,0.7c-0.2,0.4-0.5,0.6-1,0.7
				L183.8,476.8z"/>
		</g>
		<g>
			<path class="st1" d="M237.9,482c-0.2,0-0.4-0.1-0.6-0.2c-0.3-0.2-0.5-0.6-0.4-1l0.4-2.4l-1.7-1.7c-0.3-0.3-0.4-0.7-0.3-1
				c0.1-0.4,0.4-0.6,0.8-0.7l2.4-0.4l1.1-2.2c0.2-0.3,0.5-0.6,0.9-0.6l0,0c0.4,0,0.7,0.2,0.9,0.6l1.1,2.2l2.4,0.3
				c0.4,0.1,0.7,0.3,0.8,0.7s0,0.8-0.3,1l-1.7,1.7l0.4,2.4c0.1,0.4-0.1,0.8-0.4,1c-0.3,0.2-0.7,0.3-1.1,0.1l-2.1-1.1l-2.1,1.1
				C238.3,482,238.1,482,237.9,482z M238.5,476.8l0.5,0.5c0.3,0.3,0.4,0.7,0.4,1.1l-0.1,0.8l0.7-0.4c0.4-0.2,0.8-0.2,1.2,0l0.7,0.3
				l-0.1-0.7c-0.1-0.4,0.1-0.8,0.4-1.1l0.5-0.5l-0.8-0.1c-0.4-0.1-0.8-0.3-1-0.7l-0.3-0.7l-0.3,0.7c-0.2,0.4-0.5,0.6-1,0.7
				L238.5,476.8z"/>
		</g>
		<g>
			<path class="st1" d="M257.7,482c-0.2,0-0.4-0.1-0.6-0.2c-0.3-0.2-0.5-0.6-0.4-1l0.4-2.4l-1.7-1.7c-0.3-0.3-0.4-0.7-0.3-1
				c0.1-0.4,0.4-0.6,0.8-0.7l2.4-0.4l1.1-2.2c0.2-0.3,0.5-0.6,0.9-0.6l0,0c0.4,0,0.7,0.2,0.9,0.6l1.1,2.2l2.4,0.3
				c0.4,0.1,0.7,0.3,0.8,0.7s0,0.8-0.3,1l-1.7,1.7l0.4,2.4c0.1,0.4-0.1,0.8-0.4,1s-0.7,0.3-1.1,0.1l-2.1-1.1l-2.1,1.1
				C258,482,257.9,482,257.7,482z M258.2,476.8l0.5,0.5c0.3,0.3,0.4,0.7,0.4,1.1l-0.1,0.8l0.7-0.4c0.4-0.2,0.8-0.2,1.2,0l0.7,0.3
				l-0.1-0.7c-0.1-0.4,0.1-0.8,0.4-1.1l0.5-0.5l-0.8-0.1c-0.4-0.1-0.8-0.3-1-0.7l-0.3-0.7L260,476c-0.2,0.4-0.5,0.6-1,0.7
				L258.2,476.8z"/>
		</g>
		<g>
			<path class="st1" d="M247.8,476.9c-0.2,0-0.4-0.1-0.6-0.2c-0.3-0.2-0.5-0.6-0.4-1l0.4-2.4l-1.7-1.7c-0.3-0.3-0.4-0.7-0.3-1
				c0.1-0.4,0.4-0.6,0.8-0.7l2.4-0.4l1.1-2.2c0.2-0.3,0.5-0.6,0.9-0.6l0,0c0.4,0,0.7,0.2,0.9,0.6l1.1,2.2l2.4,0.3
				c0.4,0.1,0.7,0.3,0.8,0.7s0,0.8-0.3,1l-1.7,1.7l0.4,2.4c0.1,0.4-0.1,0.8-0.4,1c-0.3,0.2-0.7,0.3-1.1,0.1l-2.1-1.1l-2.1,1.1
				C248.1,476.9,248,476.9,247.8,476.9z M248.3,471.6l0.5,0.5c0.3,0.3,0.4,0.7,0.4,1.1l-0.1,0.8l0.7-0.4c0.4-0.2,0.8-0.2,1.2,0
				l0.7,0.3l-0.1-0.7c-0.1-0.4,0.1-0.8,0.4-1.1l0.5-0.5l-0.8-0.1c-0.4-0.1-0.8-0.3-1-0.7l-0.3-0.7l-0.3,0.7c-0.2,0.4-0.5,0.6-1,0.7
				L248.3,471.6z"/>
		</g>
		<g>
			<path class="st1" d="M247.8,486.7c-0.2,0-0.4-0.1-0.6-0.2c-0.3-0.2-0.5-0.6-0.4-1l0.4-2.4l-1.7-1.7c-0.3-0.3-0.4-0.7-0.3-1
				c0.1-0.4,0.4-0.6,0.8-0.7l2.4-0.4l1.1-2.2c0.2-0.3,0.5-0.6,0.9-0.6l0,0c0.4,0,0.7,0.2,0.9,0.6l1.1,2.2l2.4,0.3
				c0.4,0.1,0.7,0.3,0.8,0.7s0,0.8-0.3,1l-1.7,1.7l0.4,2.4c0.1,0.4-0.1,0.8-0.4,1c-0.3,0.2-0.7,0.3-1.1,0.1l-2.1-1.1l-2.1,1.1
				C248.1,486.7,248,486.7,247.8,486.7z M248.3,481.5l0.5,0.5c0.3,0.3,0.4,0.7,0.4,1.1l-0.1,0.8l0.7-0.4c0.4-0.2,0.8-0.2,1.2,0
				l0.7,0.3l-0.1-0.7c-0.1-0.4,0.1-0.8,0.4-1.1l0.5-0.5l-0.8-0.1c-0.4-0.1-0.8-0.3-1-0.7l-0.3-0.7l-0.3,0.7c-0.2,0.4-0.5,0.6-1,0.7
				L248.3,481.5z"/>
		</g>
		<g>
			<path class="st1" d="M171.8,485.3c-0.2,0-0.4-0.1-0.6-0.2c-0.3-0.2-0.5-0.6-0.4-1l0.4-2.4l-1.7-1.7c-0.3-0.3-0.4-0.7-0.3-1
				c0.1-0.4,0.4-0.6,0.8-0.7l2.4-0.4l1.1-2.2c0.2-0.3,0.5-0.6,0.9-0.6l0,0c0.4,0,0.7,0.2,0.9,0.6l1.1,2.2l2.4,0.3
				c0.4,0.1,0.7,0.3,0.8,0.7s0,0.8-0.3,1l-1.7,1.7l0.4,2.4c0.1,0.4-0.1,0.8-0.4,1c-0.3,0.2-0.7,0.3-1.1,0.1l-2.1-1.1l-2.1,1.1
				C172.1,485.2,172,485.3,171.8,485.3z M172.3,480l0.5,0.5c0.3,0.3,0.4,0.7,0.4,1.1l-0.1,0.8l0.7-0.4c0.4-0.2,0.8-0.2,1.2,0
				l0.7,0.3l-0.1-0.7c-0.1-0.4,0.1-0.8,0.4-1.1l0.5-0.5l-0.8-0.1c-0.4-0.1-0.8-0.3-1-0.7l-0.3-0.7l-0.3,0.7c-0.2,0.4-0.5,0.6-1,0.7
				L172.3,480z"/>
		</g>
	</g>
	<g>
		<g>
			<path class="st1" d="M19.3,558c-0.2,0-0.4-0.1-0.6-0.2c-0.3-0.2-0.5-0.6-0.4-1l0.4-2.4l-1.7-1.7c-0.3-0.3-0.4-0.7-0.3-1
				c0.1-0.4,0.4-0.6,0.8-0.7l2.4-0.4l1.1-2.2c0.2-0.3,0.5-0.6,0.9-0.6l0,0c0.4,0,0.7,0.2,0.9,0.6l1.1,2.2l2.4,0.3
				c0.4,0.1,0.7,0.3,0.8,0.7s0,0.8-0.3,1l-1.7,1.7l0.4,2.4c0.1,0.4-0.1,0.8-0.4,1c-0.3,0.2-0.7,0.3-1.1,0.1l-2.1-1.1l-2.1,1.1
				C19.7,558,19.5,558,19.3,558z M19.9,552.8l0.5,0.5c0.3,0.3,0.4,0.7,0.4,1.1l-0.1,0.8l0.7-0.4c0.4-0.2,0.8-0.2,1.2,0l0.7,0.3
				l-0.1-0.7c-0.1-0.4,0.1-0.8,0.4-1.1l0.5-0.5l-0.8-0.1c-0.4-0.1-0.8-0.3-1-0.7l-0.3-0.7l-0.3,0.7c-0.2,0.4-0.5,0.6-1,0.7
				L19.9,552.8z"/>
		</g>
		<g>
			<path class="st1" d="M88.8,558c-0.2,0-0.4-0.1-0.6-0.2c-0.3-0.2-0.5-0.6-0.4-1l0.4-2.4l-1.7-1.7c-0.3-0.3-0.4-0.7-0.3-1
				c0.1-0.4,0.4-0.6,0.8-0.7l2.4-0.4l1.1-2.2c0.2-0.3,0.5-0.6,0.9-0.6l0,0c0.4,0,0.7,0.2,0.9,0.6l1.1,2.2l2.4,0.3
				c0.4,0.1,0.7,0.3,0.8,0.7s0,0.8-0.3,1l-1.7,1.7l0.4,2.4c0.1,0.4-0.1,0.8-0.4,1c-0.3,0.2-0.7,0.3-1.1,0.1l-2.1-1.1l-2.1,1.1
				C89.2,558,89,558,88.8,558z M89.4,552.8l0.5,0.5c0.3,0.3,0.4,0.7,0.4,1.1l-0.1,0.8l0.7-0.4c0.4-0.2,0.8-0.2,1.2,0l0.7,0.3
				l-0.1-0.7c-0.1-0.4,0.1-0.8,0.4-1.1l0.5-0.5l-0.8-0.1c-0.4-0.1-0.8-0.3-1-0.7l-0.3-0.7l-0.3,0.7c-0.2,0.4-0.5,0.6-1,0.7
				L89.4,552.8z"/>
		</g>
		<g>
			<path class="st1" d="M102.3,558c-0.2,0-0.4-0.1-0.6-0.2c-0.3-0.2-0.5-0.6-0.4-1l0.4-2.4l-1.7-1.7c-0.3-0.3-0.4-0.7-0.3-1
				c0.1-0.4,0.4-0.6,0.8-0.7l2.4-0.4l1.1-2.2c0.2-0.3,0.5-0.6,0.9-0.6l0,0c0.4,0,0.7,0.2,0.9,0.6l1.1,2.2l2.4,0.3
				c0.4,0.1,0.7,0.3,0.8,0.7s0,0.8-0.3,1l-1.7,1.7l0.4,2.4c0.1,0.4-0.1,0.8-0.4,1c-0.3,0.2-0.7,0.3-1.1,0.1l-2.1-1.1l-2.1,1.1
				C102.6,558,102.5,558,102.3,558z M102.8,552.8l0.5,0.5c0.3,0.3,0.4,0.7,0.4,1.1l-0.1,0.8l0.7-0.4c0.4-0.2,0.8-0.2,1.2,0l0.7,0.3
				l-0.1-0.7c-0.1-0.4,0.1-0.8,0.4-1.1l0.5-0.5l-0.8-0.1c-0.4-0.1-0.8-0.3-1-0.7l-0.3-0.7l-0.3,0.7c-0.2,0.4-0.5,0.6-1,0.7
				L102.8,552.8z"/>
		</g>
		<g>
			<path class="st1" d="M160.4,558c-0.2,0-0.4-0.1-0.6-0.2c-0.3-0.2-0.5-0.6-0.4-1l0.4-2.4l-1.7-1.7c-0.3-0.3-0.4-0.7-0.3-1
				c0.1-0.4,0.4-0.6,0.8-0.7l2.4-0.4l1.1-2.2c0.2-0.3,0.5-0.6,0.9-0.6l0,0c0.4,0,0.7,0.2,0.9,0.6l1.1,2.2l2.4,0.3
				c0.4,0.1,0.7,0.3,0.8,0.7s0,0.8-0.3,1l-1.7,1.7l0.4,2.4c0.1,0.4-0.1,0.8-0.4,1c-0.3,0.2-0.7,0.3-1.1,0.1l-2.1-1.1l-2.1,1.1
				C160.7,558,160.6,558,160.4,558z M160.9,552.8l0.5,0.5c0.3,0.3,0.4,0.7,0.4,1.1l-0.1,0.8l0.7-0.4c0.4-0.2,0.8-0.2,1.2,0l0.7,0.3
				l-0.1-0.7c-0.1-0.4,0.1-0.8,0.4-1.1l0.5-0.5l-0.8-0.1c-0.4-0.1-0.8-0.3-1-0.7l-0.3-0.7l-0.3,0.7c-0.2,0.4-0.5,0.6-1,0.7
				L160.9,552.8z"/>
		</g>
		<g>
			<path class="st1" d="M183.3,558c-0.2,0-0.4-0.1-0.6-0.2c-0.3-0.2-0.5-0.6-0.4-1l0.4-2.4l-1.7-1.7c-0.3-0.3-0.4-0.7-0.3-1
				c0.1-0.4,0.4-0.6,0.8-0.7l2.4-0.4l1.1-2.2c0.2-0.3,0.5-0.6,0.9-0.6l0,0c0.4,0,0.7,0.2,0.9,0.6l1.1,2.2l2.4,0.3
				c0.4,0.1,0.7,0.3,0.8,0.7s0,0.8-0.3,1l-1.7,1.7l0.4,2.4c0.1,0.4-0.1,0.8-0.4,1c-0.3,0.2-0.7,0.3-1.1,0.1l-2.1-1.1l-2.1,1.1
				C183.6,558,183.5,558,183.3,558z M183.8,552.8l0.5,0.5c0.3,0.3,0.4,0.7,0.4,1.1l-0.1,0.8l0.7-0.4c0.4-0.2,0.8-0.2,1.2,0l0.7,0.3
				l-0.1-0.7c-0.1-0.4,0.1-0.8,0.4-1.1l0.5-0.5l-0.8-0.1c-0.4-0.1-0.8-0.3-1-0.7l-0.3-0.7l-0.3,0.7c-0.2,0.4-0.5,0.6-1,0.7
				L183.8,552.8z"/>
		</g>
		<g>
			<path class="st1" d="M237.9,558c-0.2,0-0.4-0.1-0.6-0.2c-0.3-0.2-0.5-0.6-0.4-1l0.4-2.4l-1.7-1.7c-0.3-0.3-0.4-0.7-0.3-1
				c0.1-0.4,0.4-0.6,0.8-0.7l2.4-0.4l1.1-2.2c0.2-0.3,0.5-0.6,0.9-0.6l0,0c0.4,0,0.7,0.2,0.9,0.6l1.1,2.2l2.4,0.3
				c0.4,0.1,0.7,0.3,0.8,0.7s0,0.8-0.3,1l-1.7,1.7l0.4,2.4c0.1,0.4-0.1,0.8-0.4,1c-0.3,0.2-0.7,0.3-1.1,0.1l-2.1-1.1l-2.1,1.1
				C238.3,558,238.1,558,237.9,558z M238.5,552.8l0.5,0.5c0.3,0.3,0.4,0.7,0.4,1.1l-0.1,0.8l0.7-0.4c0.4-0.2,0.8-0.2,1.2,0l0.7,0.3
				l-0.1-0.7c-0.1-0.4,0.1-0.8,0.4-1.1l0.5-0.5l-0.8-0.1c-0.4-0.1-0.8-0.3-1-0.7l-0.3-0.7l-0.3,0.7c-0.2,0.4-0.5,0.6-1,0.7
				L238.5,552.8z"/>
		</g>
		<g>
			<path class="st1" d="M257.7,558c-0.2,0-0.4-0.1-0.6-0.2c-0.3-0.2-0.5-0.6-0.4-1l0.4-2.4l-1.7-1.7c-0.3-0.3-0.4-0.7-0.3-1
				c0.1-0.4,0.4-0.6,0.8-0.7l2.4-0.4l1.1-2.2c0.2-0.3,0.5-0.6,0.9-0.6l0,0c0.4,0,0.7,0.2,0.9,0.6l1.1,2.2l2.4,0.3
				c0.4,0.1,0.7,0.3,0.8,0.7s0,0.8-0.3,1l-1.7,1.7l0.4,2.4c0.1,0.4-0.1,0.8-0.4,1c-0.3,0.2-0.7,0.3-1.1,0.1l-2.1-1.1l-2.1,1.1
				C258,558,257.9,558,257.7,558z M258.2,552.8l0.5,0.5c0.3,0.3,0.4,0.7,0.4,1.1l-0.1,0.8l0.7-0.4c0.4-0.2,0.8-0.2,1.2,0l0.7,0.3
				l-0.1-0.7c-0.1-0.4,0.1-0.8,0.4-1.1l0.5-0.5l-0.8-0.1c-0.4-0.1-0.8-0.3-1-0.7l-0.3-0.7L260,552c-0.2,0.4-0.5,0.6-1,0.7
				L258.2,552.8z"/>
		</g>
		<g>
			<path class="st1" d="M247.8,552.9c-0.2,0-0.4-0.1-0.6-0.2c-0.3-0.2-0.5-0.6-0.4-1l0.4-2.4l-1.7-1.7c-0.3-0.3-0.4-0.7-0.3-1
				c0.1-0.4,0.4-0.6,0.8-0.7l2.4-0.4l1.1-2.2c0.2-0.3,0.5-0.6,0.9-0.6l0,0c0.4,0,0.7,0.2,0.9,0.6l1.1,2.2l2.4,0.3
				c0.4,0.1,0.7,0.3,0.8,0.7s0,0.8-0.3,1l-1.7,1.7l0.4,2.4c0.1,0.4-0.1,0.8-0.4,1c-0.3,0.2-0.7,0.3-1.1,0.1l-2.1-1.1l-2.1,1.1
				C248.1,552.9,248,552.9,247.8,552.9z M248.3,547.6l0.5,0.5c0.3,0.3,0.4,0.7,0.4,1.1l-0.1,0.8l0.7-0.4c0.4-0.2,0.8-0.2,1.2,0
				l0.7,0.3l-0.1-0.7c-0.1-0.4,0.1-0.8,0.4-1.1l0.5-0.5l-0.8-0.1c-0.4-0.1-0.8-0.3-1-0.7l-0.3-0.7l-0.3,0.7c-0.2,0.4-0.5,0.6-1,0.7
				L248.3,547.6z"/>
		</g>
		<g>
			<path class="st1" d="M247.8,562.7c-0.2,0-0.4-0.1-0.6-0.2c-0.3-0.2-0.5-0.6-0.4-1l0.4-2.4l-1.7-1.7c-0.3-0.3-0.4-0.7-0.3-1
				c0.1-0.4,0.4-0.6,0.8-0.7l2.4-0.4l1.1-2.2c0.2-0.3,0.5-0.6,0.9-0.6l0,0c0.4,0,0.7,0.2,0.9,0.6l1.1,2.2l2.4,0.3
				c0.4,0.1,0.7,0.3,0.8,0.7s0,0.8-0.3,1l-1.7,1.7l0.4,2.4c0.1,0.4-0.1,0.8-0.4,1c-0.3,0.2-0.7,0.3-1.1,0.1l-2.1-1.1l-2.1,1.1
				C248.1,562.7,248,562.7,247.8,562.7z M248.3,557.5l0.5,0.5c0.3,0.3,0.4,0.7,0.4,1.1l-0.1,0.8l0.7-0.4c0.4-0.2,0.8-0.2,1.2,0
				l0.7,0.3l-0.1-0.7c-0.1-0.4,0.1-0.8,0.4-1.1l0.5-0.5l-0.8-0.1c-0.4-0.1-0.8-0.3-1-0.7l-0.3-0.7l-0.3,0.7c-0.2,0.4-0.5,0.6-1,0.7
				L248.3,557.5z"/>
		</g>
		<g>
			<path class="st1" d="M171.8,561.3c-0.2,0-0.4-0.1-0.6-0.2c-0.3-0.2-0.5-0.6-0.4-1l0.4-2.4l-1.7-1.7c-0.3-0.3-0.4-0.7-0.3-1
				c0.1-0.4,0.4-0.6,0.8-0.7l2.4-0.4l1.1-2.2c0.2-0.3,0.5-0.6,0.9-0.6l0,0c0.4,0,0.7,0.2,0.9,0.6l1.1,2.2l2.4,0.3
				c0.4,0.1,0.7,0.3,0.8,0.7s0,0.8-0.3,1l-1.7,1.7l0.4,2.4c0.1,0.4-0.1,0.8-0.4,1c-0.3,0.2-0.7,0.3-1.1,0.1l-2.1-1.1l-2.1,1.1
				C172.1,561.2,172,561.3,171.8,561.3z M172.3,556l0.5,0.5c0.3,0.3,0.4,0.7,0.4,1.1l-0.1,0.8l0.7-0.4c0.4-0.2,0.8-0.2,1.2,0
				l0.7,0.3l-0.1-0.7c-0.1-0.4,0.1-0.8,0.4-1.1l0.5-0.5l-0.8-0.1c-0.4-0.1-0.8-0.3-1-0.7l-0.3-0.7l-0.3,0.7c-0.2,0.4-0.5,0.6-1,0.7
				L172.3,556z"/>
		</g>
	</g>
	<g>
		<g>
			<path class="st1" d="M19.3,634.5c-0.2,0-0.4-0.1-0.6-0.2c-0.3-0.2-0.5-0.6-0.4-1l0.4-2.4l-1.7-1.7c-0.3-0.3-0.4-0.7-0.3-1
				c0.1-0.4,0.4-0.6,0.8-0.7l2.4-0.4l1.1-2.2c0.2-0.3,0.5-0.6,0.9-0.6l0,0c0.4,0,0.7,0.2,0.9,0.6l1.1,2.2l2.4,0.3
				c0.4,0.1,0.7,0.3,0.8,0.7s0,0.8-0.3,1l-1.7,1.7l0.4,2.4c0.1,0.4-0.1,0.8-0.4,1c-0.3,0.2-0.7,0.3-1.1,0.1l-2.1-1.1l-2.1,1.1
				C19.7,634.5,19.5,634.5,19.3,634.5z M19.9,629.3l0.5,0.5c0.3,0.3,0.4,0.7,0.4,1.1l-0.1,0.8l0.7-0.4c0.4-0.2,0.8-0.2,1.2,0
				l0.7,0.3l-0.1-0.7c-0.1-0.4,0.1-0.8,0.4-1.1l0.5-0.5l-0.9-0.2c-0.4-0.1-0.8-0.3-1-0.7l-0.3-0.7l-0.3,0.7c-0.2,0.4-0.5,0.6-1,0.7
				L19.9,629.3z"/>
		</g>
		<g>
			<path class="st1" d="M88.8,634.5c-0.2,0-0.4-0.1-0.6-0.2c-0.3-0.2-0.5-0.6-0.4-1l0.4-2.4l-1.7-1.7c-0.3-0.3-0.4-0.7-0.3-1
				c0.1-0.4,0.4-0.6,0.8-0.7l2.4-0.4l1.1-2.2c0.2-0.3,0.5-0.6,0.9-0.6l0,0c0.4,0,0.7,0.2,0.9,0.6l1.1,2.2l2.4,0.3
				c0.4,0.1,0.7,0.3,0.8,0.7s0,0.8-0.3,1l-1.7,1.7l0.4,2.4c0.1,0.4-0.1,0.8-0.4,1c-0.3,0.2-0.7,0.3-1.1,0.1l-2.1-1.1l-2.1,1.1
				C89.2,634.5,89,634.5,88.8,634.5z M89.4,629.3l0.5,0.5c0.3,0.3,0.4,0.7,0.4,1.1l-0.1,0.8l0.7-0.4c0.4-0.2,0.8-0.2,1.2,0l0.7,0.3
				l-0.1-0.7c-0.1-0.4,0.1-0.8,0.4-1.1l0.5-0.5l-0.8-0.1c-0.4-0.1-0.8-0.3-1-0.7l-0.3-0.7l-0.3,0.7c-0.2,0.4-0.5,0.6-1,0.7
				L89.4,629.3z"/>
		</g>
		<g>
			<path class="st1" d="M102.3,634.5c-0.2,0-0.4-0.1-0.6-0.2c-0.3-0.2-0.5-0.6-0.4-1l0.4-2.4l-1.7-1.7c-0.3-0.3-0.4-0.7-0.3-1
				c0.1-0.4,0.4-0.6,0.8-0.7l2.4-0.4l1.1-2.2c0.2-0.3,0.5-0.6,0.9-0.6l0,0c0.4,0,0.7,0.2,0.9,0.6l1.1,2.2l2.4,0.3
				c0.4,0.1,0.7,0.3,0.8,0.7s0,0.8-0.3,1l-1.7,1.7l0.4,2.4c0.1,0.4-0.1,0.8-0.4,1c-0.3,0.2-0.7,0.3-1.1,0.1l-2.1-1.1l-2.1,1.1
				C102.6,634.5,102.5,634.5,102.3,634.5z M102.8,629.3l0.5,0.5c0.3,0.3,0.4,0.7,0.4,1.1l-0.1,0.8l0.7-0.4c0.4-0.2,0.8-0.2,1.2,0
				l0.7,0.3l-0.1-0.7c-0.1-0.4,0.1-0.8,0.4-1.1l0.5-0.5l-0.8-0.2c-0.4-0.1-0.8-0.3-1-0.7l-0.3-0.7l-0.3,0.7c-0.2,0.4-0.5,0.6-1,0.7
				L102.8,629.3z"/>
		</g>
		<g>
			<path class="st1" d="M160.4,634.5c-0.2,0-0.4-0.1-0.6-0.2c-0.3-0.2-0.5-0.6-0.4-1l0.4-2.4l-1.7-1.7c-0.3-0.3-0.4-0.7-0.3-1
				c0.1-0.4,0.4-0.6,0.8-0.7l2.4-0.4l1.1-2.2c0.2-0.3,0.5-0.6,0.9-0.6l0,0c0.4,0,0.7,0.2,0.9,0.6l1.1,2.2l2.4,0.3
				c0.4,0.1,0.7,0.3,0.8,0.7s0,0.8-0.3,1l-1.7,1.7l0.4,2.4c0.1,0.4-0.1,0.8-0.4,1c-0.3,0.2-0.7,0.3-1.1,0.1l-2.1-1.1l-2.1,1.1
				C160.7,634.5,160.6,634.5,160.4,634.5z M160.9,629.3l0.5,0.5c0.3,0.3,0.4,0.7,0.4,1.1l-0.1,0.8l0.7-0.4c0.4-0.2,0.8-0.2,1.2,0
				l0.7,0.3l-0.1-0.7c-0.1-0.4,0.1-0.8,0.4-1.1l0.5-0.5l-0.8-0.1c-0.4-0.1-0.8-0.3-1-0.7l-0.3-0.7l-0.3,0.7c-0.2,0.4-0.5,0.6-1,0.7
				L160.9,629.3z"/>
		</g>
		<g>
			<path class="st1" d="M183.3,634.5c-0.2,0-0.4-0.1-0.6-0.2c-0.3-0.2-0.5-0.6-0.4-1l0.4-2.4l-1.7-1.7c-0.3-0.3-0.4-0.7-0.3-1
				c0.1-0.4,0.4-0.6,0.8-0.7l2.4-0.4l1.1-2.2c0.2-0.3,0.5-0.6,0.9-0.6l0,0c0.4,0,0.7,0.2,0.9,0.6l1.1,2.2l2.4,0.3
				c0.4,0.1,0.7,0.3,0.8,0.7s0,0.8-0.3,1l-1.7,1.7l0.4,2.4c0.1,0.4-0.1,0.8-0.4,1c-0.3,0.2-0.7,0.3-1.1,0.1l-2.1-1.1l-2.1,1.1
				C183.6,634.5,183.5,634.5,183.3,634.5z M183.8,629.3l0.5,0.5c0.3,0.3,0.4,0.7,0.4,1.1l-0.1,0.8l0.7-0.4c0.4-0.2,0.8-0.2,1.2,0
				l0.7,0.3l-0.1-0.7c-0.1-0.4,0.1-0.8,0.4-1.1l0.5-0.5l-0.8-0.2c-0.4-0.1-0.8-0.3-1-0.7l-0.3-0.7l-0.3,0.7c-0.2,0.4-0.5,0.6-1,0.7
				L183.8,629.3z"/>
		</g>
		<g>
			<path class="st1" d="M237.9,634.5c-0.2,0-0.4-0.1-0.6-0.2c-0.3-0.2-0.5-0.6-0.4-1l0.4-2.4l-1.7-1.7c-0.3-0.3-0.4-0.7-0.3-1
				c0.1-0.4,0.4-0.6,0.8-0.7l2.4-0.4l1.1-2.2c0.2-0.3,0.5-0.6,0.9-0.6l0,0c0.4,0,0.7,0.2,0.9,0.6l1.1,2.2l2.4,0.3
				c0.4,0.1,0.7,0.3,0.8,0.7s0,0.8-0.3,1l-1.7,1.7l0.4,2.4c0.1,0.4-0.1,0.8-0.4,1c-0.3,0.2-0.7,0.3-1.1,0.1l-2.1-1.1l-2.1,1.1
				C238.3,634.5,238.1,634.5,237.9,634.5z M238.5,629.3l0.5,0.5c0.3,0.3,0.4,0.7,0.4,1.1l-0.1,0.8l0.7-0.4c0.4-0.2,0.8-0.2,1.2,0
				l0.7,0.3l-0.1-0.7c-0.1-0.4,0.1-0.8,0.4-1.1l0.5-0.5l-0.8-0.1c-0.4-0.1-0.8-0.3-1-0.7l-0.3-0.7l-0.3,0.7c-0.2,0.4-0.5,0.6-1,0.7
				L238.5,629.3z"/>
		</g>
		<g>
			<path class="st1" d="M257.7,634.5c-0.2,0-0.4-0.1-0.6-0.2c-0.3-0.2-0.5-0.6-0.4-1l0.4-2.4l-1.7-1.7c-0.3-0.3-0.4-0.7-0.3-1
				c0.1-0.4,0.4-0.6,0.8-0.7l2.4-0.4l1.1-2.2c0.2-0.3,0.5-0.6,0.9-0.6l0,0c0.4,0,0.7,0.2,0.9,0.6l1.1,2.2l2.4,0.3
				c0.4,0.1,0.7,0.3,0.8,0.7s0,0.8-0.3,1l-1.7,1.7l0.4,2.4c0.1,0.4-0.1,0.8-0.4,1c-0.3,0.2-0.7,0.3-1.1,0.1l-2.1-1.1l-2.1,1.1
				C258,634.5,257.9,634.5,257.7,634.5z M258.2,629.3l0.5,0.5c0.3,0.3,0.4,0.7,0.4,1.1l-0.1,0.8l0.7-0.4c0.4-0.2,0.8-0.2,1.2,0
				l0.7,0.3l-0.1-0.7c-0.1-0.4,0.1-0.8,0.4-1.1l0.5-0.5l-0.8-0.1c-0.4-0.1-0.8-0.3-1-0.7l-0.3-0.7l-0.3,0.7c-0.2,0.4-0.5,0.6-1,0.7
				L258.2,629.3z"/>
		</g>
		<g>
			<path class="st1" d="M247.8,629.4c-0.2,0-0.4-0.1-0.6-0.2c-0.3-0.2-0.5-0.6-0.4-1l0.4-2.4l-1.7-1.7c-0.3-0.3-0.4-0.7-0.3-1
				c0.1-0.4,0.4-0.6,0.8-0.7l2.4-0.4l1.1-2.2c0.2-0.3,0.5-0.6,0.9-0.6l0,0c0.4,0,0.7,0.2,0.9,0.6l1.1,2.2l2.4,0.3
				c0.4,0.1,0.7,0.3,0.8,0.7s0,0.8-0.3,1l-1.7,1.7l0.4,2.4c0.1,0.4-0.1,0.8-0.4,1c-0.3,0.2-0.7,0.3-1.1,0.1l-2.1-1.1l-2.1,1.1
				C248.1,629.4,248,629.4,247.8,629.4z M248.3,624.1l0.5,0.5c0.3,0.3,0.4,0.7,0.4,1.1l-0.1,0.8l0.7-0.4c0.4-0.2,0.8-0.2,1.2,0
				l0.7,0.3l-0.1-0.7c-0.1-0.4,0.1-0.8,0.4-1.1l0.5-0.5l-0.8-0.1c-0.4-0.1-0.8-0.3-1-0.7l-0.3-0.7l-0.3,0.7c-0.2,0.4-0.5,0.6-1,0.7
				L248.3,624.1z"/>
		</g>
		<g>
			<path class="st1" d="M247.8,639.2c-0.2,0-0.4-0.1-0.6-0.2c-0.3-0.2-0.5-0.6-0.4-1l0.4-2.4l-1.7-1.7c-0.3-0.3-0.4-0.7-0.3-1
				c0.1-0.4,0.4-0.6,0.8-0.7l2.4-0.4l1.1-2.2c0.2-0.3,0.5-0.6,0.9-0.6l0,0c0.4,0,0.7,0.2,0.9,0.6l1.1,2.2l2.4,0.3
				c0.4,0.1,0.7,0.3,0.8,0.7s0,0.8-0.3,1l-1.7,1.7l0.4,2.4c0.1,0.4-0.1,0.8-0.4,1c-0.3,0.2-0.7,0.3-1.1,0.1l-2.1-1.1l-2.1,1.1
				C248.1,639.2,248,639.2,247.8,639.2z M248.3,634l0.5,0.5c0.3,0.3,0.4,0.7,0.4,1.1l-0.1,0.8l0.7-0.4c0.4-0.2,0.8-0.2,1.2,0
				l0.7,0.3l-0.1-0.7c-0.1-0.4,0.1-0.8,0.4-1.1l0.5-0.5l-0.8-0.1c-0.4-0.1-0.8-0.3-1-0.7l-0.3-0.7l-0.3,0.7c-0.2,0.4-0.5,0.6-1,0.7
				L248.3,634z"/>
		</g>
		<g>
			<path class="st1" d="M171.8,637.8c-0.2,0-0.4-0.1-0.6-0.2c-0.3-0.2-0.5-0.6-0.4-1l0.4-2.4l-1.7-1.7c-0.3-0.3-0.4-0.7-0.3-1
				c0.1-0.4,0.4-0.6,0.8-0.7l2.4-0.4l1.1-2.2c0.2-0.3,0.5-0.6,0.9-0.6l0,0c0.4,0,0.7,0.2,0.9,0.6l1.1,2.2l2.4,0.3
				c0.4,0.1,0.7,0.3,0.8,0.7s0,0.8-0.3,1l-1.7,1.7l0.4,2.4c0.1,0.4-0.1,0.8-0.4,1c-0.3,0.2-0.7,0.3-1.1,0.1l-2.1-1.1l-2.1,1.1
				C172.1,637.7,172,637.8,171.8,637.8z M172.3,632.5l0.5,0.5c0.3,0.3,0.4,0.7,0.4,1.1l-0.1,0.8l0.7-0.4c0.4-0.2,0.8-0.2,1.2,0
				l0.7,0.3l-0.1-0.7c-0.1-0.4,0.1-0.8,0.4-1.1l0.5-0.5l-0.8-0.1c-0.4-0.1-0.8-0.3-1-0.7l-0.3-0.7l-0.3,0.7c-0.2,0.4-0.5,0.6-1,0.7
				L172.3,632.5z"/>
		</g>
	</g>
	<g>
		<g>
			<path class="st1" d="M19.3,710.7c-0.2,0-0.4-0.1-0.6-0.2c-0.3-0.2-0.5-0.6-0.4-1l0.4-2.4l-1.7-1.7c-0.3-0.3-0.4-0.7-0.3-1
				c0.1-0.4,0.4-0.6,0.8-0.7l2.4-0.4l1.1-2.2c0.2-0.3,0.5-0.6,0.9-0.6l0,0c0.4,0,0.7,0.2,0.9,0.6l1.1,2.2l2.4,0.3
				c0.4,0.1,0.7,0.3,0.8,0.7s0,0.8-0.3,1l-1.7,1.7l0.4,2.4c0.1,0.4-0.1,0.8-0.4,1c-0.3,0.2-0.7,0.3-1.1,0.1l-2.1-1.1l-2.1,1.1
				C19.7,710.7,19.5,710.7,19.3,710.7z M19.9,705.5l0.5,0.5c0.3,0.3,0.4,0.7,0.4,1.1l-0.1,0.8l0.7-0.4c0.4-0.2,0.8-0.2,1.2,0
				l0.7,0.3l-0.1-0.7c-0.1-0.4,0.1-0.8,0.4-1.1l0.5-0.5l-0.8-0.1c-0.4-0.1-0.8-0.3-1-0.7L22,704l-0.3,0.7c-0.2,0.4-0.5,0.6-1,0.7
				L19.9,705.5z"/>
		</g>
		<g>
			<path class="st1" d="M88.8,710.7c-0.2,0-0.4-0.1-0.6-0.2c-0.3-0.2-0.5-0.6-0.4-1l0.4-2.4l-1.7-1.7c-0.3-0.3-0.4-0.7-0.3-1
				c0.1-0.4,0.4-0.6,0.8-0.7l2.4-0.4l1.1-2.2c0.2-0.3,0.5-0.6,0.9-0.6l0,0c0.4,0,0.7,0.2,0.9,0.6l1.1,2.2l2.4,0.3
				c0.4,0.1,0.7,0.3,0.8,0.7s0,0.8-0.3,1l-1.7,1.7l0.4,2.4c0.1,0.4-0.1,0.8-0.4,1c-0.3,0.2-0.7,0.3-1.1,0.1l-2.1-1.1l-2.1,1.1
				C89.2,710.7,89,710.7,88.8,710.7z M89.4,705.5l0.5,0.5c0.3,0.3,0.4,0.7,0.4,1.1l-0.1,0.8l0.7-0.4c0.4-0.2,0.8-0.2,1.2,0l0.7,0.3
				l-0.1-0.7c-0.1-0.4,0.1-0.8,0.4-1.1l0.5-0.5l-0.8-0.1c-0.4-0.1-0.8-0.3-1-0.7l-0.3-0.7l-0.3,0.7c-0.2,0.4-0.5,0.6-1,0.7
				L89.4,705.5z"/>
		</g>
		<g>
			<path class="st1" d="M102.3,710.7c-0.2,0-0.4-0.1-0.6-0.2c-0.3-0.2-0.5-0.6-0.4-1l0.4-2.4l-1.7-1.7c-0.3-0.3-0.4-0.7-0.3-1
				c0.1-0.4,0.4-0.6,0.8-0.7l2.4-0.4l1.1-2.2c0.2-0.3,0.5-0.6,0.9-0.6l0,0c0.4,0,0.7,0.2,0.9,0.6l1.1,2.2l2.4,0.3
				c0.4,0.1,0.7,0.3,0.8,0.7s0,0.8-0.3,1l-1.7,1.7l0.4,2.4c0.1,0.4-0.1,0.8-0.4,1c-0.3,0.2-0.7,0.3-1.1,0.1l-2.1-1.1l-2.1,1.1
				C102.6,710.7,102.5,710.7,102.3,710.7z M102.8,705.5l0.5,0.5c0.3,0.3,0.4,0.7,0.4,1.1l-0.1,0.8l0.7-0.4c0.4-0.2,0.8-0.2,1.2,0
				l0.7,0.3l-0.1-0.7c-0.1-0.4,0.1-0.8,0.4-1.1l0.5-0.5l-0.8-0.1c-0.4-0.1-0.8-0.3-1-0.7l-0.3-0.7l-0.3,0.7c-0.2,0.4-0.5,0.6-1,0.7
				L102.8,705.5z"/>
		</g>
		<g>
			<path class="st1" d="M160.4,710.7c-0.2,0-0.4-0.1-0.6-0.2c-0.3-0.2-0.5-0.6-0.4-1l0.4-2.4l-1.7-1.7c-0.3-0.3-0.4-0.7-0.3-1
				c0.1-0.4,0.4-0.6,0.8-0.7l2.4-0.4l1.1-2.2c0.2-0.3,0.5-0.6,0.9-0.6l0,0c0.4,0,0.7,0.2,0.9,0.6l1.1,2.2l2.4,0.3
				c0.4,0.1,0.7,0.3,0.8,0.7s0,0.8-0.3,1l-1.7,1.7l0.4,2.4c0.1,0.4-0.1,0.8-0.4,1c-0.3,0.2-0.7,0.3-1.1,0.1l-2.1-1.1l-2.1,1.1
				C160.7,710.7,160.6,710.7,160.4,710.7z M160.9,705.5l0.5,0.5c0.3,0.3,0.4,0.7,0.4,1.1l-0.1,0.8l0.7-0.4c0.4-0.2,0.8-0.2,1.2,0
				l0.7,0.3l-0.1-0.7c-0.1-0.4,0.1-0.8,0.4-1.1l0.5-0.5l-0.8-0.1c-0.4-0.1-0.8-0.3-1-0.7L163,704l-0.3,0.7c-0.2,0.4-0.5,0.6-1,0.7
				L160.9,705.5z"/>
		</g>
		<g>
			<path class="st1" d="M183.3,710.7c-0.2,0-0.4-0.1-0.6-0.2c-0.3-0.2-0.5-0.6-0.4-1l0.4-2.4l-1.7-1.7c-0.3-0.3-0.4-0.7-0.3-1
				c0.1-0.4,0.4-0.6,0.8-0.7l2.4-0.4l1.1-2.2c0.2-0.3,0.5-0.6,0.9-0.6l0,0c0.4,0,0.7,0.2,0.9,0.6l1.1,2.2l2.4,0.3
				c0.4,0.1,0.7,0.3,0.8,0.7s0,0.8-0.3,1l-1.7,1.7l0.4,2.4c0.1,0.4-0.1,0.8-0.4,1c-0.3,0.2-0.7,0.3-1.1,0.1l-2.1-1.1l-2.1,1.1
				C183.6,710.7,183.5,710.7,183.3,710.7z M183.8,705.5l0.5,0.5c0.3,0.3,0.4,0.7,0.4,1.1l-0.1,0.8l0.7-0.4c0.4-0.2,0.8-0.2,1.2,0
				l0.7,0.3l-0.1-0.7c-0.1-0.4,0.1-0.8,0.4-1.1l0.5-0.5l-0.8-0.1c-0.4-0.1-0.8-0.3-1-0.7l-0.3-0.7l-0.3,0.7c-0.2,0.4-0.5,0.6-1,0.7
				L183.8,705.5z"/>
		</g>
		<g>
			<path class="st1" d="M237.9,710.7c-0.2,0-0.4-0.1-0.6-0.2c-0.3-0.2-0.5-0.6-0.4-1l0.4-2.4l-1.7-1.7c-0.3-0.3-0.4-0.7-0.3-1
				c0.1-0.4,0.4-0.6,0.8-0.7l2.4-0.4l1.1-2.2c0.2-0.3,0.5-0.6,0.9-0.6l0,0c0.4,0,0.7,0.2,0.9,0.6l1.1,2.2l2.4,0.3
				c0.4,0.1,0.7,0.3,0.8,0.7s0,0.8-0.3,1l-1.7,1.7l0.4,2.4c0.1,0.4-0.1,0.8-0.4,1c-0.3,0.2-0.7,0.3-1.1,0.1l-2.1-1.1l-2.1,1.1
				C238.3,710.7,238.1,710.7,237.9,710.7z M238.5,705.5l0.5,0.5c0.3,0.3,0.4,0.7,0.4,1.1l-0.1,0.8l0.7-0.4c0.4-0.2,0.8-0.2,1.2,0
				l0.7,0.3l-0.1-0.7c-0.1-0.4,0.1-0.8,0.4-1.1l0.5-0.5l-0.8-0.1c-0.4-0.1-0.8-0.3-1-0.7l-0.3-0.7l-0.3,0.7c-0.2,0.4-0.5,0.6-1,0.7
				L238.5,705.5z"/>
		</g>
		<g>
			<path class="st1" d="M257.7,710.7c-0.2,0-0.4-0.1-0.6-0.2c-0.3-0.2-0.5-0.6-0.4-1l0.4-2.4l-1.7-1.7c-0.3-0.3-0.4-0.7-0.3-1
				c0.1-0.4,0.4-0.6,0.8-0.7l2.4-0.4l1.1-2.2c0.2-0.3,0.5-0.6,0.9-0.6l0,0c0.4,0,0.7,0.2,0.9,0.6l1.1,2.2l2.4,0.3
				c0.4,0.1,0.7,0.3,0.8,0.7s0,0.8-0.3,1l-1.7,1.7l0.4,2.4c0.1,0.4-0.1,0.8-0.4,1c-0.3,0.2-0.7,0.3-1.1,0.1l-2.1-1.1l-2.1,1.1
				C258,710.7,257.9,710.7,257.7,710.7z M258.2,705.5l0.5,0.5c0.3,0.3,0.4,0.7,0.4,1.1l-0.1,0.8l0.7-0.4c0.4-0.2,0.8-0.2,1.2,0
				l0.7,0.3l-0.1-0.7c-0.1-0.4,0.1-0.8,0.4-1.1l0.5-0.5l-0.8-0.1c-0.4-0.1-0.8-0.3-1-0.7l-0.3-0.7l-0.3,0.7c-0.2,0.4-0.5,0.6-1,0.7
				L258.2,705.5z"/>
		</g>
		<g>
			<path class="st1" d="M247.8,705.6c-0.2,0-0.4-0.1-0.6-0.2c-0.3-0.2-0.5-0.6-0.4-1l0.4-2.4l-1.7-1.7c-0.3-0.3-0.4-0.7-0.3-1
				c0.1-0.4,0.4-0.6,0.8-0.7l2.4-0.4l1.1-2.2c0.2-0.3,0.5-0.6,0.9-0.6l0,0c0.4,0,0.7,0.2,0.9,0.6l1.1,2.2l2.4,0.3
				c0.4,0.1,0.7,0.3,0.8,0.7s0,0.8-0.3,1l-1.7,1.7l0.4,2.4c0.1,0.4-0.1,0.8-0.4,1c-0.3,0.2-0.7,0.3-1.1,0.1l-2.1-1.1l-2.1,1.1
				C248.1,705.6,248,705.6,247.8,705.6z M248.3,700.3l0.5,0.5c0.3,0.3,0.4,0.7,0.4,1.1l-0.1,0.8l0.7-0.4c0.4-0.2,0.8-0.2,1.2,0
				l0.7,0.3l-0.1-0.7c-0.1-0.4,0.1-0.8,0.4-1.1l0.5-0.5l-0.8-0.1c-0.4-0.1-0.8-0.3-1-0.7l-0.3-0.7l-0.3,0.7c-0.2,0.4-0.5,0.6-1,0.7
				L248.3,700.3z"/>
		</g>
		<g>
			<path class="st1" d="M247.8,715.4c-0.2,0-0.4-0.1-0.6-0.2c-0.3-0.2-0.5-0.6-0.4-1l0.4-2.4l-1.7-1.7c-0.3-0.3-0.4-0.7-0.3-1
				c0.1-0.4,0.4-0.6,0.8-0.7l2.4-0.4l1.1-2.2c0.2-0.3,0.5-0.6,0.9-0.6l0,0c0.4,0,0.7,0.2,0.9,0.6l1.1,2.2l2.4,0.3
				c0.4,0.1,0.7,0.3,0.8,0.7s0,0.8-0.3,1l-1.7,1.7l0.4,2.4c0.1,0.4-0.1,0.8-0.4,1c-0.3,0.2-0.7,0.3-1.1,0.1l-2.1-1.1l-2.1,1.1
				C248.1,715.4,248,715.4,247.8,715.4z M248.3,710.2l0.5,0.5c0.3,0.3,0.4,0.7,0.4,1.1l-0.1,0.8l0.7-0.4c0.4-0.2,0.8-0.2,1.2,0
				l0.7,0.3l-0.1-0.7c-0.1-0.4,0.1-0.8,0.4-1.1l0.5-0.5l-0.8-0.1c-0.4-0.1-0.8-0.3-1-0.7l-0.3-0.7l-0.3,0.7c-0.2,0.4-0.5,0.6-1,0.7
				L248.3,710.2z"/>
		</g>
		<g>
			<path class="st1" d="M171.8,714c-0.2,0-0.4-0.1-0.6-0.2c-0.3-0.2-0.5-0.6-0.4-1l0.4-2.4l-1.7-1.7c-0.3-0.3-0.4-0.7-0.3-1
				c0.1-0.4,0.4-0.6,0.8-0.7l2.4-0.4l1.1-2.2c0.2-0.3,0.5-0.6,0.9-0.6l0,0c0.4,0,0.7,0.2,0.9,0.6l1.1,2.2l2.4,0.3
				c0.4,0.1,0.7,0.3,0.8,0.7s0,0.8-0.3,1l-1.7,1.7l0.4,2.4c0.1,0.4-0.1,0.8-0.4,1c-0.3,0.2-0.7,0.3-1.1,0.1l-2.1-1.1l-2.1,1.1
				C172.1,713.9,172,714,171.8,714z M172.3,708.7l0.5,0.5c0.3,0.3,0.4,0.7,0.4,1.1l-0.1,0.8l0.7-0.4c0.4-0.2,0.8-0.2,1.2,0l0.7,0.3
				l-0.1-0.7c-0.1-0.4,0.1-0.8,0.4-1.1l0.5-0.5l-0.8-0.1c-0.4-0.1-0.8-0.3-1-0.7l-0.3-0.7l-0.3,0.7c-0.2,0.4-0.5,0.6-1,0.7
				L172.3,708.7z"/>
		</g>
	</g>
</g>
</svg>
