<?xml version="1.0" encoding="utf-8"?>
<!-- Generator: Adobe Illustrator 18.1.0, SVG Export Plug-In . SVG Version: 6.00 Build 0)  -->
<svg version="1.1" id="Calque_1" xmlns="http://www.w3.org/2000/svg" xmlns:xlink="http://www.w3.org/1999/xlink" x="0px" y="0px"
	 viewBox="0 0 595.3 841.9" enable-background="new 0 0 595.3 841.9" xml:space="preserve">
<g id="XMLID_16_">
	<path id="XMLID_2_" fill="#FFFFFF" d="M297.6,703.5c-155.7,0-282.5-126.8-282.5-282.5s126.8-282.5,282.5-282.5
		s282.5,126.8,282.5,282.5S453.4,703.5,297.6,703.5z M297.6,158c-145,0-263,118-263,263s118,263,263,263s263-118,263-263
		S442.7,158,297.6,158z"/>
</g>
<g id="XMLID_18_">
	<g id="XMLID_19_">
		<path id="XMLID_28_" fill="#FFFFFF" d="M297.6,496.8c41.9,0,75.8-34.1,75.8-75.8s-34.2-75.8-75.8-75.8s-75.8,34.2-75.8,75.8
			S255.7,496.8,297.6,496.8z M297.6,367.1c29.8,0,53.8,24,53.8,53.8s-24,53.8-53.8,53.8c-29.8,0-53.8-24-53.8-53.8
			S267.9,367.1,297.6,367.1z"/>
		<path id="XMLID_12_" fill="#FFFFFF" d="M308.7,310v-34.9c0-6.2-4.9-11.1-11.1-11.1c-6.2,0-11.1,4.9-11.1,11.1V310
			c0,6.2,4.9,11.1,11.1,11.1C303.8,321.1,308.7,316.2,308.7,310z"/>
		<path id="XMLID_11_" fill="#FFFFFF" d="M286.6,531.9v34.9c0,6.2,4.9,11.1,11.1,11.1c6.2,0,11.1-4.9,11.1-11.1v-34.9
			c0-6.2-4.9-11.1-11.1-11.1C291.4,520.8,286.6,525.7,286.6,531.9z"/>
		<path id="XMLID_10_" fill="#FFFFFF" d="M384,350.3l24.6-24.6c4.3-4.3,4.3-11.3,0-15.7c-4.3-4.3-11.3-4.3-15.7,0l-24.6,24.6
			c-4.3,4.3-4.3,11.3,0,15.7c2.1,2.1,4.9,3.2,7.9,3.2S381.8,352.5,384,350.3z"/>
		<path id="XMLID_9_" fill="#FFFFFF" d="M186.7,531.9c2.1,2.1,4.9,3.2,7.9,3.2c2.7,0,5.7-1.1,7.9-3.2l24.6-24.6
			c4.3-4.3,4.3-11.3,0-15.7c-4.3-4.3-11.3-4.3-15.7,0l-24.6,24.6C182.3,520.6,182.3,527.6,186.7,531.9z"/>
		<path id="XMLID_8_" fill="#FFFFFF" d="M454.7,420.9c0-6.2-4.9-11.1-11.1-11.1h-34.9c-6.2,0-11.1,4.9-11.1,11.1s4.9,11.1,11.1,11.1
			h34.9C449.6,432,454.7,427.1,454.7,420.9z"/>
		<path id="XMLID_7_" fill="#FFFFFF" d="M151.7,432h34.9c6.2,0,11.1-4.9,11.1-11.1c0-6.2-4.9-11.1-11.1-11.1h-34.9
			c-6.2,0-11.1,4.9-11.1,11.1C140.6,427.1,145.7,432,151.7,432z"/>
		<path id="XMLID_6_" fill="#FFFFFF" d="M400.7,535.1c2.7,0,5.7-1.1,7.9-3.2c4.3-4.3,4.3-11.3,0-15.7L384,491.5
			c-4.3-4.3-11.3-4.3-15.7,0c-4.3,4.3-4.3,11.3,0,15.7l24.6,24.6C395.1,534,398.1,535.1,400.7,535.1z"/>
		<path id="XMLID_3_" fill="#FFFFFF" d="M227,350.3c4.3-4.3,4.3-11.3,0-15.7L202.4,310c-4.3-4.3-11.3-4.3-15.7,0
			c-4.4,4.3-4.3,11.3,0,15.7l24.6,24.6c2.1,2.1,4.9,3.2,7.9,3.2C222.2,353.6,224.8,352.5,227,350.3z"/>
	</g>
</g>
</svg>
