<?xml version="1.0" encoding="utf-8"?>
<!-- Generator: Adobe Illustrator 18.1.0, SVG Export Plug-In . SVG Version: 6.00 Build 0)  -->
<svg version="1.1" id="Layer_1" xmlns="http://www.w3.org/2000/svg" xmlns:xlink="http://www.w3.org/1999/xlink" x="0px" y="0px"
	 viewBox="0 0 595.3 841.9" enable-background="new 0 0 595.3 841.9" xml:space="preserve">
<g transform="translate(0 -540.36)">
	<g>
		<g>
			<path fill="#FFFFFF" d="M590.8,875.9c-4.4-3.6-43.5-35.6-71-35.6c-16.2,0-28.7,10.1-39.9,19.1c-8.6,6.9-16.7,13.5-24.2,13.5
				c-6.7,0-14.5-6.4-22.7-13.1c-11.1-9.1-23.7-19.5-40.2-19.5c-16.4,0-28.6,10.2-39.5,19.2c-8.4,7-16.1,13.5-23.5,13.5
				c-7.6,0-15.7-6.6-24.4-13.7c-10.7-8.9-23-18.9-38.6-18.9c-16.2,0-28.7,10.1-39.9,19.1c-8.6,6.9-16.7,13.5-24.2,13.5
				c-7.4,0-15.2-6.6-23.5-13.5c-10.9-9-23.1-19.2-39.5-19.2s-28.6,10.2-39.5,19.2c-8.4,7-16.1,13.5-23.5,13.5
				c-13.2,0-40.9-17.5-56.2-29.9c-5.4-4.4-13.2-3.5-17.6,1.9s-3.5,13.2,1.9,17.6c4.5,3.6,44.6,35.5,72,35.5
				c16.4,0,28.6-10.2,39.5-19.2c8.4-7,16.1-13.5,23.5-13.5c7.4,0,15.2,6.6,23.5,13.5c10.9,9,23.1,19.2,39.5,19.2
				c16.2,0,28.7-10.1,39.9-19.1c8.6-6.9,16.7-13.5,24.2-13.5c6.7,0,14.5,6.4,22.7,13.1c11.1,9.1,23.7,19.5,40.2,19.5
				c16.4,0,28.6-10.2,39.5-19.2c8.4-7,16.1-13.5,23.5-13.5c7.6,0,15.7,6.6,24.4,13.7c10.7,8.9,23,18.9,38.6,18.9
				c16.2,0,28.7-10.1,39.9-19.1c8.6-6.9,16.7-13.5,24.2-13.5c13.1,0,40,17.4,54.9,29.7c2.4,1.9,5.1,2.9,8,2.9l0,0
				c3.6,0,7.1-1.5,9.7-4.5C596.8,888.1,596.1,880.3,590.8,875.9z"/>
			<path fill="#FFFFFF" d="M4.7,765.8c4.5,3.6,44.6,35.5,72,35.5c16.4,0,28.6-10.2,39.5-19.2c8.4-7,16.1-13.5,23.5-13.5
				c7.4,0,15.2,6.6,23.5,13.5c10.9,9,23.1,19.2,39.5,19.2c16.2,0,28.7-10.1,39.9-19.1c8.6-6.9,16.7-13.5,24.2-13.5
				c6.7,0,14.5,6.4,22.7,13.1c11.1,9.1,23.7,19.5,40.2,19.5c16.4,0,28.6-10.2,39.5-19.2c8.4-7,16.1-13.5,23.5-13.5
				c7.6,0,15.7,6.6,24.4,13.7c10.7,8.9,23,18.9,38.6,18.9c16.2,0,28.7-10.1,39.9-19.1c8.6-6.9,16.7-13.5,24.2-13.5
				c13.1,0,40,17.4,54.9,29.7c2.4,1.9,5.1,2.9,8,2.9l0,0c3.6,0,7.1-1.5,9.7-4.5c4.4-5.4,3.6-13.2-1.6-17.6
				c-4.4-3.7-43.5-35.6-71-35.6c-16.2,0-28.7,10.1-39.9,19.1c-8.6,6.9-16.7,13.5-24.2,13.5c-6.7,0-14.5-6.4-22.7-13.1
				c-11.1-9.1-23.7-19.5-40.2-19.5c-16.4,0-28.6,10.2-39.5,19.2c-8.4,7-16.1,13.5-23.5,13.5c-7.6,0-15.7-6.6-24.4-13.7
				c-10.7-8.9-23-18.9-38.6-18.9c-16.2,0-28.7,10.1-39.9,19.1c-8.6,6.9-16.7,13.5-24.2,13.5c-7.4,0-15.2-6.6-23.5-13.5
				c-10.9-9-23.1-19.2-39.5-19.2s-28.6,10.2-39.5,19.2c-8.4,7-16.1,13.5-23.5,13.5c-13.2,0-40.9-17.5-56.2-29.9
				c-5.4-4.4-13.2-3.5-17.6,1.9C-1.6,753.5-0.7,761.4,4.7,765.8z"/>
			<path fill="#FFFFFF" d="M590.8,1069.5c-4.4-3.6-43.5-35.6-71-35.6c-16.2,0-28.7,10.1-39.9,19.1c-8.6,6.9-16.7,13.5-24.2,13.5
				c-6.7,0-14.5-6.4-22.7-13.1c-11.1-9.1-23.7-19.5-40.2-19.5c-16.4,0-28.6,10.2-39.5,19.2c-8.4,7-16.1,13.5-23.5,13.5
				c-7.6,0-15.7-6.6-24.4-13.7c-10.7-8.9-23-18.9-38.6-18.9c-16.2,0-28.7,10.1-39.9,19.1c-8.6,6.9-16.7,13.5-24.2,13.5
				c-7.4,0-15.2-6.6-23.5-13.5c-10.9-9-23.1-19.2-39.5-19.2s-28.6,10.2-39.5,19.2c-8.4,7-16.1,13.5-23.5,13.5
				c-13.2,0-40.9-17.5-56.2-29.9c-5.4-4.4-13.2-3.5-17.6,1.9s-3.5,13.2,1.9,17.6c4.5,3.6,44.6,35.5,72,35.5
				c16.4,0,28.6-10.2,39.5-19.2c8.4-7,16.1-13.5,23.5-13.5c7.4,0,15.2,6.6,23.5,13.5c10.9,9,23.1,19.2,39.5,19.2
				c16.2,0,28.7-10.1,39.9-19.1c8.6-6.9,16.7-13.5,24.2-13.5c6.7,0,14.5,6.4,22.7,13.1c11.1,9.1,23.7,19.5,40.2,19.5
				c16.4,0,28.6-10.2,39.5-19.2c8.4-7,16.1-13.5,23.5-13.5c7.6,0,15.7,6.6,24.4,13.7c10.7,8.9,23,18.9,38.6,18.9
				c16.2,0,28.7-10.1,39.9-19.1c8.6-6.9,16.7-13.5,24.2-13.5c13.1,0,40,17.4,54.9,29.7c2.4,1.9,5.1,2.9,8,2.9l0,0
				c3.6,0,7.1-1.5,9.7-4.5C596.8,1081.7,596.1,1073.9,590.8,1069.5z"/>
			<path fill="#FFFFFF" d="M590.8,972.7c-4.4-3.6-43.5-35.6-71-35.6c-16.2,0-28.7,10.1-39.9,19.1c-8.6,6.9-16.7,13.5-24.2,13.5
				c-6.7,0-14.5-6.4-22.7-13.1c-11.1-9.1-23.7-19.5-40.2-19.5c-16.4,0-28.6,10.2-39.5,19.2c-8.4,7-16.1,13.5-23.5,13.5
				c-7.6,0-15.7-6.6-24.4-13.7c-10.7-8.9-23-18.9-38.6-18.9c-16.2,0-28.7,10.1-39.9,19.1c-8.6,6.9-16.7,13.5-24.2,13.5
				c-7.4,0-15.2-6.6-23.5-13.5c-10.9-9-23.1-19.2-39.5-19.2s-28.6,10.2-39.5,19.2c-8.4,7-16.1,13.5-23.5,13.5
				c-13.2,0-40.9-17.5-56.2-29.9c-5.4-4.4-13.2-3.5-17.6,1.9s-3.5,13.2,1.9,17.6c4.5,3.6,44.6,35.5,72,35.5
				c16.4,0,28.6-10.2,39.5-19.2c8.4-7,16.1-13.5,23.5-13.5c7.4,0,15.2,6.6,23.5,13.5c10.9,9,23.1,19.2,39.5,19.2
				c16.2,0,28.7-10.1,39.9-19.1c8.6-6.9,16.7-13.5,24.2-13.5c6.7,0,14.5,6.4,22.7,13.1c11.1,9.1,23.7,19.5,40.2,19.5
				c16.4,0,28.6-10.2,39.5-19.2c8.4-7,16.1-13.5,23.5-13.5c7.6,0,15.7,6.6,24.4,13.7c10.7,8.9,23,18.9,38.6,18.9
				c16.2,0,28.7-10.1,39.9-19.1c8.6-6.9,16.7-13.5,24.2-13.5c13.1,0,40,17.4,54.9,29.7c2.4,1.9,5.1,2.9,8,2.9l0,0
				c3.6,0,7.1-1.6,9.7-4.5C596.8,985,596.1,977.1,590.8,972.7z"/>
			<path fill="#FFFFFF" d="M590.8,1166.3c-4.4-3.7-43.5-35.6-71-35.6c-16.2,0-28.7,10.1-39.9,19.1c-8.6,6.9-16.7,13.5-24.2,13.5
				c-6.7,0-14.5-6.4-22.7-13.1c-11.1-9.1-23.7-19.5-40.2-19.5c-16.4,0-28.6,10.2-39.5,19.2c-8.4,7-16.1,13.5-23.5,13.5
				c-7.6,0-15.7-6.6-24.4-13.7c-10.7-8.9-23-18.9-38.6-18.9c-16.2,0-28.7,10.1-39.9,19.1c-8.6,6.9-16.7,13.5-24.2,13.5
				c-7.4,0-15.2-6.6-23.5-13.5c-10.9-9-23.1-19.2-39.5-19.2S111,1141,100.1,1150c-8.4,7-16.1,13.5-23.5,13.5
				c-13.2,0-40.9-17.5-56.2-29.9c-5.4-4.4-13.2-3.5-17.6,1.9s-3.5,13.2,1.9,17.6c4.5,3.6,44.6,35.5,72,35.5
				c16.4,0,28.6-10.2,39.5-19.2c8.4-7,16.1-13.5,23.5-13.5c7.4,0,15.2,6.6,23.5,13.5c10.9,9,23.1,19.2,39.5,19.2
				c16.2,0,28.7-10.1,39.9-19.1c8.6-6.9,16.7-13.5,24.2-13.5c6.7,0,14.5,6.4,22.7,13.1c11.1,9.1,23.7,19.5,40.2,19.5
				c16.4,0,28.6-10.2,39.5-19.2c8.4-7,16.1-13.5,23.5-13.5c7.6,0,15.7,6.6,24.4,13.7c10.7,8.9,23,18.9,38.6,18.9
				c16.2,0,28.7-10.1,39.9-19.1c8.6-6.9,16.7-13.5,24.2-13.5c13.1,0,40,17.4,54.9,29.7c2.4,1.9,5.1,2.9,8,2.9l0,0
				c3.6,0,7.1-1.5,9.7-4.5C596.8,1178.6,596.1,1170.7,590.8,1166.3z"/>
		</g>
	</g>
</g>
</svg>
