<?xml version="1.0" encoding="utf-8"?>
<!-- Generator: Adobe Illustrator 18.1.0, SVG Export Plug-In . SVG Version: 6.00 Build 0)  -->
<svg version="1.1" id="Layer_1" xmlns="http://www.w3.org/2000/svg" xmlns:xlink="http://www.w3.org/1999/xlink" x="0px" y="0px"
	 viewBox="0 0 595.3 841.9" enable-background="new 0 0 595.3 841.9" xml:space="preserve">
<g>
	<g>
		<path fill="#FFFFFF" d="M468.6,366.4c-1.2-89.1-72.2-161.1-159.2-161.1c-38.7,0-76,14.4-105.1,40.7
			c-25.9,23.4-43.6,54.8-50.6,89.1c-0.5,0-1,0-1.5,0c-74.4,0-134.9,62.1-134.9,138.4s60.5,138.4,134.9,138.4h314.6
			c65.9,0,119.6-55.1,119.6-122.8C586.5,422.1,533.7,367.3,468.6,366.4z M466.9,587H152.1c-61,0-110.6-50.9-110.6-113.5
			S91.2,360,152.1,360c3.3,0,6.7,0.2,10.5,0.6c6.5,0.6,12.3-4.1,13.1-10.7c4.4-32.9,20.2-63.1,44.5-85.1
			c24.6-22.3,56.3-34.5,89.2-34.5c74.4,0,134.9,62.1,134.9,138.5c0,2.8-0.2,5.6-0.5,8.6l-0.1,1.3c-0.2,3.7,1,7.2,3.6,9.8
			c2.6,2.6,6.2,3.8,9.7,3.5c3.3-0.3,6.5-0.5,9.7-0.5c52.6,0,95.3,43.9,95.3,97.9C562.2,543.1,519.4,587,466.9,587z M309.5,263.9
			c-50.8,0-94.2,38.9-101,90.6c-0.9,6.9,3.7,13.1,10.3,14.1c0.6,0.1,1.2,0.1,1.6,0.1c5.9,0,11.2-4.5,12-10.8
			c5.2-39.3,38.4-68.9,77-68.9c6.7,0,12.1-5.6,12.1-12.4C321.5,269.4,316.1,263.9,309.5,263.9z"/>
	</g>
</g>
</svg>
