<?xml version="1.0" encoding="utf-8"?>
<!-- Generator: Adobe Illustrator 18.1.0, SVG Export Plug-In . SVG Version: 6.00 Build 0)  -->
<svg version="1.1" id="Calque_1" xmlns="http://www.w3.org/2000/svg" xmlns:xlink="http://www.w3.org/1999/xlink" x="0px" y="0px"
	 viewBox="0 0 595.3 841.9" enable-background="new 0 0 595.3 841.9" xml:space="preserve">
<g id="XMLID_182_">
	<path id="XMLID_6_" fill="#FFFFFF" d="M297.6,710.3C138.1,710.3,8.3,580.5,8.3,420.9s129.8-289.3,289.3-289.3
		s289.3,129.8,289.3,289.3S457.2,710.3,297.6,710.3z M297.6,151.5c-148.6,0-269.4,120.8-269.4,269.4s120.8,269.4,269.4,269.4
		s269.4-120.8,269.4-269.4S446.2,151.5,297.6,151.5z"/>
</g>
<g id="XMLID_1_">
	<path id="XMLID_5_" fill="#FFFFFF" d="M293.7,274.9c2.9-3.6,3-8.6,0.6-12.6c-2.1-3.8-6.5-6.2-11-5.8c-38.5,3.2-74.9,20-102.3,47.4
		c-64.3,64.3-64.4,168.9,0,233.3s168.9,64.4,233.3,0c28.8-28.8,45.8-67.4,48-108.5c0.2-4.6-2.4-8.8-6.2-11
		c-3.8-2.1-8.8-1.5-12.4,1.2c-41.7,32.9-101.4,29.4-139.1-8.2C267.5,373.9,263.1,316.7,293.7,274.9L293.7,274.9z M288,427.1
		c39.6,39.6,99.4,48.2,148.1,24c-5.8,26.2-18.8,50.5-38,69.6c-55.2,55.2-145.1,55-200.1,0c-55-55-55-145.1,0-200.1
		c17.9-17.9,40-30.4,64.1-36.8C239.9,331.4,249.3,388.4,288,427.1z"/>
</g>
</svg>
