<?xml version="1.0" encoding="utf-8"?>
<!-- Generator: Adobe Illustrator 18.1.0, SVG Export Plug-In . SVG Version: 6.00 Build 0)  -->
<svg version="1.1" id="Layer_1" xmlns="http://www.w3.org/2000/svg" xmlns:xlink="http://www.w3.org/1999/xlink" x="0px" y="0px"
	 viewBox="0 0 595.3 841.9" enable-background="new 0 0 595.3 841.9" xml:space="preserve">
<g>
	<g>
		<path fill="#FFFFFF" d="M233.2,408.7c-5.5-1.9-11.4,1.2-13.3,6.6l-10.5,31.3c-1.9,5.5,1.2,11.4,6.6,13.3c1,0.3,2.2,0.6,3.3,0.6
			c4.4,0,8.5-2.8,9.9-7.1l10.5-31.3C241.5,416.5,238.6,410.5,233.2,408.7z"/>
	</g>
</g>
<g>
	<g>
		<path fill="#FFFFFF" d="M201.8,513.2c-5.5-1.9-11.4,1.2-13.3,6.6l-10.5,31.3c-1.9,5.5,1.2,11.4,6.6,13.3c1,0.3,2.2,0.6,3.3,0.6
			c4.4,0,8.5-2.8,9.9-7.1l10.5-31.3C210.3,520.9,207.2,515,201.8,513.2z"/>
	</g>
</g>
<g>
	<g>
		<path fill="#FFFFFF" d="M170.5,607.2c-5.5-1.9-11.4,1.2-13.3,6.6l-10.5,31.3c-1.9,5.5,1.2,11.4,6.6,13.3c1,0.3,2.2,0.6,3.3,0.6
			c4.4,0,8.5-2.8,9.9-7.1l10.5-31.3C178.9,614.9,176,609,170.5,607.2z"/>
	</g>
</g>
<g>
	<g>
		<path fill="#FFFFFF" d="M337.6,377.4c-5.5-1.9-11.4,1.2-13.3,6.6l-10.5,31.3c-1.9,5.5,1.2,11.4,6.6,13.3c1,0.3,2.2,0.6,3.3,0.6
			c4.4,0,8.5-2.8,9.9-7.1l10.5-31.3C345.9,385.2,343,379.3,337.6,377.4z"/>
	</g>
</g>
<g>
	<g>
		<path fill="#FFFFFF" d="M306.2,481.8c-5.5-1.9-11.4,1.2-13.3,6.6l-10.5,31.3c-1.9,5.5,1.2,11.4,6.6,13.3c1,0.3,2.2,0.6,3.3,0.6
			c4.4,0,8.5-2.8,9.9-7.1l10.5-31.3C314.7,489.6,311.6,483.7,306.2,481.8z"/>
	</g>
</g>
<g>
	<g>
		<path fill="#FFFFFF" d="M274.9,575.9c-5.5-1.9-11.4,1.2-13.3,6.6l-10.5,31.3c-1.9,5.5,1.2,11.4,6.6,13.3c1,0.3,2.2,0.6,3.3,0.6
			c4.4,0,8.5-2.8,9.9-7.1l10.5-31.3C283.3,583.6,280.4,577.6,274.9,575.9z"/>
	</g>
</g>
<g>
	<g>
		<path fill="#FFFFFF" d="M410.7,471.4c-5.5-1.9-11.4,1.2-13.3,6.6L387,509.3c-1.9,5.5,1.2,11.4,6.6,13.3c1,0.3,2.2,0.6,3.3,0.6
			c4.4,0,8.5-2.8,9.9-7.1l10.5-31.3C419.1,479.1,416.2,473.2,410.7,471.4z"/>
	</g>
</g>
<g>
	<g>
		<path fill="#FFFFFF" d="M379.3,575.9c-5.5-1.9-11.4,1.2-13.3,6.6l-10.5,31.3c-1.9,5.5,1.2,11.4,6.6,13.3c1,0.3,2.2,0.6,3.3,0.6
			c4.4,0,8.5-2.8,9.9-7.1l10.5-31.3C387.8,583.6,384.8,577.6,379.3,575.9z"/>
	</g>
</g>
<g>
	<g>
		<path fill="#FFFFFF" d="M141.1,531.9c-63.8,0-115.7-51.9-115.7-115.7s51.9-115.7,115.7-115.7c3.4,0,7,0.2,10.9,0.6
			c6.7,0.7,12.9-4.2,13.7-10.9c4.5-33.5,21.2-64.3,46.6-86.7c25.7-22.7,58.7-35.1,93.1-35.1c77.8,0,141.1,63.4,141.1,141.1
			c0,2.8-0.2,5.7-0.5,8.7l-0.1,1.3c-0.2,3.7,1.2,7.4,3.8,10c2.7,2.6,6.4,3.8,10.1,3.5c3.4-0.3,6.7-0.5,10.1-0.5
			c55,0,99.8,44.8,99.8,99.8S525.1,532,470.1,532c-13.5,6.6-12.9,17.3,0,25.3c68.9,0,125.1-56.2,125.1-125.1
			c0-68.4-55.1-124.2-123.2-125.1C470.7,216.4,396.5,143,305.5,143c-40.5,0-79.5,14.8-109.9,41.5c-27.1,23.8-45.6,55.8-52.9,90.8
			c-0.6,0-1,0-1.6,0c-77.8-0.2-141,63.1-141,140.9s63.2,141,141,141C152.7,550.5,152.7,539.3,141.1,531.9z"/>
	</g>
</g>
<g>
	<g>
		<path fill="#FFFFFF" d="M306.3,199.3c-53.1,0-98.5,39.6-105.7,92.3c-0.9,7,4,13.4,10.8,14.3c0.6,0.1,1.2,0.1,1.7,0.1
			c6.3,0,11.7-4.7,12.6-10.9c5.5-40.1,40.1-70.3,80.6-70.3c7,0,12.7-5.7,12.7-12.7C319.1,205,313.4,199.3,306.3,199.3z"/>
	</g>
</g>
</svg>
