<?xml version="1.0" encoding="utf-8"?>
<!-- Generator: Adobe Illustrator 18.1.0, SVG Export Plug-In . SVG Version: 6.00 Build 0)  -->
<svg version="1.1" id="Layer_1" xmlns="http://www.w3.org/2000/svg" xmlns:xlink="http://www.w3.org/1999/xlink" x="0px" y="0px"
	 viewBox="0 0 595.3 841.9" enable-background="new 0 0 595.3 841.9" xml:space="preserve">
<path fill="#FFFFFF" d="M558.9,516.5c-2.1-5-8-7.3-13-5.2l-41,17.6l-55.9-32.2l73-31.2c5-2.1,7.4-8,5.2-13c-2.2-5-8-7.3-13-5.2
	l-86.7,37l-38.9-22.4l72.2-31.7c3.6-1.6,5.9-5.1,5.9-9.1s-2.3-7.4-5.9-9.1l-72.2-31.7l38.9-22.4l86.7,37c1.3,0.6,2.6,0.8,3.8,0.8
	c3.8,0,7.6-2.2,9.2-6c2.2-5-0.2-10.8-5.2-13l-73-31.2l55.9-32.2l41,17.6c1.3,0.6,2.6,0.8,3.8,0.8c3.8,0,7.6-2.2,9.2-6
	c2.2-5-0.2-10.8-5.2-13l-27.4-11.7l25.8-14.9c4.8-2.8,6.4-8.8,3.6-13.6c-2.8-4.8-8.8-6.4-13.6-3.6l-25.8,14.9l3.6-29.5
	c0.7-5.5-3.3-10.3-8.7-11c-5.5-0.7-10.3,3.3-11,8.6l-5.3,44.3l-55.9,32.2l9.5-78.8c0.7-5.5-3.3-10.3-8.7-11s-10.3,3.3-11,8.6
	l-11.3,93.6l-38.9,22.4l8.5-78.4c0.5-4-1.5-7.7-4.9-9.7c-3.4-2-7.1-1.7-10.2,0.6l-63,46.5v-35l74.9-56.5c4.4-3.3,5-9.5,1.7-13.8
	c-3.3-4.4-9.1-5.2-13.5-2l-63.1,47.7v-74.4l35.2-26.7c4.4-3.3,5-9.5,1.7-13.8c-3.3-4.4-9.1-5.2-13.5-2l-23.4,17.9v-29.8
	c0-5.5-4.4-9.9-9.9-9.9c-5.5,0-9.9,4.4-9.9,9.9v29.8l-24.4-17.9c-4.4-3.3-10.9-2.4-14.2,2c-3.3,4.4-2,10.6,2.4,13.8l36.2,26.7v74.4
	l-64.2-47.7c-4.4-3.3-10.9-2.4-14.2,2s-2,10.6,2.4,13.8l75.9,56.5v35l-64.2-46.5c-3.1-2.3-7.7-2.6-11.2-0.6c-3.4,2-5.5,5.8-5,9.7
	l8.5,78.4l-30.3-17.6l-11.3-93.6c-0.7-5.5-5.6-9.3-11-8.6c-5.5,0.7-9.3,5.6-8.7,11l9.5,78.8l-64.5-37.2l-5.3-44.3
	c-0.7-5.5-5.6-9.3-11-8.6s-9.3,5.6-8.7,11l3.6,29.5l-26-14.9c-4.8-2.8-10.8-1.2-13.6,3.6s-1.2,10.8,3.6,13.6l25.8,14.9l-27.4,11.7
	c-5,2.1-7.4,8-5.2,13c1.6,3.7,5.2,6,9.2,6c1.3,0,2.7-0.2,3.8-0.8l41-17.6l64.5,37.2l-73,31.2c-5,2.2-7.4,8-5.2,13
	c1.6,3.7,5.2,6,9.2,6c1.3,0,2.7-0.2,4-0.8l86.7-37l30.3,17.6l-72.2,31.7c-3.6,1.6-5.9,5.1-5.9,9.1s2.3,7.4,5.9,9.1l72.2,31.7
	l-30.3,17.6l-86.7-37c-5.1-2.2-10.9,0.2-13,5.2c-2.2,5,0.2,10.8,5.2,13l73,31l-64.5,37.2l-41-17.6c-5-2.1-10.9,0.2-13,5.2
	c-2.2,5,0.2,10.8,5.2,13l27.4,11.7l-25.8,14.9c-4.8,2.8-6.4,8.8-3.6,13.6c1.9,3.1,5.2,5,8.6,5c1.6,0,3.4-0.5,5-1.3l25.8-14.9
	l-3.6,29.5c-0.7,5.5,3.3,10.3,8.7,11c0.3,0,0.8,0.1,1.2,0.1c5,0,9.2-3.7,9.9-8.7l5.3-44.3l64.5-37.2l-9.5,78.8
	c-0.7,5.5,3.3,10.3,8.7,11c0.3,0,0.8,0.1,1.2,0.1c5,0,9.2-3.7,9.9-8.7l11.3-93.6l30.3-17.6l-8.5,78.4c-0.5,4,1.5,7.7,4.9,9.7
	c3.4,2,8.3,1.7,11.4-0.6l64.2-46.5V565l-76,56.5c-4.4,3.3-5.6,9.5-2.3,13.8c3.3,4.4,9.9,5.2,14.3,2l63.9-47.7v64.5l-36.3,26.7
	c-4.4,3.3-5.6,9.5-2.3,13.8c3.3,4.4,10,5.2,14.3,2l24.3-17.9v29.8c0,5.5,4.4,9.9,9.9,9.9c5.5,0,9.9-4.4,9.9-9.9v-29.8l23.3,17.9
	c1.7,1.4,3.6,2,5.7,2c3,0,5.8-1.4,7.8-4c3.3-4.4,2.9-10.6-1.5-13.8l-35.2-26.7v-64.5l63,47.7c1.7,1.4,3.6,2,5.7,2c3,0,5.8-1.4,7.8-4
	c3.3-4.4,2.9-10.6-1.5-13.8l-75-56.5v-44.9l63,46.5c1.7,1.3,3.5,1.9,5.6,1.9c1.7,0,3.3-0.5,4.8-1.3c3.4-2,5.2-5.8,4.9-9.7l-8.6-78.4
	l38.9,22.4l11.3,93.6c0.6,5,4.9,8.7,9.9,8.7c0.3,0,0.8,0,1.2-0.1c5.5-0.7,9.3-5.6,8.7-11l-9.5-78.8l55.9,32.2l5.3,44.3
	c0.6,5,4.9,8.7,9.9,8.7c0.3,0,0.8,0,1.2-0.1c5.5-0.7,9.3-5.6,8.7-11l-3.6-29.5l25.8,14.9c1.5,0.9,3.3,1.3,5,1.3c3.5,0,6.7-1.7,8.6-5
	c2.8-4.8,1.2-10.8-3.6-13.6l-25.8-14.9l27.4-11.7C558.8,527.3,561.1,521.5,558.9,516.5z M163.5,420.8l64.9-28.6l49.5,28.6
	l-49.5,28.6L163.5,420.8z M288.9,495.1L231.1,537l7.9-70.5l49.9-28.6V495.1z M288.9,403.6L239.2,375l-7.9-70.5l57.8,41.9v57.2H288.9
	z M308.8,346.5l56.6-41.9l-7.3,70.5l-49.3,28.6V346.5L308.8,346.5z M308.8,495.1v-57.2l49.3,28.6l7.3,70.5L308.8,495.1z
	 M367.2,449.4l-49.5-28.6l49.5-28.6l64.9,28.6L367.2,449.4z"/>
</svg>
