<?xml version="1.0" encoding="utf-8"?>
<!-- Generator: Adobe Illustrator 21.0.0, SVG Export Plug-In . SVG Version: 6.00 Build 0)  -->
<svg version="1.1" id="Capa_1" xmlns="http://www.w3.org/2000/svg" xmlns:xlink="http://www.w3.org/1999/xlink" x="0px" y="0px"
	 viewBox="0 0 372 372" style="enable-background:new 0 0 372 372;" xml:space="preserve">
<style type="text/css">
	.st0{fill:#FFFFFF;}
</style>
<g>
	<path class="st0" d="M358.4,244.4c6.3-18.4,9.6-38,9.6-58.5c0-100.4-81.6-182-182-182S4,85.5,4,185.9s81.6,182,182,182
		c79.4,0,147-51.1,171.9-122.1C358.1,245.3,358.2,244.9,358.4,244.4z M105,137.4v59.7H77.4v-46.5C87.9,148.8,97.3,144.1,105,137.4z
		 M199.3,137.4v59.7h-27.6v-46.5C182.2,148.8,191.6,144.1,199.3,137.4z M152.2,197.2h-27.6v-59.7c7.7,6.7,17.1,11.4,27.6,13.2V197.2
		z M218.9,197.2v-42.5c5.4,4,11.7,6.9,18.6,8.3v34.2H218.9z M247.2,144.4c-15.6,0-28.3-12.7-28.3-28.3s12.7-28.3,28.3-28.3
		s28.3,12.7,28.3,28.3S262.8,144.4,247.2,144.4z M161.9,131.9c-20.6,0-37.4-16.8-37.4-37.4s16.8-37.4,37.4-37.4s37.4,16.8,37.4,37.4
		S182.6,131.9,161.9,131.9z M57.8,197.2H24c-0.3-3.7-0.4-7.5-0.4-11.3c0-16.7,2.5-32.8,7.2-47.9c7.7,6.5,17.1,10.9,27.1,12.7
		L57.8,197.2L57.8,197.2z M30.3,232c-1.5-5-2.7-10.1-3.7-15.3h319c-1,5.2-2.2,10.3-3.7,15.3H30.3z M348.4,185.9
		c0,3.8-0.1,7.6-0.4,11.3h-5.9v-24.6c0-5.4-4.4-9.8-9.8-9.8c-5.4,0-9.8,4.4-9.8,9.8v24.6h-15.2v-24.6c0-5.4-4.4-9.8-9.8-9.8
		c-5.4,0-9.8,4.4-9.8,9.8v24.6H257V163c21.7-4.5,38.1-23.8,38.1-46.9c0-26.4-21.5-47.9-47.9-47.9c-11.6,0-22.2,4.1-30.5,11
		c-6.7-24-28.7-41.6-54.8-41.6c-19.6,0-36.9,10-47.2,25.1C110.8,57,106,52,100.3,47.9c24.9-15.5,54.3-24.5,85.7-24.5
		C275.6,23.4,348.4,96.3,348.4,185.9z M82.9,60.4c13.3,6,22.1,19.4,22.1,34.1c0,20.6-16.8,37.4-37.4,37.4c-11.3,0-22.1-5.2-29.1-14
		C48.8,95.6,64.1,75.9,82.9,60.4z M186,348.3c-46.3,0-88.2-19.5-117.8-50.7h31.5c5.4,0,9.8-4.4,9.8-9.8s-4.4-9.8-9.8-9.8H52.3
		c-5.7-8.3-10.7-17.1-14.8-26.4h297.1c-4.1,9.3-9.1,18.2-14.8,26.4H272c-5.4,0-9.8,4.4-9.8,9.8s4.4,9.8,9.8,9.8h31.9
		C274.2,328.8,232.3,348.3,186,348.3z"/>
	<path class="st0" d="M207.9,278h-44.3c-5.4,0-9.8,4.4-9.8,9.8s4.4,9.8,9.8,9.8h44.3c5.4,0,9.8-4.4,9.8-9.8S213.3,278,207.9,278z"/>
</g>
</svg>
