<?xml version="1.0" encoding="utf-8"?>
<!-- Generator: Adobe Illustrator 19.0.0, SVG Export Plug-In . SVG Version: 6.00 Build 0)  -->
<svg version="1.1" id="Capa_1" xmlns="http://www.w3.org/2000/svg" xmlns:xlink="http://www.w3.org/1999/xlink" x="0px" y="0px"
	 viewBox="-111 234.9 372 372" style="enable-background:new -111 234.9 372 372;" xml:space="preserve">
<g>
	<path d="M247.4,479.3c6.3-18.4,9.6-38,9.6-58.5c0-100.4-81.6-182-182-182s-182,81.6-182,182s81.6,182,182,182
		c79.4,0,147-51.1,171.9-122.1C247.1,480.2,247.2,479.8,247.4,479.3z M-6,372.3v59.7h-27.6v-46.5C-23.1,383.7-13.7,379-6,372.3z
		 M88.3,372.3v59.7H60.7v-46.5C71.2,383.7,80.6,379,88.3,372.3z M41.2,432.1H13.6v-59.7c7.7,6.7,17.1,11.4,27.6,13.2V432.1z
		 M107.9,432.1v-42.5c5.4,4,11.7,6.9,18.6,8.3v34.2H107.9z M136.2,379.3c-15.6,0-28.3-12.7-28.3-28.3s12.7-28.3,28.3-28.3
		s28.3,12.7,28.3,28.3S151.8,379.3,136.2,379.3z M50.9,366.8c-20.6,0-37.4-16.8-37.4-37.4c0-20.6,16.8-37.4,37.4-37.4
		s37.4,16.8,37.4,37.4C88.3,350,71.6,366.8,50.9,366.8z M-53.2,432.1H-87c-0.3-3.7-0.4-7.5-0.4-11.3c0-16.7,2.5-32.8,7.2-47.9
		c7.7,6.5,17.1,10.9,27.1,12.7V432.1z M-80.7,466.9c-1.5-5-2.7-10.1-3.7-15.3h319c-1,5.2-2.2,10.3-3.7,15.3H-80.7z M237.4,420.8
		c0,3.8-0.1,7.6-0.4,11.3h-5.9v-24.6c0-5.4-4.4-9.8-9.8-9.8s-9.8,4.4-9.8,9.8v24.6h-15.2v-24.6c0-5.4-4.4-9.8-9.8-9.8
		c-5.4,0-9.8,4.4-9.8,9.8v24.6H146v-34.2c21.7-4.5,38.1-23.8,38.1-46.9c0-26.4-21.5-47.9-47.9-47.9c-11.6,0-22.2,4.1-30.5,11
		C99,290.1,77,272.5,50.9,272.5c-19.6,0-36.9,10-47.2,25.1c-3.9-5.7-8.7-10.7-14.4-14.8c24.9-15.5,54.3-24.5,85.7-24.5
		C164.6,258.3,237.4,331.2,237.4,420.8z M-28.1,295.3c13.3,6,22.1,19.4,22.1,34.1c0,20.6-16.8,37.4-37.4,37.4
		c-11.3,0-22.1-5.2-29.1-14C-62.2,330.5-46.9,310.8-28.1,295.3z M75,583.2c-46.3,0-88.2-19.5-117.8-50.7h31.5c5.4,0,9.8-4.4,9.8-9.8
		s-4.4-9.8-9.8-9.8h-47.4c-5.7-8.3-10.7-17.1-14.8-26.4h297.1c-4.1,9.3-9.1,18.2-14.8,26.4h-47.8c-5.4,0-9.8,4.4-9.8,9.8
		s4.4,9.8,9.8,9.8h31.9C163.2,563.7,121.3,583.2,75,583.2z"/>
	<path d="M96.9,512.9H52.6c-5.4,0-9.8,4.4-9.8,9.8s4.4,9.8,9.8,9.8h44.3c5.4,0,9.8-4.4,9.8-9.8S102.3,512.9,96.9,512.9z"/>
</g>
</svg>
