<?xml version="1.0" encoding="utf-8"?>
<!-- Generator: Adobe Illustrator 19.0.0, SVG Export Plug-In . SVG Version: 6.00 Build 0)  -->
<svg version="1.1" id="Capa_1" xmlns="http://www.w3.org/2000/svg" xmlns:xlink="http://www.w3.org/1999/xlink" x="0px" y="0px"
	 viewBox="-80 203.4 434.5 434.5" style="enable-background:new -80 203.4 434.5 434.5;" xml:space="preserve">
<path d="M41.1,401.4h-62.9c-5,0-9-4-9-9c0-5,4-9,9-9h62.9c5,0,9,4,9,9C50.1,397.3,46.1,401.4,41.1,401.4z M14.3,438h35.7
	c5,0,9-4,9-9c0-5-4-9-9-9H14.3c-5,0-9,4-9,9C5.3,433.9,9.3,438,14.3,438z M-31.4,429c0-5-4-9-9-9h-21.5c-5,0-9,4-9,9c0,5,4,9,9,9
	h21.5C-35.4,438-31.4,433.9-31.4,429z M86.9,355.8c0-5-4-9-9-9H-71c-5,0-9,4-9,9c0,5,4,9,9,9H77.9C82.9,364.8,86.9,360.8,86.9,355.8
	z M354.4,467.2l0,8.3c0,5.3-0.1,11.3-0.1,18.7c0,14.6-11.2,27.1-26.6,31.1c-3.8,28.1-27.9,49.8-56.9,49.8
	c-31.7,0-57.4-25.8-57.4-57.4c0-31.7,25.8-57.4,57.4-57.4c27.8,0,51.1,19.9,56.3,46.3c5.4-2.6,9.1-7.2,9.1-12.2
	c0-7.4,0-13.4,0.1-18.8l0-8.3c0-10.7,0.1-25.3,0-32.2c0-2.2-0.1-4.2-0.2-6.1H114c-24.4,0-33.4-21.8-36.4-28.9
	c-1.9-4.6,0.3-9.9,4.9-11.8c4.6-1.9,9.9,0.3,11.8,4.9c5.2,12.5,11.1,17.8,19.7,17.8H333c-3.8-8.9-11.9-16.1-29.7-31.8
	c-3.6-3.2-7.5-6.7-11.8-10.5c-3.1-2.8-6.2-5.8-9.2-8.7c-4.5-4.3-9.1-8.7-14-12.8c-4.2-3.5-8.2-6.9-12-10.1
	c-48-40.4-62.5-52.6-104.7-52.6H-14.1c-10.3,0-19.1,6.6-19.1,14.4v21.5c0,5-4,9-9,9s-9-4-9-9v-21.5c0-17.9,16.6-32.4,37.1-32.4
	h165.7c48.8,0,67.2,15.5,116.3,56.8c3.8,3.2,7.8,6.5,11.9,10c5.3,4.5,10.2,9.1,14.9,13.6c3.1,2.9,5.9,5.7,8.8,8.3
	c4.3,3.8,8.2,7.3,11.7,10.5c31,27.4,38.3,33.9,39.1,69C354.5,441.6,354.5,455.8,354.4,467.2z M310.3,517.7c0-0.1,0-0.2,0-0.4
	c-0.1-21.6-17.8-39.2-39.4-39.2c-21.7,0-39.4,17.7-39.4,39.4c0,21.7,17.7,39.4,39.4,39.4C292.5,557,310.2,539.3,310.3,517.7z
	 M32.5,508.5L32.5,508.5c-5,0-9,4-9,9s4,9,9,9s9-4,9-9S37.4,508.5,32.5,508.5z M270.8,508.5L270.8,508.5c-5,0-9,4-9,9s4,9,9,9
	s9-4,9-9S275.8,508.5,270.8,508.5z M194.5,517.5c0,5-4,9-9,9H89.2C84.9,553.9,61.1,575,32.5,575c-29.1,0-53.1-21.7-56.9-49.7
	c-10.5-2.6-19.2-9.2-23.7-18.2c-2-4.1-3.1-8.4-3.1-12.9v-26.7c0-5,4-9,9-9s9,4,9,9v26.7c0,1.7,0.4,3.3,1.2,4.9
	c1.6,3.1,4.5,5.7,8.1,7.4c5.2-26.4,28.5-46.4,56.4-46.4c28.6,0,52.4,21,56.7,48.4h96.3C190.5,508.5,194.5,512.6,194.5,517.5z
	 M71.9,517.5c0-21.7-17.7-39.4-39.4-39.4c-21.7,0-39.4,17.6-39.4,39.3c0,0,0,0.1,0,0.1c0,21.7,17.7,39.4,39.4,39.4
	C54.2,557,71.9,539.3,71.9,517.5z"/>
</svg>
