<?xml version="1.0" encoding="utf-8"?>
<!-- Generator: Adobe Illustrator 21.0.0, SVG Export Plug-In . SVG Version: 6.00 Build 0)  -->
<svg version="1.1" id="Capa_1" xmlns="http://www.w3.org/2000/svg" xmlns:xlink="http://www.w3.org/1999/xlink" x="0px" y="0px"
	 viewBox="0 0 434.5 434.5" style="enable-background:new 0 0 434.5 434.5;" xml:space="preserve">
<style type="text/css">
	.st0{fill:#FFFFFF;}
</style>
<path class="st0" d="M121.1,198H58.2c-5,0-9-4-9-9s4-9,9-9h62.9c5,0,9,4,9,9C130.1,193.9,126.1,198,121.1,198z M94.3,234.6H130
	c5,0,9-4,9-9s-4-9-9-9H94.3c-5,0-9,4-9,9C85.3,230.5,89.3,234.6,94.3,234.6z M48.6,225.6c0-5-4-9-9-9H18.1c-5,0-9,4-9,9s4,9,9,9
	h21.5C44.6,234.6,48.6,230.5,48.6,225.6z M166.9,152.4c0-5-4-9-9-9H9c-5,0-9,4-9,9s4,9,9,9h148.9
	C162.9,161.4,166.9,157.4,166.9,152.4z M434.4,263.8v8.3c0,5.3-0.1,11.3-0.1,18.7c0,14.6-11.2,27.1-26.6,31.1
	c-3.8,28.1-27.9,49.8-56.9,49.8c-31.7,0-57.4-25.8-57.4-57.4c0-31.7,25.8-57.4,57.4-57.4c27.8,0,51.1,19.9,56.3,46.3
	c5.4-2.6,9.1-7.2,9.1-12.2c0-7.4,0-13.4,0.1-18.8v-8.3c0-10.7,0.1-25.3,0-32.2c0-2.2-0.1-4.2-0.2-6.1H194
	c-24.4,0-33.4-21.8-36.4-28.9c-1.9-4.6,0.3-9.9,4.9-11.8s9.9,0.3,11.8,4.9c5.2,12.5,11.1,17.8,19.7,17.8h219
	c-3.8-8.9-11.9-16.1-29.7-31.8c-3.6-3.2-7.5-6.7-11.8-10.5c-3.1-2.8-6.2-5.8-9.2-8.7c-4.5-4.3-9.1-8.7-14-12.8
	c-4.2-3.5-8.2-6.9-12-10.1c-48-40.4-62.5-52.6-104.7-52.6H65.9c-10.3,0-19.1,6.6-19.1,14.4V117c0,5-4,9-9,9s-9-4-9-9V95.5
	c0-17.9,16.6-32.4,37.1-32.4h165.7c48.8,0,67.2,15.5,116.3,56.8c3.8,3.2,7.8,6.5,11.9,10c5.3,4.5,10.2,9.1,14.9,13.6
	c3.1,2.9,5.9,5.7,8.8,8.3c4.3,3.8,8.2,7.3,11.7,10.5c31,27.4,38.3,33.9,39.1,69C434.5,238.2,434.5,252.4,434.4,263.8z M390.3,314.3
	c0-0.1,0-0.2,0-0.4c-0.1-21.6-17.8-39.2-39.4-39.2c-21.7,0-39.4,17.7-39.4,39.4s17.7,39.4,39.4,39.4
	C372.5,353.6,390.2,335.9,390.3,314.3z M112.5,305.1L112.5,305.1c-5,0-9,4-9,9s4,9,9,9s9-4,9-9S117.4,305.1,112.5,305.1z
	 M350.8,305.1L350.8,305.1c-5,0-9,4-9,9s4,9,9,9s9-4,9-9S355.8,305.1,350.8,305.1z M274.5,314.1c0,5-4,9-9,9h-96.3
	c-4.3,27.4-28.1,48.5-56.7,48.5c-29.1,0-53.1-21.7-56.9-49.7c-10.5-2.6-19.2-9.2-23.7-18.2c-2-4.1-3.1-8.4-3.1-12.9v-26.7
	c0-5,4-9,9-9s9,4,9,9v26.7c0,1.7,0.4,3.3,1.2,4.9c1.6,3.1,4.5,5.7,8.1,7.4c5.2-26.4,28.5-46.4,56.4-46.4c28.6,0,52.4,21,56.7,48.4
	h96.3C270.5,305.1,274.5,309.2,274.5,314.1z M151.9,314.1c0-21.7-17.7-39.4-39.4-39.4S73.1,292.3,73.1,314v0.1
	c0,21.7,17.7,39.4,39.4,39.4C134.2,353.6,151.9,335.9,151.9,314.1z"/>
</svg>
