<?xml version="1.0" encoding="utf-8"?>
<!-- Generator: Adobe Illustrator 21.0.0, SVG Export Plug-In . SVG Version: 6.00 Build 0)  -->
<svg version="1.1" id="Capa_1" xmlns="http://www.w3.org/2000/svg" xmlns:xlink="http://www.w3.org/1999/xlink" x="0px" y="0px"
	 viewBox="0 0 434.5 434.5" style="enable-background:new 0 0 434.5 434.5;" xml:space="preserve">
<style type="text/css">
	.st0{fill:#FFFFFF;}
</style>
<g>
	<g>
		<path class="st0" d="M217.2,0C152,0,93.3,28.9,53.5,74.6c-0.8,0.7-1.5,1.5-2.1,2.4C19.3,114.9-0.1,163.9-0.1,217.3
			c0,119.8,97.5,217.3,217.3,217.3s217.3-97.5,217.3-217.3C434.6,97.5,337.1,0,217.2,0z M235.8,24.3c18.3,1.7,35.8,6,52.3,12.5
			c-0.9,14.2-12.8,25.5-27.2,25.5c-15,0-27.3-12.2-27.3-27.3C233.6,31.3,234.4,27.6,235.8,24.3z M211.6,23.5
			c-0.9,3.8-1.4,7.6-1.4,11.5c0,27.9,22.7,50.6,50.6,50.6c23.8,0,43.7-16.5,49.2-38.6c27.9,15.2,51.6,37.1,69,63.5
			c-22.5-1.6-45.2-1-67.7,1.9c-19.1,2.4-37.9,6.5-56.1,12c-49.9-31.8-107-49.9-166.1-52.7C122,42.8,164.8,24.8,211.6,23.5z
			 M25.6,247.2h149.8l-28,151C83.8,373.6,36.4,316.4,25.6,247.2z M228.9,410.9v-22.6c0-6.5-5.2-11.7-11.7-11.7s-11.7,5.2-11.7,11.7
			v22.6c-12.2-0.7-24.2-2.6-35.7-5.5l29.4-157.9c0-0.1,0-0.2,0-0.3h36.1c0,0.1,0,0.2,0,0.3l29.3,157.9
			C253.1,408.3,241.2,410.2,228.9,410.9z M287.1,398.2l-28-151h149.8C398.1,316.4,350.7,373.6,287.1,398.2z M23.4,223.9
			c-0.1-2.2-0.1-4.4-0.1-6.5c0-46.4,16.4-89,43.7-122.5c2,0,4-0.1,6-0.1c54.1,0,106.9,13.7,153.7,39.8c-28.3,11.5-55,26.7-79.3,45.4
			c-5.1,3.9-6.1,11.3-2.1,16.4c2.3,3,5.8,4.6,9.3,4.6c2.5,0,5-0.8,7.1-2.4c44.2-34.1,97.1-55.8,152.8-62.9
			c26.2-3.3,52.7-3.4,78.6-0.2c11.7,24.9,18.2,52.7,18.2,81.9c0,2.2-0.1,4.4-0.1,6.5L23.4,223.9L23.4,223.9z M217.2,319.2
			c-6.5,0-11.7,5.2-11.7,11.7v13.5c0,6.5,5.2,11.7,11.7,11.7s11.7-5.2,11.7-11.7v-13.5C228.9,324.4,223.7,319.2,217.2,319.2z
			 M217.2,263.2c-6.5,0-11.7,5.2-11.7,11.7v12.6c0,6.5,5.2,11.7,11.7,11.7s11.7-5.2,11.7-11.7v-12.6
			C228.9,268.5,223.7,263.2,217.2,263.2z"/>
	</g>
</g>
</svg>
