<?xml version="1.0" encoding="utf-8"?>
<!-- Generator: Adobe Illustrator 19.0.0, SVG Export Plug-In . SVG Version: 6.00 Build 0)  -->
<svg version="1.1" id="Capa_1" xmlns="http://www.w3.org/2000/svg" xmlns:xlink="http://www.w3.org/1999/xlink" x="0px" y="0px"
	 viewBox="-262 63.5 434.5 434.5" style="enable-background:new -262 63.5 434.5 434.5;" xml:space="preserve">
<g>
	<g>
		<path d="M-44.8,63.5c-65.2,0-123.9,28.9-163.7,74.6c-0.8,0.7-1.5,1.5-2.1,2.4c-32.1,37.9-51.5,86.9-51.5,140.3
			c0,119.8,97.5,217.3,217.3,217.3c119.8,0,217.3-97.5,217.3-217.3C172.6,161,75.1,63.5-44.8,63.5z M-26.2,87.8
			c18.3,1.7,35.8,6,52.3,12.5c-0.9,14.2-12.8,25.5-27.2,25.5c-15,0-27.3-12.2-27.3-27.3C-28.4,94.8-27.6,91.1-26.2,87.8z M-50.4,87
			c-0.9,3.8-1.4,7.6-1.4,11.5c0,27.9,22.7,50.6,50.6,50.6c23.8,0,43.7-16.5,49.2-38.6c27.9,15.2,51.6,37.1,69,63.5
			c-22.5-1.6-45.2-1-67.7,1.9c-19.1,2.4-37.9,6.5-56.1,12c-49.9-31.8-107-49.9-166.1-52.7C-140,106.3-97.2,88.3-50.4,87z
			 M-236.4,310.7h149.8l-28,151C-178.2,437.1-225.6,379.9-236.4,310.7z M-33.1,474.4v-22.6c0-6.5-5.2-11.7-11.7-11.7
			c-6.5,0-11.7,5.2-11.7,11.7v22.6c-12.2-0.7-24.2-2.6-35.7-5.5L-62.8,311c0-0.1,0-0.2,0-0.3h36.1c0,0.1,0,0.2,0,0.3L2.6,468.9
			C-8.9,471.8-20.8,473.7-33.1,474.4z M25.1,461.7l-28-151h149.8C136.1,379.9,88.7,437.1,25.1,461.7z M-238.6,287.4
			c-0.1-2.2-0.1-4.4-0.1-6.5c0-46.4,16.4-89,43.7-122.5c2,0,4-0.1,6-0.1c54.1,0,106.9,13.7,153.7,39.8c-28.3,11.5-55,26.7-79.3,45.4
			c-5.1,3.9-6.1,11.3-2.1,16.4c2.3,3,5.8,4.6,9.3,4.6c2.5,0,5-0.8,7.1-2.4c44.2-34.1,97.1-55.8,152.8-62.9
			c26.2-3.3,52.7-3.4,78.6-0.2c11.7,24.9,18.2,52.7,18.2,81.9c0,2.2-0.1,4.4-0.1,6.5H-238.6z M-44.8,382.7
			c-6.5,0-11.7,5.2-11.7,11.7v13.5c0,6.5,5.2,11.7,11.7,11.7c6.5,0,11.7-5.2,11.7-11.7v-13.5C-33.1,387.9-38.3,382.7-44.8,382.7z
			 M-44.8,326.7c-6.5,0-11.7,5.2-11.7,11.7V351c0,6.5,5.2,11.7,11.7,11.7c6.5,0,11.7-5.2,11.7-11.7v-12.6
			C-33.1,332-38.3,326.7-44.8,326.7z"/>
	</g>
</g>
</svg>
