<?xml version="1.0" encoding="utf-8"?>
<!-- Generator: Adobe Illustrator 19.0.0, SVG Export Plug-In . SVG Version: 6.00 Build 0)  -->
<svg version="1.1" id="Capa_1" xmlns="http://www.w3.org/2000/svg" xmlns:xlink="http://www.w3.org/1999/xlink" x="0px" y="0px"
	 viewBox="-111 234.9 372 372" style="enable-background:new -111 234.9 372 372;" xml:space="preserve">
<path d="M256.1,420.4c0-100.1-81.5-181.6-181.6-181.6c-100.1,0-181.6,81.5-181.6,181.6c0,100.1,81.5,181.6,181.6,181.6
	C174.6,602,256.1,520.5,256.1,420.4z M74.5,582.5c-58.5,0-109.9-31.2-138.4-77.8c0.8,0.2,276.6,0.3,276.6,0.3
	C184.2,551.4,132.9,582.5,74.5,582.5z M-25.1,438.3H-31c-5.4,0-9.8,4.4-9.8,9.8v37.4h-10.9v-51.2c0-16.6,11.3-30.7,26.6-35V438.3z
	 M51.2,410.6H37.1c-5.4,0-9.8,4.4-9.8,9.8v17.9h-5.4v-79.2h29.3V410.6z M137,359.1v126.3h-27.3V359.1H137z M202.9,485.4h-46.4v-55.3
	h46.4V485.4z M90.2,485.4H75.5v-37.4c0-5.4-4.4-9.8-9.8-9.8H46.8v-8.1h43.3V485.4z M55.9,457.8v27.6h-4.7h-4.4H21.9h-43.1v-27.6
	H55.9z M222.5,420.4c0-5.4-4.4-9.8-9.8-9.8h-56.1v-61.3c0-5.4-4.4-9.8-9.8-9.8h-13.7v-17.8c0-5.4-4.4-9.8-9.8-9.8
	c-5.4,0-9.8,4.4-9.8,9.8v17.8H99.9c-5.4,0-9.8,4.4-9.8,9.8v61.3H70.8v-61.3c0-5.4-4.4-9.8-9.8-9.8H12.2c-5.4,0-9.8,4.4-9.8,9.8v89
	h-8v-50.1c0-5.4-4.4-9.8-9.8-9.8c-30.8,0-55.8,25.1-55.8,55.9v57.1c-10.5-21.5-16.4-45.6-16.4-71c0-89.4,72.7-162.1,162.1-162.1
	S236.6,331,236.6,420.4c0,23.5-5,45.9-14.1,66.1V420.4z"/>
</svg>
