<?xml version="1.0" encoding="utf-8"?>
<!-- Generator: Adobe Illustrator 21.0.0, SVG Export Plug-In . SVG Version: 6.00 Build 0)  -->
<svg version="1.1" id="Capa_1" xmlns="http://www.w3.org/2000/svg" xmlns:xlink="http://www.w3.org/1999/xlink" x="0px" y="0px"
	 viewBox="0 0 372 372" style="enable-background:new 0 0 372 372;" xml:space="preserve">
<style type="text/css">
	.st0{fill:#FFFFFF;}
</style>
<path class="st0" d="M367.1,185.5c0-100.1-81.5-181.6-181.6-181.6S3.9,85.4,3.9,185.5s81.5,181.6,181.6,181.6
	S367.1,285.6,367.1,185.5z M185.5,347.6c-58.5,0-109.9-31.2-138.4-77.8c0.8,0.2,276.6,0.3,276.6,0.3
	C295.2,316.5,243.9,347.6,185.5,347.6z M85.9,203.4H80c-5.4,0-9.8,4.4-9.8,9.8v37.4H59.3v-51.2c0-16.6,11.3-30.7,26.6-35
	C85.9,164.4,85.9,203.4,85.9,203.4z M162.2,175.7h-14.1c-5.4,0-9.8,4.4-9.8,9.8v17.9h-5.4v-79.2h29.3
	C162.2,124.2,162.2,175.7,162.2,175.7z M248,124.2v126.3h-27.3V124.2H248z M313.9,250.5h-46.4v-55.3h46.4V250.5z M201.2,250.5h-14.7
	v-37.4c0-5.4-4.4-9.8-9.8-9.8h-18.9v-8.1h43.3L201.2,250.5L201.2,250.5z M166.9,222.9v27.6h-4.7h-4.4h-24.9H89.8v-27.6H166.9z
	 M333.5,185.5c0-5.4-4.4-9.8-9.8-9.8h-56.1v-61.3c0-5.4-4.4-9.8-9.8-9.8h-13.7V86.8c0-5.4-4.4-9.8-9.8-9.8s-9.8,4.4-9.8,9.8v17.8
	h-13.6c-5.4,0-9.8,4.4-9.8,9.8v61.3h-19.3v-61.3c0-5.4-4.4-9.8-9.8-9.8h-48.8c-5.4,0-9.8,4.4-9.8,9.8v89h-8v-50.1
	c0-5.4-4.4-9.8-9.8-9.8c-30.8,0-55.8,25.1-55.8,55.9v57.1c-10.5-21.5-16.4-45.6-16.4-71c0-89.4,72.7-162.1,162.1-162.1
	s162.1,72.7,162.1,162.1c0,23.5-5,45.9-14.1,66.1V185.5z"/>
</svg>
