<?xml version="1.0" encoding="utf-8"?>
<!-- Generator: Adobe Illustrator 21.0.0, SVG Export Plug-In . SVG Version: 6.00 Build 0)  -->
<svg version="1.1" id="Calque_1" xmlns="http://www.w3.org/2000/svg" xmlns:xlink="http://www.w3.org/1999/xlink" x="0px" y="0px"
	 viewBox="0 0 500 500" style="enable-background:new 0 0 500 500;" xml:space="preserve">
<style type="text/css">
	.st0{fill:#FFFFFF;}
</style>
<g id="XMLID_16_">
	<path id="XMLID_2_" class="st0" d="M250,487.3C119.2,487.3,12.7,380.8,12.7,250S119.2,12.7,250,12.7S487.3,119.2,487.3,250
		S380.8,487.3,250,487.3z M250,29.1C128.2,29.1,29.1,128.2,29.1,250S128.2,470.9,250,470.9S470.9,371.8,470.9,250
		S371.8,29.1,250,29.1z"/>
</g>
<g id="XMLID_18_">
	<g id="XMLID_19_">
		<path id="XMLID_28_" class="st0" d="M250,313.7c35.2,0,63.7-28.6,63.7-63.7S285,186.3,250,186.3S186.3,215,186.3,250
			S214.8,313.7,250,313.7z M250,204.8c25,0,45.2,20.2,45.2,45.2S275,295.2,250,295.2S204.8,275,204.8,250S225,204.8,250,204.8z"/>
		<path id="XMLID_12_" class="st0" d="M259.3,156.8v-29.3c0-5.2-4.1-9.3-9.3-9.3s-9.3,4.1-9.3,9.3v29.3c0,5.2,4.1,9.3,9.3,9.3
			S259.3,162,259.3,156.8z"/>
		<path id="XMLID_11_" class="st0" d="M240.7,343.2v29.3c0,5.2,4.1,9.3,9.3,9.3s9.3-4.1,9.3-9.3v-29.3c0-5.2-4.1-9.3-9.3-9.3
			S240.7,338,240.7,343.2z"/>
		<path id="XMLID_10_" class="st0" d="M322.5,190.7l20.7-20.7c3.6-3.6,3.6-9.5,0-13.2c-3.6-3.6-9.5-3.6-13.2,0l-20.7,20.7
			c-3.6,3.6-3.6,9.5,0,13.2c1.8,1.8,4.1,2.7,6.6,2.7S320.7,192.5,322.5,190.7z"/>
		<path id="XMLID_9_" class="st0" d="M156.8,343.2c1.8,1.8,4.1,2.7,6.6,2.7c2.3,0,4.8-0.9,6.6-2.7l20.7-20.7c3.6-3.6,3.6-9.5,0-13.2
			c-3.6-3.6-9.5-3.6-13.2,0L156.8,330C153.1,333.7,153.1,339.6,156.8,343.2z"/>
		<path id="XMLID_8_" class="st0" d="M381.9,250c0-5.2-4.1-9.3-9.3-9.3h-29.3c-5.2,0-9.3,4.1-9.3,9.3s4.1,9.3,9.3,9.3h29.3
			C377.6,259.3,381.9,255.2,381.9,250z"/>
		<path id="XMLID_7_" class="st0" d="M127.4,259.3h29.3c5.2,0,9.3-4.1,9.3-9.3s-4.1-9.3-9.3-9.3h-29.3c-5.2,0-9.3,4.1-9.3,9.3
			S122.4,259.3,127.4,259.3z"/>
		<path id="XMLID_6_" class="st0" d="M336.6,345.9c2.3,0,4.8-0.9,6.6-2.7c3.6-3.6,3.6-9.5,0-13.2l-20.7-20.7
			c-3.6-3.6-9.5-3.6-13.2,0c-3.6,3.6-3.6,9.5,0,13.2l20.7,20.7C331.9,345,334.4,345.9,336.6,345.9z"/>
		<path id="XMLID_3_" class="st0" d="M190.7,190.7c3.6-3.6,3.6-9.5,0-13.2L170,156.8c-3.6-3.6-9.5-3.6-13.2,0s-3.6,9.5,0,13.2
			l20.7,20.7c1.8,1.8,4.1,2.7,6.6,2.7S188.8,192.5,190.7,190.7z"/>
	</g>
</g>
</svg>
