<?xml version="1.0" encoding="utf-8"?>
<!-- Generator: Adobe Illustrator 21.0.0, SVG Export Plug-In . SVG Version: 6.00 Build 0)  -->
<svg version="1.1" id="Layer_1" xmlns="http://www.w3.org/2000/svg" xmlns:xlink="http://www.w3.org/1999/xlink" x="0px" y="0px"
	 viewBox="0 0 512 512" style="enable-background:new 0 0 512 512;" xml:space="preserve">
<style type="text/css">
	.st0{fill:#FFFFFF;}
</style>
<g>
	<g>
		<path class="st0" d="M75.9,181.4c0-6.5-5.3-11.9-11.9-11.9H21.3c-6.6,0-11.9,5.3-11.9,11.9c0,6.5,5.3,11.9,11.9,11.9H64
			C70.6,193.2,75.9,187.9,75.9,181.4z M487.7,169.5H445c-6.6,0-11.9,5.3-11.9,11.9c0,6.5,5.3,11.9,11.9,11.9h42.7
			c6.6,0,11.9-5.3,11.9-11.9C499.5,174.8,494.2,169.5,487.7,169.5z M96.2,322.7l-31.1,31c-4.6,4.6-4.6,12.1,0,16.8
			c2.3,2.3,5.4,3.5,8.4,3.5s6.1-1.2,8.4-3.5l31.1-31c4.6-4.6,4.6-12.1,0-16.8C108.3,318.1,100.8,318.1,96.2,322.7z M383.5,64.4
			c3,0,6.1-1.2,8.4-3.5l30.2-30.2c4.6-4.6,4.6-12.1,0-16.8s-12.2-4.6-16.8,0l-30.2,30.2c-4.6,4.6-4.6,12.1,0,16.8
			C377.5,63.2,380.5,64.4,383.5,64.4z M117,60.9c2.3,2.3,5.4,3.5,8.4,3.5s6.1-1.2,8.4-3.5c4.6-4.6,4.6-12.1,0-16.8l-30.2-30.2
			c-4.6-4.6-12.2-4.6-16.8,0c-4.6,4.6-4.6,12.1,0,16.8L117,60.9z M412.9,322.8c-4.6-4.6-12.2-4.6-16.8,0c-4.6,4.6-4.6,12.1,0,16.8
			l31,30.9c2.3,2.3,5.4,3.5,8.4,3.5s6.1-1.2,8.4-3.5c4.6-4.6,4.6-12.1,0-16.8L412.9,322.8z M254.5,42.7
			c-82.1,0-148.9,69.8-148.9,155.5c0,39.9,14.3,82.8,39.2,117.7c19.2,26.8,29.3,56.7,29.3,86.4v74.5c0,13.1,10.7,23.7,23.7,23.7
			h113.3c13.1,0,23.7-10.6,23.7-23.7v-74.5c0-29.7,10.1-59.5,29.3-86.4c24.9-35,39.2-77.9,39.2-117.7
			C403.4,112.4,336.6,42.7,254.5,42.7z M311.1,476.8H197.9v-15.5h56.6c6.6,0,11.9-5.3,11.9-11.9c0-6.5-5.3-11.9-11.9-11.9h-56.6V422
			h113.3L311.1,476.8L311.1,476.8z M237.9,255.6L222,221.8h65l-15.9,33.9c-0.6,1.3-1,2.8-1.1,4.2l-9.2,138.5h-12.7l-9.2-138.5
			C238.8,258.4,238.5,257,237.9,255.6z M344.8,302.2c-21.2,29.7-32.8,62.9-33.6,96.2h-26.5l9-134.7l22.8-48.7
			c1.7-3.7,1.4-8-0.7-11.4c-2.2-3.4-6-5.5-10-5.5H203.3c-4.1,0-7.8,2.1-10,5.5c-2.2,3.4-2.5,7.7-0.7,11.4l22.8,48.7l9,134.7h-26.5
			c-0.8-33.3-12.4-66.5-33.6-96.2c-21.8-30.6-34.8-69.4-34.8-104c0-72.7,56.1-131.8,125.1-131.8s125.1,59.1,125.1,131.8
			C379.6,232.7,366.6,271.6,344.8,302.2z"/>
	</g>
</g>
</svg>
