<?xml version="1.0" encoding="utf-8"?>
<!-- Generator: Adobe Illustrator 19.0.0, SVG Export Plug-In . SVG Version: 6.00 Build 0)  -->
<svg version="1.1" id="Layer_1" xmlns="http://www.w3.org/2000/svg" xmlns:xlink="http://www.w3.org/1999/xlink" x="0px" y="0px"
	 viewBox="6 -106 512 512" style="enable-background:new 6 -106 512 512;" xml:space="preserve">
<g>
	<g>
		<path d="M81.9,75.4c0-6.5-5.3-11.9-11.9-11.9H27.3c-6.6,0-11.9,5.3-11.9,11.9c0,6.5,5.3,11.9,11.9,11.9h42.7
			C76.6,87.2,81.9,81.9,81.9,75.4z M493.7,63.5h-42.7c-6.6,0-11.9,5.3-11.9,11.9c0,6.5,5.3,11.9,11.9,11.9h42.7
			c6.6,0,11.9-5.3,11.9-11.9C505.5,68.8,500.2,63.5,493.7,63.5z M102.2,216.7l-31.1,31c-4.6,4.6-4.6,12.1,0,16.8
			c2.3,2.3,5.4,3.5,8.4,3.5c3,0,6.1-1.2,8.4-3.5l31.1-31c4.6-4.6,4.6-12.1,0-16.8C114.3,212.1,106.8,212.1,102.2,216.7z M389.5-41.6
			c3,0,6.1-1.2,8.4-3.5l30.2-30.2c4.6-4.6,4.6-12.1,0-16.8s-12.2-4.6-16.8,0l-30.2,30.2c-4.6,4.6-4.6,12.1,0,16.8
			C383.5-42.8,386.5-41.6,389.5-41.6z M123-45.1c2.3,2.3,5.4,3.5,8.4,3.5c3,0,6.1-1.2,8.4-3.5c4.6-4.6,4.6-12.1,0-16.8l-30.2-30.2
			c-4.6-4.6-12.2-4.6-16.8,0c-4.6,4.6-4.6,12.1,0,16.8L123-45.1z M418.9,216.8c-4.6-4.6-12.2-4.6-16.8,0c-4.6,4.6-4.6,12.1,0,16.8
			l31,30.9c2.3,2.3,5.4,3.5,8.4,3.5c3,0,6.1-1.2,8.4-3.5c4.6-4.6,4.6-12.1,0-16.8L418.9,216.8z M260.5-63.3
			c-82.1,0-148.9,69.8-148.9,155.5c0,39.9,14.3,82.8,39.2,117.7c19.2,26.8,29.3,56.7,29.3,86.4v74.5c0,13.1,10.7,23.7,23.7,23.7
			h113.3c13.1,0,23.7-10.6,23.7-23.7v-74.5c0-29.7,10.1-59.5,29.3-86.4c24.9-35,39.2-77.9,39.2-117.7
			C409.4,6.4,342.6-63.3,260.5-63.3z M317.1,370.8H203.9v-15.5h56.6c6.6,0,11.9-5.3,11.9-11.9c0-6.5-5.3-11.9-11.9-11.9h-56.6v-15.5
			h113.3L317.1,370.8C317.1,370.8,317.1,370.8,317.1,370.8z M243.9,149.6L228,115.8H293l-15.9,33.9c-0.6,1.3-1,2.8-1.1,4.2
			l-9.2,138.5h-12.7l-9.2-138.5C244.8,152.4,244.5,151,243.9,149.6z M350.8,196.2c-21.2,29.7-32.8,62.9-33.6,96.2h-26.5l9-134.7
			l22.8-48.7c1.7-3.7,1.4-8-0.7-11.4c-2.2-3.4-6-5.5-10-5.5H209.3c-4.1,0-7.8,2.1-10,5.5c-2.2,3.4-2.5,7.7-0.7,11.4l22.8,48.7
			l9,134.7h-26.5c-0.8-33.3-12.4-66.5-33.6-96.2c-21.8-30.6-34.8-69.4-34.8-104c0-72.7,56.1-131.8,125.1-131.8
			c69,0,125.1,59.1,125.1,131.8C385.6,126.7,372.6,165.6,350.8,196.2z"/>
	</g>
</g>
</svg>
