<?xml version="1.0" encoding="utf-8"?>
<!-- Generator: Adobe Illustrator 19.0.0, SVG Export Plug-In . SVG Version: 6.00 Build 0)  -->
<svg version="1.1" id="Layer_1" xmlns="http://www.w3.org/2000/svg" xmlns:xlink="http://www.w3.org/1999/xlink" x="0px" y="0px"
	 viewBox="-223 24.7 512.3 512.3" style="enable-background:new -223 24.7 512.3 512.3;" xml:space="preserve">
<g>
	<g>
		<path d="M289.3,281.3c0-30.6-5.1-60.1-15.2-87.7c-0.5-1.3-1.1-2.5-1.7-3.6C240,104.6,163.2,41.1,70.3,27.6c-1.5-0.2-3-0.4-4.5-0.6
			c-0.2,0-0.4,0-0.5-0.1c-10.4-1.3-20.9-2-31.5-2c-0.1,0-0.3,0-0.4,0c-0.1,0-0.2,0-0.3,0c-1.1,0-2.2,0-3.3,0c-0.6,0-1.3,0-1.9,0
			c-1.8,0-3.6,0.1-5.4,0.2c0,0-0.1,0-0.1,0c-10.4,0.4-20.6,1.5-30.6,3.1c-1.2,0.2-2.4,0.4-3.5,0.6c-0.5,0.1-1,0.2-1.5,0.3
			c-1.7,0.3-3.3,0.6-5,0.9c-0.2,0-0.4,0.1-0.6,0.1c-12,2.5-23.7,5.7-35,9.9c-0.1,0-0.2,0.1-0.3,0.1C-152.7,75.8-223,170.1-223,280.9
			c0,137.6,108.5,249.8,244.6,255.7c0.7,0,1.3,0,2,0.1c1.2,0,2.3,0.1,3.5,0.1c2,0,4,0.1,5.9,0.1c2,0,4,0,6-0.1
			c1.2,0,2.4-0.1,3.6-0.1c0.7,0,1.3,0,2-0.1c105.2-4.7,193.9-72.9,228.7-167.2c0.3-0.7,0.6-1.4,0.9-2.1
			C284.1,339.5,289.3,310.6,289.3,281.3z M246.3,280.9c0,17.5-2.1,34.5-6.1,50.8L147.6,295c-5.1-2.2-8.7-7.6-8.5-13.4
			c0-0.5,0-0.5,0-1c0-1.1,0-1.1,0-2.6c0.1-5.4,3.6-10.5,8.9-12.6l92.1-36.1C244.1,245.8,246.3,263.1,246.3,280.9z M84.1,73.8
			l-36.8,92.8c-2.2,5.1-7.6,8.7-13.4,8.5c-0.5,0-0.5,0-1,0c-1.1,0-1.1,0-2.6,0c-5.4-0.1-10.5-3.6-12.6-8.9l-36.2-92.4
			c2.7-0.7,5.4-1.3,8.2-1.9c0.3-0.1,0.6-0.1,0.9-0.2c1.5-0.3,2.9-0.6,4.4-0.8c1.9-0.3,3.7-0.6,5.6-0.9c0.1,0,0.1,0,0.2,0
			c2.1-0.3,4.2-0.6,6.3-0.8c0,0,0.1,0,0.1,0c8.6-1,17.3-1.5,26.1-1.5c1.1,0,2.3,0,3.4,0c0.6,0,1.3,0,1.9,0c1.7,0,3.3,0.1,4.9,0.2
			c0.2,0,0.3,0,0.5,0c1.7,0.1,3.4,0.2,5.1,0.3c0.1,0,0.3,0,0.4,0c1.7,0.1,3.3,0.3,5,0.4c0.3,0,0.5,0.1,0.8,0.1
			c1.5,0.2,3.1,0.3,4.6,0.5C68.1,70.3,76.2,71.8,84.1,73.8z M-180.1,280.6c0-17,2.1-33.9,6.2-50.5l92.8,36.8
			c5.1,2.2,8.7,7.6,8.5,13.4c0,0.5,0,0.5,0,1c0,1.1,0,1.1,0,2.6c-0.1,5.4-3.6,10.5-8.9,12.6l-92.1,36.1
			C-177.8,315.6-180.1,298.2-180.1,280.6z M-17.5,488l36.8-92.8c2.2-5.1,7.6-8.7,13.4-8.5c0.5,0,0.5,0,1,0c1.1,0,1.1,0,2.6,0
			c5.4,0.1,10.5,3.6,12.6,8.9L85,487.6c-14.7,3.8-29.6,5.9-44.8,6.5c-0.3,0-0.6,0-0.9,0c-2.1,0.1-4.2,0.1-6.3,0.1
			c-2.1,0-4.1,0-6.2-0.1c-0.2,0-0.4,0-0.7,0C11.4,493.6-3.1,491.5-17.5,488z M125.2,473.3l-36.7-93.5c-8.6-21.4-29.1-35.3-51.9-35.7
			c-0.8,0-0.8,0-1.7,0c-0.5,0-0.5,0-1.1,0c-23.3-0.7-44.7,13.4-53.9,35l-37.6,95c-44.4-20.9-80.5-56.8-101.7-101l93.9-36.9
			c21.4-8.6,35.3-29.1,35.7-51.9c0-0.8,0-0.8,0-1.7c0-0.5,0-0.5,0-1.1c0.7-23.3-13.4-44.7-35-53.9l-95.1-37.7
			c21-44.5,57-80.5,101.4-101.6l36.8,93.8c8.7,21.4,29.1,35.4,51.9,35.7c0.8,0,0.8,0,1.7,0c0.5,0,0.5,0,1.1,0
			c23.3,0.7,44.7-13.4,53.9-35L124.4,88c44.3,21,80.2,56.9,101.3,101.1l-93.5,36.7c-21.4,8.7-35.4,29.1-35.7,51.9c0,0.8,0,0.8,0,1.7
			c0,0.5,0,0.5,0,1.1c-0.7,23.3,13.4,44.7,35,53.9l94.6,37.5C205,416.2,169.3,452.1,125.2,473.3z"/>
	</g>
</g>
</svg>
