<?xml version="1.0" encoding="utf-8"?>
<!-- Generator: Adobe Illustrator 21.0.0, SVG Export Plug-In . SVG Version: 6.00 Build 0)  -->
<svg version="1.1" id="Layer_1" xmlns="http://www.w3.org/2000/svg" xmlns:xlink="http://www.w3.org/1999/xlink" x="0px" y="0px"
	 viewBox="0 0 476.3 476.3" style="enable-background:new 0 0 476.3 476.3;" xml:space="preserve">
<style type="text/css">
	.st0{fill:#FFFFFF;}
</style>
<g transform="translate(0 -540.36)">
	<g>
		<g>
			<path class="st0" d="M472.7,706.4c-3.5-2.9-34.8-28.5-56.8-28.5c-13,0-23,8.1-31.9,15.3c-6.9,5.5-13.4,10.8-19.4,10.8
				c-5.4,0-11.6-5.1-18.2-10.5c-8.9-7.3-19-15.6-32.2-15.6c-13.1,0-22.9,8.2-31.6,15.4c-6.7,5.6-12.9,10.8-18.8,10.8
				c-6.1,0-12.6-5.3-19.5-11c-8.6-7.1-18.4-15.1-30.9-15.1c-13,0-23,8.1-31.9,15.3c-6.9,5.5-13.4,10.8-19.4,10.8
				c-5.9,0-12.2-5.3-18.8-10.8c-8.7-7.2-18.5-15.4-31.6-15.4s-22.9,8.2-31.6,15.4c-6.7,5.6-12.9,10.8-18.8,10.8
				c-10.6,0-32.7-14-45-23.9c-4.3-3.5-10.6-2.8-14.1,1.5s-2.8,10.6,1.5,14.1c3.6,2.9,35.7,28.4,57.6,28.4c13.1,0,22.9-8.2,31.6-15.4
				c6.7-5.6,12.9-10.8,18.8-10.8s12.2,5.3,18.8,10.8c8.7,7.2,18.5,15.4,31.6,15.4c13,0,23-8.1,31.9-15.3
				c6.9-5.5,13.4-10.8,19.4-10.8c5.4,0,11.6,5.1,18.2,10.5c8.9,7.3,19,15.6,32.2,15.6c13.1,0,22.9-8.2,31.6-15.4
				c6.7-5.6,12.9-10.8,18.8-10.8c6.1,0,12.6,5.3,19.5,11c8.6,7.1,18.4,15.1,30.9,15.1c13,0,23-8.1,31.9-15.3
				c6.9-5.5,13.4-10.8,19.4-10.8c10.5,0,32,13.9,43.9,23.8c1.9,1.5,4.1,2.3,6.4,2.3l0,0c2.9,0,5.7-1.2,7.8-3.6
				C477.5,716.2,476.9,709.9,472.7,706.4z"/>
			<path class="st0" d="M3.7,618.3c3.6,2.9,35.7,28.4,57.6,28.4c13.1,0,22.9-8.2,31.6-15.4c6.7-5.6,12.9-10.8,18.8-10.8
				s12.2,5.3,18.8,10.8c8.7,7.2,18.5,15.4,31.6,15.4c13,0,23-8.1,31.9-15.3c6.9-5.5,13.4-10.8,19.4-10.8c5.4,0,11.6,5.1,18.2,10.5
				c8.9,7.3,19,15.6,32.2,15.6c13.1,0,22.9-8.2,31.6-15.4c6.7-5.6,12.9-10.8,18.8-10.8c6.1,0,12.6,5.3,19.5,11
				c8.6,7.1,18.4,15.1,30.9,15.1c13,0,23-8.1,31.9-15.3c6.9-5.5,13.4-10.8,19.4-10.8c10.5,0,32,13.9,43.9,23.8
				c1.9,1.5,4.1,2.3,6.4,2.3l0,0c2.9,0,5.7-1.2,7.8-3.6c3.5-4.3,2.9-10.6-1.3-14.1c-3.5-3-34.8-28.5-56.8-28.5
				c-13,0-23,8.1-31.9,15.3c-6.9,5.5-13.4,10.8-19.4,10.8c-5.4,0-11.6-5.1-18.2-10.5c-8.9-7.3-19-15.6-32.2-15.6
				c-13.1,0-22.9,8.2-31.6,15.4c-6.7,5.6-12.9,10.8-18.8,10.8c-6.1,0-12.6-5.3-19.5-11c-8.6-7.1-18.4-15.1-30.9-15.1
				c-13,0-23,8.1-31.9,15.3c-6.9,5.5-13.4,10.8-19.4,10.8c-5.9,0-12.2-5.3-18.8-10.8c-8.7-7.2-18.5-15.4-31.6-15.4
				s-22.9,8.2-31.6,15.4c-6.7,5.6-12.9,10.8-18.8,10.8c-10.6,0-32.7-14-45-23.9c-4.3-3.5-10.6-2.8-14.1,1.5S-0.6,614.8,3.7,618.3z"
				/>
			<path class="st0" d="M472.7,861.3c-3.5-2.9-34.8-28.5-56.8-28.5c-13,0-23,8.1-31.9,15.3c-6.9,5.5-13.4,10.8-19.4,10.8
				c-5.4,0-11.6-5.1-18.2-10.5c-8.9-7.3-19-15.6-32.2-15.6c-13.1,0-22.9,8.2-31.6,15.4c-6.7,5.6-12.9,10.8-18.8,10.8
				c-6.1,0-12.6-5.3-19.5-11c-8.6-7.1-18.4-15.1-30.9-15.1c-13,0-23,8.1-31.9,15.3c-6.9,5.5-13.4,10.8-19.4,10.8
				c-5.9,0-12.2-5.3-18.8-10.8c-8.7-7.2-18.5-15.4-31.6-15.4s-22.9,8.2-31.6,15.4c-6.7,5.6-12.9,10.8-18.8,10.8
				c-10.6,0-32.7-14-45-23.9c-4.3-3.5-10.6-2.8-14.1,1.5s-2.8,10.6,1.5,14.1c3.6,2.9,35.7,28.4,57.6,28.4c13.1,0,22.9-8.2,31.6-15.4
				c6.7-5.6,12.9-10.8,18.8-10.8s12.2,5.3,18.8,10.8c8.7,7.2,18.5,15.4,31.6,15.4c13,0,23-8.1,31.9-15.3
				c6.9-5.5,13.4-10.8,19.4-10.8c5.4,0,11.6,5.1,18.2,10.5c8.9,7.3,19,15.6,32.2,15.6c13.1,0,22.9-8.2,31.6-15.4
				c6.7-5.6,12.9-10.8,18.8-10.8c6.1,0,12.6,5.3,19.5,11c8.6,7.1,18.4,15.1,30.9,15.1c13,0,23-8.1,31.9-15.3
				c6.9-5.5,13.4-10.8,19.4-10.8c10.5,0,32,13.9,43.9,23.8c1.9,1.5,4.1,2.3,6.4,2.3l0,0c2.9,0,5.7-1.2,7.8-3.6
				C477.5,871.1,476.9,864.8,472.7,861.3z"/>
			<path class="st0" d="M472.7,783.9c-3.5-2.9-34.8-28.5-56.8-28.5c-13,0-23,8.1-31.9,15.3c-6.9,5.5-13.4,10.8-19.4,10.8
				c-5.4,0-11.6-5.1-18.2-10.5c-8.9-7.3-19-15.6-32.2-15.6c-13.1,0-22.9,8.2-31.6,15.4c-6.7,5.6-12.9,10.8-18.8,10.8
				c-6.1,0-12.6-5.3-19.5-11c-8.6-7.1-18.4-15.1-30.9-15.1c-13,0-23,8.1-31.9,15.3c-6.9,5.5-13.4,10.8-19.4,10.8
				c-5.9,0-12.2-5.3-18.8-10.8c-8.7-7.2-18.5-15.4-31.6-15.4s-22.9,8.2-31.6,15.4c-6.7,5.6-12.9,10.8-18.8,10.8
				c-10.6,0-32.7-14-45-23.9c-4.3-3.5-10.6-2.8-14.1,1.5s-2.8,10.6,1.5,14.1c3.6,2.9,35.7,28.4,57.6,28.4c13.1,0,22.9-8.2,31.6-15.4
				c6.7-5.6,12.9-10.8,18.8-10.8s12.2,5.3,18.8,10.8c8.7,7.2,18.5,15.4,31.6,15.4c13,0,23-8.1,31.9-15.3
				c6.9-5.5,13.4-10.8,19.4-10.8c5.4,0,11.6,5.1,18.2,10.5c8.9,7.3,19,15.6,32.2,15.6c13.1,0,22.9-8.2,31.6-15.4
				c6.7-5.6,12.9-10.8,18.8-10.8c6.1,0,12.6,5.3,19.5,11c8.6,7.1,18.4,15.1,30.9,15.1c13,0,23-8.1,31.9-15.3
				c6.9-5.5,13.4-10.8,19.4-10.8c10.5,0,32,13.9,43.9,23.8c1.9,1.5,4.1,2.3,6.4,2.3l0,0c2.9,0,5.7-1.3,7.8-3.6
				C477.5,793.7,476.9,787.4,472.7,783.9z"/>
			<path class="st0" d="M472.7,938.8c-3.5-3-34.8-28.5-56.8-28.5c-13,0-23,8.1-31.9,15.3c-6.9,5.5-13.4,10.8-19.4,10.8
				c-5.4,0-11.6-5.1-18.2-10.5c-8.9-7.3-19-15.6-32.2-15.6c-13.1,0-22.9,8.2-31.6,15.4c-6.7,5.6-12.9,10.8-18.8,10.8
				c-6.1,0-12.6-5.3-19.5-11c-8.6-7.1-18.4-15.1-30.9-15.1c-13,0-23,8.1-31.9,15.3c-6.9,5.5-13.4,10.8-19.4,10.8
				c-5.9,0-12.2-5.3-18.8-10.8c-8.7-7.2-18.5-15.4-31.6-15.4s-22.9,8.2-31.6,15.4c-6.7,5.6-12.9,10.8-18.8,10.8
				c-10.6,0-32.7-14-45-23.9c-4.3-3.5-10.6-2.8-14.1,1.5s-2.8,10.6,1.5,14.1c3.6,2.9,35.7,28.4,57.6,28.4c13.1,0,22.9-8.2,31.6-15.4
				c6.7-5.6,12.9-10.8,18.8-10.8s12.2,5.3,18.8,10.8c8.7,7.2,18.5,15.4,31.6,15.4c13,0,23-8.1,31.9-15.3
				c6.9-5.5,13.4-10.8,19.4-10.8c5.4,0,11.6,5.1,18.2,10.5c8.9,7.3,19,15.6,32.2,15.6c13.1,0,22.9-8.2,31.6-15.4
				c6.7-5.6,12.9-10.8,18.8-10.8c6.1,0,12.6,5.3,19.5,11c8.6,7.1,18.4,15.1,30.9,15.1c13,0,23-8.1,31.9-15.3
				c6.9-5.5,13.4-10.8,19.4-10.8c10.5,0,32,13.9,43.9,23.8c1.9,1.5,4.1,2.3,6.4,2.3l0,0c2.9,0,5.7-1.2,7.8-3.6
				C477.5,948.6,476.9,942.3,472.7,938.8z"/>
		</g>
	</g>
</g>
</svg>
