<?xml version="1.0" encoding="utf-8"?>
<!-- Generator: Adobe Illustrator 21.0.0, SVG Export Plug-In . SVG Version: 6.00 Build 0)  -->
<svg version="1.1" id="Layer_1" xmlns="http://www.w3.org/2000/svg" xmlns:xlink="http://www.w3.org/1999/xlink" x="0px" y="0px"
	 viewBox="0 0 512 512" style="enable-background:new 0 0 512 512;" xml:space="preserve">
<style type="text/css">
	.st0{fill:#FFFFFF;}
</style>
<g>
	<g>
		<g>
			<path class="st0" d="M149.3,298.7c0-11.8-9.6-21.3-21.3-21.3s-21.3,9.6-21.3,21.3S116.2,320,128,320S149.3,310.4,149.3,298.7z"/>
			<path class="st0" d="M384,277.3c-11.8,0-21.3,9.6-21.3,21.3S372.2,320,384,320s21.3-9.6,21.3-21.3S395.8,277.3,384,277.3z"/>
			<path class="st0" d="M256,0C114.6,0,0,114.6,0,256s114.6,256,256,256s256-114.6,256-256S397.4,0,256,0z M256,469.3
				c-117.8,0-213.3-95.5-213.3-213.3S138.2,42.7,256,42.7S469.3,138.2,469.3,256S373.8,469.3,256,469.3z"/>
			<path class="st0" d="M446.4,232c-12-95.6-93.3-168-190.4-168S77.6,136.4,65.6,232c-1.6,12.7,8.3,24,21.2,24h338.4
				C438,256,448,244.8,446.4,232z M113,213.3c18.4-62.1,75.9-106.7,143-106.7s124.6,44.6,143,106.7H113L113,213.3z"/>
			<path class="st0" d="M256,320c-60.2,0-113.8,16.1-136.7,43.1c-7.2,8.5-6.7,21.1,1.2,28.9c35.7,35.6,84,56,135.5,56
				s99.7-20.4,135.5-56c7.9-7.8,8.4-20.4,1.2-28.9C369.8,336.1,316.2,320,256,320z M256,405.3c-31.3,0-61-9.7-85.8-27.1
				c19.9-9.2,51.2-15.5,85.8-15.5c34.7,0,65.9,6.4,85.9,15.5C317.1,395.7,287.3,405.3,256,405.3z"/>
		</g>
	</g>
</g>
</svg>
