<?xml version="1.0" encoding="utf-8"?>
<!-- Generator: Adobe Illustrator 19.0.0, SVG Export Plug-In . SVG Version: 6.00 Build 0)  -->
<svg version="1.1" id="Layer_1" xmlns="http://www.w3.org/2000/svg" xmlns:xlink="http://www.w3.org/1999/xlink" x="0px" y="0px"
	 viewBox="-223 25 512 512" style="enable-background:new -223 25 512 512;" xml:space="preserve">
<g>
	<g>
		<g>
			<path d="M-73.7,323.7c0-11.8-9.6-21.3-21.3-21.3s-21.3,9.6-21.3,21.3S-106.8,345-95,345S-73.7,335.4-73.7,323.7z"/>
			<path d="M161,302.3c-11.8,0-21.3,9.6-21.3,21.3S149.2,345,161,345s21.3-9.6,21.3-21.3S172.8,302.3,161,302.3z"/>
			<path d="M33,25c-141.4,0-256,114.6-256,256s114.6,256,256,256s256-114.6,256-256S174.4,25,33,25z M33,494.3
				c-117.8,0-213.3-95.5-213.3-213.3S-84.8,67.7,33,67.7S246.3,163.2,246.3,281S150.8,494.3,33,494.3z"/>
			<path d="M223.4,257C211.4,161.4,130.1,89,33,89c-97.1,0-178.4,72.4-190.4,168c-1.6,12.7,8.3,24,21.2,24h338.4
				C215,281,225,269.8,223.4,257z M-110,238.3c18.4-62.1,75.9-106.7,143-106.7c67.1,0,124.6,44.6,143,106.7L-110,238.3L-110,238.3z"
				/>
			<path d="M33,345c-60.2,0-113.8,16.1-136.7,43.1c-7.2,8.5-6.7,21.1,1.2,28.9c35.7,35.6,84,56,135.5,56c51.5,0,99.7-20.4,135.5-56
				c7.9-7.8,8.4-20.4,1.2-28.9C146.8,361.1,93.2,345,33,345z M33,430.3c-31.3,0-61-9.7-85.8-27.1c19.9-9.2,51.2-15.5,85.8-15.5
				c34.7,0,65.9,6.4,85.9,15.5C94.1,420.7,64.3,430.3,33,430.3z"/>
		</g>
	</g>
</g>
</svg>
