<?xml version="1.0" encoding="utf-8"?>
<!-- Generator: Adobe Illustrator 19.0.0, SVG Export Plug-In . SVG Version: 6.00 Build 0)  -->
<svg version="1.1" id="Calque_1" xmlns="http://www.w3.org/2000/svg" xmlns:xlink="http://www.w3.org/1999/xlink" x="0px" y="0px"
	 width="595.3px" height="669.5px" viewBox="248 -284.5 595.3 669.5" style="enable-background:new 248 -284.5 595.3 669.5;"
	 xml:space="preserve">
<style type="text/css">
	.st0{fill:#FFFFFF;}
</style>
<path class="st0" d="M470.2-35c-16,0-29.1-13.1-29.1-29.1s13.1-29.1,29.1-29.1c16,0,29.1,13.1,29.1,29.1S486.2-35,470.2-35z
	 M470.2-91.2c-14.9,0-27.1,12.2-27.1,27.1S455.3-37,470.2-37s27.1-12.2,27.1-27.1S485.1-91.2,470.2-91.2z"/>
<path class="st0" d="M546.4-35c-16,0-29.1-13.1-29.1-29.1s13.1-29.1,29.1-29.1s29.1,13.1,29.1,29.1S562.4-35,546.4-35z M546.4-91.2
	c-14.9,0-27.1,12.2-27.1,27.1S531.5-37,546.4-37c14.9,0,27.1-12.2,27.1-27.1S561.3-91.2,546.4-91.2z"/>
<path class="st0" d="M622.7-35c-16,0-29.1-13.1-29.1-29.1s13.1-29.1,29.1-29.1s29.1,13.1,29.1,29.1S638.7-35,622.7-35z M622.7-91.2
	c-14.9,0-27.1,12.2-27.1,27.1S607.8-37,622.7-37c14.9,0,27.1-12.2,27.1-27.1S637.6-91.2,622.7-91.2z"/>
<path class="st0" d="M698.7-35c-16,0-29.1-13.1-29.1-29.1s13.1-29.1,29.1-29.1s29.1,13.1,29.1,29.1S714.7-35,698.7-35z M698.7-91.2
	c-14.9,0-27.1,12.2-27.1,27.1S683.8-37,698.7-37c14.9,0,27.1-12.2,27.1-27.1S713.6-91.2,698.7-91.2z"/>
<path class="st0" d="M393.9-35c-16,0-29.1-13.1-29.1-29.1s13.1-29.1,29.1-29.1S423-80.1,423-64.1S409.9-35,393.9-35z M393.9-91.2
	c-14.9,0-27.1,12.2-27.1,27.1S379-37,393.9-37S421-49.2,421-64.1S408.8-91.2,393.9-91.2z"/>
<g id="XMLID_301_">
	<path id="XMLID_302_" class="st0" d="M451.1-143.4c0,0.6,0.5,1.1,1.1,1.1h1.2c0.3,1.3,1.5,2.3,3,2.3h1.6c0.5,1.9,2.2,3.3,4.3,3.3
		c2.1,0,3.8-1.4,4.3-3.3h7.7c0.5,1.9,2.2,3.3,4.3,3.3c2.4,0,4.3-1.9,4.4-4.2c2.9-1.4,4.9-4.4,4.9-7.8v-1.8c0-0.6-0.5-1.1-1.1-1.1
		h-3.5l-5.4-5.8c-0.2-0.2-0.5-0.3-0.8-0.3h-9.7c-2.6,0-5,1.3-6.4,3.4l-2.3,3.4c-2.7,1.1-4.8,3.5-5.2,6.5h-1.3
		C451.6-144.5,451.1-144,451.1-143.4z M460.2-140.1h4c-0.4,0.7-1.1,1.2-2,1.2C461.4-138.9,460.6-139.4,460.2-140.1z M479.1-142.2
		h-22.7c-0.5,0-0.9-0.4-0.9-0.9c0-3.5,2.8-6.3,6.3-6.3h23.9v0.7C485.7-145.2,482.7-142.2,479.1-142.2L479.1-142.2z M476.5-140.1h2.6
		c0.5,0,1,0,1.5-0.1c-0.4,0.8-1.2,1.4-2.1,1.4C477.6-138.9,476.9-139.4,476.5-140.1z M467.4-155.6h3.6v4h-9.2h-0.1l1.1-1.6
		C463.8-154.7,465.5-155.6,467.4-155.6z M476.6-155.6l3.7,4h-7.2v-4H476.6z"/>
</g>
<path class="st0" d="M470.2-111.3c-16,0-29.1-13.1-29.1-29.1s13.1-29.1,29.1-29.1c16,0,29.1,13.1,29.1,29.1S486.2-111.3,470.2-111.3
	z M470.2-167.5c-14.9,0-27.1,12.2-27.1,27.1s12.2,27.1,27.1,27.1s27.1-12.2,27.1-27.1S485.1-167.5,470.2-167.5z"/>
<g id="XMLID_259_">
	<path id="XMLID_260_" class="st0" d="M528.1-143.4c0,0.6,0.5,1.1,1.1,1.1h1.2c0.3,1.3,1.5,2.3,3,2.3h1.6c0.5,1.9,2.2,3.3,4.3,3.3
		c2.1,0,3.8-1.4,4.3-3.3h7.7c0.5,1.9,2.2,3.3,4.3,3.3c2.4,0,4.3-1.9,4.4-4.2c2.9-1.4,4.9-4.4,4.9-7.8v-1.8c0-0.6-0.5-1.1-1.1-1.1
		h-3.5l-5.4-5.8c-0.2-0.2-0.5-0.3-0.8-0.3h-9.7c-2.6,0-5,1.3-6.4,3.4l-2.3,3.4c-2.7,1.1-4.8,3.5-5.2,6.5h-1.3
		C528.6-144.5,528.1-144,528.1-143.4z M537.2-140.1h4c-0.4,0.7-1.1,1.2-2,1.2C538.4-138.9,537.6-139.4,537.2-140.1z M556.1-142.2
		h-22.7c-0.5,0-0.9-0.4-0.9-0.9c0-3.5,2.8-6.3,6.3-6.3h23.9v0.7C562.7-145.2,559.7-142.2,556.1-142.2L556.1-142.2z M553.5-140.1h2.6
		c0.5,0,1,0,1.5-0.1c-0.4,0.8-1.2,1.4-2.1,1.4C554.6-138.9,553.9-139.4,553.5-140.1z M544.4-155.6h3.6v4h-9.2h-0.1l1.1-1.6
		C540.8-154.7,542.5-155.6,544.4-155.6z M553.6-155.6l3.7,4h-7.2v-4H553.6z"/>
</g>
<path class="st0" d="M546.4-111.3c-16,0-29.1-13.1-29.1-29.1s13.1-29.1,29.1-29.1s29.1,13.1,29.1,29.1S562.4-111.3,546.4-111.3z
	 M546.4-167.5c-14.9,0-27.1,12.2-27.1,27.1s12.2,27.1,27.1,27.1c14.9,0,27.1-12.2,27.1-27.1S561.3-167.5,546.4-167.5z"/>
<g id="XMLID_250_">
	<path id="XMLID_251_" class="st0" d="M604.4-143.4c0,0.6,0.5,1.1,1.1,1.1h1.2c0.3,1.3,1.5,2.3,3,2.3h1.6c0.5,1.9,2.2,3.3,4.3,3.3
		c2.1,0,3.8-1.4,4.3-3.3h7.7c0.5,1.9,2.2,3.3,4.3,3.3c2.4,0,4.3-1.9,4.4-4.2c2.9-1.4,4.9-4.4,4.9-7.8v-1.8c0-0.6-0.5-1.1-1.1-1.1
		h-3.6l-5.4-5.8c-0.2-0.2-0.5-0.3-0.8-0.3h-9.7c-2.6,0-5,1.3-6.4,3.4l-2.3,3.4c-2.7,1.1-4.8,3.5-5.2,6.5h-1.3
		C604.8-144.5,604.4-144,604.4-143.4z M613.5-140.1h4c-0.4,0.7-1.1,1.2-2,1.2S613.9-139.4,613.5-140.1z M632.4-142.2h-22.7
		c-0.5,0-0.9-0.4-0.9-0.9c0-3.5,2.8-6.3,6.3-6.3H639v0.7C638.9-145.2,636-142.2,632.4-142.2L632.4-142.2z M629.7-140.1h2.6
		c0.5,0,1,0,1.5-0.1c-0.4,0.8-1.2,1.4-2.1,1.4C630.9-138.9,630.1-139.4,629.7-140.1z M620.6-155.6h3.6v4H615h-0.1l1.1-1.6
		C617-154.7,618.8-155.6,620.6-155.6z M629.8-155.6l3.7,4h-7.2v-4H629.8z"/>
</g>
<path class="st0" d="M622.7-111.3c-16,0-29.1-13.1-29.1-29.1s13.1-29.1,29.1-29.1s29.1,13.1,29.1,29.1S638.7-111.3,622.7-111.3z
	 M622.7-167.5c-14.9,0-27.1,12.2-27.1,27.1s12.2,27.1,27.1,27.1c14.9,0,27.1-12.2,27.1-27.1S637.6-167.5,622.7-167.5z"/>
<g id="XMLID_241_">
	<path id="XMLID_242_" class="st0" d="M680.4-143.4c0,0.6,0.5,1.1,1.1,1.1h1.2c0.3,1.3,1.5,2.3,3,2.3h1.6c0.5,1.9,2.2,3.3,4.3,3.3
		c2.1,0,3.8-1.4,4.3-3.3h7.7c0.5,1.9,2.2,3.3,4.3,3.3c2.4,0,4.3-1.9,4.4-4.2c2.9-1.4,4.9-4.4,4.9-7.8v-1.8c0-0.6-0.5-1.1-1.1-1.1
		h-3.6l-5.4-5.8c-0.2-0.2-0.5-0.3-0.8-0.3h-9.7c-2.6,0-5,1.3-6.4,3.4l-2.3,3.4c-2.7,1.1-4.8,3.5-5.2,6.5h-1.3
		C680.8-144.5,680.4-144,680.4-143.4z M689.5-140.1h4c-0.4,0.7-1.1,1.2-2,1.2S689.9-139.4,689.5-140.1z M708.4-142.2h-22.7
		c-0.5,0-0.9-0.4-0.9-0.9c0-3.5,2.8-6.3,6.3-6.3H715v0.7C714.9-145.2,712-142.2,708.4-142.2L708.4-142.2z M705.7-140.1h2.6
		c0.5,0,1,0,1.5-0.1c-0.4,0.8-1.2,1.4-2.1,1.4C706.9-138.9,706.1-139.4,705.7-140.1z M696.6-155.6h3.6v4H691h-0.1l1.1-1.6
		C693-154.7,694.8-155.6,696.6-155.6z M705.8-155.6l3.7,4h-7.2v-4H705.8z"/>
</g>
<path class="st0" d="M698.7-111.3c-16,0-29.1-13.1-29.1-29.1s13.1-29.1,29.1-29.1s29.1,13.1,29.1,29.1S714.7-111.3,698.7-111.3z
	 M698.7-167.5c-14.9,0-27.1,12.2-27.1,27.1s12.2,27.1,27.1,27.1c14.9,0,27.1-12.2,27.1-27.1S713.6-167.5,698.7-167.5z"/>
<g id="XMLID_19_">
	<g id="XMLID_28_">
		<path id="XMLID_29_" class="st0" d="M374.3-136.6c0,0.6,0.5,1.1,1.1,1.1h1.2c0.3,1.3,1.5,2.3,3,2.3h1.6c0.5,1.9,2.2,3.3,4.3,3.3
			s3.8-1.4,4.3-3.3h7.7c0.5,1.9,2.2,3.3,4.3,3.3c2.4,0,4.3-1.9,4.4-4.2c2.9-1.4,4.9-4.4,4.9-7.8v-1.8c0-0.6-0.5-1.1-1.1-1.1h-3.5
			l-5.4-5.8c-0.2-0.2-0.5-0.3-0.8-0.3h-9.7c-2.6,0-5,1.3-6.4,3.4l-2.3,3.4c-2.7,1.1-4.8,3.5-5.2,6.5h-1.3
			C374.8-137.6,374.3-137.2,374.3-136.6z M383.4-133.2h4c-0.4,0.7-1.1,1.2-2,1.2S383.8-132.5,383.4-133.2z M402.3-135.3h-22.8
			c-0.5,0-0.9-0.4-0.9-0.9c0-3.5,2.8-6.3,6.3-6.3h23.9v0.7C408.8-138.3,405.9-135.3,402.3-135.3L402.3-135.3z M399.7-133.2h2.6
			c0.5,0,1,0,1.5-0.1c-0.4,0.8-1.2,1.4-2.1,1.4C400.8-132,400-132.5,399.7-133.2z M390.6-148.7h3.6v4H385h-0.1l1.1-1.6
			C386.9-147.8,388.7-148.7,390.6-148.7z M399.8-148.7l3.7,4h-7.2v-4H399.8z"/>
	</g>
	<path class="st0" d="M392.6-111.3c-16,0-29.1-13.1-29.1-29.1s13.1-29.1,29.1-29.1s29.1,13.1,29.1,29.1S408.6-111.3,392.6-111.3z
		 M392.6-167.5c-14.9,0-27.1,12.2-27.1,27.1s12.2,27.1,27.1,27.1s27.1-12.2,27.1-27.1S407.5-167.5,392.6-167.5z"/>
</g>
<path class="st0" d="M470.2,41.2c-16,0-29.1-13.1-29.1-29.1S454.2-17,470.2-17c16,0,29.1,13.1,29.1,29.1S486.2,41.2,470.2,41.2z
	 M470.2-15c-14.9,0-27.1,12.2-27.1,27.1s12.2,27.1,27.1,27.1s27.1-12.2,27.1-27.1S485.1-15,470.2-15z"/>
<path class="st0" d="M546.4,41.2c-16,0-29.1-13.1-29.1-29.1S530.4-17,546.4-17s29.1,13.1,29.1,29.1S562.4,41.2,546.4,41.2z
	 M546.4-15c-14.9,0-27.1,12.2-27.1,27.1s12.2,27.1,27.1,27.1c14.9,0,27.1-12.2,27.1-27.1S561.3-15,546.4-15z"/>
<path class="st0" d="M622.7,41.2c-16,0-29.1-13.1-29.1-29.1S606.7-17,622.7-17s29.1,13.1,29.1,29.1S638.7,41.2,622.7,41.2z
	 M622.7-15c-14.9,0-27.1,12.2-27.1,27.1s12.2,27.1,27.1,27.1c14.9,0,27.1-12.2,27.1-27.1S637.6-15,622.7-15z"/>
<path class="st0" d="M698.7,41.2c-16,0-29.1-13.1-29.1-29.1S682.7-17,698.7-17s29.1,13.1,29.1,29.1S714.7,41.2,698.7,41.2z
	 M698.7-15c-14.9,0-27.1,12.2-27.1,27.1s12.2,27.1,27.1,27.1c14.9,0,27.1-12.2,27.1-27.1S713.6-15,698.7-15z"/>
<path class="st0" d="M393.9,41.2c-16,0-29.1-13.1-29.1-29.1S377.9-17,393.9-17S423-3.9,423,12.1S409.9,41.2,393.9,41.2z M393.9-15
	c-14.9,0-27.1,12.2-27.1,27.1s12.2,27.1,27.1,27.1S421,27,421,12.1S408.8-15,393.9-15z"/>
<g id="XMLID_91_">
	<path id="XMLID_92_" class="st0" d="M375.9,16.9c0.4,0.5,1,0.7,1.7,0.7h0.2c0.4,1.6,1.9,2.7,3.5,2.7c1.7,0,3.1-1.2,3.5-2.7H401
		c0.4,1.6,1.9,2.7,3.5,2.7c1.7,0,3.1-1.2,3.5-2.7h3.1c0.4,0,0.8-0.3,0.9-0.6c0-0.1,1-3.2-0.5-5.7c-0.9-1.5-2.6-2.4-4.9-2.7
		c-1.1-0.1-2.2-0.5-3.1-0.9c-10.3-5.1-17.8-4.2-22.3-2.5L379,4.9c-0.5-0.1-1,0.3-1.1,0.8c-0.1,0.4,0.1,0.7,0.4,0.9
		c-1.6,1-2.6,2.8-2.8,4.7l-0.4,4C375.3,15.8,375.5,16.4,375.9,16.9z M381.4,14.9c1,0,1.8,0.8,1.8,1.8s-0.8,1.8-1.8,1.8
		s-1.8-0.8-1.8-1.8S380.4,14.9,381.4,14.9z M404.6,14.9c1,0,1.8,0.8,1.8,1.8s-0.8,1.8-1.8,1.8s-1.8-0.8-1.8-1.8
		S403.7,14.9,404.6,14.9z M377.8,15.8h-0.2c-0.1,0-0.2-0.1-0.3-0.1c0,0-0.1-0.1-0.1-0.3l0.4-4c0.1-1.5,1-2.8,2.3-3.5
		c0.5-0.3,1.1-0.6,1.8-0.8c0.1,0,0.2-0.1,0.3-0.1c4.1-1.5,11.1-2.3,20.8,2.5c1.2,0.6,2.4,1,3.7,1.1c1.7,0.2,2.9,0.8,3.5,1.8
		c0.7,1.2,0.6,2.6,0.5,3.4h-2.4c-0.4-1.6-1.9-2.7-3.5-2.7s-3.1,1.2-3.5,2.7h-16.2c-0.4-1.6-1.9-2.7-3.5-2.7
		C379.7,13,378.2,14.2,377.8,15.8L377.8,15.8z"/>
</g>
<g id="XMLID_2_">
	<path id="XMLID_4_" class="st0" d="M452.2,12.3c0.4,0.5,1,0.7,1.7,0.7h0.2c0.4,1.6,1.9,2.7,3.5,2.7c1.7,0,3.1-1.2,3.5-2.7h16.2
		c0.4,1.6,1.9,2.7,3.5,2.7c1.7,0,3.1-1.2,3.5-2.7h3.1c0.4,0,0.8-0.3,0.9-0.6c0-0.1,1-3.2-0.5-5.7c-0.9-1.5-2.6-2.4-4.9-2.7
		c-1.1-0.1-2.2-0.5-3.1-0.9C469.5-2,462-1.1,457.5,0.6l-2.2-0.3c-0.5-0.1-1,0.3-1.1,0.8c-0.1,0.4,0.1,0.7,0.4,0.9
		c-1.6,1-2.6,2.8-2.8,4.7l-0.4,4C451.5,11.2,451.7,11.8,452.2,12.3z M457.6,10.3c1,0,1.8,0.8,1.8,1.8s-0.8,1.8-1.8,1.8
		s-1.8-0.8-1.8-1.8C455.8,11.1,456.6,10.3,457.6,10.3z M480.9,10.3c1,0,1.8,0.8,1.8,1.8s-0.8,1.8-1.8,1.8s-1.8-0.8-1.8-1.8
		C479.1,11.1,479.9,10.3,480.9,10.3z M454.1,11.1h-0.2c-0.1,0-0.2-0.1-0.3-0.1c0,0-0.1-0.1-0.1-0.3l0.4-4c0.1-1.5,1-2.8,2.3-3.5
		c0.5-0.3,1.1-0.6,1.8-0.8c0.1,0,0.2-0.1,0.3-0.1c4.1-1.5,11.1-2.3,20.8,2.5c1.2,0.6,2.4,1,3.7,1.1c1.7,0.2,2.9,0.8,3.5,1.8
		c0.7,1.2,0.6,2.6,0.5,3.4h-2.4c-0.4-1.6-1.9-2.7-3.5-2.7s-3.1,1.2-3.5,2.7h-16.2c-0.4-1.6-1.9-2.7-3.5-2.7
		C455.9,8.4,454.5,9.6,454.1,11.1L454.1,11.1z"/>
</g>
<g id="XMLID_9_">
	<path id="XMLID_10_" class="st0" d="M528.4,12.3c0.4,0.5,1,0.7,1.7,0.7h0.2c0.4,1.6,1.9,2.7,3.5,2.7c1.6,0,3.1-1.2,3.5-2.7h16.2
		c0.4,1.6,1.9,2.7,3.5,2.7c1.7,0,3.1-1.2,3.5-2.7h3.1c0.4,0,0.8-0.3,0.9-0.6c0-0.1,1-3.2-0.5-5.7c-0.9-1.5-2.6-2.4-4.9-2.7
		c-1.1-0.1-2.2-0.5-3.1-0.9c-10.3-5.1-17.8-4.2-22.3-2.5l-2.2-0.3c-0.5-0.1-1,0.3-1.1,0.8c-0.1,0.4,0.1,0.7,0.4,0.9
		c-1.6,1-2.6,2.8-2.8,4.7l-0.4,4C527.8,11.2,528,11.8,528.4,12.3z M533.9,10.3c1,0,1.8,0.8,1.8,1.8s-0.8,1.8-1.8,1.8
		s-1.8-0.8-1.8-1.8C532.1,11.1,532.9,10.3,533.9,10.3z M557.1,10.3c1,0,1.8,0.8,1.8,1.8s-0.8,1.8-1.8,1.8s-1.8-0.8-1.8-1.8
		C555.4,11.1,556.2,10.3,557.1,10.3z M530.3,11.1h-0.2c-0.1,0-0.2-0.1-0.3-0.1c0,0-0.1-0.1-0.1-0.3l0.4-4c0.1-1.5,1-2.8,2.3-3.5
		c0.5-0.3,1.1-0.6,1.8-0.8c0.1,0,0.2-0.1,0.3-0.1c4.1-1.5,11.1-2.3,20.8,2.5c1.2,0.6,2.4,1,3.7,1.1c1.7,0.2,2.9,0.8,3.5,1.8
		c0.7,1.2,0.6,2.6,0.5,3.4h-2.4c-0.4-1.6-1.9-2.7-3.5-2.7c-1.7,0-3.1,1.2-3.5,2.7h-16.2c-0.4-1.6-1.9-2.7-3.5-2.7
		C532.3,8.4,530.7,9.6,530.3,11.1L530.3,11.1z"/>
</g>
<g id="XMLID_31_">
	<path id="XMLID_32_" class="st0" d="M604.7,12.3c0.4,0.5,1,0.7,1.7,0.7h0.2c0.4,1.6,1.9,2.7,3.5,2.7c1.6,0,3.1-1.2,3.5-2.7h16.2
		c0.4,1.6,1.9,2.7,3.5,2.7c1.7,0,3.1-1.2,3.5-2.7h3.1c0.4,0,0.8-0.3,0.9-0.6c0-0.1,1-3.2-0.5-5.7c-0.9-1.5-2.6-2.4-4.9-2.7
		c-1.1-0.1-2.2-0.5-3.1-0.9C622-2,614.5-1.1,610,0.6l-2.2-0.3c-0.5-0.1-1,0.3-1.1,0.8c-0.1,0.4,0.1,0.7,0.4,0.9
		c-1.6,1-2.6,2.8-2.8,4.7l-0.4,4C604,11.2,604.2,11.8,604.7,12.3z M610.1,10.3c1,0,1.8,0.8,1.8,1.8s-0.8,1.8-1.8,1.8
		s-1.8-0.8-1.8-1.8C608.3,11.1,609.1,10.3,610.1,10.3z M633.4,10.3c1,0,1.8,0.8,1.8,1.8s-0.8,1.8-1.8,1.8s-1.8-0.8-1.8-1.8
		C631.6,11.1,632.4,10.3,633.4,10.3z M606.6,11.1h-0.2c-0.1,0-0.2-0.1-0.3-0.1c0,0-0.1-0.1-0.1-0.3l0.4-4c0.1-1.5,1-2.8,2.3-3.5
		c0.5-0.3,1.1-0.6,1.8-0.8c0.1,0,0.2-0.1,0.3-0.1c4.1-1.5,11.1-2.3,20.8,2.5c1.2,0.6,2.4,1,3.7,1.1c1.7,0.2,2.9,0.8,3.5,1.8
		c0.7,1.2,0.6,2.6,0.5,3.4h-2.4c-0.4-1.6-1.9-2.7-3.5-2.7c-1.7,0-3.1,1.2-3.5,2.7h-16.2c-0.4-1.6-1.9-2.7-3.5-2.7
		S607,9.6,606.6,11.1L606.6,11.1z"/>
</g>
<g id="XMLID_22_">
	<path id="XMLID_23_" class="st0" d="M680.7,12.3c0.4,0.5,1,0.7,1.7,0.7h0.2c0.4,1.6,1.9,2.7,3.5,2.7c1.7,0,3.1-1.2,3.5-2.7h16.2
		c0.4,1.6,1.9,2.7,3.5,2.7s3.1-1.2,3.5-2.7h3.1c0.4,0,0.8-0.3,0.9-0.6c0-0.1,1-3.2-0.5-5.7c-0.9-1.5-2.6-2.4-4.9-2.7
		c-1.1-0.1-2.2-0.5-3.1-0.9C698-2,690.5-1.1,686,0.6l-2.2-0.3c-0.5-0.1-1,0.3-1.1,0.8c-0.1,0.4,0.1,0.7,0.4,0.9
		c-1.6,1-2.6,2.8-2.8,4.7l-0.4,4C680,11.2,680.2,11.8,680.7,12.3z M686.1,10.3c1,0,1.8,0.8,1.8,1.8s-0.8,1.8-1.8,1.8
		s-1.8-0.8-1.8-1.8C684.3,11.1,685.1,10.3,686.1,10.3z M709.4,10.3c1,0,1.8,0.8,1.8,1.8s-0.8,1.8-1.8,1.8s-1.8-0.8-1.8-1.8
		C707.6,11.1,708.4,10.3,709.4,10.3z M682.6,11.1h-0.2c-0.1,0-0.2-0.1-0.3-0.1c0,0-0.1-0.1-0.1-0.3l0.4-4c0.1-1.5,1-2.8,2.3-3.5
		c0.5-0.3,1.1-0.6,1.8-0.8c0.1,0,0.2-0.1,0.3-0.1c4.1-1.5,11.1-2.3,20.8,2.5c1.2,0.6,2.4,1,3.7,1.1c1.7,0.2,2.9,0.8,3.5,1.8
		c0.7,1.2,0.6,2.6,0.5,3.4h-2.4c-0.4-1.6-1.9-2.7-3.5-2.7c-1.7,0-3.1,1.2-3.5,2.7h-16.2c-0.4-1.6-1.9-2.7-3.5-2.7
		C684.4,8.4,683,9.6,682.6,11.1L682.6,11.1z"/>
</g>
<path class="st0" d="M470.2,117.5c-16,0-29.1-13.1-29.1-29.1s13.1-29.1,29.1-29.1c16,0,29.1,13.1,29.1,29.1S486.2,117.5,470.2,117.5
	z M470.2,61.3c-14.9,0-27.1,12.2-27.1,27.1c0,14.9,12.2,27.1,27.1,27.1s27.1-12.2,27.1-27.1C497.3,73.5,485.1,61.3,470.2,61.3z"/>
<path class="st0" d="M546.4,117.5c-16,0-29.1-13.1-29.1-29.1s13.1-29.1,29.1-29.1s29.1,13.1,29.1,29.1S562.4,117.5,546.4,117.5z
	 M546.4,61.3c-14.9,0-27.1,12.2-27.1,27.1c0,14.9,12.2,27.1,27.1,27.1c14.9,0,27.1-12.2,27.1-27.1C573.5,73.5,561.3,61.3,546.4,61.3
	z"/>
<path class="st0" d="M622.7,117.5c-16,0-29.1-13.1-29.1-29.1s13.1-29.1,29.1-29.1s29.1,13.1,29.1,29.1S638.7,117.5,622.7,117.5z
	 M622.7,61.3c-14.9,0-27.1,12.2-27.1,27.1c0,14.9,12.2,27.1,27.1,27.1c14.9,0,27.1-12.2,27.1-27.1C649.8,73.5,637.6,61.3,622.7,61.3
	z"/>
<path class="st0" d="M698.7,117.5c-16,0-29.1-13.1-29.1-29.1s13.1-29.1,29.1-29.1s29.1,13.1,29.1,29.1S714.7,117.5,698.7,117.5z
	 M698.7,61.3c-14.9,0-27.1,12.2-27.1,27.1c0,14.9,12.2,27.1,27.1,27.1c14.9,0,27.1-12.2,27.1-27.1C725.8,73.5,713.6,61.3,698.7,61.3
	z"/>
<path class="st0" d="M393.9,117.5c-16,0-29.1-13.1-29.1-29.1s13.1-29.1,29.1-29.1S423,72.4,423,88.4S409.9,117.5,393.9,117.5z
	 M393.9,61.3c-14.9,0-27.1,12.2-27.1,27.1c0,14.9,12.2,27.1,27.1,27.1S421,103.3,421,88.4C421,73.5,408.8,61.3,393.9,61.3z"/>
<g id="XMLID_17_">
	<path id="XMLID_18_" class="st0" d="M413.1,88.4l-1.1-0.7l-0.8-2.2c-0.1-0.4-0.5-0.7-0.9-0.7l-11.2-0.7l-3.3-2.3
		c-1.7-1.2-3.8-1.6-5.8-1.1l-2.4,0.6c-2.6,0.6-5.1,1.6-7.5,3H380h-2.8l-0.9-0.9c-0.4-0.4-1.1-0.4-1.5,0c-0.4,0.4-0.4,1.1,0,1.5
		l1.2,1.2c0.2,0.2,0.5,0.3,0.7,0.3h0.2c-0.6,0.5-1.2,1-1.8,1.5c-0.2,0.2-0.3,0.5-0.3,0.8v0.9l-0.7,1.4c-0.1,0.1-0.1,0.3-0.1,0.5
		c0,1.3,1,2.3,2.3,2.3h3.8c0.5,1.7,2,2.9,3.8,2.9s3.4-1.2,3.8-2.9h12.8c0.5,1.7,2,2.9,3.8,2.9c1.8,0,3.4-1.2,3.8-2.9h2.6
		c1,0,2-0.7,2.2-1.7l0.5-1.6C413.9,89.4,413.6,88.7,413.1,88.4z M411.2,91.2c0,0.1-0.1,0.2-0.2,0.2h-2.6c-0.5-1.7-2-2.9-3.8-2.9
		c-1.8,0-3.4,1.2-3.8,2.9H388c-0.5-1.7-2-2.9-3.8-2.9s-3.4,1.2-3.8,2.9h-3.9c-0.1,0-0.2,0-0.2-0.1l0.6-1.3c0.1-0.1,0.1-0.3,0.1-0.5
		v-0.6c3.2-2.8,7-4.7,11.1-5.7l2.4-0.6c1.4-0.3,2.9,0,4.1,0.8l3.5,2.5c0.2,0.1,0.3,0.2,0.5,0.2l10.8,0.7l0.7,1.9
		c0.1,0.2,0.2,0.4,0.4,0.5l1,0.7L411.2,91.2z M406.5,92.4c0,1-0.9,1.9-1.9,1.9s-1.9-0.9-1.9-1.9s0.9-1.9,1.9-1.9
		S406.5,91.3,406.5,92.4z M386,92.4c0,1-0.9,1.9-1.9,1.9s-1.9-0.9-1.9-1.9s0.9-1.9,1.9-1.9S386,91.3,386,92.4z"/>
</g>
<g id="XMLID_227_">
	<path id="XMLID_230_" class="st0" d="M489.3,83.7l-1.1-0.7l-0.8-2.2c-0.1-0.4-0.5-0.7-0.9-0.7l-11.2-0.7l-3.3-2.3
		c-1.7-1.2-3.8-1.6-5.8-1.1l-2.4,0.6c-2.6,0.6-5.1,1.6-7.5,3h-0.1h-2.7l-0.9-0.9c-0.4-0.4-1.1-0.4-1.5,0s-0.4,1.1,0,1.5l1.2,1.2
		c0.2,0.2,0.5,0.3,0.7,0.3h0.2c-0.6,0.5-1.2,1-1.8,1.5c-0.2,0.2-0.3,0.5-0.3,0.8v0.9l-0.7,1.4c-0.1,0.1-0.1,0.3-0.1,0.5
		c0,1.3,1,2.3,2.3,2.3h3.8c0.5,1.7,2,2.9,3.8,2.9c1.8,0,3.4-1.2,3.8-2.9h12.8c0.5,1.7,2,2.9,3.8,2.9c1.8,0,3.4-1.2,3.8-2.9h2.6
		c1,0,2-0.7,2.2-1.7l0.5-1.6C490.1,84.8,489.9,84.1,489.3,83.7z M487.5,86.5c0,0.1-0.1,0.2-0.2,0.2h-2.6c-0.5-1.7-2-2.9-3.8-2.9
		c-1.8,0-3.4,1.2-3.8,2.9h-12.8c-0.5-1.7-2-2.9-3.8-2.9s-3.4,1.2-3.8,2.9h-3.8c-0.1,0-0.2,0-0.2-0.1l0.6-1.3
		c0.1-0.1,0.1-0.3,0.1-0.5v-0.6c3.2-2.8,7-4.7,11.1-5.7l2.4-0.6c1.4-0.3,2.9,0,4.1,0.8l3.5,2.5c0.2,0.1,0.3,0.2,0.5,0.2l10.8,0.7
		l0.7,1.9c0.1,0.2,0.2,0.4,0.4,0.5l1,0.7L487.5,86.5z M482.7,87.7c0,1-0.9,1.9-1.9,1.9s-1.9-0.9-1.9-1.9s0.9-1.9,1.9-1.9
		S482.7,86.7,482.7,87.7z M462.2,87.7c0,1-0.9,1.9-1.9,1.9s-1.9-0.9-1.9-1.9s0.9-1.9,1.9-1.9C461.4,85.8,462.2,86.7,462.2,87.7z"/>
</g>
<g id="XMLID_174_">
	<path id="XMLID_175_" class="st0" d="M565.3,83.7l-1.1-0.7l-0.8-2.2c-0.1-0.4-0.5-0.7-0.9-0.7l-11.2-0.7l-3.3-2.3
		c-1.7-1.2-3.8-1.6-5.8-1.1l-2.4,0.6c-2.6,0.6-5.1,1.6-7.5,3h-0.1h-2.8l-0.9-1.1c-0.4-0.4-1.1-0.4-1.5,0s-0.4,1.1,0,1.5l1.2,1.2
		c0.2,0.2,0.5,0.3,0.7,0.3h0.2c-0.6,0.5-1.2,1-1.8,1.5c-0.2,0.2-0.3,0.5-0.3,0.8v0.9l-0.7,1.4c-0.1,0.1-0.1,0.3-0.1,0.5
		c0,1.3,1,2.3,2.3,2.3h3.8c0.5,1.7,2,2.9,3.8,2.9c1.8,0,3.4-1.2,3.8-2.9h12.8c0.5,1.7,2,2.9,3.8,2.9s3.4-1.2,3.8-2.9h2.6
		c1,0,2-0.7,2.2-1.7l0.5-1.6C566.1,84.8,565.8,84.1,565.3,83.7z M563.4,86.5c0,0.1-0.1,0.2-0.2,0.2h-2.6c-0.5-1.7-2-2.9-3.8-2.9
		s-3.4,1.2-3.8,2.9h-12.8c-0.5-1.7-2-2.9-3.8-2.9c-1.8,0-3.4,1.2-3.8,2.9h-3.8c-0.1,0-0.2,0-0.2-0.1l0.6-1.3
		c0.1-0.1,0.1-0.3,0.1-0.5v-0.6c3.2-2.8,7-4.7,11.1-5.7l2.4-0.6c1.4-0.3,2.9,0,4.1,0.8l3.5,2.5c0.2,0.1,0.3,0.2,0.5,0.2l10.8,0.7
		l0.7,1.9c0.1,0.2,0.2,0.4,0.4,0.5l1,0.7L563.4,86.5z M558.7,87.7c0,1-0.9,1.9-1.9,1.9s-1.9-0.9-1.9-1.9s0.9-1.9,1.9-1.9
		S558.7,86.7,558.7,87.7z M538.2,87.7c0,1-0.9,1.9-1.9,1.9s-1.9-0.9-1.9-1.9s0.9-1.9,1.9-1.9S538.2,86.7,538.2,87.7z"/>
</g>
<g id="XMLID_137_">
	<path id="XMLID_169_" class="st0" d="M641.8,83.7l-1.1-0.7l-0.8-2.2c-0.1-0.4-0.5-0.7-0.9-0.7l-11.2-0.7l-3.3-2.3
		c-1.7-1.2-3.8-1.6-5.8-1.1l-2.4,0.6c-2.6,0.6-5.1,1.6-7.5,3h-0.1h-2.8l-0.9-0.9c-0.4-0.4-1.1-0.4-1.5,0s-0.4,1.1,0,1.5l1.2,1.2
		c0.2,0.2,0.5,0.3,0.7,0.3h0.2c-0.6,0.5-1.2,1-1.8,1.5c-0.2,0.2-0.3,0.5-0.3,0.8v0.9l-0.7,1.4c-0.1,0.1-0.1,0.3-0.1,0.5
		c0,1.3,1,2.3,2.3,2.3h3.8c0.5,1.7,2,2.9,3.8,2.9c1.8,0,3.4-1.2,3.8-2.9h13.1c0.5,1.7,2,2.9,3.8,2.9s3.4-1.2,3.8-2.9h2.6
		c1,0,2-0.7,2.2-1.7l0.5-1.6C642.6,84.8,642.4,84.1,641.8,83.7z M640,86.5c0,0.1-0.1,0.2-0.2,0.2h-2.6c-0.5-1.7-2-2.9-3.8-2.9
		c-1.8,0-3.4,1.2-3.8,2.9h-12.8c-0.5-1.7-2-2.9-3.8-2.9c-1.8,0-3.4,1.2-3.8,2.9h-3.8c-0.1,0-0.2,0-0.2-0.1l0.6-1.3
		c0.1-0.1,0.1-0.3,0.1-0.5v-0.6c3.2-2.8,7-4.7,11.1-5.7l2.4-0.6c1.4-0.3,2.9,0,4.1,0.8l3.5,2.5c0.2,0.1,0.3,0.2,0.5,0.2l10.8,0.7
		L639,84c0.1,0.2,0.2,0.4,0.4,0.5l1,0.7L640,86.5z M635.2,87.7c0,1-0.9,1.9-1.9,1.9s-1.9-0.9-1.9-1.9s0.9-1.9,1.9-1.9
		S635.2,86.7,635.2,87.7z M614.7,87.7c0,1-0.9,1.9-1.9,1.9s-1.9-0.9-1.9-1.9s0.9-1.9,1.9-1.9S614.7,86.7,614.7,87.7z"/>
</g>
<g id="XMLID_56_">
	<path id="XMLID_86_" class="st0" d="M717.8,83.7l-1.1-0.7l-0.8-2.2c-0.1-0.4-0.5-0.7-0.9-0.7l-11.2-0.7l-3.3-2.3
		c-1.7-1.2-3.8-1.6-5.8-1.1l-2.4,0.6c-2.6,0.6-5.1,1.6-7.5,3h-0.1h-2.8l-0.9-0.9c-0.4-0.4-1.1-0.4-1.5,0s-0.4,1.1,0,1.5l1.2,1.2
		c0.2,0.2,0.5,0.3,0.7,0.3h0.2c-0.6,0.5-1.2,1-1.8,1.5c-0.2,0.2-0.3,0.5-0.3,0.8v0.9l-0.7,1.4c-0.1,0.1-0.1,0.3-0.1,0.5
		c0,1.3,1,2.3,2.3,2.3h3.8c0.5,1.7,2,2.9,3.8,2.9c1.8,0,3.4-1.2,3.8-2.9h13.1c0.5,1.7,2,2.9,3.8,2.9s3.4-1.2,3.8-2.9h2.6
		c1,0,2-0.7,2.2-1.7l0.5-1.6C718.6,84.8,718.4,84.1,717.8,83.7z M716,86.5c0,0.1-0.1,0.2-0.2,0.2h-2.6c-0.5-1.7-2-2.9-3.8-2.9
		c-1.8,0-3.4,1.2-3.8,2.9h-12.8c-0.5-1.7-2-2.9-3.8-2.9s-3.4,1.2-3.8,2.9h-3.8c-0.1,0-0.2,0-0.2-0.1l0.6-1.3
		c0.1-0.1,0.1-0.3,0.1-0.5v-0.6c3.2-2.8,7-4.7,11.1-5.7l2.4-0.6c1.4-0.3,2.9,0,4.1,0.8l3.5,2.5c0.2,0.1,0.3,0.2,0.5,0.2l10.8,0.7
		L715,84c0.1,0.2,0.2,0.4,0.4,0.5l1,0.7L716,86.5z M711.2,87.7c0,1-0.9,1.9-1.9,1.9s-1.9-0.9-1.9-1.9s0.9-1.9,1.9-1.9
		C710.4,85.8,711.2,86.7,711.2,87.7z M690.7,87.7c0,1-0.9,1.9-1.9,1.9s-1.9-0.9-1.9-1.9s0.9-1.9,1.9-1.9S690.7,86.7,690.7,87.7z"/>
</g>
<path class="st0" d="M470.2,193.7c-16,0-29.1-13.1-29.1-29.1s13.1-29.1,29.1-29.1c16,0,29.1,13.1,29.1,29.1S486.2,193.7,470.2,193.7
	z M470.2,137.5c-14.9,0-27.1,12.2-27.1,27.1c0,14.9,12.2,27.1,27.1,27.1s27.1-12.2,27.1-27.1C497.3,149.7,485.1,137.5,470.2,137.5z"
	/>
<path class="st0" d="M546.4,193.7c-16,0-29.1-13.1-29.1-29.1s13.1-29.1,29.1-29.1s29.1,13.1,29.1,29.1S562.4,193.7,546.4,193.7z
	 M546.4,137.5c-14.9,0-27.1,12.2-27.1,27.1c0,14.9,12.2,27.1,27.1,27.1c14.9,0,27.1-12.2,27.1-27.1
	C573.5,149.7,561.3,137.5,546.4,137.5z"/>
<path class="st0" d="M622.7,193.7c-16,0-29.1-13.1-29.1-29.1s13.1-29.1,29.1-29.1s29.1,13.1,29.1,29.1S638.7,193.7,622.7,193.7z
	 M622.7,137.5c-14.9,0-27.1,12.2-27.1,27.1c0,14.9,12.2,27.1,27.1,27.1c14.9,0,27.1-12.2,27.1-27.1
	C649.8,149.7,637.6,137.5,622.7,137.5z"/>
<path class="st0" d="M698.7,193.7c-16,0-29.1-13.1-29.1-29.1s13.1-29.1,29.1-29.1s29.1,13.1,29.1,29.1S714.7,193.7,698.7,193.7z
	 M698.7,137.5c-14.9,0-27.1,12.2-27.1,27.1c0,14.9,12.2,27.1,27.1,27.1c14.9,0,27.1-12.2,27.1-27.1
	C725.8,149.7,713.6,137.5,698.7,137.5z"/>
<path class="st0" d="M393.9,193.7c-16,0-29.1-13.1-29.1-29.1s13.1-29.1,29.1-29.1s29.1,13.1,29.1,29.1S409.9,193.7,393.9,193.7z
	 M393.9,137.5c-14.9,0-27.1,12.2-27.1,27.1c0,14.9,12.2,27.1,27.1,27.1s27.1-12.2,27.1-27.1C421,149.7,408.8,137.5,393.9,137.5z"/>
<g id="XMLID_228_">
	<path id="XMLID_233_" class="st0" d="M410.7-59.7h-0.4v-1.4c0.3-0.1,0.6-0.4,0.6-0.8s-0.2-0.7-0.6-0.8c-0.2-2.5-2-4.5-4.5-4.9
		l-4.4-0.7l-1-1.3c-1.6-2.1-3.9-3.4-6.5-3.5l0,0h-4.4c-6,0-11.1,4.3-12.4,9.9c-0.5,0-0.8,0.4-0.8,0.9v0.4c0,0.2,0.1,0.4,0.2,0.6
		c-0.1,0.4-0.1,0.8-0.1,1.2v0.6c0,0.5,0.4,0.9,0.9,0.9h0.4l2.6,0.1c0.1,1.9,1.7,3.5,3.6,3.5s3.5-1.5,3.6-3.3l11.5,0.2l0,0l0,0h1.5
		c0.3,1.7,1.8,3.1,3.6,3.1c1.8,0,3.2-1.3,3.6-2.9l3.1,0.1l0,0c0.5,0,0.9-0.4,0.9-0.9C411.6-59.3,411.2-59.7,410.7-59.7z M405.9-58.7
		c0,1-0.8,1.9-1.9,1.9c-1,0-1.9-0.8-1.9-1.9c0-1,0.8-1.9,1.9-1.9S405.9-59.8,405.9-58.7z M382-58.5h0.8c0.1,0.5,0.5,0.9,1,0.9
		s0.9-0.4,1-0.8h0.8c-0.1,0.9-0.9,1.6-1.9,1.6C382.9-56.9,382.1-57.6,382-58.5z M389.5-71.4h4.4c2.1,0.1,4,1.1,5.2,2.8l1.2,1.6
		c0.1,0.2,0.3,0.3,0.6,0.3l4.7,0.8c1.7,0.3,2.9,1.6,3.1,3.3c-1.1-1.3-2.7-2.1-4.5-2.1c-2.8,0-5.3,2-5.8,4.7l-8.3-0.2v-1.3
		c0-2.9-2.3-5.2-5.2-5.2h-1.7c-1.1,0-2.1,0.3-3,0.7C381.9-69.2,385.4-71.4,389.5-71.4z M378.2-60.4c0.1-2.5,2.3-4.5,4.8-4.5h1.7
		c1.9,0,3.5,1.6,3.5,3.5v1.1h-10V-60.4z M404-62.4c-1.6,0-2.9,1-3.4,2.4H400c0.5-1.8,2.1-3,4-3c2,0,3.6,1.3,4.1,3.2h-0.7
		C407-61.3,405.7-62.4,404-62.4z"/>
	<circle id="XMLID_182_" class="st0" cx="404" cy="-58.7" r="1.1"/>
	<path id="XMLID_229_" class="st0" d="M391.3-65.6h7.1c0.3,0,0.6-0.2,0.8-0.5c0.1-0.3,0.1-0.6-0.1-0.9l-0.8-1l0,0
		c-1.1-1.4-2.7-2.3-4.5-2.4l0,0h-2.5c-0.5,0-0.9,0.4-0.9,0.9v3.1C390.4-66,390.8-65.6,391.3-65.6z M392.1-68.6h1.6
		c1.1,0.1,2.1,0.5,2.8,1.3h-4.4V-68.6L392.1-68.6z"/>
</g>
<g id="XMLID_48_">
	<path id="XMLID_70_" class="st0" d="M486.8-66.6h-0.4V-68c0.3-0.1,0.6-0.4,0.6-0.8s-0.2-0.7-0.6-0.8c-0.2-2.5-2-4.5-4.5-4.9
		l-4.4-0.7l-1-1.3c-1.6-2.1-3.9-3.4-6.5-3.5l0,0h-4.5c-6,0-11.1,4.3-12.4,9.9c-0.5,0-0.8,0.4-0.8,0.9v0.4c0,0.2,0.1,0.4,0.2,0.6
		c-0.1,0.4-0.1,0.8-0.1,1.2v0.6c0,0.5,0.4,0.9,0.9,0.9h0.4l2.6,0.1c0.1,1.9,1.7,3.5,3.6,3.5s3.5-1.5,3.6-3.3L475-65l0,0l0,0h1.5
		c0.3,1.7,1.8,3.1,3.6,3.1c1.8,0,3.2-1.3,3.6-2.9l3.1,0.1l0,0c0.5,0,0.9-0.4,0.9-0.9C487.6-66.2,487.3-66.6,486.8-66.6z M481.9-65.6
		c0,1-0.8,1.9-1.9,1.9c-1,0-1.9-0.8-1.9-1.9c0-1,0.8-1.9,1.9-1.9S481.9-66.6,481.9-65.6z M458-65.4h0.8c0.1,0.5,0.5,0.9,1,0.9
		s0.9-0.4,1-0.8h0.8c-0.1,0.9-0.9,1.6-1.9,1.6C458.9-63.7,458.1-64.5,458-65.4z M465.5-78.3h4.4c2.1,0.1,4,1.1,5.2,2.8l1.2,1.6
		c0.1,0.2,0.3,0.3,0.6,0.3l4.7,0.8c1.7,0.3,2.9,1.6,3.1,3.3c-1.1-1.3-2.7-2.1-4.5-2.1c-2.8,0-5.3,2-5.8,4.7l-8.3-0.2v-1.3
		c0-2.9-2.3-5.2-5.2-5.2h-1.7c-1.1,0-2.1,0.3-3,0.7C458-76.1,461.5-78.3,465.5-78.3z M454.2-67.3c0.1-2.5,2.3-4.5,4.8-4.5h1.7
		c1.9,0,3.5,1.6,3.5,3.5v1.1L454.2-67.3L454.2-67.3z M480.1-69.2c-1.6,0-2.9,1-3.4,2.4h-0.6c0.5-1.8,2.1-3,4-3c2,0,3.6,1.3,4.1,3.2
		h-0.7C483.1-68.1,481.7-69.2,480.1-69.2z"/>
	<circle id="XMLID_69_" class="st0" cx="480.1" cy="-65.6" r="1.1"/>
	<path id="XMLID_58_" class="st0" d="M467.3-72.4h7.1c0.3,0,0.6-0.2,0.8-0.5c0.1-0.3,0.1-0.6-0.1-0.9l-0.8-1l0,0
		c-1.1-1.4-2.7-2.3-4.5-2.4l0,0h-2.5c-0.5,0-0.9,0.4-0.9,0.9v3.1C466.4-72.8,466.8-72.4,467.3-72.4z M468.2-75.5h1.6
		c1.1,0.1,2.1,0.5,2.8,1.3h-4.4V-75.5L468.2-75.5z"/>
</g>
<g id="XMLID_157_">
	<path id="XMLID_162_" class="st0" d="M564.3-66.6h-0.4V-68c0.3-0.1,0.6-0.4,0.6-0.8s-0.2-0.7-0.6-0.8c-0.2-2.5-2-4.5-4.5-4.9
		l-4.4-0.7l-1-1.3c-1.6-2.1-3.9-3.4-6.5-3.5l0,0h-4.4c-6,0-11.1,4.3-12.4,9.9c-0.5,0-0.8,0.4-0.8,0.9v0.4c0,0.2,0.1,0.4,0.2,0.6
		c-0.1,0.4-0.1,0.8-0.1,1.2v0.6c0,0.5,0.4,0.9,0.9,0.9h0.4l2.6,0.1c0.1,1.9,1.7,3.5,3.6,3.5s3.5-1.5,3.6-3.3l11.5,0.2l0,0l0,0h1.5
		c0.3,1.7,1.8,3.1,3.6,3.1s3.2-1.3,3.6-2.9l3.1,0.1l0,0c0.5,0,0.9-0.4,0.9-0.9C565.2-66.2,564.8-66.6,564.3-66.6z M559.5-65.6
		c0,1-0.8,1.9-1.9,1.9c-1,0-1.9-0.8-1.9-1.9c0-1,0.8-1.9,1.9-1.9C558.7-67.5,559.5-66.6,559.5-65.6z M535.6-65.4h0.8
		c0.1,0.5,0.5,0.9,1,0.9s0.9-0.4,1-0.8h0.8c-0.1,0.9-0.9,1.6-1.9,1.6C536.5-63.7,535.7-64.5,535.6-65.4z M543.1-78.3h4.4
		c2.1,0.1,4,1.1,5.2,2.8l1.2,1.6c0.1,0.2,0.3,0.3,0.6,0.3l4.7,0.8c1.7,0.3,2.9,1.6,3.1,3.3c-1.1-1.3-2.7-2.1-4.5-2.1
		c-2.8,0-5.3,2-5.8,4.7l-8.3-0.2v-1.3c0-2.9-2.3-5.2-5.2-5.2h-1.7c-1.1,0-2.1,0.3-3,0.7C535.5-76.1,539-78.3,543.1-78.3z
		 M531.8-67.3c0.1-2.5,2.3-4.5,4.8-4.5h1.7c1.9,0,3.5,1.6,3.5,3.5v1.1L531.8-67.3L531.8-67.3z M557.6-69.2c-1.6,0-2.9,1-3.4,2.4
		h-0.6c0.5-1.8,2.1-3,4-3c2,0,3.6,1.3,4.1,3.2H561C560.6-68.1,559.3-69.2,557.6-69.2z"/>
	<circle id="XMLID_161_" class="st0" cx="557.6" cy="-65.6" r="1.1"/>
	<path id="XMLID_158_" class="st0" d="M544.9-72.4h7.1c0.3,0,0.6-0.2,0.8-0.5c0.1-0.3,0.1-0.6-0.1-0.9l-0.8-1l0,0
		c-1.1-1.4-2.7-2.3-4.5-2.4l0,0h-2.5c-0.5,0-0.9,0.4-0.9,0.9v3.1C544-72.8,544.4-72.4,544.9-72.4z M545.7-75.5h1.6
		c1.1,0.1,2.1,0.5,2.8,1.3h-4.4V-75.5z"/>
</g>
<g id="XMLID_114_">
	<path id="XMLID_119_" class="st0" d="M640-66.6h-0.4V-68c0.3-0.1,0.6-0.4,0.6-0.8s-0.2-0.7-0.6-0.8c-0.2-2.5-2-4.5-4.5-4.9
		l-4.4-0.7l-1-1.3c-1.6-2.1-3.9-3.4-6.5-3.5l0,0h-4.4c-6,0-11.1,4.3-12.4,9.9c-0.5,0-0.8,0.4-0.8,0.9v0.4c0,0.2,0.1,0.4,0.2,0.6
		c-0.1,0.4-0.1,0.8-0.1,1.2v0.6c0,0.5,0.4,0.9,0.9,0.9h0.4l2.6,0.1c0.1,1.9,1.7,3.5,3.6,3.5s3.5-1.5,3.6-3.3l11.5,0.2l0,0l0,0h1.5
		c0.3,1.7,1.8,3.1,3.6,3.1s3.2-1.3,3.6-2.9l3.1,0.1l0,0c0.5,0,0.9-0.4,0.9-0.9C640.9-66.2,640.5-66.6,640-66.6z M635.2-65.6
		c0,1-0.8,1.9-1.9,1.9c-1,0-1.9-0.8-1.9-1.9c0-1,0.8-1.9,1.9-1.9C634.3-67.5,635.2-66.6,635.2-65.6z M611.3-65.4h0.8
		c0.1,0.5,0.5,0.9,1,0.9s0.9-0.4,1-0.8h0.8c-0.1,0.9-0.9,1.6-1.9,1.6C612.2-63.7,611.4-64.5,611.3-65.4z M618.7-78.3h4.4
		c2.1,0.1,4,1.1,5.2,2.8l1.2,1.6c0.1,0.2,0.3,0.3,0.6,0.3l4.7,0.8c1.7,0.3,2.9,1.6,3.1,3.3c-1.1-1.3-2.7-2.1-4.5-2.1
		c-2.8,0-5.3,2-5.8,4.7l-8.3-0.2v-1.3c0-2.9-2.3-5.2-5.2-5.2h-1.7c-1.1,0-2.1,0.3-3,0.7C611.2-76.1,614.7-78.3,618.7-78.3z
		 M607.5-67.3c0.1-2.5,2.3-4.5,4.8-4.5h1.7c1.9,0,3.5,1.6,3.5,3.5v1.1L607.5-67.3L607.5-67.3z M633.3-69.2c-1.6,0-2.9,1-3.4,2.4
		h-0.6c0.5-1.8,2.1-3,4-3c2,0,3.6,1.3,4.1,3.2h-0.7C636.3-68.1,634.9-69.2,633.3-69.2z"/>
	<circle id="XMLID_118_" class="st0" cx="633.3" cy="-65.6" r="1.1"/>
	<path id="XMLID_115_" class="st0" d="M620.5-72.4h7.1c0.3,0,0.6-0.2,0.8-0.5c0.1-0.3,0.1-0.6-0.1-0.9l-0.8-1l0,0
		c-1.1-1.4-2.7-2.3-4.5-2.4l0,0h-2.5c-0.5,0-0.9,0.4-0.9,0.9v3.1C619.7-72.8,620.1-72.4,620.5-72.4z M621.4-75.5h1.6
		c1.1,0.1,2.1,0.5,2.8,1.3h-4.4V-75.5L621.4-75.5z"/>
</g>
<g id="XMLID_105_">
	<path id="XMLID_110_" class="st0" d="M715.5-66.6h-0.4V-68c0.3-0.1,0.6-0.4,0.6-0.8s-0.2-0.7-0.6-0.8c-0.2-2.5-2-4.5-4.5-4.9
		l-4.4-0.7l-1-1.3c-1.6-2.1-3.9-3.4-6.5-3.5l0,0h-4.4c-6,0-11.1,4.3-12.4,9.9c-0.5,0-0.8,0.4-0.8,0.9v0.4c0,0.2,0.1,0.4,0.2,0.6
		c-0.1,0.4-0.1,0.8-0.1,1.2v0.6c0,0.5,0.4,0.9,0.9,0.9h0.4l2.6,0.1c0.1,1.9,1.7,3.5,3.6,3.5s3.5-1.5,3.6-3.3l11.5,0.2l0,0l0,0h1.5
		c0.3,1.7,1.8,3.1,3.6,3.1c1.8,0,3.2-1.3,3.6-2.9l3.1,0.1l0,0c0.5,0,0.9-0.4,0.9-0.9C716.4-66.2,716-66.6,715.5-66.6z M710.6-65.6
		c0,1-0.8,1.9-1.9,1.9c-1,0-1.9-0.8-1.9-1.9c0-1,0.8-1.9,1.9-1.9C709.8-67.5,710.6-66.6,710.6-65.6z M686.7-65.4h0.8
		c0.1,0.5,0.5,0.9,1,0.9s0.9-0.4,1-0.8h0.8c-0.1,0.9-0.9,1.6-1.9,1.6C687.6-63.7,686.8-64.5,686.7-65.4z M694.2-78.3h4.4
		c2.1,0.1,4,1.1,5.2,2.8l1.2,1.6c0.1,0.2,0.3,0.3,0.6,0.3l4.7,0.8c1.7,0.3,2.9,1.6,3.1,3.3c-1.1-1.3-2.7-2.1-4.5-2.1
		c-2.8,0-5.3,2-5.8,4.7l-8.3-0.2v-1.3c0-2.9-2.3-5.2-5.2-5.2h-1.7c-1.1,0-2.1,0.3-3,0.7C686.7-76.1,690.2-78.3,694.2-78.3z
		 M682.9-67.3c0.1-2.5,2.3-4.5,4.8-4.5h1.7c1.9,0,3.5,1.6,3.5,3.5v1.1L682.9-67.3L682.9-67.3z M708.8-69.2c-1.6,0-2.9,1-3.4,2.4
		h-0.6c0.5-1.8,2.1-3,4-3c2,0,3.6,1.3,4.1,3.2h-0.7C711.8-68.1,710.4-69.2,708.8-69.2z"/>
	<circle id="XMLID_109_" class="st0" cx="708.8" cy="-65.6" r="1.1"/>
	<path id="XMLID_106_" class="st0" d="M696-72.4h7.1c0.3,0,0.6-0.2,0.8-0.5c0.1-0.3,0.1-0.6-0.1-0.9l-0.8-1l0,0
		c-1.1-1.4-2.7-2.3-4.5-2.4l0,0H696c-0.5,0-0.9,0.4-0.9,0.9v3.1C695.1-72.8,695.5-72.4,696-72.4z M696.9-75.5h1.6
		c1.1,0.1,2.1,0.5,2.8,1.3h-4.4V-75.5L696.9-75.5z"/>
</g>
<g id="XMLID_384_">
	<path id="XMLID_385_" class="st0" d="M374.2,161.1v5.4c0,0.4,0.2,0.8,0.6,1l4,1.9c0.1,0,0.2,0.1,0.3,0.1c0.4,1.5,1.8,2.6,3.5,2.6
		c1.6,0,3-1.1,3.5-2.6h16.7c0.5,1.5,1.8,2.6,3.5,2.6c1.6,0,3-1.1,3.5-2.5h1.8l0,0c0.5,0,0.9-0.3,1-0.8l1.1-4.8
		c0.1-0.4-0.1-0.9-0.4-1.1c-3.1-2.2-10.7-2.2-12.5-2.2c-0.6-0.3-2-1.2-3.9-2.2c-0.7-0.4-1.4-0.7-2.1-0.8c-5.9-1.4-14.2,1.9-15.6,2.5
		h-1.7l-0.9-0.4c-0.5-0.2-1.1-0.2-1.6,0.1C374.5,160,374.2,160.5,374.2,161.1z M382.6,169.9c-0.8,0-1.5-0.7-1.5-1.5s0.7-1.5,1.5-1.5
		c0.8,0,1.5,0.7,1.5,1.5S383.4,169.9,382.6,169.9z M406.2,166.9c0.8,0,1.5,0.7,1.5,1.5s-0.7,1.5-1.5,1.5c-0.8,0-1.5-0.7-1.5-1.5
		C404.7,167.6,405.4,166.9,406.2,166.9z M411.4,164.1l-0.8,3.2h-1c-0.5-1.5-1.8-2.5-3.5-2.5c-1.6,0-3,1.1-3.5,2.5h-16.7
		c-0.5-1.5-1.8-2.5-3.4-2.5s-2.9,1-3.4,2.4l-2.9-1.3v-4l0.5,0.2c0.1,0.1,0.3,0.1,0.5,0.1h2c0.1,0,0.3,0,0.4-0.1
		c0.1,0,8.8-3.7,14.5-2.4c0.5,0.1,1.1,0.3,1.6,0.6c0.2,0.1,0.4,0.2,0.6,0.3h-5.1c-0.6,0-1.1,0.5-1.1,1.1s0.5,1.1,1.1,1.1h9.2l0,0
		C402.7,162.6,408.7,162.8,411.4,164.1z"/>
</g>
<g id="XMLID_340_">
	<path id="XMLID_341_" class="st0" d="M450.4,156.4v5.4c0,0.4,0.2,0.8,0.6,1l4,1.9c0.1,0,0.2,0.1,0.3,0.1c0.4,1.5,1.8,2.6,3.5,2.6
		c1.6,0,3-1.1,3.5-2.6H479c0.5,1.5,1.8,2.6,3.5,2.6c1.6,0,3-1.1,3.5-2.5h1.8l0,0c0.5,0,0.9-0.3,1-0.8l1.1-4.8
		c0.1-0.4-0.1-0.9-0.4-1.1c-3.1-2.2-10.7-2.2-12.5-2.2c-0.6-0.3-2-1.2-3.9-2.2c-0.7-0.4-1.4-0.7-2.1-0.8c-5.9-1.4-14.2,1.9-15.6,2.5
		h-1.6l-0.9-0.4c-0.5-0.2-1.1-0.2-1.6,0.1C450.7,155.3,450.4,155.9,450.4,156.4z M458.8,165.2c-0.8,0-1.5-0.7-1.5-1.5
		s0.7-1.5,1.5-1.5c0.8,0,1.5,0.7,1.5,1.5S459.6,165.2,458.8,165.2z M482.4,162.3c0.8,0,1.5,0.7,1.5,1.5s-0.7,1.5-1.5,1.5
		c-0.8,0-1.5-0.7-1.5-1.5S481.6,162.3,482.4,162.3z M487.6,159.5l-0.8,3.2h-1c-0.5-1.5-1.8-2.5-3.5-2.5c-1.6,0-3,1.1-3.5,2.5h-16.7
		c-0.5-1.5-1.8-2.5-3.4-2.5c-1.6,0-2.9,1-3.4,2.4l-2.9-1.3v-4l0.5,0.2c0.1,0.1,0.3,0.1,0.5,0.1h2c0.1,0,0.3,0,0.4-0.1
		c0.1,0,8.8-3.7,14.5-2.4c0.5,0.1,1.1,0.3,1.6,0.6c0.2,0.1,0.4,0.2,0.6,0.3h-5.1c-0.6,0-1.1,0.5-1.1,1.1s0.5,1.1,1.1,1.1h9.2l0,0
		C478.9,158,484.8,158.2,487.6,159.5z"/>
</g>
<g id="XMLID_334_">
	<path id="XMLID_335_" class="st0" d="M526.4,156.4v5.4c0,0.4,0.2,0.8,0.6,1l4,1.9c0.1,0,0.2,0.1,0.3,0.1c0.4,1.5,1.8,2.6,3.5,2.6
		c1.6,0,3-1.1,3.5-2.6H555c0.5,1.5,1.8,2.6,3.5,2.6c1.6,0,3-1.1,3.5-2.5h1.8l0,0c0.5,0,0.9-0.3,1-0.8l1.1-4.8
		c0.1-0.4-0.1-0.9-0.4-1.1c-3.1-2.2-10.7-2.2-12.5-2.2c-0.6-0.3-2-1.2-3.9-2.2c-0.7-0.4-1.4-0.7-2.1-0.8c-5.9-1.4-14.2,1.9-15.6,2.5
		h-1.6l-0.9-0.4c-0.5-0.2-1.1-0.2-1.6,0.1C526.7,155.3,526.4,155.9,526.4,156.4z M534.8,165.2c-0.8,0-1.5-0.7-1.5-1.5
		s0.7-1.5,1.5-1.5s1.5,0.7,1.5,1.5S535.6,165.2,534.8,165.2z M558.4,162.3c0.8,0,1.5,0.7,1.5,1.5s-0.7,1.5-1.5,1.5
		c-0.8,0-1.5-0.7-1.5-1.5S557.6,162.3,558.4,162.3z M563.6,159.5l-0.8,3.2h-1c-0.5-1.5-1.8-2.5-3.5-2.5c-1.6,0-3,1.1-3.5,2.5h-16.7
		c-0.5-1.5-1.8-2.5-3.4-2.5c-1.6,0-2.9,1-3.4,2.4l-2.9-1.3v-4l0.5,0.2c0.1,0.1,0.3,0.1,0.5,0.1h2c0.1,0,0.3,0,0.4-0.1
		c0.1,0,8.8-3.7,14.5-2.4c0.5,0.1,1.1,0.3,1.6,0.6c0.2,0.1,0.4,0.2,0.6,0.3h-5.1c-0.6,0-1.1,0.5-1.1,1.1s0.5,1.1,1.1,1.1h9.2l0,0
		C554.9,158,560.8,158.2,563.6,159.5z"/>
</g>
<g id="XMLID_328_">
	<path id="XMLID_329_" class="st0" d="M603,156.4v5.4c0,0.4,0.2,0.8,0.6,1l4,1.9c0.1,0,0.2,0.1,0.3,0.1c0.4,1.5,1.8,2.6,3.5,2.6
		c1.6,0,3-1.1,3.5-2.6h16.7c0.5,1.5,1.8,2.6,3.5,2.6c1.6,0,3-1.1,3.5-2.5h1.8l0,0c0.5,0,0.9-0.3,1-0.8l1.1-4.8
		c0.1-0.4-0.1-0.9-0.4-1.1c-3.1-2.2-10.7-2.2-12.5-2.2c-0.6-0.3-2-1.2-3.9-2.2c-0.7-0.4-1.4-0.7-2.1-0.8c-5.9-1.4-14.2,1.9-15.6,2.5
		h-1.6l-0.9-0.4c-0.5-0.2-1.1-0.2-1.6,0.1C603.2,155.3,603,155.9,603,156.4z M611.3,165.2c-0.8,0-1.5-0.7-1.5-1.5s0.7-1.5,1.5-1.5
		s1.5,0.7,1.5,1.5S612.2,165.2,611.3,165.2z M635,162.3c0.8,0,1.5,0.7,1.5,1.5s-0.7,1.5-1.5,1.5s-1.5-0.7-1.5-1.5
		S634.1,162.3,635,162.3z M640.2,159.5l-0.8,3.2h-1c-0.5-1.5-1.8-2.5-3.5-2.5c-1.6,0-3,1.1-3.5,2.5h-16.7c-0.5-1.5-1.8-2.5-3.4-2.5
		c-1.6,0-2.9,1-3.4,2.4l-2.9-1.3v-4l0.5,0.2c0.1,0.1,0.3,0.1,0.5,0.1h2c0.1,0,0.3,0,0.4-0.1c0.1,0,8.8-3.7,14.5-2.4
		c0.5,0.1,1.1,0.3,1.6,0.6c0.2,0.1,0.4,0.2,0.6,0.3H620c-0.6,0-1.1,0.5-1.1,1.1s0.5,1.1,1.1,1.1h9.2l0,0
		C631.5,158,637.4,158.2,640.2,159.5z"/>
</g>
<g id="XMLID_102_">
	<path id="XMLID_103_" class="st0" d="M679,156.4v5.4c0,0.4,0.2,0.8,0.6,1l4,1.9c0.1,0,0.2,0.1,0.3,0.1c0.4,1.5,1.8,2.6,3.5,2.6
		c1.6,0,3-1.1,3.5-2.6h16.7c0.5,1.5,1.8,2.6,3.5,2.6c1.6,0,3-1.1,3.5-2.5h1.8l0,0c0.5,0,0.9-0.3,1-0.8l1.1-4.8
		c0.1-0.4-0.1-0.9-0.4-1.1c-3.1-2.2-10.7-2.2-12.5-2.2c-0.6-0.3-2-1.2-3.9-2.2c-0.7-0.4-1.4-0.7-2.1-0.8c-5.9-1.4-14.2,1.9-15.6,2.5
		h-1.6l-0.9-0.4c-0.5-0.2-1.1-0.2-1.6,0.1C679.2,155.3,679,155.9,679,156.4z M687.3,165.2c-0.8,0-1.5-0.7-1.5-1.5s0.7-1.5,1.5-1.5
		s1.5,0.7,1.5,1.5S688.2,165.2,687.3,165.2z M711,162.3c0.8,0,1.5,0.7,1.5,1.5s-0.7,1.5-1.5,1.5s-1.5-0.7-1.5-1.5
		S710.1,162.3,711,162.3z M716.1,159.5l-0.8,3.2h-1c-0.5-1.5-1.8-2.5-3.5-2.5c-1.6,0-3,1.1-3.5,2.5h-16.7c-0.5-1.5-1.8-2.5-3.4-2.5
		c-1.6,0-2.9,1-3.4,2.4l-2.9-1.3v-4l0.5,0.2c0.1,0.1,0.3,0.1,0.5,0.1h2c0.1,0,0.3,0,0.4-0.1c0.1,0,8.8-3.7,14.5-2.4
		c0.5,0.1,1.1,0.3,1.6,0.6c0.2,0.1,0.4,0.2,0.6,0.3h-5.1c-0.6,0-1.1,0.5-1.1,1.1s0.5,1.1,1.1,1.1h9.2l0,0
		C707.4,158,713.4,158.2,716.1,159.5z"/>
</g>
<path class="st0" d="M470.2,270c-16,0-29.1-13.1-29.1-29.1s13.1-29.1,29.1-29.1c16,0,29.1,13.1,29.1,29.1S486.2,270,470.2,270z
	 M470.2,213.8c-14.9,0-27.1,12.2-27.1,27.1c0,14.9,12.2,27.1,27.1,27.1s27.1-12.2,27.1-27.1C497.3,226,485.1,213.8,470.2,213.8z"/>
<path class="st0" d="M546.4,270c-16,0-29.1-13.1-29.1-29.1s13.1-29.1,29.1-29.1s29.1,13.1,29.1,29.1S562.4,270,546.4,270z
	 M546.4,213.8c-14.9,0-27.1,12.2-27.1,27.1c0,14.9,12.2,27.1,27.1,27.1c14.9,0,27.1-12.2,27.1-27.1
	C573.5,226,561.3,213.8,546.4,213.8z"/>
<path class="st0" d="M622.7,270c-16,0-29.1-13.1-29.1-29.1s13.1-29.1,29.1-29.1s29.1,13.1,29.1,29.1S638.7,270,622.7,270z
	 M622.7,213.8c-14.9,0-27.1,12.2-27.1,27.1c0,14.9,12.2,27.1,27.1,27.1c14.9,0,27.1-12.2,27.1-27.1
	C649.8,226,637.6,213.8,622.7,213.8z"/>
<path class="st0" d="M698.7,270c-16,0-29.1-13.1-29.1-29.1s13.1-29.1,29.1-29.1s29.1,13.1,29.1,29.1S714.7,270,698.7,270z
	 M698.7,213.8c-14.9,0-27.1,12.2-27.1,27.1c0,14.9,12.2,27.1,27.1,27.1c14.9,0,27.1-12.2,27.1-27.1
	C725.8,226,713.6,213.8,698.7,213.8z"/>
<path class="st0" d="M393.9,270c-16,0-29.1-13.1-29.1-29.1s13.1-29.1,29.1-29.1s29.1,13.1,29.1,29.1S409.9,270,393.9,270z
	 M393.9,213.8c-14.9,0-27.1,12.2-27.1,27.1c0,14.9,12.2,27.1,27.1,27.1s27.1-12.2,27.1-27.1C421,226,408.8,213.8,393.9,213.8z"/>
<g id="XMLID_452_">
	<path id="XMLID_453_" class="st0" d="M414.3,241.7l-0.5-2.3c-0.1-0.4-0.4-0.7-0.8-0.7l-4.9-0.6c-1.5-1.1-3.9-2.8-4.1-3
		c-0.6-0.5-1.4-0.8-2.1-0.8h-15.4c-1.1,0-2.2,0.2-3.3,0.6c-0.8,0.3-1.6,0.7-2.3,1.2l-2.8,1.9c-0.1,0-0.1,0.1-0.2,0.1h-1.3
		c-1.1,0-2.1,0.7-2.4,1.7l-0.6,1.8c-0.2,0.6-0.2,1.3,0,1.9c0.5,1.2,1.6,1.9,2.8,1.9h1.4c0.4,1.2,1.6,2.1,3,2.1c1.4,0,2.5-0.9,3-2.1
		h20.5c0.4,1.2,1.6,2.1,3,2.1c1.4,0,2.5-0.9,3-2.1h1.1c1.3,0,2.4-0.8,2.9-2C414.4,242.8,414.4,242.3,414.3,241.7z M412.4,242.7
		c-0.1,0.4-0.6,0.7-1,0.7h-1.1c-0.4-1.2-1.6-2.1-3-2.1c-1.4,0-2.5,0.9-3,2.1h-20.5c-0.4-1.2-1.6-2.1-3-2.1c-1.4,0-2.5,0.9-3,2.1
		h-1.3c-0.4,0-0.8-0.3-1-0.7c-0.1-0.2-0.1-0.4,0-0.6l0.6-1.8c0.1-0.3,0.3-0.4,0.6-0.4h30.8l4.4,0.6l0.4,1.7
		C412.4,242.3,412.4,242.5,412.4,242.7z M408.5,244.4c0,0.6-0.5,1.2-1.2,1.2c-0.6,0-1.2-0.5-1.2-1.2c0-0.6,0.5-1.2,1.2-1.2
		C408,243.2,408.5,243.7,408.5,244.4z M382.1,244.4c0,0.6-0.5,1.2-1.2,1.2c-0.6,0-1.2-0.5-1.2-1.2c0-0.6,0.5-1.2,1.2-1.2
		C381.5,243.2,382.1,243.7,382.1,244.4z M391.5,236.2v1.8h-4v-1.8H391.5z M397.5,236.2v1.8h-4v-1.8H397.5z M399.4,238v-1.8h2.4
		c0.3,0,0.6,0.1,0.9,0.3c0.1,0.1,1,0.8,2,1.5H399.4L399.4,238z M385.6,236.3v1.7h-4.1l0.6-0.4c0.6-0.4,1.2-0.7,1.8-0.9
		C384.4,236.4,385,236.3,385.6,236.3z"/>
</g>
<g id="XMLID_408_">
	<path id="XMLID_409_" class="st0" d="M490.5,237.9l-0.5-2.3c-0.1-0.4-0.4-0.7-0.8-0.7l-4.9-0.6c-1.5-1.1-3.9-2.8-4.1-3
		c-0.6-0.5-1.4-0.8-2.1-0.8h-15.3c-1.1,0-2.2,0.2-3.3,0.6c-0.8,0.3-1.6,0.7-2.3,1.2l-2.8,1.9c-0.1,0-0.1,0.1-0.2,0.1h-1.3
		c-1.1,0-2.1,0.7-2.4,1.7l-0.6,1.8c-0.2,0.6-0.2,1.3,0,1.9c0.5,1.2,1.6,1.9,2.8,1.9h1.4c0.4,1.2,1.6,2.1,3,2.1s2.5-0.9,3-2.1h20.5
		c0.4,1.2,1.6,2.1,3,2.1s2.5-0.9,3-2.1h1.1c1.3,0,2.4-0.8,2.9-2C490.6,239,490.6,238.5,490.5,237.9z M488.6,238.9
		c-0.1,0.4-0.6,0.7-1,0.7h-1.1c-0.4-1.2-1.6-2.1-3-2.1s-2.5,0.9-3,2.1H460c-0.4-1.2-1.6-2.1-3-2.1s-2.5,0.9-3,2.1h-1.4
		c-0.4,0-0.8-0.3-1-0.7c-0.1-0.2-0.1-0.4,0-0.6l0.6-1.8c0.1-0.3,0.3-0.4,0.6-0.4h30.8l4.4,0.6l0.4,1.7
		C488.7,238.5,488.7,238.7,488.6,238.9z M484.7,240.6c0,0.6-0.5,1.2-1.2,1.2c-0.6,0-1.2-0.5-1.2-1.2c0-0.6,0.5-1.2,1.2-1.2
		C484.2,239.4,484.7,239.9,484.7,240.6z M458.3,240.6c0,0.6-0.5,1.2-1.2,1.2c-0.6,0-1.2-0.5-1.2-1.2c0-0.6,0.5-1.2,1.2-1.2
		C457.8,239.4,458.3,239.9,458.3,240.6z M467.8,232.4v1.8h-4v-1.8H467.8z M473.7,232.4v1.8h-4v-1.8H473.7z M475.7,234.2v-1.8h2.4
		c0.3,0,0.6,0.1,0.9,0.3c0.1,0.1,1,0.8,2,1.5H475.7L475.7,234.2z M461.8,232.5v1.7h-4.1l0.6-0.4c0.6-0.4,1.2-0.7,1.8-0.9
		C460.7,232.7,461.2,232.5,461.8,232.5z"/>
</g>
<g id="XMLID_402_">
	<path id="XMLID_403_" class="st0" d="M566.8,237.9l-0.5-2.3c-0.1-0.4-0.4-0.7-0.8-0.7l-4.9-0.6c-1.5-1.1-3.9-2.8-4.1-3
		c-0.6-0.5-1.4-0.8-2.1-0.8h-15.3c-1.1,0-2.2,0.2-3.3,0.6c-0.8,0.3-1.6,0.7-2.3,1.2l-2.8,1.9c-0.1,0-0.1,0.1-0.2,0.1h-1.3
		c-1.1,0-2.1,0.7-2.4,1.7l-0.6,1.8c-0.2,0.6-0.2,1.3,0,1.9c0.5,1.2,1.6,1.9,2.8,1.9h1.4c0.4,1.2,1.6,2.1,3,2.1c1.4,0,2.5-0.9,3-2.1
		h20.5c0.4,1.2,1.6,2.1,3,2.1c1.4,0,2.5-0.9,3-2.1h1.1c1.3,0,2.4-0.8,2.9-2C566.9,239,566.9,238.5,566.8,237.9z M564.9,238.9
		c-0.1,0.4-0.6,0.7-1,0.7h-1.1c-0.4-1.2-1.6-2.1-3-2.1c-1.4,0-2.5,0.9-3,2.1h-20.5c-0.4-1.2-1.6-2.1-3-2.1c-1.4,0-2.5,0.9-3,2.1
		h-1.4c-0.4,0-0.8-0.3-1-0.7c-0.1-0.2-0.1-0.4,0-0.6l0.6-1.8c0.1-0.3,0.3-0.4,0.6-0.4h30.8l4.4,0.6l0.4,1.7
		C564.9,238.5,564.9,238.7,564.9,238.9z M561,240.6c0,0.6-0.5,1.2-1.2,1.2c-0.6,0-1.2-0.5-1.2-1.2c0-0.6,0.5-1.2,1.2-1.2
		C560.5,239.4,561,239.9,561,240.6z M534.6,240.6c0,0.6-0.5,1.2-1.2,1.2c-0.6,0-1.2-0.5-1.2-1.2c0-0.6,0.5-1.2,1.2-1.2
		C534,239.4,534.6,239.9,534.6,240.6z M544,232.4v1.8h-4v-1.8H544z M550,232.4v1.8h-4v-1.8H550z M551.9,234.2v-1.8h2.4
		c0.3,0,0.6,0.1,0.9,0.3c0.1,0.1,1,0.8,2,1.5H551.9L551.9,234.2z M538.1,232.5v1.7H534l0.6-0.4c0.6-0.4,1.2-0.7,1.8-0.9
		C536.9,232.7,537.5,232.5,538.1,232.5z"/>
</g>
<g id="XMLID_396_">
	<path id="XMLID_397_" class="st0" d="M643,237.9l-0.5-2.3c-0.1-0.4-0.4-0.7-0.8-0.7l-4.9-0.6c-1.5-1.1-3.9-2.8-4.1-3
		c-0.6-0.5-1.4-0.8-2.1-0.8h-15.3c-1.1,0-2.2,0.2-3.3,0.6c-0.8,0.3-1.6,0.7-2.3,1.2l-2.8,1.9c-0.1,0-0.1,0.1-0.2,0.1h-1.2
		c-1.1,0-2.1,0.7-2.4,1.7l-0.6,1.8c-0.2,0.6-0.2,1.3,0,1.9c0.5,1.2,1.6,1.9,2.8,1.9h1.4c0.4,1.2,1.6,2.1,3,2.1c1.4,0,2.5-0.9,3-2.1
		h20.5c0.4,1.2,1.6,2.1,3,2.1c1.4,0,2.5-0.9,3-2.1h1.1c1.3,0,2.4-0.8,2.9-2C643,239,643.1,238.5,643,237.9z M641,238.9
		c-0.1,0.4-0.6,0.7-1,0.7h-1.1c-0.4-1.2-1.6-2.1-3-2.1c-1.4,0-2.5,0.9-3,2.1h-20.4c-0.4-1.2-1.6-2.1-3-2.1s-2.5,0.9-3,2.1h-1.4
		c-0.4,0-0.8-0.3-1-0.7c-0.1-0.2-0.1-0.4,0-0.6l0.6-1.8c0.1-0.3,0.3-0.4,0.6-0.4h30.8l4.4,0.6l0.4,1.7
		C641.1,238.5,641.1,238.7,641,238.9z M637.2,240.6c0,0.6-0.5,1.2-1.2,1.2c-0.6,0-1.2-0.5-1.2-1.2c0-0.6,0.5-1.2,1.2-1.2
		C636.6,239.4,637.2,239.9,637.2,240.6z M610.7,240.6c0,0.6-0.5,1.2-1.2,1.2c-0.6,0-1.2-0.5-1.2-1.2c0-0.6,0.5-1.2,1.2-1.2
		C610.2,239.4,610.7,239.9,610.7,240.6z M620.2,232.4v1.8h-4v-1.8H620.2z M626.2,232.4v1.8h-4v-1.8H626.2z M628.1,234.2v-1.8h2.4
		c0.3,0,0.6,0.1,0.9,0.3c0.1,0.1,1,0.8,2,1.5H628.1L628.1,234.2z M614.2,232.5v1.7h-4.1l0.6-0.4c0.6-0.4,1.2-0.7,1.8-0.9
		C613.1,232.7,613.7,232.5,614.2,232.5z"/>
</g>
<g id="XMLID_390_">
	<path id="XMLID_391_" class="st0" d="M719,237.9l-0.5-2.3c-0.1-0.4-0.4-0.7-0.8-0.7l-4.9-0.6c-1.5-1.1-3.9-2.8-4.1-3
		c-0.6-0.5-1.4-0.8-2.1-0.8h-15.3c-1.1,0-2.2,0.2-3.3,0.6c-0.8,0.3-1.6,0.7-2.3,1.2l-2.8,1.9c-0.1,0-0.1,0.1-0.2,0.1h-1.3
		c-1.1,0-2.1,0.7-2.4,1.7l-0.6,1.8c-0.2,0.6-0.2,1.3,0,1.9c0.5,1.2,1.6,1.9,2.8,1.9h1.4c0.4,1.2,1.6,2.1,3,2.1c1.4,0,2.5-0.9,3-2.1
		h20.5c0.4,1.2,1.6,2.1,3,2.1s2.5-0.9,3-2.1h1.1c1.3,0,2.4-0.8,2.9-2C719.1,239,719.2,238.5,719,237.9z M717.1,238.9
		c-0.1,0.4-0.6,0.7-1,0.7H715c-0.4-1.2-1.6-2.1-3-2.1s-2.5,0.9-3,2.1h-20.5c-0.4-1.2-1.6-2.1-3-2.1s-2.5,0.9-3,2.1h-1.4
		c-0.4,0-0.8-0.3-1-0.7c-0.1-0.2-0.1-0.4,0-0.6l0.6-1.8c0.1-0.3,0.3-0.4,0.6-0.4h30.8l4.4,0.6l0.4,1.7
		C717.2,238.5,717.2,238.7,717.1,238.9z M713.3,240.6c0,0.6-0.5,1.2-1.2,1.2c-0.6,0-1.2-0.5-1.2-1.2c0-0.6,0.5-1.2,1.2-1.2
		C712.7,239.4,713.3,239.9,713.3,240.6z M686.8,240.6c0,0.6-0.5,1.2-1.2,1.2c-0.6,0-1.2-0.5-1.2-1.2c0-0.6,0.5-1.2,1.2-1.2
		C686.3,239.4,686.8,239.9,686.8,240.6z M696.3,232.4v1.8h-4v-1.8H696.3z M702.3,232.4v1.8h-4v-1.8H702.3z M704.2,234.2v-1.8h2.4
		c0.3,0,0.6,0.1,0.9,0.3c0.1,0.1,1,0.8,2,1.5H704.2L704.2,234.2z M690.3,232.5v1.7h-4.1l0.6-0.4c0.6-0.4,1.2-0.7,1.8-0.9
		C689.2,232.7,689.8,232.5,690.3,232.5z"/>
</g>
<g>
	<g>
		<path class="st0" d="M467.6-121.8c-0.2,0-0.4-0.1-0.6-0.2c-0.3-0.2-0.5-0.6-0.4-1l0.4-2.4l-1.7-1.7c-0.3-0.3-0.4-0.7-0.3-1
			c0.1-0.4,0.4-0.6,0.8-0.7l2.4-0.4l1.1-2.2c0.2-0.3,0.5-0.6,0.9-0.6l0,0c0.4,0,0.7,0.2,0.9,0.6l1.1,2.2l2.4,0.3
			c0.4,0.1,0.7,0.3,0.8,0.7s0,0.8-0.3,1l-1.7,1.7l0.4,2.4c0.1,0.4-0.1,0.8-0.4,1c-0.3,0.2-0.7,0.3-1.1,0.1l-2.1-1.1l-2.1,1.1
			C468-121.8,467.8-121.8,467.6-121.8z M468.2-127l0.5,0.5c0.3,0.3,0.4,0.7,0.4,1.1l-0.1,0.8l0.7-0.4c0.4-0.2,0.8-0.2,1.2,0l0.7,0.3
			l-0.1-0.7c-0.1-0.4,0.1-0.8,0.4-1.1l0.5-0.5l-0.8-0.1c-0.4-0.1-0.8-0.3-1-0.7l-0.3-0.7l-0.3,0.7c-0.2,0.4-0.5,0.6-1,0.7L468.2-127
			z"/>
	</g>
	<g>
		<path class="st0" d="M537.1-121.8c-0.2,0-0.4-0.1-0.6-0.2c-0.3-0.2-0.5-0.6-0.4-1l0.4-2.4l-1.7-1.7c-0.3-0.3-0.4-0.7-0.3-1
			c0.1-0.4,0.4-0.6,0.8-0.7l2.4-0.4l1.1-2.2c0.2-0.3,0.5-0.6,0.9-0.6l0,0c0.4,0,0.7,0.2,0.9,0.6l1.1,2.2l2.4,0.3
			c0.4,0.1,0.7,0.3,0.8,0.7c0.1,0.4,0,0.8-0.3,1l-1.7,1.7l0.4,2.4c0.1,0.4-0.1,0.8-0.4,1c-0.3,0.2-0.7,0.3-1.1,0.1l-2.1-1.1
			l-2.1,1.1C537.5-121.8,537.3-121.8,537.1-121.8z M537.7-127l0.5,0.5c0.3,0.3,0.4,0.7,0.4,1.1l-0.1,0.8l0.7-0.4
			c0.4-0.2,0.8-0.2,1.2,0l0.7,0.3l-0.1-0.7c-0.1-0.4,0.1-0.8,0.4-1.1l0.5-0.5l-0.8-0.1c-0.4-0.1-0.8-0.3-1-0.7l-0.3-0.7l-0.3,0.7
			c-0.2,0.4-0.5,0.6-1,0.7L537.7-127z"/>
	</g>
	<g>
		<path class="st0" d="M550.6-121.8c-0.2,0-0.4-0.1-0.6-0.2c-0.3-0.2-0.5-0.6-0.4-1l0.4-2.4l-1.7-1.7c-0.3-0.3-0.4-0.7-0.3-1
			c0.1-0.4,0.4-0.6,0.8-0.7l2.4-0.4l1.1-2.2c0.2-0.3,0.5-0.6,0.9-0.6l0,0c0.4,0,0.7,0.2,0.9,0.6l1.1,2.2l2.4,0.3
			c0.4,0.1,0.7,0.3,0.8,0.7c0.1,0.4,0,0.8-0.3,1l-1.7,1.7l0.4,2.4c0.1,0.4-0.1,0.8-0.4,1c-0.3,0.2-0.7,0.3-1.1,0.1l-2.1-1.1
			l-2.1,1.1C550.9-121.8,550.8-121.8,550.6-121.8z M551.1-127l0.5,0.5c0.3,0.3,0.4,0.7,0.4,1.1l-0.1,0.8l0.7-0.4
			c0.4-0.2,0.8-0.2,1.2,0l0.7,0.3l-0.1-0.7c-0.1-0.4,0.1-0.8,0.4-1.1l0.5-0.5l-0.8-0.1c-0.4-0.1-0.8-0.3-1-0.7l-0.3-0.7l-0.3,0.7
			c-0.2,0.4-0.5,0.6-1,0.7L551.1-127z"/>
	</g>
	<g>
		<path class="st0" d="M608.7-121.8c-0.2,0-0.4-0.1-0.6-0.2c-0.3-0.2-0.5-0.6-0.4-1l0.4-2.4l-1.7-1.7c-0.3-0.3-0.4-0.7-0.3-1
			c0.1-0.4,0.4-0.6,0.8-0.7l2.4-0.4l1.1-2.2c0.2-0.3,0.5-0.6,0.9-0.6l0,0c0.4,0,0.7,0.2,0.9,0.6l1.1,2.2l2.4,0.3
			c0.4,0.1,0.7,0.3,0.8,0.7c0.1,0.4,0,0.8-0.3,1l-1.7,1.7l0.4,2.4c0.1,0.4-0.1,0.8-0.4,1c-0.3,0.2-0.7,0.3-1.1,0.1l-2.1-1.1
			l-2.1,1.1C609-121.8,608.9-121.8,608.7-121.8z M609.2-127l0.5,0.5c0.3,0.3,0.4,0.7,0.4,1.1l-0.1,0.8l0.7-0.4
			c0.4-0.2,0.8-0.2,1.2,0l0.7,0.3l-0.1-0.7c-0.1-0.4,0.1-0.8,0.4-1.1l0.5-0.5l-0.8-0.1c-0.4-0.1-0.8-0.3-1-0.7l-0.3-0.7l-0.3,0.7
			c-0.2,0.4-0.5,0.6-1,0.7L609.2-127z"/>
	</g>
	<g>
		<path class="st0" d="M631.6-121.8c-0.2,0-0.4-0.1-0.6-0.2c-0.3-0.2-0.5-0.6-0.4-1l0.4-2.4l-1.7-1.7c-0.3-0.3-0.4-0.7-0.3-1
			c0.1-0.4,0.4-0.6,0.8-0.7l2.4-0.4l1.1-2.2c0.2-0.3,0.5-0.6,0.9-0.6l0,0c0.4,0,0.7,0.2,0.9,0.6l1.1,2.2l2.4,0.3
			c0.4,0.1,0.7,0.3,0.8,0.7c0.1,0.4,0,0.8-0.3,1l-1.7,1.7l0.4,2.4c0.1,0.4-0.1,0.8-0.4,1c-0.3,0.2-0.7,0.3-1.1,0.1l-2.1-1.1
			l-2.1,1.1C631.9-121.8,631.8-121.8,631.6-121.8z M632.1-127l0.5,0.5c0.3,0.3,0.4,0.7,0.4,1.1l-0.1,0.8l0.7-0.4
			c0.4-0.2,0.8-0.2,1.2,0l0.7,0.3l-0.1-0.7c-0.1-0.4,0.1-0.8,0.4-1.1l0.5-0.5l-0.8-0.1c-0.4-0.1-0.8-0.3-1-0.7l-0.3-0.7l-0.3,0.7
			c-0.2,0.4-0.5,0.6-1,0.7L632.1-127z"/>
	</g>
	<g>
		<path class="st0" d="M686.2-121.8c-0.2,0-0.4-0.1-0.6-0.2c-0.3-0.2-0.5-0.6-0.4-1l0.4-2.4l-1.7-1.7c-0.3-0.3-0.4-0.7-0.3-1
			c0.1-0.4,0.4-0.6,0.8-0.7l2.4-0.4l1.1-2.2c0.2-0.3,0.5-0.6,0.9-0.6l0,0c0.4,0,0.7,0.2,0.9,0.6l1.1,2.2l2.4,0.3
			c0.4,0.1,0.7,0.3,0.8,0.7c0.1,0.4,0,0.8-0.3,1l-1.7,1.7l0.4,2.4c0.1,0.4-0.1,0.8-0.4,1c-0.3,0.2-0.7,0.3-1.1,0.1l-2.1-1.1
			l-2.1,1.1C686.6-121.8,686.4-121.8,686.2-121.8z M686.8-127l0.5,0.5c0.3,0.3,0.4,0.7,0.4,1.1l-0.1,0.8l0.7-0.4
			c0.4-0.2,0.8-0.2,1.2,0l0.7,0.3l-0.1-0.7c-0.1-0.4,0.1-0.8,0.4-1.1l0.5-0.5l-0.8-0.1c-0.4-0.1-0.8-0.3-1-0.7l-0.3-0.7l-0.3,0.7
			c-0.2,0.4-0.5,0.6-1,0.7L686.8-127z"/>
	</g>
	<g>
		<path class="st0" d="M706-121.8c-0.2,0-0.4-0.1-0.6-0.2c-0.3-0.2-0.5-0.6-0.4-1l0.4-2.4l-1.7-1.7c-0.3-0.3-0.4-0.7-0.3-1
			c0.1-0.4,0.4-0.6,0.8-0.7l2.4-0.4l1.1-2.2c0.2-0.3,0.5-0.6,0.9-0.6l0,0c0.4,0,0.7,0.2,0.9,0.6l1.1,2.2l2.4,0.3
			c0.4,0.1,0.7,0.3,0.8,0.7s0,0.8-0.3,1l-1.7,1.7l0.4,2.4c0.1,0.4-0.1,0.8-0.4,1s-0.7,0.3-1.1,0.1l-2.1-1.1l-2.1,1.1
			C706.3-121.8,706.2-121.8,706-121.8z M706.5-127l0.5,0.5c0.3,0.3,0.4,0.7,0.4,1.1l-0.1,0.8l0.7-0.4c0.4-0.2,0.8-0.2,1.2,0l0.7,0.3
			l-0.1-0.7c-0.1-0.4,0.1-0.8,0.4-1.1l0.5-0.5l-0.8-0.1c-0.4-0.1-0.8-0.3-1-0.7l-0.3-0.7l-0.3,0.7c-0.2,0.4-0.5,0.6-1,0.7L706.5-127
			z"/>
	</g>
	<g>
		<path class="st0" d="M696.1-126.9c-0.2,0-0.4-0.1-0.6-0.2c-0.3-0.2-0.5-0.6-0.4-1l0.4-2.4l-1.7-1.7c-0.3-0.3-0.4-0.7-0.3-1
			c0.1-0.4,0.4-0.6,0.8-0.7l2.4-0.4l1.1-2.2c0.2-0.3,0.5-0.6,0.9-0.6l0,0c0.4,0,0.7,0.2,0.9,0.6l1.1,2.2l2.4,0.3
			c0.4,0.1,0.7,0.3,0.8,0.7c0.1,0.4,0,0.8-0.3,1l-1.7,1.7l0.4,2.4c0.1,0.4-0.1,0.8-0.4,1c-0.3,0.2-0.7,0.3-1.1,0.1l-2.1-1.1
			l-2.1,1.1C696.4-127,696.3-126.9,696.1-126.9z M696.6-132.2l0.5,0.5c0.3,0.3,0.4,0.7,0.4,1.1l-0.1,0.8l0.7-0.4
			c0.4-0.2,0.8-0.2,1.2,0l0.7,0.3l-0.1-0.7c-0.1-0.4,0.1-0.8,0.4-1.1l0.5-0.5l-0.8-0.1c-0.4-0.1-0.8-0.3-1-0.7l-0.3-0.7l-0.3,0.7
			c-0.2,0.4-0.5,0.6-1,0.7L696.6-132.2z"/>
	</g>
	<g>
		<path class="st0" d="M696.1-117.1c-0.2,0-0.4-0.1-0.6-0.2c-0.3-0.2-0.5-0.6-0.4-1l0.4-2.4l-1.7-1.7c-0.3-0.3-0.4-0.7-0.3-1
			c0.1-0.4,0.4-0.6,0.8-0.7l2.4-0.4l1.1-2.2c0.2-0.3,0.5-0.6,0.9-0.6l0,0c0.4,0,0.7,0.2,0.9,0.6l1.1,2.2l2.4,0.3
			c0.4,0.1,0.7,0.3,0.8,0.7c0.1,0.4,0,0.8-0.3,1l-1.7,1.7l0.4,2.4c0.1,0.4-0.1,0.8-0.4,1c-0.3,0.2-0.7,0.3-1.1,0.1l-2.1-1.1
			l-2.1,1.1C696.4-117.1,696.3-117.1,696.1-117.1z M696.6-122.3l0.5,0.5c0.3,0.3,0.4,0.7,0.4,1.1l-0.1,0.8l0.7-0.4
			c0.4-0.2,0.8-0.2,1.2,0l0.7,0.3l-0.1-0.7c-0.1-0.4,0.1-0.8,0.4-1.1l0.5-0.5l-0.8-0.1c-0.4-0.1-0.8-0.3-1-0.7l-0.3-0.7l-0.3,0.7
			c-0.2,0.4-0.5,0.6-1,0.7L696.6-122.3z"/>
	</g>
	<g>
		<path class="st0" d="M620.1-118.5c-0.2,0-0.4-0.1-0.6-0.2c-0.3-0.2-0.5-0.6-0.4-1l0.4-2.4l-1.7-1.7c-0.3-0.3-0.4-0.7-0.3-1
			c0.1-0.4,0.4-0.6,0.8-0.7l2.4-0.4l1.1-2.2c0.2-0.3,0.5-0.6,0.9-0.6l0,0c0.4,0,0.7,0.2,0.9,0.6l1.1,2.2l2.4,0.3
			c0.4,0.1,0.7,0.3,0.8,0.7c0.1,0.4,0,0.8-0.3,1l-1.7,1.7l0.4,2.4c0.1,0.4-0.1,0.8-0.4,1c-0.3,0.2-0.7,0.3-1.1,0.1l-2.1-1.1
			l-2.1,1.1C620.4-118.6,620.3-118.5,620.1-118.5z M620.6-123.8l0.5,0.5c0.3,0.3,0.4,0.7,0.4,1.1l-0.1,0.8l0.7-0.4
			c0.4-0.2,0.8-0.2,1.2,0l0.7,0.3l-0.1-0.7c-0.1-0.4,0.1-0.8,0.4-1.1l0.5-0.5l-0.8-0.1c-0.4-0.1-0.8-0.3-1-0.7l-0.3-0.7l-0.3,0.7
			c-0.2,0.4-0.5,0.6-1,0.7L620.6-123.8z"/>
	</g>
</g>
<g>
	<g>
		<path class="st0" d="M467.6-44.6c-0.2,0-0.4-0.1-0.6-0.2c-0.3-0.2-0.5-0.6-0.4-1l0.4-2.4l-1.7-1.7c-0.3-0.3-0.4-0.7-0.3-1
			c0.1-0.4,0.4-0.6,0.8-0.7l2.4-0.4l1.1-2.2c0.2-0.3,0.5-0.6,0.9-0.6l0,0c0.4,0,0.7,0.2,0.9,0.6l1.1,2.2l2.4,0.3
			c0.4,0.1,0.7,0.3,0.8,0.7s0,0.8-0.3,1l-1.7,1.7l0.4,2.4c0.1,0.4-0.1,0.8-0.4,1c-0.3,0.2-0.7,0.3-1.1,0.1l-2.1-1.1l-2.1,1.1
			C468-44.7,467.8-44.6,467.6-44.6z M468.2-49.9l0.5,0.5c0.3,0.3,0.4,0.7,0.4,1.1l-0.1,0.8l0.7-0.4c0.4-0.2,0.8-0.2,1.2,0l0.7,0.3
			l-0.1-0.7c-0.1-0.4,0.1-0.8,0.4-1.1l0.5-0.5l-0.9-0.1c-0.4-0.1-0.8-0.3-1-0.7l-0.3-0.7l-0.3,0.7c-0.2,0.4-0.5,0.6-1,0.7
			L468.2-49.9z"/>
	</g>
	<g>
		<path class="st0" d="M537.1-44.6c-0.2,0-0.4-0.1-0.6-0.2c-0.3-0.2-0.5-0.6-0.4-1l0.4-2.4l-1.7-1.7c-0.3-0.3-0.4-0.7-0.3-1
			c0.1-0.4,0.4-0.6,0.8-0.7l2.4-0.4l1.1-2.2c0.2-0.3,0.5-0.6,0.9-0.6l0,0c0.4,0,0.7,0.2,0.9,0.6l1.1,2.2l2.4,0.3
			c0.4,0.1,0.7,0.3,0.8,0.7c0.1,0.4,0,0.8-0.3,1l-1.7,1.7l0.4,2.4c0.1,0.4-0.1,0.8-0.4,1c-0.3,0.2-0.7,0.3-1.1,0.1l-2.1-1.1
			l-2.1,1.1C537.5-44.7,537.3-44.6,537.1-44.6z M537.7-49.9l0.5,0.5c0.3,0.3,0.4,0.7,0.4,1.1l-0.1,0.8l0.7-0.4
			c0.4-0.2,0.8-0.2,1.2,0l0.7,0.3l-0.1-0.7c-0.1-0.4,0.1-0.8,0.4-1.1l0.5-0.5l-0.8-0.1c-0.4-0.1-0.8-0.3-1-0.7l-0.3-0.7l-0.3,0.7
			c-0.2,0.4-0.5,0.6-1,0.7L537.7-49.9z"/>
	</g>
	<g>
		<path class="st0" d="M550.6-44.6c-0.2,0-0.4-0.1-0.6-0.2c-0.3-0.2-0.5-0.6-0.4-1l0.4-2.4l-1.7-1.7c-0.3-0.3-0.4-0.7-0.3-1
			c0.1-0.4,0.4-0.6,0.8-0.7l2.4-0.4l1.1-2.2c0.2-0.3,0.5-0.6,0.9-0.6l0,0c0.4,0,0.7,0.2,0.9,0.6l1.1,2.2l2.4,0.3
			c0.4,0.1,0.7,0.3,0.8,0.7c0.1,0.4,0,0.8-0.3,1l-1.7,1.7l0.4,2.4c0.1,0.4-0.1,0.8-0.4,1c-0.3,0.2-0.7,0.3-1.1,0.1l-2.1-1.1
			l-2.1,1.1C550.9-44.7,550.8-44.6,550.6-44.6z M551.1-49.9l0.5,0.5c0.3,0.3,0.4,0.7,0.4,1.1l-0.1,0.8l0.7-0.4
			c0.4-0.2,0.8-0.2,1.2,0l0.7,0.3l-0.1-0.7c-0.1-0.4,0.1-0.8,0.4-1.1l0.5-0.5l-0.8-0.1c-0.4-0.1-0.8-0.3-1-0.7l-0.3-0.7l-0.3,0.7
			c-0.2,0.4-0.5,0.6-1,0.7L551.1-49.9z"/>
	</g>
	<g>
		<path class="st0" d="M608.7-44.6c-0.2,0-0.4-0.1-0.6-0.2c-0.3-0.2-0.5-0.6-0.4-1l0.4-2.4l-1.7-1.7c-0.3-0.3-0.4-0.7-0.3-1
			c0.1-0.4,0.4-0.6,0.8-0.7l2.4-0.4l1.1-2.2c0.2-0.3,0.5-0.6,0.9-0.6l0,0c0.4,0,0.7,0.2,0.9,0.6l1.1,2.2l2.4,0.3
			c0.4,0.1,0.7,0.3,0.8,0.7c0.1,0.4,0,0.8-0.3,1l-1.7,1.7l0.4,2.4c0.1,0.4-0.1,0.8-0.4,1c-0.3,0.2-0.7,0.3-1.1,0.1l-2.1-1.1
			l-2.1,1.1C609-44.7,608.9-44.6,608.7-44.6z M609.2-49.9l0.5,0.5c0.3,0.3,0.4,0.7,0.4,1.1l-0.1,0.8l0.7-0.4c0.4-0.2,0.8-0.2,1.2,0
			l0.7,0.3l-0.1-0.7c-0.1-0.4,0.1-0.8,0.4-1.1l0.5-0.5l-0.8-0.1c-0.4-0.1-0.8-0.3-1-0.7l-0.3-0.7l-0.3,0.7c-0.2,0.4-0.5,0.6-1,0.7
			L609.2-49.9z"/>
	</g>
	<g>
		<path class="st0" d="M631.6-44.6c-0.2,0-0.4-0.1-0.6-0.2c-0.3-0.2-0.5-0.6-0.4-1l0.4-2.4l-1.7-1.7c-0.3-0.3-0.4-0.7-0.3-1
			c0.1-0.4,0.4-0.6,0.8-0.7l2.4-0.4l1.1-2.2c0.2-0.3,0.5-0.6,0.9-0.6l0,0c0.4,0,0.7,0.2,0.9,0.6l1.1,2.2l2.4,0.3
			c0.4,0.1,0.7,0.3,0.8,0.7c0.1,0.4,0,0.8-0.3,1l-1.7,1.7l0.4,2.4c0.1,0.4-0.1,0.8-0.4,1c-0.3,0.2-0.7,0.3-1.1,0.1l-2.1-1.1
			l-2.1,1.1C631.9-44.7,631.8-44.6,631.6-44.6z M632.1-49.9l0.5,0.5c0.3,0.3,0.4,0.7,0.4,1.1l-0.1,0.8l0.7-0.4
			c0.4-0.2,0.8-0.2,1.2,0l0.7,0.3l-0.1-0.7c-0.1-0.4,0.1-0.8,0.4-1.1l0.5-0.5l-0.8-0.1c-0.4-0.1-0.8-0.3-1-0.7l-0.3-0.7l-0.3,0.7
			c-0.2,0.4-0.5,0.6-1,0.7L632.1-49.9z"/>
	</g>
	<g>
		<path class="st0" d="M686.2-44.6c-0.2,0-0.4-0.1-0.6-0.2c-0.3-0.2-0.5-0.6-0.4-1l0.4-2.4l-1.7-1.7c-0.3-0.3-0.4-0.7-0.3-1
			c0.1-0.4,0.4-0.6,0.8-0.7l2.4-0.4l1.1-2.2c0.2-0.3,0.5-0.6,0.9-0.6l0,0c0.4,0,0.7,0.2,0.9,0.6l1.1,2.2l2.4,0.3
			c0.4,0.1,0.7,0.3,0.8,0.7c0.1,0.4,0,0.8-0.3,1l-1.7,1.7l0.4,2.4c0.1,0.4-0.1,0.8-0.4,1c-0.3,0.2-0.7,0.3-1.1,0.1l-2.1-1.1
			l-2.1,1.1C686.6-44.7,686.4-44.6,686.2-44.6z M686.8-49.9l0.5,0.5c0.3,0.3,0.4,0.7,0.4,1.1l-0.1,0.8l0.7-0.4
			c0.4-0.2,0.8-0.2,1.2,0l0.7,0.3l-0.1-0.7c-0.1-0.4,0.1-0.8,0.4-1.1l0.5-0.5l-0.8-0.1c-0.4-0.1-0.8-0.3-1-0.7l-0.3-0.7l-0.3,0.7
			c-0.2,0.4-0.5,0.6-1,0.7L686.8-49.9z"/>
	</g>
	<g>
		<path class="st0" d="M706-44.6c-0.2,0-0.4-0.1-0.6-0.2c-0.3-0.2-0.5-0.6-0.4-1l0.4-2.4l-1.7-1.7c-0.3-0.3-0.4-0.7-0.3-1
			c0.1-0.4,0.4-0.6,0.8-0.7l2.4-0.4l1.1-2.2c0.2-0.3,0.5-0.6,0.9-0.6l0,0c0.4,0,0.7,0.2,0.9,0.6l1.1,2.2l2.4,0.3
			c0.4,0.1,0.7,0.3,0.8,0.7s0,0.8-0.3,1l-1.7,1.7l0.4,2.4c0.1,0.4-0.1,0.8-0.4,1s-0.7,0.3-1.1,0.1l-2.1-1.1l-2.1,1.1
			C706.3-44.7,706.2-44.6,706-44.6z M706.5-49.9l0.5,0.5c0.3,0.3,0.4,0.7,0.4,1.1l-0.1,0.8l0.7-0.4c0.4-0.2,0.8-0.2,1.2,0l0.7,0.3
			l-0.1-0.7c-0.1-0.4,0.1-0.8,0.4-1.1l0.5-0.5l-0.8-0.1c-0.4-0.1-0.8-0.3-1-0.7l-0.3-0.7l-0.3,0.7c-0.2,0.4-0.5,0.6-1,0.7
			L706.5-49.9z"/>
	</g>
	<g>
		<path class="st0" d="M696.1-49.7c-0.2,0-0.4-0.1-0.6-0.2c-0.3-0.2-0.5-0.6-0.4-1l0.4-2.4l-1.7-1.7c-0.3-0.3-0.4-0.7-0.3-1
			c0.1-0.4,0.4-0.6,0.8-0.7l2.4-0.4l1.1-2.2c0.2-0.3,0.5-0.6,0.9-0.6l0,0c0.4,0,0.7,0.2,0.9,0.6l1.1,2.2l2.4,0.3
			c0.4,0.1,0.7,0.3,0.8,0.7c0.1,0.4,0,0.8-0.3,1l-1.7,1.7l0.4,2.4c0.1,0.4-0.1,0.8-0.4,1c-0.3,0.2-0.7,0.3-1.1,0.1l-2.1-1.1
			l-2.1,1.1C696.4-49.8,696.3-49.7,696.1-49.7z M696.6-55l0.5,0.5c0.3,0.3,0.4,0.7,0.4,1.1l-0.1,0.8l0.7-0.4c0.4-0.2,0.8-0.2,1.2,0
			l0.7,0.3l-0.1-0.7c-0.1-0.4,0.1-0.8,0.4-1.1l0.5-0.5l-0.8-0.1c-0.4-0.1-0.8-0.3-1-0.7l-0.3-0.7l-0.3,0.7c-0.2,0.4-0.5,0.6-1,0.7
			L696.6-55z"/>
	</g>
	<g>
		<path class="st0" d="M696.1-39.9c-0.2,0-0.4-0.1-0.6-0.2c-0.3-0.2-0.5-0.6-0.4-1l0.4-2.4l-1.7-1.7c-0.3-0.3-0.4-0.7-0.3-1
			c0.1-0.4,0.4-0.6,0.8-0.7l2.4-0.4l1.1-2.2c0.2-0.3,0.5-0.6,0.9-0.6l0,0c0.4,0,0.7,0.2,0.9,0.6l1.1,2.2l2.4,0.3
			c0.4,0.1,0.7,0.3,0.8,0.7c0.1,0.4,0,0.8-0.3,1l-1.7,1.7l0.4,2.4c0.1,0.4-0.1,0.8-0.4,1c-0.3,0.2-0.7,0.3-1.1,0.1l-2.1-1.1
			l-2.1,1.1C696.4-40,696.3-39.9,696.1-39.9z M696.6-45.2l0.5,0.5c0.3,0.3,0.4,0.7,0.4,1.1l-0.1,0.8l0.7-0.4c0.4-0.2,0.8-0.2,1.2,0
			l0.7,0.3l-0.1-0.7c-0.1-0.4,0.1-0.8,0.4-1.1l0.5-0.5l-0.8-0.1c-0.4-0.1-0.8-0.3-1-0.7l-0.3-0.7l-0.3,0.7c-0.2,0.4-0.5,0.6-1,0.7
			L696.6-45.2z"/>
	</g>
	<g>
		<path class="st0" d="M620.1-41.4c-0.2,0-0.4-0.1-0.6-0.2c-0.3-0.2-0.5-0.6-0.4-1l0.4-2.4l-1.7-1.7c-0.3-0.3-0.4-0.7-0.3-1
			c0.1-0.4,0.4-0.6,0.8-0.7l2.4-0.4l1.1-2.2c0.2-0.3,0.5-0.6,0.9-0.6l0,0c0.4,0,0.7,0.2,0.9,0.6l1.1,2.2l2.4,0.3
			c0.4,0.1,0.7,0.3,0.8,0.7c0.1,0.4,0,0.8-0.3,1l-1.7,1.7l0.4,2.4c0.1,0.4-0.1,0.8-0.4,1c-0.3,0.2-0.7,0.3-1.1,0.1l-2.1-1.1
			l-2.1,1.1C620.4-41.4,620.3-41.4,620.1-41.4z M620.6-46.6l0.5,0.5c0.3,0.3,0.4,0.7,0.4,1.1l-0.1,0.8l0.7-0.4
			c0.4-0.2,0.8-0.2,1.2,0l0.7,0.3l-0.1-0.7c-0.1-0.4,0.1-0.8,0.4-1.1l0.5-0.5l-0.8-0.1c-0.4-0.1-0.8-0.3-1-0.7l-0.3-0.7l-0.3,0.7
			c-0.2,0.4-0.5,0.6-1,0.7L620.6-46.6z"/>
	</g>
</g>
<g>
	<g>
		<path class="st0" d="M467.6,30.9c-0.2,0-0.4-0.1-0.6-0.2c-0.3-0.2-0.5-0.6-0.4-1l0.4-2.4l-1.7-1.7c-0.3-0.3-0.4-0.7-0.3-1
			c0.1-0.4,0.4-0.6,0.8-0.7l2.4-0.4l1.1-2.2c0.2-0.3,0.5-0.6,0.9-0.6l0,0c0.4,0,0.7,0.2,0.9,0.6l1.1,2.2l2.4,0.3
			c0.4,0.1,0.7,0.3,0.8,0.7s0,0.8-0.3,1l-1.7,1.7l0.4,2.4c0.1,0.4-0.1,0.8-0.4,1c-0.3,0.2-0.7,0.3-1.1,0.1l-2.1-1.1l-2.1,1.1
			C468,30.9,467.8,30.9,467.6,30.9z M468.2,25.7l0.5,0.5c0.3,0.3,0.4,0.7,0.4,1.1l-0.1,0.8l0.7-0.4c0.4-0.2,0.8-0.2,1.2,0l0.7,0.3
			l-0.1-0.7c-0.1-0.4,0.1-0.8,0.4-1.1l0.5-0.5l-0.8-0.1c-0.4-0.1-0.8-0.3-1-0.7l-0.3-0.7l-0.3,0.7c-0.2,0.4-0.5,0.6-1,0.7
			L468.2,25.7z"/>
	</g>
	<g>
		<path class="st0" d="M537.1,30.9c-0.2,0-0.4-0.1-0.6-0.2c-0.3-0.2-0.5-0.6-0.4-1l0.4-2.4l-1.7-1.7c-0.3-0.3-0.4-0.7-0.3-1
			c0.1-0.4,0.4-0.6,0.8-0.7l2.4-0.4l1.1-2.2c0.2-0.3,0.5-0.6,0.9-0.6l0,0c0.4,0,0.7,0.2,0.9,0.6l1.1,2.2l2.4,0.3
			c0.4,0.1,0.7,0.3,0.8,0.7c0.1,0.4,0,0.8-0.3,1l-1.7,1.7l0.4,2.4c0.1,0.4-0.1,0.8-0.4,1c-0.3,0.2-0.7,0.3-1.1,0.1l-2.1-1.1
			l-2.1,1.1C537.5,30.9,537.3,30.9,537.1,30.9z M537.7,25.7l0.5,0.5c0.3,0.3,0.4,0.7,0.4,1.1l-0.1,0.8l0.7-0.4
			c0.4-0.2,0.8-0.2,1.2,0l0.7,0.3l-0.1-0.7c-0.1-0.4,0.1-0.8,0.4-1.1l0.5-0.5l-0.8-0.1c-0.4-0.1-0.8-0.3-1-0.7l-0.3-0.7l-0.3,0.7
			c-0.2,0.4-0.5,0.6-1,0.7L537.7,25.7z"/>
	</g>
	<g>
		<path class="st0" d="M550.6,30.9c-0.2,0-0.4-0.1-0.6-0.2c-0.3-0.2-0.5-0.6-0.4-1l0.4-2.4l-1.7-1.7c-0.3-0.3-0.4-0.7-0.3-1
			c0.1-0.4,0.4-0.6,0.8-0.7l2.4-0.4l1.1-2.2c0.2-0.3,0.5-0.6,0.9-0.6l0,0c0.4,0,0.7,0.2,0.9,0.6l1.1,2.2l2.4,0.3
			c0.4,0.1,0.7,0.3,0.8,0.7c0.1,0.4,0,0.8-0.3,1l-1.7,1.7l0.4,2.4c0.1,0.4-0.1,0.8-0.4,1c-0.3,0.2-0.7,0.3-1.1,0.1l-2.1-1.1
			l-2.1,1.1C550.9,30.9,550.8,30.9,550.6,30.9z M551.1,25.7l0.5,0.5c0.3,0.3,0.4,0.7,0.4,1.1l-0.1,0.8l0.7-0.4
			c0.4-0.2,0.8-0.2,1.2,0l0.7,0.3l-0.1-0.7c-0.1-0.4,0.1-0.8,0.4-1.1l0.5-0.5l-0.8-0.1c-0.4-0.1-0.8-0.3-1-0.7l-0.3-0.7l-0.3,0.7
			c-0.2,0.4-0.5,0.6-1,0.7L551.1,25.7z"/>
	</g>
	<g>
		<path class="st0" d="M608.7,30.9c-0.2,0-0.4-0.1-0.6-0.2c-0.3-0.2-0.5-0.6-0.4-1l0.4-2.4l-1.7-1.7c-0.3-0.3-0.4-0.7-0.3-1
			c0.1-0.4,0.4-0.6,0.8-0.7l2.4-0.4l1.1-2.2c0.2-0.3,0.5-0.6,0.9-0.6l0,0c0.4,0,0.7,0.2,0.9,0.6l1.1,2.2l2.4,0.3
			c0.4,0.1,0.7,0.3,0.8,0.7c0.1,0.4,0,0.8-0.3,1l-1.7,1.7l0.4,2.4c0.1,0.4-0.1,0.8-0.4,1c-0.3,0.2-0.7,0.3-1.1,0.1l-2.1-1.1
			l-2.1,1.1C609,30.9,608.9,30.9,608.7,30.9z M609.2,25.7l0.5,0.5c0.3,0.3,0.4,0.7,0.4,1.1l-0.1,0.8l0.7-0.4c0.4-0.2,0.8-0.2,1.2,0
			l0.7,0.3l-0.1-0.7c-0.1-0.4,0.1-0.8,0.4-1.1l0.5-0.5l-0.8-0.1c-0.4-0.1-0.8-0.3-1-0.7l-0.3-0.7l-0.3,0.7c-0.2,0.4-0.5,0.6-1,0.7
			L609.2,25.7z"/>
	</g>
	<g>
		<path class="st0" d="M631.6,30.9c-0.2,0-0.4-0.1-0.6-0.2c-0.3-0.2-0.5-0.6-0.4-1l0.4-2.4l-1.7-1.7c-0.3-0.3-0.4-0.7-0.3-1
			c0.1-0.4,0.4-0.6,0.8-0.7l2.4-0.4l1.1-2.2c0.2-0.3,0.5-0.6,0.9-0.6l0,0c0.4,0,0.7,0.2,0.9,0.6l1.1,2.2l2.4,0.3
			c0.4,0.1,0.7,0.3,0.8,0.7c0.1,0.4,0,0.8-0.3,1l-1.7,1.7l0.4,2.4c0.1,0.4-0.1,0.8-0.4,1c-0.3,0.2-0.7,0.3-1.1,0.1l-2.1-1.1
			l-2.1,1.1C631.9,30.9,631.8,30.9,631.6,30.9z M632.1,25.7l0.5,0.5c0.3,0.3,0.4,0.7,0.4,1.1l-0.1,0.8l0.7-0.4
			c0.4-0.2,0.8-0.2,1.2,0l0.7,0.3l-0.1-0.7c-0.1-0.4,0.1-0.8,0.4-1.1l0.5-0.5l-0.8-0.1c-0.4-0.1-0.8-0.3-1-0.7l-0.3-0.7l-0.3,0.7
			c-0.2,0.4-0.5,0.6-1,0.7L632.1,25.7z"/>
	</g>
	<g>
		<path class="st0" d="M686.2,30.9c-0.2,0-0.4-0.1-0.6-0.2c-0.3-0.2-0.5-0.6-0.4-1l0.4-2.4l-1.7-1.7c-0.3-0.3-0.4-0.7-0.3-1
			c0.1-0.4,0.4-0.6,0.8-0.7l2.4-0.4l1.1-2.2c0.2-0.3,0.5-0.6,0.9-0.6l0,0c0.4,0,0.7,0.2,0.9,0.6l1.1,2.2l2.4,0.3
			c0.4,0.1,0.7,0.3,0.8,0.7c0.1,0.4,0,0.8-0.3,1l-1.7,1.7l0.4,2.4c0.1,0.4-0.1,0.8-0.4,1c-0.3,0.2-0.7,0.3-1.1,0.1l-2.1-1.1
			l-2.1,1.1C686.6,30.9,686.4,30.9,686.2,30.9z M686.8,25.7l0.5,0.5c0.3,0.3,0.4,0.7,0.4,1.1l-0.1,0.8l0.7-0.4
			c0.4-0.2,0.8-0.2,1.2,0l0.7,0.3l-0.1-0.7c-0.1-0.4,0.1-0.8,0.4-1.1l0.5-0.5l-0.8-0.1c-0.4-0.1-0.8-0.3-1-0.7l-0.3-0.7l-0.3,0.7
			c-0.2,0.4-0.5,0.6-1,0.7L686.8,25.7z"/>
	</g>
	<g>
		<path class="st0" d="M706,30.9c-0.2,0-0.4-0.1-0.6-0.2c-0.3-0.2-0.5-0.6-0.4-1l0.4-2.4l-1.7-1.7c-0.3-0.3-0.4-0.7-0.3-1
			c0.1-0.4,0.4-0.6,0.8-0.7l2.4-0.4l1.1-2.2c0.2-0.3,0.5-0.6,0.9-0.6l0,0c0.4,0,0.7,0.2,0.9,0.6l1.1,2.2l2.4,0.3
			c0.4,0.1,0.7,0.3,0.8,0.7s0,0.8-0.3,1l-1.7,1.7l0.4,2.4c0.1,0.4-0.1,0.8-0.4,1s-0.7,0.3-1.1,0.1l-2.1-1.1l-2.1,1.1
			C706.3,30.9,706.2,30.9,706,30.9z M706.5,25.7l0.5,0.5c0.3,0.3,0.4,0.7,0.4,1.1l-0.1,0.8l0.7-0.4c0.4-0.2,0.8-0.2,1.2,0l0.7,0.3
			l-0.1-0.7c-0.1-0.4,0.1-0.8,0.4-1.1l0.5-0.5l-0.8-0.1c-0.4-0.1-0.8-0.3-1-0.7l-0.3-0.7l-0.3,0.7c-0.2,0.4-0.5,0.6-1,0.7
			L706.5,25.7z"/>
	</g>
	<g>
		<path class="st0" d="M696.1,25.8c-0.2,0-0.4-0.1-0.6-0.2c-0.3-0.2-0.5-0.6-0.4-1l0.4-2.4l-1.7-1.7c-0.3-0.3-0.4-0.7-0.3-1
			c0.1-0.4,0.4-0.6,0.8-0.7l2.4-0.4l1.1-2.2c0.2-0.3,0.5-0.6,0.9-0.6l0,0c0.4,0,0.7,0.2,0.9,0.6l1.1,2.2l2.4,0.3
			c0.4,0.1,0.7,0.3,0.8,0.7c0.1,0.4,0,0.8-0.3,1l-1.7,1.7l0.4,2.4c0.1,0.4-0.1,0.8-0.4,1c-0.3,0.2-0.7,0.3-1.1,0.1l-2.1-1.1
			l-2.1,1.1C696.4,25.8,696.3,25.8,696.1,25.8z M696.6,20.5l0.5,0.5c0.3,0.3,0.4,0.7,0.4,1.1l-0.1,0.8l0.7-0.4
			c0.4-0.2,0.8-0.2,1.2,0l0.7,0.3l-0.1-0.7c-0.1-0.4,0.1-0.8,0.4-1.1l0.5-0.5l-0.8-0.1c-0.4-0.1-0.8-0.3-1-0.7l-0.3-0.7l-0.3,0.7
			c-0.2,0.4-0.5,0.6-1,0.7L696.6,20.5z"/>
	</g>
	<g>
		<path class="st0" d="M696.1,35.6c-0.2,0-0.4-0.1-0.6-0.2c-0.3-0.2-0.5-0.6-0.4-1l0.4-2.4l-1.7-1.7c-0.3-0.3-0.4-0.7-0.3-1
			c0.1-0.4,0.4-0.6,0.8-0.7l2.4-0.4l1.1-2.2c0.2-0.3,0.5-0.6,0.9-0.6l0,0c0.4,0,0.7,0.2,0.9,0.6l1.1,2.2l2.4,0.3
			c0.4,0.1,0.7,0.3,0.8,0.7c0.1,0.4,0,0.8-0.3,1l-1.7,1.7l0.4,2.4c0.1,0.4-0.1,0.8-0.4,1c-0.3,0.2-0.7,0.3-1.1,0.1l-2.1-1.1
			l-2.1,1.1C696.4,35.6,696.3,35.6,696.1,35.6z M696.6,30.4l0.5,0.5c0.3,0.3,0.4,0.7,0.4,1.1l-0.1,0.8l0.7-0.4
			c0.4-0.2,0.8-0.2,1.2,0l0.7,0.3l-0.1-0.7c-0.1-0.4,0.1-0.8,0.4-1.1l0.5-0.5l-0.8-0.1c-0.4-0.1-0.8-0.3-1-0.7l-0.3-0.7l-0.3,0.7
			c-0.2,0.4-0.5,0.6-1,0.7L696.6,30.4z"/>
	</g>
	<g>
		<path class="st0" d="M620.1,34.2c-0.2,0-0.4-0.1-0.6-0.2c-0.3-0.2-0.5-0.6-0.4-1l0.4-2.4l-1.7-1.7c-0.3-0.3-0.4-0.7-0.3-1
			c0.1-0.4,0.4-0.6,0.8-0.7l2.4-0.4l1.1-2.2c0.2-0.3,0.5-0.6,0.9-0.6l0,0c0.4,0,0.7,0.2,0.9,0.6l1.1,2.2l2.4,0.3
			c0.4,0.1,0.7,0.3,0.8,0.7c0.1,0.4,0,0.8-0.3,1l-1.7,1.7l0.4,2.4c0.1,0.4-0.1,0.8-0.4,1c-0.3,0.2-0.7,0.3-1.1,0.1l-2.1-1.1
			l-2.1,1.1C620.4,34.1,620.3,34.2,620.1,34.2z M620.6,28.9l0.5,0.5c0.3,0.3,0.4,0.7,0.4,1.1l-0.1,0.8l0.7-0.4
			c0.4-0.2,0.8-0.2,1.2,0l0.7,0.3l-0.1-0.7c-0.1-0.4,0.1-0.8,0.4-1.1l0.5-0.5l-0.8-0.1c-0.4-0.1-0.8-0.3-1-0.7l-0.3-0.7l-0.3,0.7
			c-0.2,0.4-0.5,0.6-1,0.7L620.6,28.9z"/>
	</g>
</g>
<g>
	<g>
		<path class="st0" d="M467.6,106.9c-0.2,0-0.4-0.1-0.6-0.2c-0.3-0.2-0.5-0.6-0.4-1l0.4-2.4l-1.7-1.7c-0.3-0.3-0.4-0.7-0.3-1
			c0.1-0.4,0.4-0.6,0.8-0.7l2.4-0.4l1.1-2.2c0.2-0.3,0.5-0.6,0.9-0.6l0,0c0.4,0,0.7,0.2,0.9,0.6l1.1,2.2l2.4,0.3
			c0.4,0.1,0.7,0.3,0.8,0.7s0,0.8-0.3,1l-1.7,1.7l0.4,2.4c0.1,0.4-0.1,0.8-0.4,1c-0.3,0.2-0.7,0.3-1.1,0.1l-2.1-1.1l-2.1,1.1
			C468,106.9,467.8,106.9,467.6,106.9z M468.2,101.7l0.5,0.5c0.3,0.3,0.4,0.7,0.4,1.1l-0.1,0.8l0.7-0.4c0.4-0.2,0.8-0.2,1.2,0
			l0.7,0.3l-0.1-0.7c-0.1-0.4,0.1-0.8,0.4-1.1l0.5-0.5l-0.8-0.1c-0.4-0.1-0.8-0.3-1-0.7l-0.3-0.7l-0.3,0.7c-0.2,0.4-0.5,0.6-1,0.7
			L468.2,101.7z"/>
	</g>
	<g>
		<path class="st0" d="M537.1,106.9c-0.2,0-0.4-0.1-0.6-0.2c-0.3-0.2-0.5-0.6-0.4-1l0.4-2.4l-1.7-1.7c-0.3-0.3-0.4-0.7-0.3-1
			c0.1-0.4,0.4-0.6,0.8-0.7l2.4-0.4l1.1-2.2c0.2-0.3,0.5-0.6,0.9-0.6l0,0c0.4,0,0.7,0.2,0.9,0.6l1.1,2.2l2.4,0.3
			c0.4,0.1,0.7,0.3,0.8,0.7c0.1,0.4,0,0.8-0.3,1l-1.7,1.7l0.4,2.4c0.1,0.4-0.1,0.8-0.4,1c-0.3,0.2-0.7,0.3-1.1,0.1l-2.1-1.1
			l-2.1,1.1C537.5,106.9,537.3,106.9,537.1,106.9z M537.7,101.7l0.5,0.5c0.3,0.3,0.4,0.7,0.4,1.1l-0.1,0.8l0.7-0.4
			c0.4-0.2,0.8-0.2,1.2,0l0.7,0.3l-0.1-0.7c-0.1-0.4,0.1-0.8,0.4-1.1l0.5-0.5l-0.8-0.1c-0.4-0.1-0.8-0.3-1-0.7l-0.3-0.7l-0.3,0.7
			c-0.2,0.4-0.5,0.6-1,0.7L537.7,101.7z"/>
	</g>
	<g>
		<path class="st0" d="M550.6,106.9c-0.2,0-0.4-0.1-0.6-0.2c-0.3-0.2-0.5-0.6-0.4-1l0.4-2.4l-1.7-1.7c-0.3-0.3-0.4-0.7-0.3-1
			c0.1-0.4,0.4-0.6,0.8-0.7l2.4-0.4l1.1-2.2c0.2-0.3,0.5-0.6,0.9-0.6l0,0c0.4,0,0.7,0.2,0.9,0.6l1.1,2.2l2.4,0.3
			c0.4,0.1,0.7,0.3,0.8,0.7c0.1,0.4,0,0.8-0.3,1l-1.7,1.7l0.4,2.4c0.1,0.4-0.1,0.8-0.4,1c-0.3,0.2-0.7,0.3-1.1,0.1l-2.1-1.1
			l-2.1,1.1C550.9,106.9,550.8,106.9,550.6,106.9z M551.1,101.7l0.5,0.5c0.3,0.3,0.4,0.7,0.4,1.1l-0.1,0.8l0.7-0.4
			c0.4-0.2,0.8-0.2,1.2,0l0.7,0.3l-0.1-0.7c-0.1-0.4,0.1-0.8,0.4-1.1l0.5-0.5l-0.8-0.1c-0.4-0.1-0.8-0.3-1-0.7l-0.3-0.7l-0.3,0.7
			c-0.2,0.4-0.5,0.6-1,0.7L551.1,101.7z"/>
	</g>
	<g>
		<path class="st0" d="M608.7,106.9c-0.2,0-0.4-0.1-0.6-0.2c-0.3-0.2-0.5-0.6-0.4-1l0.4-2.4l-1.7-1.7c-0.3-0.3-0.4-0.7-0.3-1
			c0.1-0.4,0.4-0.6,0.8-0.7l2.4-0.4l1.1-2.2c0.2-0.3,0.5-0.6,0.9-0.6l0,0c0.4,0,0.7,0.2,0.9,0.6l1.1,2.2l2.4,0.3
			c0.4,0.1,0.7,0.3,0.8,0.7c0.1,0.4,0,0.8-0.3,1l-1.7,1.7l0.4,2.4c0.1,0.4-0.1,0.8-0.4,1c-0.3,0.2-0.7,0.3-1.1,0.1l-2.1-1.1
			l-2.1,1.1C609,106.9,608.9,106.9,608.7,106.9z M609.2,101.7l0.5,0.5c0.3,0.3,0.4,0.7,0.4,1.1l-0.1,0.8l0.7-0.4
			c0.4-0.2,0.8-0.2,1.2,0l0.7,0.3l-0.1-0.7c-0.1-0.4,0.1-0.8,0.4-1.1l0.5-0.5l-0.8-0.1c-0.4-0.1-0.8-0.3-1-0.7l-0.3-0.7l-0.3,0.7
			c-0.2,0.4-0.5,0.6-1,0.7L609.2,101.7z"/>
	</g>
	<g>
		<path class="st0" d="M631.6,106.9c-0.2,0-0.4-0.1-0.6-0.2c-0.3-0.2-0.5-0.6-0.4-1l0.4-2.4l-1.7-1.7c-0.3-0.3-0.4-0.7-0.3-1
			c0.1-0.4,0.4-0.6,0.8-0.7l2.4-0.4l1.1-2.2c0.2-0.3,0.5-0.6,0.9-0.6l0,0c0.4,0,0.7,0.2,0.9,0.6l1.1,2.2l2.4,0.3
			c0.4,0.1,0.7,0.3,0.8,0.7c0.1,0.4,0,0.8-0.3,1l-1.7,1.7l0.4,2.4c0.1,0.4-0.1,0.8-0.4,1c-0.3,0.2-0.7,0.3-1.1,0.1l-2.1-1.1
			l-2.1,1.1C631.9,106.9,631.8,106.9,631.6,106.9z M632.1,101.7l0.5,0.5c0.3,0.3,0.4,0.7,0.4,1.1l-0.1,0.8l0.7-0.4
			c0.4-0.2,0.8-0.2,1.2,0l0.7,0.3l-0.1-0.7c-0.1-0.4,0.1-0.8,0.4-1.1l0.5-0.5l-0.8-0.1c-0.4-0.1-0.8-0.3-1-0.7l-0.3-0.7l-0.3,0.7
			c-0.2,0.4-0.5,0.6-1,0.7L632.1,101.7z"/>
	</g>
	<g>
		<path class="st0" d="M686.2,106.9c-0.2,0-0.4-0.1-0.6-0.2c-0.3-0.2-0.5-0.6-0.4-1l0.4-2.4l-1.7-1.7c-0.3-0.3-0.4-0.7-0.3-1
			c0.1-0.4,0.4-0.6,0.8-0.7l2.4-0.4l1.1-2.2c0.2-0.3,0.5-0.6,0.9-0.6l0,0c0.4,0,0.7,0.2,0.9,0.6l1.1,2.2l2.4,0.3
			c0.4,0.1,0.7,0.3,0.8,0.7c0.1,0.4,0,0.8-0.3,1l-1.7,1.7l0.4,2.4c0.1,0.4-0.1,0.8-0.4,1c-0.3,0.2-0.7,0.3-1.1,0.1l-2.1-1.1
			l-2.1,1.1C686.6,106.9,686.4,106.9,686.2,106.9z M686.8,101.7l0.5,0.5c0.3,0.3,0.4,0.7,0.4,1.1l-0.1,0.8l0.7-0.4
			c0.4-0.2,0.8-0.2,1.2,0l0.7,0.3l-0.1-0.7c-0.1-0.4,0.1-0.8,0.4-1.1l0.5-0.5l-0.8-0.1c-0.4-0.1-0.8-0.3-1-0.7l-0.3-0.7l-0.3,0.7
			c-0.2,0.4-0.5,0.6-1,0.7L686.8,101.7z"/>
	</g>
	<g>
		<path class="st0" d="M706,106.9c-0.2,0-0.4-0.1-0.6-0.2c-0.3-0.2-0.5-0.6-0.4-1l0.4-2.4l-1.7-1.7c-0.3-0.3-0.4-0.7-0.3-1
			c0.1-0.4,0.4-0.6,0.8-0.7l2.4-0.4l1.1-2.2c0.2-0.3,0.5-0.6,0.9-0.6l0,0c0.4,0,0.7,0.2,0.9,0.6l1.1,2.2l2.4,0.3
			c0.4,0.1,0.7,0.3,0.8,0.7s0,0.8-0.3,1l-1.7,1.7l0.4,2.4c0.1,0.4-0.1,0.8-0.4,1s-0.7,0.3-1.1,0.1l-2.1-1.1l-2.1,1.1
			C706.3,106.9,706.2,106.9,706,106.9z M706.5,101.7l0.5,0.5c0.3,0.3,0.4,0.7,0.4,1.1l-0.1,0.8l0.7-0.4c0.4-0.2,0.8-0.2,1.2,0
			l0.7,0.3l-0.1-0.7c-0.1-0.4,0.1-0.8,0.4-1.1l0.5-0.5l-0.8-0.1c-0.4-0.1-0.8-0.3-1-0.7l-0.3-0.7l-0.3,0.7c-0.2,0.4-0.5,0.6-1,0.7
			L706.5,101.7z"/>
	</g>
	<g>
		<path class="st0" d="M696.1,101.8c-0.2,0-0.4-0.1-0.6-0.2c-0.3-0.2-0.5-0.6-0.4-1l0.4-2.4l-1.7-1.7c-0.3-0.3-0.4-0.7-0.3-1
			c0.1-0.4,0.4-0.6,0.8-0.7l2.4-0.4l1.1-2.2c0.2-0.3,0.5-0.6,0.9-0.6l0,0c0.4,0,0.7,0.2,0.9,0.6l1.1,2.2l2.4,0.3
			c0.4,0.1,0.7,0.3,0.8,0.7c0.1,0.4,0,0.8-0.3,1l-1.7,1.7l0.4,2.4c0.1,0.4-0.1,0.8-0.4,1c-0.3,0.2-0.7,0.3-1.1,0.1l-2.1-1.1
			l-2.1,1.1C696.4,101.8,696.3,101.8,696.1,101.8z M696.6,96.5l0.5,0.5c0.3,0.3,0.4,0.7,0.4,1.1l-0.1,0.8l0.7-0.4
			c0.4-0.2,0.8-0.2,1.2,0l0.7,0.3l-0.1-0.7c-0.1-0.4,0.1-0.8,0.4-1.1l0.5-0.5l-0.8-0.1c-0.4-0.1-0.8-0.3-1-0.7l-0.3-0.7l-0.3,0.7
			c-0.2,0.4-0.5,0.6-1,0.7L696.6,96.5z"/>
	</g>
	<g>
		<path class="st0" d="M696.1,111.6c-0.2,0-0.4-0.1-0.6-0.2c-0.3-0.2-0.5-0.6-0.4-1l0.4-2.4l-1.7-1.7c-0.3-0.3-0.4-0.7-0.3-1
			c0.1-0.4,0.4-0.6,0.8-0.7l2.4-0.4l1.1-2.2c0.2-0.3,0.5-0.6,0.9-0.6l0,0c0.4,0,0.7,0.2,0.9,0.6l1.1,2.2l2.4,0.3
			c0.4,0.1,0.7,0.3,0.8,0.7c0.1,0.4,0,0.8-0.3,1l-1.7,1.7l0.4,2.4c0.1,0.4-0.1,0.8-0.4,1c-0.3,0.2-0.7,0.3-1.1,0.1l-2.1-1.1
			l-2.1,1.1C696.4,111.6,696.3,111.6,696.1,111.6z M696.6,106.4l0.5,0.5c0.3,0.3,0.4,0.7,0.4,1.1l-0.1,0.8l0.7-0.4
			c0.4-0.2,0.8-0.2,1.2,0l0.7,0.3l-0.1-0.7c-0.1-0.4,0.1-0.8,0.4-1.1l0.5-0.5l-0.8-0.1c-0.4-0.1-0.8-0.3-1-0.7l-0.3-0.7l-0.3,0.7
			c-0.2,0.4-0.5,0.6-1,0.7L696.6,106.4z"/>
	</g>
	<g>
		<path class="st0" d="M620.1,110.2c-0.2,0-0.4-0.1-0.6-0.2c-0.3-0.2-0.5-0.6-0.4-1l0.4-2.4l-1.7-1.7c-0.3-0.3-0.4-0.7-0.3-1
			c0.1-0.4,0.4-0.6,0.8-0.7l2.4-0.4l1.1-2.2c0.2-0.3,0.5-0.6,0.9-0.6l0,0c0.4,0,0.7,0.2,0.9,0.6l1.1,2.2l2.4,0.3
			c0.4,0.1,0.7,0.3,0.8,0.7c0.1,0.4,0,0.8-0.3,1l-1.7,1.7l0.4,2.4c0.1,0.4-0.1,0.8-0.4,1c-0.3,0.2-0.7,0.3-1.1,0.1l-2.1-1.1
			l-2.1,1.1C620.4,110.1,620.3,110.2,620.1,110.2z M620.6,104.9l0.5,0.5c0.3,0.3,0.4,0.7,0.4,1.1l-0.1,0.8l0.7-0.4
			c0.4-0.2,0.8-0.2,1.2,0l0.7,0.3l-0.1-0.7c-0.1-0.4,0.1-0.8,0.4-1.1l0.5-0.5l-0.8-0.1c-0.4-0.1-0.8-0.3-1-0.7l-0.3-0.7l-0.3,0.7
			c-0.2,0.4-0.5,0.6-1,0.7L620.6,104.9z"/>
	</g>
</g>
<g>
	<g>
		<path class="st0" d="M467.6,183.4c-0.2,0-0.4-0.1-0.6-0.2c-0.3-0.2-0.5-0.6-0.4-1l0.4-2.4l-1.7-1.7c-0.3-0.3-0.4-0.7-0.3-1
			c0.1-0.4,0.4-0.6,0.8-0.7l2.4-0.4l1.1-2.2c0.2-0.3,0.5-0.6,0.9-0.6l0,0c0.4,0,0.7,0.2,0.9,0.6l1.1,2.2l2.4,0.3
			c0.4,0.1,0.7,0.3,0.8,0.7s0,0.8-0.3,1l-1.7,1.7l0.4,2.4c0.1,0.4-0.1,0.8-0.4,1c-0.3,0.2-0.7,0.3-1.1,0.1l-2.1-1.1l-2.1,1.1
			C468,183.4,467.8,183.4,467.6,183.4z M468.2,178.2l0.5,0.5c0.3,0.3,0.4,0.7,0.4,1.1l-0.1,0.8l0.7-0.4c0.4-0.2,0.8-0.2,1.2,0
			l0.7,0.3l-0.1-0.7c-0.1-0.4,0.1-0.8,0.4-1.1l0.5-0.5l-0.9-0.2c-0.4-0.1-0.8-0.3-1-0.7l-0.3-0.7l-0.3,0.7c-0.2,0.4-0.5,0.6-1,0.7
			L468.2,178.2z"/>
	</g>
	<g>
		<path class="st0" d="M537.1,183.4c-0.2,0-0.4-0.1-0.6-0.2c-0.3-0.2-0.5-0.6-0.4-1l0.4-2.4l-1.7-1.7c-0.3-0.3-0.4-0.7-0.3-1
			c0.1-0.4,0.4-0.6,0.8-0.7l2.4-0.4l1.1-2.2c0.2-0.3,0.5-0.6,0.9-0.6l0,0c0.4,0,0.7,0.2,0.9,0.6l1.1,2.2l2.4,0.3
			c0.4,0.1,0.7,0.3,0.8,0.7c0.1,0.4,0,0.8-0.3,1l-1.7,1.7l0.4,2.4c0.1,0.4-0.1,0.8-0.4,1c-0.3,0.2-0.7,0.3-1.1,0.1l-2.1-1.1
			l-2.1,1.1C537.5,183.4,537.3,183.4,537.1,183.4z M537.7,178.2l0.5,0.5c0.3,0.3,0.4,0.7,0.4,1.1l-0.1,0.8l0.7-0.4
			c0.4-0.2,0.8-0.2,1.2,0l0.7,0.3l-0.1-0.7c-0.1-0.4,0.1-0.8,0.4-1.1l0.5-0.5l-0.8-0.1c-0.4-0.1-0.8-0.3-1-0.7l-0.3-0.7l-0.3,0.7
			c-0.2,0.4-0.5,0.6-1,0.7L537.7,178.2z"/>
	</g>
	<g>
		<path class="st0" d="M550.6,183.4c-0.2,0-0.4-0.1-0.6-0.2c-0.3-0.2-0.5-0.6-0.4-1l0.4-2.4l-1.7-1.7c-0.3-0.3-0.4-0.7-0.3-1
			c0.1-0.4,0.4-0.6,0.8-0.7l2.4-0.4l1.1-2.2c0.2-0.3,0.5-0.6,0.9-0.6l0,0c0.4,0,0.7,0.2,0.9,0.6l1.1,2.2l2.4,0.3
			c0.4,0.1,0.7,0.3,0.8,0.7c0.1,0.4,0,0.8-0.3,1l-1.7,1.7l0.4,2.4c0.1,0.4-0.1,0.8-0.4,1c-0.3,0.2-0.7,0.3-1.1,0.1l-2.1-1.1
			l-2.1,1.1C550.9,183.4,550.8,183.4,550.6,183.4z M551.1,178.2l0.5,0.5c0.3,0.3,0.4,0.7,0.4,1.1l-0.1,0.8l0.7-0.4
			c0.4-0.2,0.8-0.2,1.2,0l0.7,0.3l-0.1-0.7c-0.1-0.4,0.1-0.8,0.4-1.1l0.5-0.5l-0.8-0.2c-0.4-0.1-0.8-0.3-1-0.7l-0.3-0.7l-0.3,0.7
			c-0.2,0.4-0.5,0.6-1,0.7L551.1,178.2z"/>
	</g>
	<g>
		<path class="st0" d="M608.7,183.4c-0.2,0-0.4-0.1-0.6-0.2c-0.3-0.2-0.5-0.6-0.4-1l0.4-2.4l-1.7-1.7c-0.3-0.3-0.4-0.7-0.3-1
			c0.1-0.4,0.4-0.6,0.8-0.7l2.4-0.4l1.1-2.2c0.2-0.3,0.5-0.6,0.9-0.6l0,0c0.4,0,0.7,0.2,0.9,0.6l1.1,2.2l2.4,0.3
			c0.4,0.1,0.7,0.3,0.8,0.7c0.1,0.4,0,0.8-0.3,1l-1.7,1.7l0.4,2.4c0.1,0.4-0.1,0.8-0.4,1c-0.3,0.2-0.7,0.3-1.1,0.1l-2.1-1.1
			l-2.1,1.1C609,183.4,608.9,183.4,608.7,183.4z M609.2,178.2l0.5,0.5c0.3,0.3,0.4,0.7,0.4,1.1l-0.1,0.8l0.7-0.4
			c0.4-0.2,0.8-0.2,1.2,0l0.7,0.3l-0.1-0.7c-0.1-0.4,0.1-0.8,0.4-1.1l0.5-0.5l-0.8-0.1c-0.4-0.1-0.8-0.3-1-0.7l-0.3-0.7l-0.3,0.7
			c-0.2,0.4-0.5,0.6-1,0.7L609.2,178.2z"/>
	</g>
	<g>
		<path class="st0" d="M631.6,183.4c-0.2,0-0.4-0.1-0.6-0.2c-0.3-0.2-0.5-0.6-0.4-1l0.4-2.4l-1.7-1.7c-0.3-0.3-0.4-0.7-0.3-1
			c0.1-0.4,0.4-0.6,0.8-0.7l2.4-0.4l1.1-2.2c0.2-0.3,0.5-0.6,0.9-0.6l0,0c0.4,0,0.7,0.2,0.9,0.6l1.1,2.2l2.4,0.3
			c0.4,0.1,0.7,0.3,0.8,0.7c0.1,0.4,0,0.8-0.3,1l-1.7,1.7l0.4,2.4c0.1,0.4-0.1,0.8-0.4,1c-0.3,0.2-0.7,0.3-1.1,0.1l-2.1-1.1
			l-2.1,1.1C631.9,183.4,631.8,183.4,631.6,183.4z M632.1,178.2l0.5,0.5c0.3,0.3,0.4,0.7,0.4,1.1l-0.1,0.8l0.7-0.4
			c0.4-0.2,0.8-0.2,1.2,0l0.7,0.3l-0.1-0.7c-0.1-0.4,0.1-0.8,0.4-1.1l0.5-0.5l-0.8-0.2c-0.4-0.1-0.8-0.3-1-0.7l-0.3-0.7l-0.3,0.7
			c-0.2,0.4-0.5,0.6-1,0.7L632.1,178.2z"/>
	</g>
	<g>
		<path class="st0" d="M686.2,183.4c-0.2,0-0.4-0.1-0.6-0.2c-0.3-0.2-0.5-0.6-0.4-1l0.4-2.4l-1.7-1.7c-0.3-0.3-0.4-0.7-0.3-1
			c0.1-0.4,0.4-0.6,0.8-0.7l2.4-0.4l1.1-2.2c0.2-0.3,0.5-0.6,0.9-0.6l0,0c0.4,0,0.7,0.2,0.9,0.6l1.1,2.2l2.4,0.3
			c0.4,0.1,0.7,0.3,0.8,0.7c0.1,0.4,0,0.8-0.3,1l-1.7,1.7l0.4,2.4c0.1,0.4-0.1,0.8-0.4,1c-0.3,0.2-0.7,0.3-1.1,0.1l-2.1-1.1
			l-2.1,1.1C686.6,183.4,686.4,183.4,686.2,183.4z M686.8,178.2l0.5,0.5c0.3,0.3,0.4,0.7,0.4,1.1l-0.1,0.8l0.7-0.4
			c0.4-0.2,0.8-0.2,1.2,0l0.7,0.3l-0.1-0.7c-0.1-0.4,0.1-0.8,0.4-1.1l0.5-0.5l-0.8-0.1c-0.4-0.1-0.8-0.3-1-0.7l-0.3-0.7l-0.3,0.7
			c-0.2,0.4-0.5,0.6-1,0.7L686.8,178.2z"/>
	</g>
	<g>
		<path class="st0" d="M706,183.4c-0.2,0-0.4-0.1-0.6-0.2c-0.3-0.2-0.5-0.6-0.4-1l0.4-2.4l-1.7-1.7c-0.3-0.3-0.4-0.7-0.3-1
			c0.1-0.4,0.4-0.6,0.8-0.7l2.4-0.4l1.1-2.2c0.2-0.3,0.5-0.6,0.9-0.6l0,0c0.4,0,0.7,0.2,0.9,0.6l1.1,2.2l2.4,0.3
			c0.4,0.1,0.7,0.3,0.8,0.7s0,0.8-0.3,1l-1.7,1.7l0.4,2.4c0.1,0.4-0.1,0.8-0.4,1s-0.7,0.3-1.1,0.1l-2.1-1.1l-2.1,1.1
			C706.3,183.4,706.2,183.4,706,183.4z M706.5,178.2l0.5,0.5c0.3,0.3,0.4,0.7,0.4,1.1l-0.1,0.8l0.7-0.4c0.4-0.2,0.8-0.2,1.2,0
			l0.7,0.3l-0.1-0.7c-0.1-0.4,0.1-0.8,0.4-1.1l0.5-0.5l-0.8-0.1c-0.4-0.1-0.8-0.3-1-0.7l-0.3-0.7l-0.3,0.7c-0.2,0.4-0.5,0.6-1,0.7
			L706.5,178.2z"/>
	</g>
	<g>
		<path class="st0" d="M696.1,178.3c-0.2,0-0.4-0.1-0.6-0.2c-0.3-0.2-0.5-0.6-0.4-1l0.4-2.4l-1.7-1.7c-0.3-0.3-0.4-0.7-0.3-1
			c0.1-0.4,0.4-0.6,0.8-0.7l2.4-0.4l1.1-2.2c0.2-0.3,0.5-0.6,0.9-0.6l0,0c0.4,0,0.7,0.2,0.9,0.6l1.1,2.2l2.4,0.3
			c0.4,0.1,0.7,0.3,0.8,0.7c0.1,0.4,0,0.8-0.3,1l-1.7,1.7l0.4,2.4c0.1,0.4-0.1,0.8-0.4,1c-0.3,0.2-0.7,0.3-1.1,0.1l-2.1-1.1
			l-2.1,1.1C696.4,178.3,696.3,178.3,696.1,178.3z M696.6,173l0.5,0.5c0.3,0.3,0.4,0.7,0.4,1.1l-0.1,0.8l0.7-0.4
			c0.4-0.2,0.8-0.2,1.2,0l0.7,0.3l-0.1-0.7c-0.1-0.4,0.1-0.8,0.4-1.1l0.5-0.5l-0.8-0.1c-0.4-0.1-0.8-0.3-1-0.7l-0.3-0.7l-0.3,0.7
			c-0.2,0.4-0.5,0.6-1,0.7L696.6,173z"/>
	</g>
	<g>
		<path class="st0" d="M696.1,188.1c-0.2,0-0.4-0.1-0.6-0.2c-0.3-0.2-0.5-0.6-0.4-1l0.4-2.4l-1.7-1.7c-0.3-0.3-0.4-0.7-0.3-1
			c0.1-0.4,0.4-0.6,0.8-0.7l2.4-0.4l1.1-2.2c0.2-0.3,0.5-0.6,0.9-0.6l0,0c0.4,0,0.7,0.2,0.9,0.6l1.1,2.2l2.4,0.3
			c0.4,0.1,0.7,0.3,0.8,0.7c0.1,0.4,0,0.8-0.3,1l-1.7,1.7l0.4,2.4c0.1,0.4-0.1,0.8-0.4,1c-0.3,0.2-0.7,0.3-1.1,0.1l-2.1-1.1
			l-2.1,1.1C696.4,188.1,696.3,188.1,696.1,188.1z M696.6,182.9l0.5,0.5c0.3,0.3,0.4,0.7,0.4,1.1l-0.1,0.8l0.7-0.4
			c0.4-0.2,0.8-0.2,1.2,0l0.7,0.3l-0.1-0.7c-0.1-0.4,0.1-0.8,0.4-1.1l0.5-0.5l-0.8-0.1c-0.4-0.1-0.8-0.3-1-0.7l-0.3-0.7l-0.3,0.7
			c-0.2,0.4-0.5,0.6-1,0.7L696.6,182.9z"/>
	</g>
	<g>
		<path class="st0" d="M620.1,186.7c-0.2,0-0.4-0.1-0.6-0.2c-0.3-0.2-0.5-0.6-0.4-1l0.4-2.4l-1.7-1.7c-0.3-0.3-0.4-0.7-0.3-1
			c0.1-0.4,0.4-0.6,0.8-0.7l2.4-0.4l1.1-2.2c0.2-0.3,0.5-0.6,0.9-0.6l0,0c0.4,0,0.7,0.2,0.9,0.6l1.1,2.2l2.4,0.3
			c0.4,0.1,0.7,0.3,0.8,0.7c0.1,0.4,0,0.8-0.3,1l-1.7,1.7l0.4,2.4c0.1,0.4-0.1,0.8-0.4,1c-0.3,0.2-0.7,0.3-1.1,0.1l-2.1-1.1
			l-2.1,1.1C620.4,186.6,620.3,186.7,620.1,186.7z M620.6,181.4l0.5,0.5c0.3,0.3,0.4,0.7,0.4,1.1l-0.1,0.8l0.7-0.4
			c0.4-0.2,0.8-0.2,1.2,0l0.7,0.3l-0.1-0.7c-0.1-0.4,0.1-0.8,0.4-1.1l0.5-0.5l-0.8-0.1c-0.4-0.1-0.8-0.3-1-0.7l-0.3-0.7l-0.3,0.7
			c-0.2,0.4-0.5,0.6-1,0.7L620.6,181.4z"/>
	</g>
</g>
<g>
	<g>
		<path class="st0" d="M467.6,259.6c-0.2,0-0.4-0.1-0.6-0.2c-0.3-0.2-0.5-0.6-0.4-1l0.4-2.4l-1.7-1.7c-0.3-0.3-0.4-0.7-0.3-1
			c0.1-0.4,0.4-0.6,0.8-0.7l2.4-0.4l1.1-2.2c0.2-0.3,0.5-0.6,0.9-0.6l0,0c0.4,0,0.7,0.2,0.9,0.6l1.1,2.2l2.4,0.3
			c0.4,0.1,0.7,0.3,0.8,0.7s0,0.8-0.3,1l-1.7,1.7l0.4,2.4c0.1,0.4-0.1,0.8-0.4,1c-0.3,0.2-0.7,0.3-1.1,0.1l-2.1-1.1l-2.1,1.1
			C468,259.6,467.8,259.6,467.6,259.6z M468.2,254.4l0.5,0.5c0.3,0.3,0.4,0.7,0.4,1.1l-0.1,0.8l0.7-0.4c0.4-0.2,0.8-0.2,1.2,0
			l0.7,0.3l-0.1-0.7c-0.1-0.4,0.1-0.8,0.4-1.1l0.5-0.5l-0.8-0.1c-0.4-0.1-0.8-0.3-1-0.7l-0.3-0.7l-0.3,0.7c-0.2,0.4-0.5,0.6-1,0.7
			L468.2,254.4z"/>
	</g>
	<g>
		<path class="st0" d="M537.1,259.6c-0.2,0-0.4-0.1-0.6-0.2c-0.3-0.2-0.5-0.6-0.4-1l0.4-2.4l-1.7-1.7c-0.3-0.3-0.4-0.7-0.3-1
			c0.1-0.4,0.4-0.6,0.8-0.7l2.4-0.4l1.1-2.2c0.2-0.3,0.5-0.6,0.9-0.6l0,0c0.4,0,0.7,0.2,0.9,0.6l1.1,2.2l2.4,0.3
			c0.4,0.1,0.7,0.3,0.8,0.7c0.1,0.4,0,0.8-0.3,1l-1.7,1.7l0.4,2.4c0.1,0.4-0.1,0.8-0.4,1c-0.3,0.2-0.7,0.3-1.1,0.1l-2.1-1.1
			l-2.1,1.1C537.5,259.6,537.3,259.6,537.1,259.6z M537.7,254.4l0.5,0.5c0.3,0.3,0.4,0.7,0.4,1.1l-0.1,0.8l0.7-0.4
			c0.4-0.2,0.8-0.2,1.2,0l0.7,0.3L541,256c-0.1-0.4,0.1-0.8,0.4-1.1l0.5-0.5l-0.8-0.1c-0.4-0.1-0.8-0.3-1-0.7l-0.3-0.7l-0.3,0.7
			c-0.2,0.4-0.5,0.6-1,0.7L537.7,254.4z"/>
	</g>
	<g>
		<path class="st0" d="M550.6,259.6c-0.2,0-0.4-0.1-0.6-0.2c-0.3-0.2-0.5-0.6-0.4-1l0.4-2.4l-1.7-1.7c-0.3-0.3-0.4-0.7-0.3-1
			c0.1-0.4,0.4-0.6,0.8-0.7l2.4-0.4l1.1-2.2c0.2-0.3,0.5-0.6,0.9-0.6l0,0c0.4,0,0.7,0.2,0.9,0.6l1.1,2.2l2.4,0.3
			c0.4,0.1,0.7,0.3,0.8,0.7c0.1,0.4,0,0.8-0.3,1l-1.7,1.7l0.4,2.4c0.1,0.4-0.1,0.8-0.4,1c-0.3,0.2-0.7,0.3-1.1,0.1l-2.1-1.1
			l-2.1,1.1C550.9,259.6,550.8,259.6,550.6,259.6z M551.1,254.4l0.5,0.5c0.3,0.3,0.4,0.7,0.4,1.1l-0.1,0.8l0.7-0.4
			c0.4-0.2,0.8-0.2,1.2,0l0.7,0.3l-0.1-0.7c-0.1-0.4,0.1-0.8,0.4-1.1l0.5-0.5l-0.8-0.1c-0.4-0.1-0.8-0.3-1-0.7l-0.3-0.7l-0.3,0.7
			c-0.2,0.4-0.5,0.6-1,0.7L551.1,254.4z"/>
	</g>
	<g>
		<path class="st0" d="M608.7,259.6c-0.2,0-0.4-0.1-0.6-0.2c-0.3-0.2-0.5-0.6-0.4-1l0.4-2.4l-1.7-1.7c-0.3-0.3-0.4-0.7-0.3-1
			c0.1-0.4,0.4-0.6,0.8-0.7l2.4-0.4l1.1-2.2c0.2-0.3,0.5-0.6,0.9-0.6l0,0c0.4,0,0.7,0.2,0.9,0.6l1.1,2.2l2.4,0.3
			c0.4,0.1,0.7,0.3,0.8,0.7c0.1,0.4,0,0.8-0.3,1l-1.7,1.7l0.4,2.4c0.1,0.4-0.1,0.8-0.4,1c-0.3,0.2-0.7,0.3-1.1,0.1l-2.1-1.1
			l-2.1,1.1C609,259.6,608.9,259.6,608.7,259.6z M609.2,254.4l0.5,0.5c0.3,0.3,0.4,0.7,0.4,1.1l-0.1,0.8l0.7-0.4
			c0.4-0.2,0.8-0.2,1.2,0l0.7,0.3l-0.1-0.7c-0.1-0.4,0.1-0.8,0.4-1.1l0.5-0.5l-0.8-0.1c-0.4-0.1-0.8-0.3-1-0.7l-0.3-0.7l-0.3,0.7
			c-0.2,0.4-0.5,0.6-1,0.7L609.2,254.4z"/>
	</g>
	<g>
		<path class="st0" d="M631.6,259.6c-0.2,0-0.4-0.1-0.6-0.2c-0.3-0.2-0.5-0.6-0.4-1l0.4-2.4l-1.7-1.7c-0.3-0.3-0.4-0.7-0.3-1
			c0.1-0.4,0.4-0.6,0.8-0.7l2.4-0.4l1.1-2.2c0.2-0.3,0.5-0.6,0.9-0.6l0,0c0.4,0,0.7,0.2,0.9,0.6l1.1,2.2l2.4,0.3
			c0.4,0.1,0.7,0.3,0.8,0.7c0.1,0.4,0,0.8-0.3,1l-1.7,1.7l0.4,2.4c0.1,0.4-0.1,0.8-0.4,1c-0.3,0.2-0.7,0.3-1.1,0.1l-2.1-1.1
			l-2.1,1.1C631.9,259.6,631.8,259.6,631.6,259.6z M632.1,254.4l0.5,0.5c0.3,0.3,0.4,0.7,0.4,1.1l-0.1,0.8l0.7-0.4
			c0.4-0.2,0.8-0.2,1.2,0l0.7,0.3l-0.1-0.7c-0.1-0.4,0.1-0.8,0.4-1.1l0.5-0.5l-0.8-0.1c-0.4-0.1-0.8-0.3-1-0.7l-0.3-0.7l-0.3,0.7
			c-0.2,0.4-0.5,0.6-1,0.7L632.1,254.4z"/>
	</g>
	<g>
		<path class="st0" d="M686.2,259.6c-0.2,0-0.4-0.1-0.6-0.2c-0.3-0.2-0.5-0.6-0.4-1l0.4-2.4l-1.7-1.7c-0.3-0.3-0.4-0.7-0.3-1
			c0.1-0.4,0.4-0.6,0.8-0.7l2.4-0.4l1.1-2.2c0.2-0.3,0.5-0.6,0.9-0.6l0,0c0.4,0,0.7,0.2,0.9,0.6l1.1,2.2l2.4,0.3
			c0.4,0.1,0.7,0.3,0.8,0.7c0.1,0.4,0,0.8-0.3,1l-1.7,1.7l0.4,2.4c0.1,0.4-0.1,0.8-0.4,1c-0.3,0.2-0.7,0.3-1.1,0.1l-2.1-1.1
			l-2.1,1.1C686.6,259.6,686.4,259.6,686.2,259.6z M686.8,254.4l0.5,0.5c0.3,0.3,0.4,0.7,0.4,1.1l-0.1,0.8l0.7-0.4
			c0.4-0.2,0.8-0.2,1.2,0l0.7,0.3l-0.1-0.7c-0.1-0.4,0.1-0.8,0.4-1.1l0.5-0.5l-0.8-0.1c-0.4-0.1-0.8-0.3-1-0.7l-0.3-0.7l-0.3,0.7
			c-0.2,0.4-0.5,0.6-1,0.7L686.8,254.4z"/>
	</g>
	<g>
		<path class="st0" d="M706,259.6c-0.2,0-0.4-0.1-0.6-0.2c-0.3-0.2-0.5-0.6-0.4-1l0.4-2.4l-1.7-1.7c-0.3-0.3-0.4-0.7-0.3-1
			c0.1-0.4,0.4-0.6,0.8-0.7l2.4-0.4l1.1-2.2c0.2-0.3,0.5-0.6,0.9-0.6l0,0c0.4,0,0.7,0.2,0.9,0.6l1.1,2.2l2.4,0.3
			c0.4,0.1,0.7,0.3,0.8,0.7s0,0.8-0.3,1l-1.7,1.7l0.4,2.4c0.1,0.4-0.1,0.8-0.4,1s-0.7,0.3-1.1,0.1l-2.1-1.1l-2.1,1.1
			C706.3,259.6,706.2,259.6,706,259.6z M706.5,254.4l0.5,0.5c0.3,0.3,0.4,0.7,0.4,1.1l-0.1,0.8l0.7-0.4c0.4-0.2,0.8-0.2,1.2,0
			l0.7,0.3l-0.1-0.7c-0.1-0.4,0.1-0.8,0.4-1.1l0.5-0.5l-0.8-0.1c-0.4-0.1-0.8-0.3-1-0.7l-0.3-0.7l-0.3,0.7c-0.2,0.4-0.5,0.6-1,0.7
			L706.5,254.4z"/>
	</g>
	<g>
		<path class="st0" d="M696.1,254.5c-0.2,0-0.4-0.1-0.6-0.2c-0.3-0.2-0.5-0.6-0.4-1l0.4-2.4l-1.7-1.7c-0.3-0.3-0.4-0.7-0.3-1
			c0.1-0.4,0.4-0.6,0.8-0.7l2.4-0.4l1.1-2.2c0.2-0.3,0.5-0.6,0.9-0.6l0,0c0.4,0,0.7,0.2,0.9,0.6l1.1,2.2l2.4,0.3
			c0.4,0.1,0.7,0.3,0.8,0.7c0.1,0.4,0,0.8-0.3,1l-1.7,1.7l0.4,2.4c0.1,0.4-0.1,0.8-0.4,1c-0.3,0.2-0.7,0.3-1.1,0.1l-2.1-1.1
			l-2.1,1.1C696.4,254.5,696.3,254.5,696.1,254.5z M696.6,249.2l0.5,0.5c0.3,0.3,0.4,0.7,0.4,1.1l-0.1,0.8l0.7-0.4
			c0.4-0.2,0.8-0.2,1.2,0l0.7,0.3l-0.1-0.7c-0.1-0.4,0.1-0.8,0.4-1.1l0.5-0.5l-0.8-0.1c-0.4-0.1-0.8-0.3-1-0.7l-0.3-0.7l-0.3,0.7
			c-0.2,0.4-0.5,0.6-1,0.7L696.6,249.2z"/>
	</g>
	<g>
		<path class="st0" d="M696.1,264.3c-0.2,0-0.4-0.1-0.6-0.2c-0.3-0.2-0.5-0.6-0.4-1l0.4-2.4l-1.7-1.7c-0.3-0.3-0.4-0.7-0.3-1
			c0.1-0.4,0.4-0.6,0.8-0.7l2.4-0.4l1.1-2.2c0.2-0.3,0.5-0.6,0.9-0.6l0,0c0.4,0,0.7,0.2,0.9,0.6l1.1,2.2l2.4,0.3
			c0.4,0.1,0.7,0.3,0.8,0.7c0.1,0.4,0,0.8-0.3,1l-1.7,1.7l0.4,2.4c0.1,0.4-0.1,0.8-0.4,1c-0.3,0.2-0.7,0.3-1.1,0.1l-2.1-1.1
			l-2.1,1.1C696.4,264.3,696.3,264.3,696.1,264.3z M696.6,259.1l0.5,0.5c0.3,0.3,0.4,0.7,0.4,1.1l-0.1,0.8l0.7-0.4
			c0.4-0.2,0.8-0.2,1.2,0l0.7,0.3l-0.1-0.7c-0.1-0.4,0.1-0.8,0.4-1.1l0.5-0.5L700,259c-0.4-0.1-0.8-0.3-1-0.7l-0.3-0.7l-0.3,0.7
			c-0.2,0.4-0.5,0.6-1,0.7L696.6,259.1z"/>
	</g>
	<g>
		<path class="st0" d="M620.1,262.9c-0.2,0-0.4-0.1-0.6-0.2c-0.3-0.2-0.5-0.6-0.4-1l0.4-2.4l-1.7-1.7c-0.3-0.3-0.4-0.7-0.3-1
			c0.1-0.4,0.4-0.6,0.8-0.7l2.4-0.4l1.1-2.2c0.2-0.3,0.5-0.6,0.9-0.6l0,0c0.4,0,0.7,0.2,0.9,0.6l1.1,2.2l2.4,0.3
			c0.4,0.1,0.7,0.3,0.8,0.7c0.1,0.4,0,0.8-0.3,1l-1.7,1.7l0.4,2.4c0.1,0.4-0.1,0.8-0.4,1c-0.3,0.2-0.7,0.3-1.1,0.1l-2.1-1.1
			l-2.1,1.1C620.4,262.8,620.3,262.9,620.1,262.9z M620.6,257.6l0.5,0.5c0.3,0.3,0.4,0.7,0.4,1.1l-0.1,0.8l0.7-0.4
			c0.4-0.2,0.8-0.2,1.2,0l0.7,0.3l-0.1-0.7c-0.1-0.4,0.1-0.8,0.4-1.1l0.5-0.5l-0.8-0.1c-0.4-0.1-0.8-0.3-1-0.7l-0.3-0.7l-0.3,0.7
			c-0.2,0.4-0.5,0.6-1,0.7L620.6,257.6z"/>
	</g>
</g>
</svg>
