<?xml version="1.0" encoding="utf-8"?>
<!-- Generator: Adobe Illustrator 21.0.0, SVG Export Plug-In . SVG Version: 6.00 Build 0)  -->
<svg version="1.1" id="Calque_1" xmlns="http://www.w3.org/2000/svg" xmlns:xlink="http://www.w3.org/1999/xlink" x="0px" y="0px"
	 viewBox="0 0 595.3 669.5" style="enable-background:new 0 0 595.3 669.5;" xml:space="preserve">
<g id="XMLID_19_">
	<g id="XMLID_28_">
		<path id="XMLID_29_" d="M126.3,147.9c0,0.6,0.5,1.1,1.1,1.1h1.2c0.3,1.3,1.5,2.3,3,2.3h1.6c0.5,1.9,2.2,3.3,4.3,3.3
			s3.8-1.4,4.3-3.3h7.7c0.5,1.9,2.2,3.3,4.3,3.3c2.4,0,4.3-1.9,4.4-4.2c2.9-1.4,4.9-4.4,4.9-7.8v-1.8c0-0.6-0.5-1.1-1.1-1.1h-3.5
			l-5.4-5.8c-0.2-0.2-0.5-0.3-0.8-0.3h-9.7c-2.6,0-5,1.3-6.4,3.4l-2.3,3.4c-2.7,1.1-4.8,3.5-5.2,6.5h-1.3
			C126.8,146.9,126.3,147.3,126.3,147.9z M135.4,151.3h4c-0.4,0.7-1.1,1.2-2,1.2S135.8,152,135.4,151.3z M154.3,149.2h-22.8
			c-0.5,0-0.9-0.4-0.9-0.9c0-3.5,2.8-6.3,6.3-6.3h23.9v0.7C160.8,146.2,157.9,149.2,154.3,149.2L154.3,149.2z M151.7,151.3h2.6
			c0.5,0,1,0,1.5-0.1c-0.4,0.8-1.2,1.4-2.1,1.4C152.8,152.5,152,152,151.7,151.3z M142.6,135.8h3.6v4H137h-0.1l1.1-1.6
			C138.9,136.7,140.7,135.8,142.6,135.8z M151.8,135.8l3.7,4h-7.2v-4H151.8z"/>
	</g>
	<path d="M144.6,173.2c-16,0-29.1-13.1-29.1-29.1s13.1-29.1,29.1-29.1s29.1,13.1,29.1,29.1S160.6,173.2,144.6,173.2z M144.6,117
		c-14.9,0-27.1,12.2-27.1,27.1s12.2,27.1,27.1,27.1s27.1-12.2,27.1-27.1S159.5,117,144.6,117z"/>
</g>
<g id="XMLID_301_">
	<path id="XMLID_302_" d="M203.1,141.1c0,0.6,0.5,1.1,1.1,1.1h1.2c0.3,1.3,1.5,2.3,3,2.3h1.6c0.5,1.9,2.2,3.3,4.3,3.3
		c2.1,0,3.8-1.4,4.3-3.3h7.7c0.5,1.9,2.2,3.3,4.3,3.3c2.4,0,4.3-1.9,4.4-4.2c2.9-1.4,4.9-4.4,4.9-7.8V134c0-0.6-0.5-1.1-1.1-1.1
		h-3.5l-5.4-5.8c-0.2-0.2-0.5-0.3-0.8-0.3h-9.7c-2.6,0-5,1.3-6.4,3.4l-2.3,3.4c-2.7,1.1-4.8,3.5-5.2,6.5h-1.3
		C203.6,140,203.1,140.5,203.1,141.1z M212.2,144.4h4c-0.4,0.7-1.1,1.2-2,1.2C213.4,145.6,212.6,145.1,212.2,144.4z M231.1,142.3
		h-22.7c-0.5,0-0.9-0.4-0.9-0.9c0-3.5,2.8-6.3,6.3-6.3h23.9v0.7C237.7,139.3,234.7,142.3,231.1,142.3L231.1,142.3z M228.5,144.4h2.6
		c0.5,0,1,0,1.5-0.1c-0.4,0.8-1.2,1.4-2.1,1.4C229.6,145.6,228.9,145.1,228.5,144.4z M219.4,128.9h3.6v4h-9.2h-0.1l1.1-1.6
		C215.8,129.8,217.5,128.9,219.4,128.9z M228.6,128.9l3.7,4h-7.2v-4H228.6z"/>
	<path d="M222.2,173.2c-16,0-29.1-13.1-29.1-29.1s13.1-29.1,29.1-29.1s29.1,13.1,29.1,29.1S238.2,173.2,222.2,173.2z M222.2,117
		c-14.9,0-27.1,12.2-27.1,27.1s12.2,27.1,27.1,27.1s27.1-12.2,27.1-27.1S237.1,117,222.2,117z"/>
	<g>
		<path d="M219.6,162.7c-0.2,0-0.4-0.1-0.6-0.2c-0.3-0.2-0.5-0.6-0.4-1l0.4-2.4l-1.7-1.7c-0.3-0.3-0.4-0.7-0.3-1
			c0.1-0.4,0.4-0.6,0.8-0.7l2.4-0.4l1.1-2.2c0.2-0.3,0.5-0.6,0.9-0.6l0,0c0.4,0,0.7,0.2,0.9,0.6l1.1,2.2l2.4,0.3
			c0.4,0.1,0.7,0.3,0.8,0.7s0,0.8-0.3,1l-1.7,1.7l0.4,2.4c0.1,0.4-0.1,0.8-0.4,1c-0.3,0.2-0.7,0.3-1.1,0.1l-2.1-1.1l-2.1,1.1
			C220,162.7,219.8,162.7,219.6,162.7z M220.2,157.5l0.5,0.5c0.3,0.3,0.4,0.7,0.4,1.1l-0.1,0.8l0.7-0.4c0.4-0.2,0.8-0.2,1.2,0
			l0.7,0.3l-0.1-0.7c-0.1-0.4,0.1-0.8,0.4-1.1l0.5-0.5l-0.8-0.1c-0.4-0.1-0.8-0.3-1-0.7l-0.3-0.7l-0.3,0.7c-0.2,0.4-0.5,0.6-1,0.7
			L220.2,157.5z"/>
	</g>
</g>
<g id="XMLID_259_">
	<path id="XMLID_260_" d="M280.1,141.1c0,0.6,0.5,1.1,1.1,1.1h1.2c0.3,1.3,1.5,2.3,3,2.3h1.6c0.5,1.9,2.2,3.3,4.3,3.3
		s3.8-1.4,4.3-3.3h7.7c0.5,1.9,2.2,3.3,4.3,3.3c2.4,0,4.3-1.9,4.4-4.2c2.9-1.4,4.9-4.4,4.9-7.8V134c0-0.6-0.5-1.1-1.1-1.1h-3.5
		l-5.4-5.8c-0.2-0.2-0.5-0.3-0.8-0.3h-9.7c-2.6,0-5,1.3-6.4,3.4l-2.3,3.4c-2.7,1.1-4.8,3.5-5.2,6.5h-1.3
		C280.6,140,280.1,140.5,280.1,141.1z M289.2,144.4h4c-0.4,0.7-1.1,1.2-2,1.2C290.4,145.6,289.6,145.1,289.2,144.4z M308.1,142.3
		h-22.7c-0.5,0-0.9-0.4-0.9-0.9c0-3.5,2.8-6.3,6.3-6.3h23.9v0.7C314.7,139.3,311.7,142.3,308.1,142.3L308.1,142.3z M305.5,144.4h2.6
		c0.5,0,1,0,1.5-0.1c-0.4,0.8-1.2,1.4-2.1,1.4C306.6,145.6,305.9,145.1,305.5,144.4z M296.4,128.9h3.6v4h-9.2h-0.1l1.1-1.6
		C292.8,129.8,294.5,128.9,296.4,128.9z M305.6,128.9l3.7,4h-7.2v-4H305.6z"/>
	<path d="M298.4,173.2c-16,0-29.1-13.1-29.1-29.1s13.1-29.1,29.1-29.1s29.1,13.1,29.1,29.1S314.4,173.2,298.4,173.2z M298.4,117
		c-14.9,0-27.1,12.2-27.1,27.1s12.2,27.1,27.1,27.1c14.9,0,27.1-12.2,27.1-27.1S313.3,117,298.4,117z"/>
	<g>
		<path d="M289.1,162.7c-0.2,0-0.4-0.1-0.6-0.2c-0.3-0.2-0.5-0.6-0.4-1l0.4-2.4l-1.7-1.7c-0.3-0.3-0.4-0.7-0.3-1
			c0.1-0.4,0.4-0.6,0.8-0.7l2.4-0.4l1.1-2.2c0.2-0.3,0.5-0.6,0.9-0.6l0,0c0.4,0,0.7,0.2,0.9,0.6l1.1,2.2l2.4,0.3
			c0.4,0.1,0.7,0.3,0.8,0.7c0.1,0.4,0,0.8-0.3,1l-1.7,1.7l0.4,2.4c0.1,0.4-0.1,0.8-0.4,1c-0.3,0.2-0.7,0.3-1.1,0.1l-2.1-1.1
			l-2.1,1.1C289.5,162.7,289.3,162.7,289.1,162.7z M289.7,157.5l0.5,0.5c0.3,0.3,0.4,0.7,0.4,1.1l-0.1,0.8l0.7-0.4
			c0.4-0.2,0.8-0.2,1.2,0l0.7,0.3l-0.1-0.7c-0.1-0.4,0.1-0.8,0.4-1.1l0.5-0.5l-0.8-0.1c-0.4-0.1-0.8-0.3-1-0.7l-0.3-0.7l-0.3,0.7
			c-0.2,0.4-0.5,0.6-1,0.7L289.7,157.5z"/>
	</g>
	<g>
		<path d="M302.6,162.7c-0.2,0-0.4-0.1-0.6-0.2c-0.3-0.2-0.5-0.6-0.4-1l0.4-2.4l-1.7-1.7c-0.3-0.3-0.4-0.7-0.3-1
			c0.1-0.4,0.4-0.6,0.8-0.7l2.4-0.4l1.1-2.2c0.2-0.3,0.5-0.6,0.9-0.6l0,0c0.4,0,0.7,0.2,0.9,0.6l1.1,2.2l2.4,0.3
			c0.4,0.1,0.7,0.3,0.8,0.7c0.1,0.4,0,0.8-0.3,1l-1.7,1.7l0.4,2.4c0.1,0.4-0.1,0.8-0.4,1c-0.3,0.2-0.7,0.3-1.1,0.1l-2.1-1.1
			l-2.1,1.1C302.9,162.7,302.8,162.7,302.6,162.7z M303.1,157.5l0.5,0.5c0.3,0.3,0.4,0.7,0.4,1.1l-0.1,0.8l0.7-0.4
			c0.4-0.2,0.8-0.2,1.2,0l0.7,0.3l-0.1-0.7c-0.1-0.4,0.1-0.8,0.4-1.1l0.5-0.5l-0.8-0.1c-0.4-0.1-0.8-0.3-1-0.7l-0.3-0.7l-0.3,0.7
			c-0.2,0.4-0.5,0.6-1,0.7L303.1,157.5z"/>
	</g>
</g>
<g id="XMLID_250_">
	<path id="XMLID_251_" d="M356.4,141.1c0,0.6,0.5,1.1,1.1,1.1h1.2c0.3,1.3,1.5,2.3,3,2.3h1.6c0.5,1.9,2.2,3.3,4.3,3.3
		s3.8-1.4,4.3-3.3h7.7c0.5,1.9,2.2,3.3,4.3,3.3c2.4,0,4.3-1.9,4.4-4.2c2.9-1.4,4.9-4.4,4.9-7.8V134c0-0.6-0.5-1.1-1.1-1.1h-3.6
		l-5.4-5.8c-0.2-0.2-0.5-0.3-0.8-0.3h-9.7c-2.6,0-5,1.3-6.4,3.4l-2.3,3.4c-2.7,1.1-4.8,3.5-5.2,6.5h-1.3
		C356.8,140,356.4,140.5,356.4,141.1z M365.5,144.4h4c-0.4,0.7-1.1,1.2-2,1.2S365.9,145.1,365.5,144.4z M384.4,142.3h-22.7
		c-0.5,0-0.9-0.4-0.9-0.9c0-3.5,2.8-6.3,6.3-6.3H391v0.7C390.9,139.3,388,142.3,384.4,142.3L384.4,142.3z M381.7,144.4h2.6
		c0.5,0,1,0,1.5-0.1c-0.4,0.8-1.2,1.4-2.1,1.4C382.9,145.6,382.1,145.1,381.7,144.4z M372.6,128.9h3.6v4H367h-0.1l1.1-1.6
		C369,129.8,370.8,128.9,372.6,128.9z M381.8,128.9l3.7,4h-7.2v-4H381.8z"/>
	<path d="M374.7,173.2c-16,0-29.1-13.1-29.1-29.1s13.1-29.1,29.1-29.1s29.1,13.1,29.1,29.1S390.7,173.2,374.7,173.2z M374.7,117
		c-14.9,0-27.1,12.2-27.1,27.1s12.2,27.1,27.1,27.1c14.9,0,27.1-12.2,27.1-27.1S389.6,117,374.7,117z"/>
	<g>
		<path d="M360.7,162.7c-0.2,0-0.4-0.1-0.6-0.2c-0.3-0.2-0.5-0.6-0.4-1l0.4-2.4l-1.7-1.7c-0.3-0.3-0.4-0.7-0.3-1
			c0.1-0.4,0.4-0.6,0.8-0.7l2.4-0.4l1.1-2.2c0.2-0.3,0.5-0.6,0.9-0.6l0,0c0.4,0,0.7,0.2,0.9,0.6l1.1,2.2l2.4,0.3
			c0.4,0.1,0.7,0.3,0.8,0.7c0.1,0.4,0,0.8-0.3,1l-1.7,1.7l0.4,2.4c0.1,0.4-0.1,0.8-0.4,1c-0.3,0.2-0.7,0.3-1.1,0.1l-2.1-1.1
			l-2.1,1.1C361,162.7,360.9,162.7,360.7,162.7z M361.2,157.5l0.5,0.5c0.3,0.3,0.4,0.7,0.4,1.1l-0.1,0.8l0.7-0.4
			c0.4-0.2,0.8-0.2,1.2,0l0.7,0.3l-0.1-0.7c-0.1-0.4,0.1-0.8,0.4-1.1l0.5-0.5l-0.8-0.1c-0.4-0.1-0.8-0.3-1-0.7l-0.3-0.7l-0.3,0.7
			c-0.2,0.4-0.5,0.6-1,0.7L361.2,157.5z"/>
	</g>
	<g>
		<path d="M383.6,162.7c-0.2,0-0.4-0.1-0.6-0.2c-0.3-0.2-0.5-0.6-0.4-1l0.4-2.4l-1.7-1.7c-0.3-0.3-0.4-0.7-0.3-1
			c0.1-0.4,0.4-0.6,0.8-0.7l2.4-0.4l1.1-2.2c0.2-0.3,0.5-0.6,0.9-0.6l0,0c0.4,0,0.7,0.2,0.9,0.6l1.1,2.2l2.4,0.3
			c0.4,0.1,0.7,0.3,0.8,0.7c0.1,0.4,0,0.8-0.3,1l-1.7,1.7l0.4,2.4c0.1,0.4-0.1,0.8-0.4,1c-0.3,0.2-0.7,0.3-1.1,0.1l-2.1-1.1
			l-2.1,1.1C383.9,162.7,383.8,162.7,383.6,162.7z M384.1,157.5l0.5,0.5c0.3,0.3,0.4,0.7,0.4,1.1l-0.1,0.8l0.7-0.4
			c0.4-0.2,0.8-0.2,1.2,0l0.7,0.3l-0.1-0.7c-0.1-0.4,0.1-0.8,0.4-1.1l0.5-0.5l-0.8-0.1c-0.4-0.1-0.8-0.3-1-0.7l-0.3-0.7l-0.3,0.7
			c-0.2,0.4-0.5,0.6-1,0.7L384.1,157.5z"/>
	</g>
	<g>
		<path d="M372.1,166c-0.2,0-0.4-0.1-0.6-0.2c-0.3-0.2-0.5-0.6-0.4-1l0.4-2.4l-1.7-1.7c-0.3-0.3-0.4-0.7-0.3-1
			c0.1-0.4,0.4-0.6,0.8-0.7l2.4-0.4l1.1-2.2c0.2-0.3,0.5-0.6,0.9-0.6l0,0c0.4,0,0.7,0.2,0.9,0.6l1.1,2.2l2.4,0.3
			c0.4,0.1,0.7,0.3,0.8,0.7s0,0.8-0.3,1l-1.7,1.7l0.4,2.4c0.1,0.4-0.1,0.8-0.4,1c-0.3,0.2-0.7,0.3-1.1,0.1l-2.1-1.1l-2.1,1.1
			C372.4,165.9,372.3,166,372.1,166z M372.6,160.7l0.5,0.5c0.3,0.3,0.4,0.7,0.4,1.1l-0.1,0.8l0.7-0.4c0.4-0.2,0.8-0.2,1.2,0l0.7,0.3
			l-0.1-0.7c-0.1-0.4,0.1-0.8,0.4-1.1l0.5-0.5l-0.8-0.1c-0.4-0.1-0.8-0.3-1-0.7l-0.3-0.7l-0.3,0.7c-0.2,0.4-0.5,0.6-1,0.7
			L372.6,160.7z"/>
	</g>
</g>
<g id="XMLID_241_">
	<path id="XMLID_242_" d="M432.4,141.1c0,0.6,0.5,1.1,1.1,1.1h1.2c0.3,1.3,1.5,2.3,3,2.3h1.6c0.5,1.9,2.2,3.3,4.3,3.3
		s3.8-1.4,4.3-3.3h7.7c0.5,1.9,2.2,3.3,4.3,3.3c2.4,0,4.3-1.9,4.4-4.2c2.9-1.4,4.9-4.4,4.9-7.8V134c0-0.6-0.5-1.1-1.1-1.1h-3.6
		l-5.4-5.8c-0.2-0.2-0.5-0.3-0.8-0.3h-9.7c-2.6,0-5,1.3-6.4,3.4l-2.3,3.4c-2.7,1.1-4.8,3.5-5.2,6.5h-1.3
		C432.8,140,432.4,140.5,432.4,141.1z M441.5,144.4h4c-0.4,0.7-1.1,1.2-2,1.2S441.9,145.1,441.5,144.4z M460.4,142.3h-22.7
		c-0.5,0-0.9-0.4-0.9-0.9c0-3.5,2.8-6.3,6.3-6.3H467v0.7C466.9,139.3,464,142.3,460.4,142.3L460.4,142.3z M457.7,144.4h2.6
		c0.5,0,1,0,1.5-0.1c-0.4,0.8-1.2,1.4-2.1,1.4C458.9,145.6,458.1,145.1,457.7,144.4z M448.6,128.9h3.6v4H443h-0.1l1.1-1.6
		C445,129.8,446.8,128.9,448.6,128.9z M457.8,128.9l3.7,4h-7.2v-4H457.8z"/>
	<path d="M450.7,173.2c-16,0-29.1-13.1-29.1-29.1s13.1-29.1,29.1-29.1s29.1,13.1,29.1,29.1S466.7,173.2,450.7,173.2z M450.7,117
		c-14.9,0-27.1,12.2-27.1,27.1s12.2,27.1,27.1,27.1c14.9,0,27.1-12.2,27.1-27.1S465.6,117,450.7,117z"/>
	<g>
		<path d="M438.2,162.7c-0.2,0-0.4-0.1-0.6-0.2c-0.3-0.2-0.5-0.6-0.4-1l0.4-2.4l-1.7-1.7c-0.3-0.3-0.4-0.7-0.3-1
			c0.1-0.4,0.4-0.6,0.8-0.7l2.4-0.4l1.1-2.2c0.2-0.3,0.5-0.6,0.9-0.6l0,0c0.4,0,0.7,0.2,0.9,0.6l1.1,2.2l2.4,0.3
			c0.4,0.1,0.7,0.3,0.8,0.7c0.1,0.4,0,0.8-0.3,1L444,159l0.4,2.4c0.1,0.4-0.1,0.8-0.4,1c-0.3,0.2-0.7,0.3-1.1,0.1l-2.1-1.1l-2.1,1.1
			C438.6,162.7,438.4,162.7,438.2,162.7z M438.8,157.5l0.5,0.5c0.3,0.3,0.4,0.7,0.4,1.1l-0.1,0.8l0.7-0.4c0.4-0.2,0.8-0.2,1.2,0
			l0.7,0.3l-0.1-0.7c-0.1-0.4,0.1-0.8,0.4-1.1l0.5-0.5l-0.8-0.1c-0.4-0.1-0.8-0.3-1-0.7l-0.3-0.7l-0.3,0.7c-0.2,0.4-0.5,0.6-1,0.7
			L438.8,157.5z"/>
	</g>
	<g>
		<path d="M458,162.7c-0.2,0-0.4-0.1-0.6-0.2c-0.3-0.2-0.5-0.6-0.4-1l0.4-2.4l-1.7-1.7c-0.3-0.3-0.4-0.7-0.3-1
			c0.1-0.4,0.4-0.6,0.8-0.7l2.4-0.4l1.1-2.2c0.2-0.3,0.5-0.6,0.9-0.6l0,0c0.4,0,0.7,0.2,0.9,0.6l1.1,2.2l2.4,0.3
			c0.4,0.1,0.7,0.3,0.8,0.7s0,0.8-0.3,1l-1.7,1.7l0.4,2.4c0.1,0.4-0.1,0.8-0.4,1c-0.3,0.2-0.7,0.3-1.1,0.1l-2.1-1.1l-2.1,1.1
			C458.3,162.7,458.2,162.7,458,162.7z M458.5,157.5l0.5,0.5c0.3,0.3,0.4,0.7,0.4,1.1l-0.1,0.8l0.7-0.4c0.4-0.2,0.8-0.2,1.2,0
			l0.7,0.3l-0.1-0.7c-0.1-0.4,0.1-0.8,0.4-1.1l0.5-0.5l-0.8-0.1c-0.4-0.1-0.8-0.3-1-0.7l-0.3-0.7l-0.3,0.7c-0.2,0.4-0.5,0.6-1,0.7
			L458.5,157.5z"/>
	</g>
	<g>
		<path d="M448.1,157.6c-0.2,0-0.4-0.1-0.6-0.2c-0.3-0.2-0.5-0.6-0.4-1l0.4-2.4l-1.7-1.7c-0.3-0.3-0.4-0.7-0.3-1
			c0.1-0.4,0.4-0.6,0.8-0.7l2.4-0.4l1.1-2.2c0.2-0.3,0.5-0.6,0.9-0.6l0,0c0.4,0,0.7,0.2,0.9,0.6l1.1,2.2l2.4,0.3
			c0.4,0.1,0.7,0.3,0.8,0.7s0,0.8-0.3,1l-1.7,1.7l0.4,2.4c0.1,0.4-0.1,0.8-0.4,1c-0.3,0.2-0.7,0.3-1.1,0.1l-2.1-1.1l-2.1,1.1
			C448.4,157.5,448.3,157.6,448.1,157.6z M448.6,152.3l0.5,0.5c0.3,0.3,0.4,0.7,0.4,1.1l-0.1,0.8l0.7-0.4c0.4-0.2,0.8-0.2,1.2,0
			l0.7,0.3l-0.1-0.7c-0.1-0.4,0.1-0.8,0.4-1.1l0.5-0.5l-0.8-0.1c-0.4-0.1-0.8-0.3-1-0.7l-0.3-0.7l-0.3,0.7c-0.2,0.4-0.5,0.6-1,0.7
			L448.6,152.3z"/>
	</g>
	<g>
		<path d="M448.1,167.4c-0.2,0-0.4-0.1-0.6-0.2c-0.3-0.2-0.5-0.6-0.4-1l0.4-2.4l-1.7-1.7c-0.3-0.3-0.4-0.7-0.3-1
			c0.1-0.4,0.4-0.6,0.8-0.7l2.4-0.4l1.1-2.2c0.2-0.3,0.5-0.6,0.9-0.6l0,0c0.4,0,0.7,0.2,0.9,0.6l1.1,2.2l2.4,0.3
			c0.4,0.1,0.7,0.3,0.8,0.7c0.1,0.4,0,0.8-0.3,1l-1.7,1.7l0.4,2.4c0.1,0.4-0.1,0.8-0.4,1c-0.3,0.2-0.7,0.3-1.1,0.1l-2.1-1.1
			l-2.1,1.1C448.4,167.4,448.3,167.4,448.1,167.4z M448.6,162.2l0.5,0.5c0.3,0.3,0.4,0.7,0.4,1.1l-0.1,0.8l0.7-0.4
			c0.4-0.2,0.8-0.2,1.2,0l0.7,0.3l-0.1-0.7c-0.1-0.4,0.1-0.8,0.4-1.1l0.5-0.5l-0.8-0.1c-0.4-0.1-0.8-0.3-1-0.7l-0.3-0.7l-0.3,0.7
			c-0.2,0.4-0.5,0.6-1,0.7L448.6,162.2z"/>
	</g>
</g>
<g id="XMLID_91_">
	<path id="XMLID_92_" d="M127.9,301.4c0.4,0.5,1,0.7,1.7,0.7h0.2c0.4,1.6,1.9,2.7,3.5,2.7c1.7,0,3.1-1.2,3.5-2.7H153
		c0.4,1.6,1.9,2.7,3.5,2.7c1.7,0,3.1-1.2,3.5-2.7h3.1c0.4,0,0.8-0.3,0.9-0.6c0-0.1,1-3.2-0.5-5.7c-0.9-1.5-2.6-2.4-4.9-2.7
		c-1.1-0.1-2.2-0.5-3.1-0.9c-10.3-5.1-17.8-4.2-22.3-2.5l-2.2-0.3c-0.5-0.1-1,0.3-1.1,0.8c-0.1,0.4,0.1,0.7,0.4,0.9
		c-1.6,1-2.6,2.8-2.8,4.7l-0.4,4C127.3,300.3,127.5,300.9,127.9,301.4z M133.4,299.4c1,0,1.8,0.8,1.8,1.8s-0.8,1.8-1.8,1.8
		s-1.8-0.8-1.8-1.8S132.4,299.4,133.4,299.4z M156.6,299.4c1,0,1.8,0.8,1.8,1.8s-0.8,1.8-1.8,1.8s-1.8-0.8-1.8-1.8
		S155.7,299.4,156.6,299.4z M129.8,300.3h-0.2c-0.1,0-0.2-0.1-0.3-0.1c0,0-0.1-0.1-0.1-0.3l0.4-4c0.1-1.5,1-2.8,2.3-3.5
		c0.5-0.3,1.1-0.6,1.8-0.8c0.1,0,0.2-0.1,0.3-0.1c4.1-1.5,11.1-2.3,20.8,2.5c1.2,0.6,2.4,1,3.7,1.1c1.7,0.2,2.9,0.8,3.5,1.8
		c0.7,1.2,0.6,2.6,0.5,3.4h-2.4c-0.4-1.6-1.9-2.7-3.5-2.7s-3.1,1.2-3.5,2.7h-16.2c-0.4-1.6-1.9-2.7-3.5-2.7
		C131.7,297.5,130.2,298.7,129.8,300.3L129.8,300.3z"/>
	<path d="M145.9,325.7c-16,0-29.1-13.1-29.1-29.1s13.1-29.1,29.1-29.1s29.1,13.1,29.1,29.1S161.9,325.7,145.9,325.7z M145.9,269.5
		c-14.9,0-27.1,12.2-27.1,27.1s12.2,27.1,27.1,27.1s27.1-12.2,27.1-27.1S160.8,269.5,145.9,269.5z"/>
</g>
<g id="XMLID_2_">
	<path id="XMLID_4_" d="M204.2,296.8c0.4,0.5,1,0.7,1.7,0.7h0.2c0.4,1.6,1.9,2.7,3.5,2.7c1.7,0,3.1-1.2,3.5-2.7h16.2
		c0.4,1.6,1.9,2.7,3.5,2.7c1.7,0,3.1-1.2,3.5-2.7h3.1c0.4,0,0.8-0.3,0.9-0.6c0-0.1,1-3.2-0.5-5.7c-0.9-1.5-2.6-2.4-4.9-2.7
		c-1.1-0.1-2.2-0.5-3.1-0.9c-10.3-5.1-17.8-4.2-22.3-2.5l-2.2-0.3c-0.5-0.1-1,0.3-1.1,0.8c-0.1,0.4,0.1,0.7,0.4,0.9
		c-1.6,1-2.6,2.8-2.8,4.7l-0.4,4C203.5,295.7,203.7,296.3,204.2,296.8z M209.6,294.8c1,0,1.8,0.8,1.8,1.8s-0.8,1.8-1.8,1.8
		s-1.8-0.8-1.8-1.8C207.8,295.6,208.6,294.8,209.6,294.8z M232.9,294.8c1,0,1.8,0.8,1.8,1.8s-0.8,1.8-1.8,1.8s-1.8-0.8-1.8-1.8
		S231.9,294.8,232.9,294.8z M206.1,295.6h-0.2c-0.1,0-0.2-0.1-0.3-0.1c0,0-0.1-0.1-0.1-0.3l0.4-4c0.1-1.5,1-2.8,2.3-3.5
		c0.5-0.3,1.1-0.6,1.8-0.8c0.1,0,0.2-0.1,0.3-0.1c4.1-1.5,11.1-2.3,20.8,2.5c1.2,0.6,2.4,1,3.7,1.1c1.7,0.2,2.9,0.8,3.5,1.8
		c0.7,1.2,0.6,2.6,0.5,3.4h-2.4c-0.4-1.6-1.9-2.7-3.5-2.7s-3.1,1.2-3.5,2.7h-16.2c-0.4-1.6-1.9-2.7-3.5-2.7
		C207.9,292.9,206.5,294.1,206.1,295.6L206.1,295.6z"/>
	<path d="M222.2,325.7c-16,0-29.1-13.1-29.1-29.1s13.1-29.1,29.1-29.1s29.1,13.1,29.1,29.1S238.2,325.7,222.2,325.7z M222.2,269.5
		c-14.9,0-27.1,12.2-27.1,27.1s12.2,27.1,27.1,27.1s27.1-12.2,27.1-27.1S237.1,269.5,222.2,269.5z"/>
	<g>
		<path d="M219.6,315.4c-0.2,0-0.4-0.1-0.6-0.2c-0.3-0.2-0.5-0.6-0.4-1l0.4-2.4l-1.7-1.7c-0.3-0.3-0.4-0.7-0.3-1
			c0.1-0.4,0.4-0.6,0.8-0.7l2.4-0.4l1.1-2.2c0.2-0.3,0.5-0.6,0.9-0.6l0,0c0.4,0,0.7,0.2,0.9,0.6l1.1,2.2l2.4,0.3
			c0.4,0.1,0.7,0.3,0.8,0.7s0,0.8-0.3,1l-1.7,1.7l0.4,2.4c0.1,0.4-0.1,0.8-0.4,1c-0.3,0.2-0.7,0.3-1.1,0.1l-2.1-1.1l-2.1,1.1
			C220,315.4,219.8,315.4,219.6,315.4z M220.2,310.2l0.5,0.5c0.3,0.3,0.4,0.7,0.4,1.1l-0.1,0.8l0.7-0.4c0.4-0.2,0.8-0.2,1.2,0
			l0.7,0.3l-0.1-0.7c-0.1-0.4,0.1-0.8,0.4-1.1l0.5-0.5l-0.8-0.1c-0.4-0.1-0.8-0.3-1-0.7l-0.3-0.7l-0.3,0.7c-0.2,0.4-0.5,0.6-1,0.7
			L220.2,310.2z"/>
	</g>
</g>
<g id="XMLID_9_">
	<path id="XMLID_10_" d="M280.4,296.8c0.4,0.5,1,0.7,1.7,0.7h0.2c0.4,1.6,1.9,2.7,3.5,2.7s3.1-1.2,3.5-2.7h16.2
		c0.4,1.6,1.9,2.7,3.5,2.7c1.7,0,3.1-1.2,3.5-2.7h3.1c0.4,0,0.8-0.3,0.9-0.6c0-0.1,1-3.2-0.5-5.7c-0.9-1.5-2.6-2.4-4.9-2.7
		c-1.1-0.1-2.2-0.5-3.1-0.9c-10.3-5.1-17.8-4.2-22.3-2.5l-2.2-0.3c-0.5-0.1-1,0.3-1.1,0.8c-0.1,0.4,0.1,0.7,0.4,0.9
		c-1.6,1-2.6,2.8-2.8,4.7l-0.4,4C279.8,295.7,280,296.3,280.4,296.8z M285.9,294.8c1,0,1.8,0.8,1.8,1.8s-0.8,1.8-1.8,1.8
		s-1.8-0.8-1.8-1.8C284.1,295.6,284.9,294.8,285.9,294.8z M309.1,294.8c1,0,1.8,0.8,1.8,1.8s-0.8,1.8-1.8,1.8s-1.8-0.8-1.8-1.8
		C307.4,295.6,308.2,294.8,309.1,294.8z M282.3,295.6h-0.2c-0.1,0-0.2-0.1-0.3-0.1c0,0-0.1-0.1-0.1-0.3l0.4-4c0.1-1.5,1-2.8,2.3-3.5
		c0.5-0.3,1.1-0.6,1.8-0.8c0.1,0,0.2-0.1,0.3-0.1c4.1-1.5,11.1-2.3,20.8,2.5c1.2,0.6,2.4,1,3.7,1.1c1.7,0.2,2.9,0.8,3.5,1.8
		c0.7,1.2,0.6,2.6,0.5,3.4h-2.4c-0.4-1.6-1.9-2.7-3.5-2.7c-1.7,0-3.1,1.2-3.5,2.7h-16.2c-0.4-1.6-1.9-2.7-3.5-2.7
		S282.7,294.1,282.3,295.6L282.3,295.6z"/>
	<path d="M298.4,325.7c-16,0-29.1-13.1-29.1-29.1s13.1-29.1,29.1-29.1s29.1,13.1,29.1,29.1S314.4,325.7,298.4,325.7z M298.4,269.5
		c-14.9,0-27.1,12.2-27.1,27.1s12.2,27.1,27.1,27.1c14.9,0,27.1-12.2,27.1-27.1S313.3,269.5,298.4,269.5z"/>
	<g>
		<path d="M289.1,315.4c-0.2,0-0.4-0.1-0.6-0.2c-0.3-0.2-0.5-0.6-0.4-1l0.4-2.4l-1.7-1.7c-0.3-0.3-0.4-0.7-0.3-1
			c0.1-0.4,0.4-0.6,0.8-0.7l2.4-0.4l1.1-2.2c0.2-0.3,0.5-0.6,0.9-0.6l0,0c0.4,0,0.7,0.2,0.9,0.6l1.1,2.2l2.4,0.3
			c0.4,0.1,0.7,0.3,0.8,0.7s0,0.8-0.3,1l-1.7,1.7l0.4,2.4c0.1,0.4-0.1,0.8-0.4,1c-0.3,0.2-0.7,0.3-1.1,0.1l-2.1-1.1l-2.1,1.1
			C289.5,315.4,289.3,315.4,289.1,315.4z M289.7,310.2l0.5,0.5c0.3,0.3,0.4,0.7,0.4,1.1l-0.1,0.8l0.7-0.4c0.4-0.2,0.8-0.2,1.2,0
			l0.7,0.3l-0.1-0.7c-0.1-0.4,0.1-0.8,0.4-1.1l0.5-0.5l-0.8-0.1c-0.4-0.1-0.8-0.3-1-0.7l-0.3-0.7l-0.3,0.7c-0.2,0.4-0.5,0.6-1,0.7
			L289.7,310.2z"/>
	</g>
	<g>
		<path d="M302.6,315.4c-0.2,0-0.4-0.1-0.6-0.2c-0.3-0.2-0.5-0.6-0.4-1l0.4-2.4l-1.7-1.7c-0.3-0.3-0.4-0.7-0.3-1
			c0.1-0.4,0.4-0.6,0.8-0.7l2.4-0.4l1.1-2.2c0.2-0.3,0.5-0.6,0.9-0.6l0,0c0.4,0,0.7,0.2,0.9,0.6l1.1,2.2l2.4,0.3
			c0.4,0.1,0.7,0.3,0.8,0.7s0,0.8-0.3,1l-1.7,1.7l0.4,2.4c0.1,0.4-0.1,0.8-0.4,1c-0.3,0.2-0.7,0.3-1.1,0.1l-2.1-1.1l-2.1,1.1
			C302.9,315.4,302.8,315.4,302.6,315.4z M303.1,310.2l0.5,0.5c0.3,0.3,0.4,0.7,0.4,1.1l-0.1,0.8l0.7-0.4c0.4-0.2,0.8-0.2,1.2,0
			l0.7,0.3l-0.1-0.7c-0.1-0.4,0.1-0.8,0.4-1.1l0.5-0.5l-0.8-0.1c-0.4-0.1-0.8-0.3-1-0.7l-0.3-0.7l-0.3,0.7c-0.2,0.4-0.5,0.6-1,0.7
			L303.1,310.2z"/>
	</g>
</g>
<g id="XMLID_31_">
	<path id="XMLID_32_" d="M356.7,296.8c0.4,0.5,1,0.7,1.7,0.7h0.2c0.4,1.6,1.9,2.7,3.5,2.7s3.1-1.2,3.5-2.7h16.2
		c0.4,1.6,1.9,2.7,3.5,2.7c1.7,0,3.1-1.2,3.5-2.7h3.1c0.4,0,0.8-0.3,0.9-0.6c0-0.1,1-3.2-0.5-5.7c-0.9-1.5-2.6-2.4-4.9-2.7
		c-1.1-0.1-2.2-0.5-3.1-0.9c-10.3-5.1-17.8-4.2-22.3-2.5l-2.2-0.3c-0.5-0.1-1,0.3-1.1,0.8c-0.1,0.4,0.1,0.7,0.4,0.9
		c-1.6,1-2.6,2.8-2.8,4.7l-0.4,4C356,295.7,356.2,296.3,356.7,296.8z M362.1,294.8c1,0,1.8,0.8,1.8,1.8s-0.8,1.8-1.8,1.8
		s-1.8-0.8-1.8-1.8S361.1,294.8,362.1,294.8z M385.4,294.8c1,0,1.8,0.8,1.8,1.8s-0.8,1.8-1.8,1.8s-1.8-0.8-1.8-1.8
		C383.6,295.6,384.4,294.8,385.4,294.8z M358.6,295.6h-0.2c-0.1,0-0.2-0.1-0.3-0.1c0,0-0.1-0.1-0.1-0.3l0.4-4c0.1-1.5,1-2.8,2.3-3.5
		c0.5-0.3,1.1-0.6,1.8-0.8c0.1,0,0.2-0.1,0.3-0.1c4.1-1.5,11.1-2.3,20.8,2.5c1.2,0.6,2.4,1,3.7,1.1c1.7,0.2,2.9,0.8,3.5,1.8
		c0.7,1.2,0.6,2.6,0.5,3.4h-2.4c-0.4-1.6-1.9-2.7-3.5-2.7c-1.7,0-3.1,1.2-3.5,2.7h-16.2c-0.4-1.6-1.9-2.7-3.5-2.7
		S359,294.1,358.6,295.6L358.6,295.6z"/>
	<path d="M374.7,325.7c-16,0-29.1-13.1-29.1-29.1s13.1-29.1,29.1-29.1s29.1,13.1,29.1,29.1S390.7,325.7,374.7,325.7z M374.7,269.5
		c-14.9,0-27.1,12.2-27.1,27.1s12.2,27.1,27.1,27.1c14.9,0,27.1-12.2,27.1-27.1S389.6,269.5,374.7,269.5z"/>
	<g>
		<path d="M360.7,315.4c-0.2,0-0.4-0.1-0.6-0.2c-0.3-0.2-0.5-0.6-0.4-1l0.4-2.4l-1.7-1.7c-0.3-0.3-0.4-0.7-0.3-1
			c0.1-0.4,0.4-0.6,0.8-0.7l2.4-0.4l1.1-2.2c0.2-0.3,0.5-0.6,0.9-0.6l0,0c0.4,0,0.7,0.2,0.9,0.6l1.1,2.2l2.4,0.3
			c0.4,0.1,0.7,0.3,0.8,0.7s0,0.8-0.3,1l-1.7,1.7l0.4,2.4c0.1,0.4-0.1,0.8-0.4,1c-0.3,0.2-0.7,0.3-1.1,0.1l-2.1-1.1l-2.1,1.1
			C361,315.4,360.9,315.4,360.7,315.4z M361.2,310.2l0.5,0.5c0.3,0.3,0.4,0.7,0.4,1.1l-0.1,0.8l0.7-0.4c0.4-0.2,0.8-0.2,1.2,0
			l0.7,0.3l-0.1-0.7c-0.1-0.4,0.1-0.8,0.4-1.1l0.5-0.5l-0.8-0.1c-0.4-0.1-0.8-0.3-1-0.7l-0.3-0.7l-0.3,0.7c-0.2,0.4-0.5,0.6-1,0.7
			L361.2,310.2z"/>
	</g>
	<g>
		<path d="M383.6,315.4c-0.2,0-0.4-0.1-0.6-0.2c-0.3-0.2-0.5-0.6-0.4-1l0.4-2.4l-1.7-1.7c-0.3-0.3-0.4-0.7-0.3-1
			c0.1-0.4,0.4-0.6,0.8-0.7l2.4-0.4l1.1-2.2c0.2-0.3,0.5-0.6,0.9-0.6l0,0c0.4,0,0.7,0.2,0.9,0.6l1.1,2.2l2.4,0.3
			c0.4,0.1,0.7,0.3,0.8,0.7s0,0.8-0.3,1l-1.7,1.7l0.4,2.4c0.1,0.4-0.1,0.8-0.4,1c-0.3,0.2-0.7,0.3-1.1,0.1l-2.1-1.1l-2.1,1.1
			C383.9,315.4,383.8,315.4,383.6,315.4z M384.1,310.2l0.5,0.5c0.3,0.3,0.4,0.7,0.4,1.1l-0.1,0.8l0.7-0.4c0.4-0.2,0.8-0.2,1.2,0
			l0.7,0.3l-0.1-0.7c-0.1-0.4,0.1-0.8,0.4-1.1l0.5-0.5l-0.8-0.1c-0.4-0.1-0.8-0.3-1-0.7l-0.3-0.7l-0.3,0.7c-0.2,0.4-0.5,0.6-1,0.7
			L384.1,310.2z"/>
	</g>
	<g>
		<path d="M372.1,318.7c-0.2,0-0.4-0.1-0.6-0.2c-0.3-0.2-0.5-0.6-0.4-1l0.4-2.4l-1.7-1.7c-0.3-0.3-0.4-0.7-0.3-1
			c0.1-0.4,0.4-0.6,0.8-0.7l2.4-0.4l1.1-2.2c0.2-0.3,0.5-0.6,0.9-0.6l0,0c0.4,0,0.7,0.2,0.9,0.6l1.1,2.2l2.4,0.3
			c0.4,0.1,0.7,0.3,0.8,0.7c0.1,0.4,0,0.8-0.3,1l-1.7,1.7l0.4,2.4c0.1,0.4-0.1,0.8-0.4,1c-0.3,0.2-0.7,0.3-1.1,0.1l-2.1-1.1
			l-2.1,1.1C372.4,318.6,372.3,318.7,372.1,318.7z M372.6,313.4l0.5,0.5c0.3,0.3,0.4,0.7,0.4,1.1l-0.1,0.8l0.7-0.4
			c0.4-0.2,0.8-0.2,1.2,0l0.7,0.3l-0.1-0.7c-0.1-0.4,0.1-0.8,0.4-1.1l0.5-0.5l-0.8-0.1c-0.4-0.1-0.8-0.3-1-0.7l-0.3-0.7l-0.3,0.7
			c-0.2,0.4-0.5,0.6-1,0.7L372.6,313.4z"/>
	</g>
</g>
<g id="XMLID_22_">
	<path id="XMLID_23_" d="M432.7,296.8c0.4,0.5,1,0.7,1.7,0.7h0.2c0.4,1.6,1.9,2.7,3.5,2.7c1.7,0,3.1-1.2,3.5-2.7h16.2
		c0.4,1.6,1.9,2.7,3.5,2.7s3.1-1.2,3.5-2.7h3.1c0.4,0,0.8-0.3,0.9-0.6c0-0.1,1-3.2-0.5-5.7c-0.9-1.5-2.6-2.4-4.9-2.7
		c-1.1-0.1-2.2-0.5-3.1-0.9c-10.3-5.1-17.8-4.2-22.3-2.5l-2.2-0.3c-0.5-0.1-1,0.3-1.1,0.8c-0.1,0.4,0.1,0.7,0.4,0.9
		c-1.6,1-2.6,2.8-2.8,4.7l-0.4,4C432,295.7,432.2,296.3,432.7,296.8z M438.1,294.8c1,0,1.8,0.8,1.8,1.8s-0.8,1.8-1.8,1.8
		s-1.8-0.8-1.8-1.8S437.1,294.8,438.1,294.8z M461.4,294.8c1,0,1.8,0.8,1.8,1.8s-0.8,1.8-1.8,1.8s-1.8-0.8-1.8-1.8
		C459.6,295.6,460.4,294.8,461.4,294.8z M434.6,295.6h-0.2c-0.1,0-0.2-0.1-0.3-0.1c0,0-0.1-0.1-0.1-0.3l0.4-4c0.1-1.5,1-2.8,2.3-3.5
		c0.5-0.3,1.1-0.6,1.8-0.8c0.1,0,0.2-0.1,0.3-0.1c4.1-1.5,11.1-2.3,20.8,2.5c1.2,0.6,2.4,1,3.7,1.1c1.7,0.2,2.9,0.8,3.5,1.8
		c0.7,1.2,0.6,2.6,0.5,3.4h-2.4c-0.4-1.6-1.9-2.7-3.5-2.7c-1.7,0-3.1,1.2-3.5,2.7h-16.2c-0.4-1.6-1.9-2.7-3.5-2.7
		C436.4,292.9,435,294.1,434.6,295.6L434.6,295.6z"/>
	<path d="M450.7,325.7c-16,0-29.1-13.1-29.1-29.1s13.1-29.1,29.1-29.1s29.1,13.1,29.1,29.1S466.7,325.7,450.7,325.7z M450.7,269.5
		c-14.9,0-27.1,12.2-27.1,27.1s12.2,27.1,27.1,27.1c14.9,0,27.1-12.2,27.1-27.1S465.6,269.5,450.7,269.5z"/>
	<g>
		<path d="M438.2,315.4c-0.2,0-0.4-0.1-0.6-0.2c-0.3-0.2-0.5-0.6-0.4-1l0.4-2.4l-1.7-1.7c-0.3-0.3-0.4-0.7-0.3-1
			c0.1-0.4,0.4-0.6,0.8-0.7l2.4-0.4l1.1-2.2c0.2-0.3,0.5-0.6,0.9-0.6l0,0c0.4,0,0.7,0.2,0.9,0.6l1.1,2.2l2.4,0.3
			c0.4,0.1,0.7,0.3,0.8,0.7s0,0.8-0.3,1l-1.7,1.7l0.4,2.4c0.1,0.4-0.1,0.8-0.4,1c-0.3,0.2-0.7,0.3-1.1,0.1l-2.1-1.1l-2.1,1.1
			C438.6,315.4,438.4,315.4,438.2,315.4z M438.8,310.2l0.5,0.5c0.3,0.3,0.4,0.7,0.4,1.1l-0.1,0.8l0.7-0.4c0.4-0.2,0.8-0.2,1.2,0
			l0.7,0.3l-0.1-0.7c-0.1-0.4,0.1-0.8,0.4-1.1l0.5-0.5l-0.8-0.1c-0.4-0.1-0.8-0.3-1-0.7l-0.3-0.7l-0.3,0.7c-0.2,0.4-0.5,0.6-1,0.7
			L438.8,310.2z"/>
	</g>
	<g>
		<path d="M458,315.4c-0.2,0-0.4-0.1-0.6-0.2c-0.3-0.2-0.5-0.6-0.4-1l0.4-2.4l-1.7-1.7c-0.3-0.3-0.4-0.7-0.3-1
			c0.1-0.4,0.4-0.6,0.8-0.7l2.4-0.4l1.1-2.2c0.2-0.3,0.5-0.6,0.9-0.6l0,0c0.4,0,0.7,0.2,0.9,0.6l1.1,2.2l2.4,0.3
			c0.4,0.1,0.7,0.3,0.8,0.7s0,0.8-0.3,1l-1.7,1.7l0.4,2.4c0.1,0.4-0.1,0.8-0.4,1c-0.3,0.2-0.7,0.3-1.1,0.1l-2.1-1.1l-2.1,1.1
			C458.3,315.4,458.2,315.4,458,315.4z M458.5,310.2l0.5,0.5c0.3,0.3,0.4,0.7,0.4,1.1l-0.1,0.8l0.7-0.4c0.4-0.2,0.8-0.2,1.2,0
			l0.7,0.3l-0.1-0.7c-0.1-0.4,0.1-0.8,0.4-1.1l0.5-0.5l-0.8-0.1c-0.4-0.1-0.8-0.3-1-0.7l-0.3-0.7l-0.3,0.7c-0.2,0.4-0.5,0.6-1,0.7
			L458.5,310.2z"/>
	</g>
	<g>
		<path d="M448.1,310.3c-0.2,0-0.4-0.1-0.6-0.2c-0.3-0.2-0.5-0.6-0.4-1l0.4-2.4l-1.7-1.7c-0.3-0.3-0.4-0.7-0.3-1
			c0.1-0.4,0.4-0.6,0.8-0.7l2.4-0.4l1.1-2.2c0.2-0.3,0.5-0.6,0.9-0.6l0,0c0.4,0,0.7,0.2,0.9,0.6l1.1,2.2l2.4,0.3
			c0.4,0.1,0.7,0.3,0.8,0.7s0,0.8-0.3,1l-1.7,1.7l0.4,2.4c0.1,0.4-0.1,0.8-0.4,1c-0.3,0.2-0.7,0.3-1.1,0.1l-2.1-1.1l-2.1,1.1
			C448.4,310.3,448.3,310.3,448.1,310.3z M448.6,305l0.5,0.5c0.3,0.3,0.4,0.7,0.4,1.1l-0.1,0.8l0.7-0.4c0.4-0.2,0.8-0.2,1.2,0
			l0.7,0.3l-0.1-0.7c-0.1-0.4,0.1-0.8,0.4-1.1l0.5-0.5l-0.8-0.1c-0.4-0.1-0.8-0.3-1-0.7l-0.3-0.7l-0.3,0.7c-0.2,0.4-0.5,0.6-1,0.7
			L448.6,305z"/>
	</g>
	<g>
		<path d="M448.1,320.1c-0.2,0-0.4-0.1-0.6-0.2c-0.3-0.2-0.5-0.6-0.4-1l0.4-2.4l-1.7-1.7c-0.3-0.3-0.4-0.7-0.3-1
			c0.1-0.4,0.4-0.6,0.8-0.7l2.4-0.4l1.1-2.2c0.2-0.3,0.5-0.6,0.9-0.6l0,0c0.4,0,0.7,0.2,0.9,0.6l1.1,2.2l2.4,0.3
			c0.4,0.1,0.7,0.3,0.8,0.7c0.1,0.4,0,0.8-0.3,1l-1.7,1.7l0.4,2.4c0.1,0.4-0.1,0.8-0.4,1c-0.3,0.2-0.7,0.3-1.1,0.1l-2.1-1.1
			l-2.1,1.1C448.4,320.1,448.3,320.1,448.1,320.1z M448.6,314.9l0.5,0.5c0.3,0.3,0.4,0.7,0.4,1.1l-0.1,0.8l0.7-0.4
			c0.4-0.2,0.8-0.2,1.2,0l0.7,0.3l-0.1-0.7c-0.1-0.4,0.1-0.8,0.4-1.1l0.5-0.5l-0.8-0.1c-0.4-0.1-0.8-0.3-1-0.7l-0.3-0.7l-0.3,0.7
			c-0.2,0.4-0.5,0.6-1,0.7L448.6,314.9z"/>
	</g>
</g>
<g id="XMLID_17_">
	<path id="XMLID_18_" d="M165.1,372.9l-1.1-0.7l-0.8-2.2c-0.1-0.4-0.5-0.7-0.9-0.7l-11.2-0.7l-3.3-2.3c-1.7-1.2-3.8-1.6-5.8-1.1
		l-2.4,0.6c-2.6,0.6-5.1,1.6-7.5,3H132h-2.8l-0.9-0.9c-0.4-0.4-1.1-0.4-1.5,0c-0.4,0.4-0.4,1.1,0,1.5l1.2,1.2
		c0.2,0.2,0.5,0.3,0.7,0.3h0.2c-0.6,0.5-1.2,1-1.8,1.5c-0.2,0.2-0.3,0.5-0.3,0.8v0.9l-0.7,1.4c-0.1,0.1-0.1,0.3-0.1,0.5
		c0,1.3,1,2.3,2.3,2.3h3.8c0.5,1.7,2,2.9,3.8,2.9s3.4-1.2,3.8-2.9h12.8c0.5,1.7,2,2.9,3.8,2.9s3.4-1.2,3.8-2.9h2.6
		c1,0,2-0.7,2.2-1.7l0.5-1.6C165.9,373.9,165.6,373.2,165.1,372.9z M163.2,375.7c0,0.1-0.1,0.2-0.2,0.2h-2.6c-0.5-1.7-2-2.9-3.8-2.9
		s-3.4,1.2-3.8,2.9H140c-0.5-1.7-2-2.9-3.8-2.9s-3.4,1.2-3.8,2.9h-3.9c-0.1,0-0.2,0-0.2-0.1l0.6-1.3c0.1-0.1,0.1-0.3,0.1-0.5v-0.6
		c3.2-2.8,7-4.7,11.1-5.7l2.4-0.6c1.4-0.3,2.9,0,4.1,0.8l3.5,2.5c0.2,0.1,0.3,0.2,0.5,0.2l10.8,0.7l0.7,1.9c0.1,0.2,0.2,0.4,0.4,0.5
		l1,0.7L163.2,375.7z M158.5,376.9c0,1-0.9,1.9-1.9,1.9s-1.9-0.9-1.9-1.9s0.9-1.9,1.9-1.9S158.5,375.8,158.5,376.9z M138,376.9
		c0,1-0.9,1.9-1.9,1.9s-1.9-0.9-1.9-1.9s0.9-1.9,1.9-1.9S138,375.8,138,376.9z"/>
	<path d="M145.9,402c-16,0-29.1-13.1-29.1-29.1s13.1-29.1,29.1-29.1s29.1,13.1,29.1,29.1S161.9,402,145.9,402z M145.9,345.8
		c-14.9,0-27.1,12.2-27.1,27.1S131,400,145.9,400s27.1-12.2,27.1-27.1S160.8,345.8,145.9,345.8z"/>
</g>
<g id="XMLID_227_">
	<path id="XMLID_230_" d="M241.3,368.2l-1.1-0.7l-0.8-2.2c-0.1-0.4-0.5-0.7-0.9-0.7l-11.2-0.7l-3.3-2.3c-1.7-1.2-3.8-1.6-5.8-1.1
		l-2.4,0.6c-2.6,0.6-5.1,1.6-7.5,3h-0.1h-2.7l-0.9-0.9c-0.4-0.4-1.1-0.4-1.5,0c-0.4,0.4-0.4,1.1,0,1.5l1.2,1.2
		c0.2,0.2,0.5,0.3,0.7,0.3h0.2c-0.6,0.5-1.2,1-1.8,1.5c-0.2,0.2-0.3,0.5-0.3,0.8v0.9l-0.7,1.4c-0.1,0.1-0.1,0.3-0.1,0.5
		c0,1.3,1,2.3,2.3,2.3h3.8c0.5,1.7,2,2.9,3.8,2.9s3.4-1.2,3.8-2.9h12.8c0.5,1.7,2,2.9,3.8,2.9s3.4-1.2,3.8-2.9h2.6
		c1,0,2-0.7,2.2-1.7l0.5-1.6C242.1,369.3,241.9,368.6,241.3,368.2z M239.5,371c0,0.1-0.1,0.2-0.2,0.2h-2.6c-0.5-1.7-2-2.9-3.8-2.9
		s-3.4,1.2-3.8,2.9h-12.8c-0.5-1.7-2-2.9-3.8-2.9s-3.4,1.2-3.8,2.9h-3.8c-0.1,0-0.2,0-0.2-0.1l0.6-1.3c0.1-0.1,0.1-0.3,0.1-0.5v-0.6
		c3.2-2.8,7-4.7,11.1-5.7l2.4-0.6c1.4-0.3,2.9,0,4.1,0.8l3.5,2.5c0.2,0.1,0.3,0.2,0.5,0.2l10.8,0.7l0.7,1.9c0.1,0.2,0.2,0.4,0.4,0.5
		l1,0.7L239.5,371z M234.7,372.2c0,1-0.9,1.9-1.9,1.9s-1.9-0.9-1.9-1.9s0.9-1.9,1.9-1.9S234.7,371.2,234.7,372.2z M214.2,372.2
		c0,1-0.9,1.9-1.9,1.9s-1.9-0.9-1.9-1.9s0.9-1.9,1.9-1.9C213.4,370.3,214.2,371.2,214.2,372.2z"/>
	<path d="M222.2,402c-16,0-29.1-13.1-29.1-29.1s13.1-29.1,29.1-29.1s29.1,13.1,29.1,29.1S238.2,402,222.2,402z M222.2,345.8
		c-14.9,0-27.1,12.2-27.1,27.1s12.2,27.1,27.1,27.1s27.1-12.2,27.1-27.1C249.3,358,237.1,345.8,222.2,345.8z"/>
	<g>
		<path d="M219.6,391.4c-0.2,0-0.4-0.1-0.6-0.2c-0.3-0.2-0.5-0.6-0.4-1l0.4-2.4l-1.7-1.7c-0.3-0.3-0.4-0.7-0.3-1
			c0.1-0.4,0.4-0.6,0.8-0.7l2.4-0.4l1.1-2.2c0.2-0.3,0.5-0.6,0.9-0.6l0,0c0.4,0,0.7,0.2,0.9,0.6l1.1,2.2l2.4,0.3
			c0.4,0.1,0.7,0.3,0.8,0.7s0,0.8-0.3,1l-1.7,1.7l0.4,2.4c0.1,0.4-0.1,0.8-0.4,1s-0.7,0.3-1.1,0.1l-2.1-1.1l-2.1,1.1
			C220,391.4,219.8,391.4,219.6,391.4z M220.2,386.2l0.5,0.5c0.3,0.3,0.4,0.7,0.4,1.1l-0.1,0.8l0.7-0.4c0.4-0.2,0.8-0.2,1.2,0
			l0.7,0.3l-0.1-0.7c-0.1-0.4,0.1-0.8,0.4-1.1l0.5-0.5l-0.8-0.1c-0.4-0.1-0.8-0.3-1-0.7l-0.3-0.7l-0.3,0.7c-0.2,0.4-0.5,0.6-1,0.7
			L220.2,386.2z"/>
	</g>
</g>
<g id="XMLID_174_">
	<path id="XMLID_175_" d="M317.3,368.2l-1.1-0.7l-0.8-2.2c-0.1-0.4-0.5-0.7-0.9-0.7l-11.2-0.7l-3.3-2.3c-1.7-1.2-3.8-1.6-5.8-1.1
		l-2.4,0.6c-2.6,0.6-5.1,1.6-7.5,3h-0.1h-2.8l-0.9-1.1c-0.4-0.4-1.1-0.4-1.5,0c-0.4,0.4-0.4,1.1,0,1.5l1.2,1.2
		c0.2,0.2,0.5,0.3,0.7,0.3h0.2c-0.6,0.5-1.2,1-1.8,1.5c-0.2,0.2-0.3,0.5-0.3,0.8v0.9l-0.7,1.4c-0.1,0.1-0.1,0.3-0.1,0.5
		c0,1.3,1,2.3,2.3,2.3h3.8c0.5,1.7,2,2.9,3.8,2.9s3.4-1.2,3.8-2.9h12.8c0.5,1.7,2,2.9,3.8,2.9s3.4-1.2,3.8-2.9h2.6
		c1,0,2-0.7,2.2-1.7l0.5-1.6C318.1,369.3,317.8,368.6,317.3,368.2z M315.4,371c0,0.1-0.1,0.2-0.2,0.2h-2.6c-0.5-1.7-2-2.9-3.8-2.9
		s-3.4,1.2-3.8,2.9h-12.8c-0.5-1.7-2-2.9-3.8-2.9s-3.4,1.2-3.8,2.9h-3.8c-0.1,0-0.2,0-0.2-0.1l0.6-1.3c0.1-0.1,0.1-0.3,0.1-0.5v-0.6
		c3.2-2.8,7-4.7,11.1-5.7l2.4-0.6c1.4-0.3,2.9,0,4.1,0.8l3.5,2.5c0.2,0.1,0.3,0.2,0.5,0.2l10.8,0.7l0.7,1.9c0.1,0.2,0.2,0.4,0.4,0.5
		l1,0.7L315.4,371z M310.7,372.2c0,1-0.9,1.9-1.9,1.9s-1.9-0.9-1.9-1.9s0.9-1.9,1.9-1.9S310.7,371.2,310.7,372.2z M290.2,372.2
		c0,1-0.9,1.9-1.9,1.9s-1.9-0.9-1.9-1.9s0.9-1.9,1.9-1.9S290.2,371.2,290.2,372.2z"/>
	<path d="M298.4,402c-16,0-29.1-13.1-29.1-29.1s13.1-29.1,29.1-29.1s29.1,13.1,29.1,29.1S314.4,402,298.4,402z M298.4,345.8
		c-14.9,0-27.1,12.2-27.1,27.1s12.2,27.1,27.1,27.1c14.9,0,27.1-12.2,27.1-27.1S313.3,345.8,298.4,345.8z"/>
	<g>
		<path d="M289.1,391.4c-0.2,0-0.4-0.1-0.6-0.2c-0.3-0.2-0.5-0.6-0.4-1l0.4-2.4l-1.7-1.7c-0.3-0.3-0.4-0.7-0.3-1
			c0.1-0.4,0.4-0.6,0.8-0.7l2.4-0.4l1.1-2.2c0.2-0.3,0.5-0.6,0.9-0.6l0,0c0.4,0,0.7,0.2,0.9,0.6l1.1,2.2l2.4,0.3
			c0.4,0.1,0.7,0.3,0.8,0.7c0.1,0.4,0,0.8-0.3,1l-1.7,1.7l0.4,2.4c0.1,0.4-0.1,0.8-0.4,1c-0.3,0.2-0.7,0.3-1.1,0.1l-2.1-1.1
			l-2.1,1.1C289.5,391.4,289.3,391.4,289.1,391.4z M289.7,386.2l0.5,0.5c0.3,0.3,0.4,0.7,0.4,1.1l-0.1,0.8l0.7-0.4
			c0.4-0.2,0.8-0.2,1.2,0l0.7,0.3l-0.1-0.7c-0.1-0.4,0.1-0.8,0.4-1.1l0.5-0.5l-0.8-0.1c-0.4-0.1-0.8-0.3-1-0.7l-0.3-0.7l-0.3,0.7
			c-0.2,0.4-0.5,0.6-1,0.7L289.7,386.2z"/>
	</g>
	<g>
		<path d="M302.6,391.4c-0.2,0-0.4-0.1-0.6-0.2c-0.3-0.2-0.5-0.6-0.4-1l0.4-2.4l-1.7-1.7c-0.3-0.3-0.4-0.7-0.3-1
			c0.1-0.4,0.4-0.6,0.8-0.7l2.4-0.4l1.1-2.2c0.2-0.3,0.5-0.6,0.9-0.6l0,0c0.4,0,0.7,0.2,0.9,0.6l1.1,2.2l2.4,0.3
			c0.4,0.1,0.7,0.3,0.8,0.7c0.1,0.4,0,0.8-0.3,1l-1.7,1.7l0.4,2.4c0.1,0.4-0.1,0.8-0.4,1c-0.3,0.2-0.7,0.3-1.1,0.1l-2.1-1.1
			l-2.1,1.1C302.9,391.4,302.8,391.4,302.6,391.4z M303.1,386.2l0.5,0.5c0.3,0.3,0.4,0.7,0.4,1.1l-0.1,0.8l0.7-0.4
			c0.4-0.2,0.8-0.2,1.2,0l0.7,0.3l-0.1-0.7c-0.1-0.4,0.1-0.8,0.4-1.1l0.5-0.5l-0.8-0.1c-0.4-0.1-0.8-0.3-1-0.7l-0.3-0.7l-0.3,0.7
			c-0.2,0.4-0.5,0.6-1,0.7L303.1,386.2z"/>
	</g>
</g>
<g id="XMLID_137_">
	<path id="XMLID_169_" d="M393.8,368.2l-1.1-0.7l-0.8-2.2c-0.1-0.4-0.5-0.7-0.9-0.7l-11.2-0.7l-3.3-2.3c-1.7-1.2-3.8-1.6-5.8-1.1
		l-2.4,0.6c-2.6,0.6-5.1,1.6-7.5,3h-0.1h-2.8l-0.9-0.9c-0.4-0.4-1.1-0.4-1.5,0c-0.4,0.4-0.4,1.1,0,1.5l1.2,1.2
		c0.2,0.2,0.5,0.3,0.7,0.3h0.2c-0.6,0.5-1.2,1-1.8,1.5c-0.2,0.2-0.3,0.5-0.3,0.8v0.9l-0.7,1.4c-0.1,0.1-0.1,0.3-0.1,0.5
		c0,1.3,1,2.3,2.3,2.3h3.8c0.5,1.7,2,2.9,3.8,2.9s3.4-1.2,3.8-2.9h13.1c0.5,1.7,2,2.9,3.8,2.9s3.4-1.2,3.8-2.9h2.6
		c1,0,2-0.7,2.2-1.7l0.5-1.6C394.6,369.3,394.4,368.6,393.8,368.2z M392,371c0,0.1-0.1,0.2-0.2,0.2h-2.6c-0.5-1.7-2-2.9-3.8-2.9
		s-3.4,1.2-3.8,2.9h-12.8c-0.5-1.7-2-2.9-3.8-2.9s-3.4,1.2-3.8,2.9h-3.8c-0.1,0-0.2,0-0.2-0.1l0.6-1.3c0.1-0.1,0.1-0.3,0.1-0.5v-0.6
		c3.2-2.8,7-4.7,11.1-5.7l2.4-0.6c1.4-0.3,2.9,0,4.1,0.8l3.5,2.5c0.2,0.1,0.3,0.2,0.5,0.2l10.8,0.7l0.7,1.9c0.1,0.2,0.2,0.4,0.4,0.5
		l1,0.7L392,371z M387.2,372.2c0,1-0.9,1.9-1.9,1.9s-1.9-0.9-1.9-1.9s0.9-1.9,1.9-1.9S387.2,371.2,387.2,372.2z M366.7,372.2
		c0,1-0.9,1.9-1.9,1.9s-1.9-0.9-1.9-1.9s0.9-1.9,1.9-1.9S366.7,371.2,366.7,372.2z"/>
	<path d="M374.7,402c-16,0-29.1-13.1-29.1-29.1s13.1-29.1,29.1-29.1s29.1,13.1,29.1,29.1S390.7,402,374.7,402z M374.7,345.8
		c-14.9,0-27.1,12.2-27.1,27.1s12.2,27.1,27.1,27.1c14.9,0,27.1-12.2,27.1-27.1S389.6,345.8,374.7,345.8z"/>
	<g>
		<path d="M360.7,391.4c-0.2,0-0.4-0.1-0.6-0.2c-0.3-0.2-0.5-0.6-0.4-1l0.4-2.4l-1.7-1.7c-0.3-0.3-0.4-0.7-0.3-1
			c0.1-0.4,0.4-0.6,0.8-0.7l2.4-0.4l1.1-2.2c0.2-0.3,0.5-0.6,0.9-0.6l0,0c0.4,0,0.7,0.2,0.9,0.6l1.1,2.2l2.4,0.3
			c0.4,0.1,0.7,0.3,0.8,0.7c0.1,0.4,0,0.8-0.3,1l-1.7,1.7l0.4,2.4c0.1,0.4-0.1,0.8-0.4,1c-0.3,0.2-0.7,0.3-1.1,0.1l-2.1-1.1
			l-2.1,1.1C361,391.4,360.9,391.4,360.7,391.4z M361.2,386.2l0.5,0.5c0.3,0.3,0.4,0.7,0.4,1.1l-0.1,0.8l0.7-0.4
			c0.4-0.2,0.8-0.2,1.2,0l0.7,0.3l-0.1-0.7c-0.1-0.4,0.1-0.8,0.4-1.1l0.5-0.5l-0.8-0.1c-0.4-0.1-0.8-0.3-1-0.7l-0.3-0.7l-0.3,0.7
			c-0.2,0.4-0.5,0.6-1,0.7L361.2,386.2z"/>
	</g>
	<g>
		<path d="M383.6,391.4c-0.2,0-0.4-0.1-0.6-0.2c-0.3-0.2-0.5-0.6-0.4-1l0.4-2.4l-1.7-1.7c-0.3-0.3-0.4-0.7-0.3-1
			c0.1-0.4,0.4-0.6,0.8-0.7l2.4-0.4l1.1-2.2c0.2-0.3,0.5-0.6,0.9-0.6l0,0c0.4,0,0.7,0.2,0.9,0.6l1.1,2.2l2.4,0.3
			c0.4,0.1,0.7,0.3,0.8,0.7c0.1,0.4,0,0.8-0.3,1l-1.7,1.7l0.4,2.4c0.1,0.4-0.1,0.8-0.4,1c-0.3,0.2-0.7,0.3-1.1,0.1l-2.1-1.1
			l-2.1,1.1C383.9,391.4,383.8,391.4,383.6,391.4z M384.1,386.2l0.5,0.5c0.3,0.3,0.4,0.7,0.4,1.1l-0.1,0.8l0.7-0.4
			c0.4-0.2,0.8-0.2,1.2,0l0.7,0.3l-0.1-0.7c-0.1-0.4,0.1-0.8,0.4-1.1l0.5-0.5l-0.8-0.1c-0.4-0.1-0.8-0.3-1-0.7l-0.3-0.7l-0.3,0.7
			c-0.2,0.4-0.5,0.6-1,0.7L384.1,386.2z"/>
	</g>
	<g>
		<path d="M372.1,394.7c-0.2,0-0.4-0.1-0.6-0.2c-0.3-0.2-0.5-0.6-0.4-1l0.4-2.4l-1.7-1.7c-0.3-0.3-0.4-0.7-0.3-1
			c0.1-0.4,0.4-0.6,0.8-0.7l2.4-0.4l1.1-2.2c0.2-0.3,0.5-0.6,0.9-0.6l0,0c0.4,0,0.7,0.2,0.9,0.6l1.1,2.2l2.4,0.3
			c0.4,0.1,0.7,0.3,0.8,0.7c0.1,0.4,0,0.8-0.3,1l-1.7,1.7l0.4,2.4c0.1,0.4-0.1,0.8-0.4,1c-0.3,0.2-0.7,0.3-1.1,0.1l-2.1-1.1
			l-2.1,1.1C372.4,394.6,372.3,394.7,372.1,394.7z M372.6,389.4l0.5,0.5c0.3,0.3,0.4,0.7,0.4,1.1l-0.1,0.8l0.7-0.4
			c0.4-0.2,0.8-0.2,1.2,0l0.7,0.3l-0.1-0.7c-0.1-0.4,0.1-0.8,0.4-1.1l0.5-0.5l-0.8-0.1c-0.4-0.1-0.8-0.3-1-0.7l-0.3-0.7l-0.3,0.7
			c-0.2,0.4-0.5,0.6-1,0.7L372.6,389.4z"/>
	</g>
</g>
<g id="XMLID_56_">
	<path id="XMLID_86_" d="M469.8,368.2l-1.1-0.7l-0.8-2.2c-0.1-0.4-0.5-0.7-0.9-0.7l-11.2-0.7l-3.3-2.3c-1.7-1.2-3.8-1.6-5.8-1.1
		l-2.4,0.6c-2.6,0.6-5.1,1.6-7.5,3h-0.1h-2.8l-0.9-0.9c-0.4-0.4-1.1-0.4-1.5,0c-0.4,0.4-0.4,1.1,0,1.5l1.2,1.2
		c0.2,0.2,0.5,0.3,0.7,0.3h0.2c-0.6,0.5-1.2,1-1.8,1.5c-0.2,0.2-0.3,0.5-0.3,0.8v0.9l-0.7,1.4c-0.1,0.1-0.1,0.3-0.1,0.5
		c0,1.3,1,2.3,2.3,2.3h3.8c0.5,1.7,2,2.9,3.8,2.9s3.4-1.2,3.8-2.9h13.1c0.5,1.7,2,2.9,3.8,2.9s3.4-1.2,3.8-2.9h2.6
		c1,0,2-0.7,2.2-1.7l0.5-1.6C470.6,369.3,470.4,368.6,469.8,368.2z M468,371c0,0.1-0.1,0.2-0.2,0.2h-2.6c-0.5-1.7-2-2.9-3.8-2.9
		s-3.4,1.2-3.8,2.9h-12.8c-0.5-1.7-2-2.9-3.8-2.9s-3.4,1.2-3.8,2.9h-3.8c-0.1,0-0.2,0-0.2-0.1l0.6-1.3c0.1-0.1,0.1-0.3,0.1-0.5v-0.6
		c3.2-2.8,7-4.7,11.1-5.7l2.4-0.6c1.4-0.3,2.9,0,4.1,0.8l3.5,2.5c0.2,0.1,0.3,0.2,0.5,0.2l10.8,0.7l0.7,1.9c0.1,0.2,0.2,0.4,0.4,0.5
		l1,0.7L468,371z M463.2,372.2c0,1-0.9,1.9-1.9,1.9s-1.9-0.9-1.9-1.9s0.9-1.9,1.9-1.9C462.4,370.3,463.2,371.2,463.2,372.2z
		 M442.7,372.2c0,1-0.9,1.9-1.9,1.9s-1.9-0.9-1.9-1.9s0.9-1.9,1.9-1.9S442.7,371.2,442.7,372.2z"/>
	<path d="M450.7,402c-16,0-29.1-13.1-29.1-29.1s13.1-29.1,29.1-29.1s29.1,13.1,29.1,29.1S466.7,402,450.7,402z M450.7,345.8
		c-14.9,0-27.1,12.2-27.1,27.1s12.2,27.1,27.1,27.1c14.9,0,27.1-12.2,27.1-27.1S465.6,345.8,450.7,345.8z"/>
	<g>
		<path d="M438.2,391.4c-0.2,0-0.4-0.1-0.6-0.2c-0.3-0.2-0.5-0.6-0.4-1l0.4-2.4l-1.7-1.7c-0.3-0.3-0.4-0.7-0.3-1
			c0.1-0.4,0.4-0.6,0.8-0.7l2.4-0.4l1.1-2.2c0.2-0.3,0.5-0.6,0.9-0.6l0,0c0.4,0,0.7,0.2,0.9,0.6l1.1,2.2l2.4,0.3
			c0.4,0.1,0.7,0.3,0.8,0.7c0.1,0.4,0,0.8-0.3,1l-1.7,1.7l0.4,2.4c0.1,0.4-0.1,0.8-0.4,1c-0.3,0.2-0.7,0.3-1.1,0.1l-2.1-1.1
			l-2.1,1.1C438.6,391.4,438.4,391.4,438.2,391.4z M438.8,386.2l0.5,0.5c0.3,0.3,0.4,0.7,0.4,1.1l-0.1,0.8l0.7-0.4
			c0.4-0.2,0.8-0.2,1.2,0l0.7,0.3l-0.1-0.7c-0.1-0.4,0.1-0.8,0.4-1.1l0.5-0.5l-0.8-0.1c-0.4-0.1-0.8-0.3-1-0.7l-0.3-0.7l-0.3,0.7
			c-0.2,0.4-0.5,0.6-1,0.7L438.8,386.2z"/>
	</g>
	<g>
		<path d="M458,391.4c-0.2,0-0.4-0.1-0.6-0.2c-0.3-0.2-0.5-0.6-0.4-1l0.4-2.4l-1.7-1.7c-0.3-0.3-0.4-0.7-0.3-1
			c0.1-0.4,0.4-0.6,0.8-0.7l2.4-0.4l1.1-2.2c0.2-0.3,0.5-0.6,0.9-0.6l0,0c0.4,0,0.7,0.2,0.9,0.6l1.1,2.2l2.4,0.3
			c0.4,0.1,0.7,0.3,0.8,0.7s0,0.8-0.3,1l-1.7,1.7l0.4,2.4c0.1,0.4-0.1,0.8-0.4,1s-0.7,0.3-1.1,0.1l-2.1-1.1l-2.1,1.1
			C458.3,391.4,458.2,391.4,458,391.4z M458.5,386.2l0.5,0.5c0.3,0.3,0.4,0.7,0.4,1.1l-0.1,0.8l0.7-0.4c0.4-0.2,0.8-0.2,1.2,0
			l0.7,0.3l-0.1-0.7c-0.1-0.4,0.1-0.8,0.4-1.1l0.5-0.5l-0.8-0.1c-0.4-0.1-0.8-0.3-1-0.7l-0.3-0.7l-0.3,0.7c-0.2,0.4-0.5,0.6-1,0.7
			L458.5,386.2z"/>
	</g>
	<g>
		<path d="M448.1,386.3c-0.2,0-0.4-0.1-0.6-0.2c-0.3-0.2-0.5-0.6-0.4-1l0.4-2.4l-1.7-1.7c-0.3-0.3-0.4-0.7-0.3-1
			c0.1-0.4,0.4-0.6,0.8-0.7l2.4-0.4l1.1-2.2c0.2-0.3,0.5-0.6,0.9-0.6l0,0c0.4,0,0.7,0.2,0.9,0.6l1.1,2.2l2.4,0.3
			c0.4,0.1,0.7,0.3,0.8,0.7c0.1,0.4,0,0.8-0.3,1l-1.7,1.7l0.4,2.4c0.1,0.4-0.1,0.8-0.4,1c-0.3,0.2-0.7,0.3-1.1,0.1l-2.1-1.1
			l-2.1,1.1C448.4,386.3,448.3,386.3,448.1,386.3z M448.6,381l0.5,0.5c0.3,0.3,0.4,0.7,0.4,1.1l-0.1,0.8l0.7-0.4
			c0.4-0.2,0.8-0.2,1.2,0l0.7,0.3l-0.1-0.7c-0.1-0.4,0.1-0.8,0.4-1.1l0.5-0.5l-0.8-0.1c-0.4-0.1-0.8-0.3-1-0.7l-0.3-0.7l-0.3,0.7
			c-0.2,0.4-0.5,0.6-1,0.7L448.6,381z"/>
	</g>
	<g>
		<path d="M448.1,396.1c-0.2,0-0.4-0.1-0.6-0.2c-0.3-0.2-0.5-0.6-0.4-1l0.4-2.4l-1.7-1.7c-0.3-0.3-0.4-0.7-0.3-1
			c0.1-0.4,0.4-0.6,0.8-0.7l2.4-0.4l1.1-2.2c0.2-0.3,0.5-0.6,0.9-0.6l0,0c0.4,0,0.7,0.2,0.9,0.6l1.1,2.2l2.4,0.3
			c0.4,0.1,0.7,0.3,0.8,0.7s0,0.8-0.3,1l-1.7,1.7l0.4,2.4c0.1,0.4-0.1,0.8-0.4,1c-0.3,0.2-0.7,0.3-1.1,0.1l-2.1-1.1l-2.1,1.1
			C448.4,396.1,448.3,396.1,448.1,396.1z M448.6,390.9l0.5,0.5c0.3,0.3,0.4,0.7,0.4,1.1l-0.1,0.8l0.7-0.4c0.4-0.2,0.8-0.2,1.2,0
			l0.7,0.3l-0.1-0.7c-0.1-0.4,0.1-0.8,0.4-1.1l0.5-0.5l-0.8-0.1c-0.4-0.1-0.8-0.3-1-0.7l-0.3-0.7l-0.3,0.7c-0.2,0.4-0.5,0.6-1,0.7
			L448.6,390.9z"/>
	</g>
</g>
<g id="XMLID_228_">
	<path id="XMLID_233_" d="M162.7,224.8h-0.4v-1.4c0.3-0.1,0.6-0.4,0.6-0.8c0-0.4-0.2-0.7-0.6-0.8c-0.2-2.5-2-4.5-4.5-4.9l-4.4-0.7
		l-1-1.3c-1.6-2.1-3.9-3.4-6.5-3.5l0,0h-4.4c-6,0-11.1,4.3-12.4,9.9c-0.5,0-0.8,0.4-0.8,0.9v0.4c0,0.2,0.1,0.4,0.2,0.6
		c-0.1,0.4-0.1,0.8-0.1,1.2v0.6c0,0.5,0.4,0.9,0.9,0.9h0.4l2.6,0.1c0.1,1.9,1.7,3.5,3.6,3.5s3.5-1.5,3.6-3.3l11.5,0.2l0,0l0,0h1.5
		c0.3,1.7,1.8,3.1,3.6,3.1c1.8,0,3.2-1.3,3.6-2.9l3.1,0.1l0,0c0.5,0,0.9-0.4,0.9-0.9C163.6,225.2,163.2,224.8,162.7,224.8z
		 M157.9,225.8c0,1-0.8,1.9-1.9,1.9c-1,0-1.9-0.8-1.9-1.9c0-1,0.8-1.9,1.9-1.9S157.9,224.7,157.9,225.8z M134,226h0.8
		c0.1,0.5,0.5,0.9,1,0.9s0.9-0.4,1-0.8h0.8c-0.1,0.9-0.9,1.6-1.9,1.6C134.9,227.6,134.1,226.9,134,226z M141.5,213.1h4.4
		c2.1,0.1,4,1.1,5.2,2.8l1.2,1.6c0.1,0.2,0.3,0.3,0.6,0.3l4.7,0.8c1.7,0.3,2.9,1.6,3.1,3.3c-1.1-1.3-2.7-2.1-4.5-2.1
		c-2.8,0-5.3,2-5.8,4.7l-8.3-0.2V223c0-2.9-2.3-5.2-5.2-5.2h-1.7c-1.1,0-2.1,0.3-3,0.7C133.9,215.3,137.4,213.1,141.5,213.1z
		 M130.2,224.1c0.1-2.5,2.3-4.5,4.8-4.5h1.7c1.9,0,3.5,1.6,3.5,3.5v1.1L130.2,224.1L130.2,224.1z M156,222.1c-1.6,0-2.9,1-3.4,2.4
		H152c0.5-1.8,2.1-3,4-3c2,0,3.6,1.3,4.1,3.2h-0.7C159,223.2,157.7,222.1,156,222.1z"/>
	<circle id="XMLID_182_" cx="156" cy="225.8" r="1.1"/>
	<path id="XMLID_229_" d="M143.3,218.9h7.1c0.3,0,0.6-0.2,0.8-0.5c0.1-0.3,0.1-0.6-0.1-0.9l-0.8-1l0,0c-1.1-1.4-2.7-2.3-4.5-2.4l0,0
		h-2.5c-0.5,0-0.9,0.4-0.9,0.9v3.1C142.4,218.5,142.8,218.9,143.3,218.9z M144.1,215.9h1.6c1.1,0.1,2.1,0.5,2.8,1.3h-4.4V215.9
		L144.1,215.9z"/>
	<path d="M145.9,249.5c-16,0-29.1-13.1-29.1-29.1s13.1-29.1,29.1-29.1s29.1,13.1,29.1,29.1S161.9,249.5,145.9,249.5z M145.9,193.3
		c-14.9,0-27.1,12.2-27.1,27.1c0,14.9,12.2,27.1,27.1,27.1s27.1-12.2,27.1-27.1C173,205.5,160.8,193.3,145.9,193.3z"/>
</g>
<g id="XMLID_48_">
	<path id="XMLID_70_" d="M238.8,217.9h-0.4v-1.4c0.3-0.1,0.6-0.4,0.6-0.8s-0.2-0.7-0.6-0.8c-0.2-2.5-2-4.5-4.5-4.9l-4.4-0.7l-1-1.3
		c-1.6-2.1-3.9-3.4-6.5-3.5l0,0h-4.5c-6,0-11.1,4.3-12.4,9.9c-0.5,0-0.8,0.4-0.8,0.9v0.4c0,0.2,0.1,0.4,0.2,0.6
		c-0.1,0.4-0.1,0.8-0.1,1.2v0.6c0,0.5,0.4,0.9,0.9,0.9h0.4l2.6,0.1c0.1,1.9,1.7,3.5,3.6,3.5s3.5-1.5,3.6-3.3l11.5,0.2l0,0l0,0h1.5
		c0.3,1.7,1.8,3.1,3.6,3.1c1.8,0,3.2-1.3,3.6-2.9l3.1,0.1l0,0c0.5,0,0.9-0.4,0.9-0.9C239.6,218.3,239.3,217.9,238.8,217.9z
		 M233.9,218.9c0,1-0.8,1.9-1.9,1.9c-1,0-1.9-0.8-1.9-1.9c0-1,0.8-1.9,1.9-1.9S233.9,217.9,233.9,218.9z M210,219.1h0.8
		c0.1,0.5,0.5,0.9,1,0.9s0.9-0.4,1-0.8h0.8c-0.1,0.9-0.9,1.6-1.9,1.6C210.9,220.8,210.1,220,210,219.1z M217.5,206.2h4.4
		c2.1,0.1,4,1.1,5.2,2.8l1.2,1.6c0.1,0.2,0.3,0.3,0.6,0.3l4.7,0.8c1.7,0.3,2.9,1.6,3.1,3.3c-1.1-1.3-2.7-2.1-4.5-2.1
		c-2.8,0-5.3,2-5.8,4.7l-8.3-0.2v-1.3c0-2.9-2.3-5.2-5.2-5.2h-1.7c-1.1,0-2.1,0.3-3,0.7C210,208.4,213.5,206.2,217.5,206.2z
		 M206.2,217.2c0.1-2.5,2.3-4.5,4.8-4.5h1.7c1.9,0,3.5,1.6,3.5,3.5v1.1L206.2,217.2L206.2,217.2z M232.1,215.3c-1.6,0-2.9,1-3.4,2.4
		h-0.6c0.5-1.8,2.1-3,4-3c2,0,3.6,1.3,4.1,3.2h-0.7C235.1,216.4,233.7,215.3,232.1,215.3z"/>
	<circle id="XMLID_69_" cx="232.1" cy="218.9" r="1.1"/>
	<path id="XMLID_58_" d="M219.3,212.1h7.1c0.3,0,0.6-0.2,0.8-0.5c0.1-0.3,0.1-0.6-0.1-0.9l-0.8-1l0,0c-1.1-1.4-2.7-2.3-4.5-2.4l0,0
		h-2.5c-0.5,0-0.9,0.4-0.9,0.9v3.1C218.4,211.7,218.8,212.1,219.3,212.1z M220.2,209h1.6c1.1,0.1,2.1,0.5,2.8,1.3h-4.4V209
		L220.2,209z"/>
	<path d="M222.2,249.5c-16,0-29.1-13.1-29.1-29.1s13.1-29.1,29.1-29.1s29.1,13.1,29.1,29.1S238.2,249.5,222.2,249.5z M222.2,193.3
		c-14.9,0-27.1,12.2-27.1,27.1c0,14.9,12.2,27.1,27.1,27.1s27.1-12.2,27.1-27.1C249.3,205.5,237.1,193.3,222.2,193.3z"/>
	<g>
		<path d="M219.6,239.9c-0.2,0-0.4-0.1-0.6-0.2c-0.3-0.2-0.5-0.6-0.4-1l0.4-2.4l-1.7-1.7c-0.3-0.3-0.4-0.7-0.3-1
			c0.1-0.4,0.4-0.6,0.8-0.7l2.4-0.4l1.1-2.2c0.2-0.3,0.5-0.6,0.9-0.6l0,0c0.4,0,0.7,0.2,0.9,0.6l1.1,2.2l2.4,0.3
			c0.4,0.1,0.7,0.3,0.8,0.7c0.1,0.4,0,0.8-0.3,1l-1.7,1.7l0.4,2.4c0.1,0.4-0.1,0.8-0.4,1c-0.3,0.2-0.7,0.3-1.1,0.1l-2.1-1.1
			l-2.1,1.1C220,239.8,219.8,239.9,219.6,239.9z M220.2,234.6l0.5,0.5c0.3,0.3,0.4,0.7,0.4,1.1L221,237l0.7-0.4
			c0.4-0.2,0.8-0.2,1.2,0l0.7,0.3l-0.1-0.7c-0.1-0.4,0.1-0.8,0.4-1.1l0.5-0.5l-0.9-0.1c-0.4-0.1-0.8-0.3-1-0.7l-0.3-0.7l-0.3,0.7
			c-0.2,0.4-0.5,0.6-1,0.7L220.2,234.6z"/>
	</g>
</g>
<g id="XMLID_157_">
	<path id="XMLID_162_" d="M316.3,217.9h-0.4v-1.4c0.3-0.1,0.6-0.4,0.6-0.8s-0.2-0.7-0.6-0.8c-0.2-2.5-2-4.5-4.5-4.9l-4.4-0.7l-1-1.3
		c-1.6-2.1-3.9-3.4-6.5-3.5l0,0h-4.4c-6,0-11.1,4.3-12.4,9.9c-0.5,0-0.8,0.4-0.8,0.9v0.4c0,0.2,0.1,0.4,0.2,0.6
		c-0.1,0.4-0.1,0.8-0.1,1.2v0.6c0,0.5,0.4,0.9,0.9,0.9h0.4l2.6,0.1c0.1,1.9,1.7,3.5,3.6,3.5s3.5-1.5,3.6-3.3l11.5,0.2l0,0l0,0h1.5
		c0.3,1.7,1.8,3.1,3.6,3.1s3.2-1.3,3.6-2.9l3.1,0.1l0,0c0.5,0,0.9-0.4,0.9-0.9C317.2,218.3,316.8,217.9,316.3,217.9z M311.5,218.9
		c0,1-0.8,1.9-1.9,1.9c-1,0-1.9-0.8-1.9-1.9c0-1,0.8-1.9,1.9-1.9S311.5,217.9,311.5,218.9z M287.6,219.1h0.8c0.1,0.5,0.5,0.9,1,0.9
		s0.9-0.4,1-0.8h0.8c-0.1,0.9-0.9,1.6-1.9,1.6C288.5,220.8,287.7,220,287.6,219.1z M295.1,206.2h4.4c2.1,0.1,4,1.1,5.2,2.8l1.2,1.6
		c0.1,0.2,0.3,0.3,0.6,0.3l4.7,0.8c1.7,0.3,2.9,1.6,3.1,3.3c-1.1-1.3-2.7-2.1-4.5-2.1c-2.8,0-5.3,2-5.8,4.7l-8.3-0.2v-1.3
		c0-2.9-2.3-5.2-5.2-5.2h-1.7c-1.1,0-2.1,0.3-3,0.7C287.5,208.4,291,206.2,295.1,206.2z M283.8,217.2c0.1-2.5,2.3-4.5,4.8-4.5h1.7
		c1.9,0,3.5,1.6,3.5,3.5v1.1L283.8,217.2L283.8,217.2z M309.6,215.3c-1.6,0-2.9,1-3.4,2.4h-0.6c0.5-1.8,2.1-3,4-3
		c2,0,3.6,1.3,4.1,3.2H313C312.6,216.4,311.3,215.3,309.6,215.3z"/>
	<circle id="XMLID_161_" cx="309.6" cy="218.9" r="1.1"/>
	<path id="XMLID_158_" d="M296.9,212.1h7.1c0.3,0,0.6-0.2,0.8-0.5c0.1-0.3,0.1-0.6-0.1-0.9l-0.8-1l0,0c-1.1-1.4-2.7-2.3-4.5-2.4l0,0
		h-2.5c-0.5,0-0.9,0.4-0.9,0.9v3.1C296,211.7,296.4,212.1,296.9,212.1z M297.7,209h1.6c1.1,0.1,2.1,0.5,2.8,1.3h-4.4L297.7,209
		L297.7,209z"/>
	<path d="M298.4,249.5c-16,0-29.1-13.1-29.1-29.1s13.1-29.1,29.1-29.1s29.1,13.1,29.1,29.1S314.4,249.5,298.4,249.5z M298.4,193.3
		c-14.9,0-27.1,12.2-27.1,27.1c0,14.9,12.2,27.1,27.1,27.1s27.1-12.2,27.1-27.1C325.5,205.5,313.3,193.3,298.4,193.3z"/>
	<g>
		<path d="M289.1,239.9c-0.2,0-0.4-0.1-0.6-0.2c-0.3-0.2-0.5-0.6-0.4-1l0.4-2.4l-1.7-1.7c-0.3-0.3-0.4-0.7-0.3-1
			c0.1-0.4,0.4-0.6,0.8-0.7l2.4-0.4l1.1-2.2c0.2-0.3,0.5-0.6,0.9-0.6l0,0c0.4,0,0.7,0.2,0.9,0.6l1.1,2.2l2.4,0.3
			c0.4,0.1,0.7,0.3,0.8,0.7c0.1,0.4,0,0.8-0.3,1l-1.7,1.7l0.4,2.4c0.1,0.4-0.1,0.8-0.4,1c-0.3,0.2-0.7,0.3-1.1,0.1l-2.1-1.1
			l-2.1,1.1C289.5,239.8,289.3,239.9,289.1,239.9z M289.7,234.6l0.5,0.5c0.3,0.3,0.4,0.7,0.4,1.1l-0.1,0.8l0.7-0.4
			c0.4-0.2,0.8-0.2,1.2,0l0.7,0.3l-0.1-0.7c-0.1-0.4,0.1-0.8,0.4-1.1l0.5-0.5l-0.8-0.1c-0.4-0.1-0.8-0.3-1-0.7l-0.3-0.7l-0.3,0.7
			c-0.2,0.4-0.5,0.6-1,0.7L289.7,234.6z"/>
	</g>
	<g>
		<path d="M302.6,239.9c-0.2,0-0.4-0.1-0.6-0.2c-0.3-0.2-0.5-0.6-0.4-1l0.4-2.4l-1.7-1.7c-0.3-0.3-0.4-0.7-0.3-1
			c0.1-0.4,0.4-0.6,0.8-0.7l2.4-0.4l1.1-2.2c0.2-0.3,0.5-0.6,0.9-0.6l0,0c0.4,0,0.7,0.2,0.9,0.6l1.1,2.2l2.4,0.3
			c0.4,0.1,0.7,0.3,0.8,0.7c0.1,0.4,0,0.8-0.3,1l-1.7,1.7l0.4,2.4c0.1,0.4-0.1,0.8-0.4,1c-0.3,0.2-0.7,0.3-1.1,0.1l-2.1-1.1
			l-2.1,1.1C302.9,239.8,302.8,239.9,302.6,239.9z M303.1,234.6l0.5,0.5c0.3,0.3,0.4,0.7,0.4,1.1l-0.1,0.8l0.7-0.4
			c0.4-0.2,0.8-0.2,1.2,0l0.7,0.3l-0.1-0.7c-0.1-0.4,0.1-0.8,0.4-1.1l0.5-0.5l-0.8-0.1c-0.4-0.1-0.8-0.3-1-0.7l-0.3-0.7l-0.3,0.7
			c-0.2,0.4-0.5,0.6-1,0.7L303.1,234.6z"/>
	</g>
</g>
<g id="XMLID_114_">
	<path id="XMLID_119_" d="M392,217.9h-0.4v-1.4c0.3-0.1,0.6-0.4,0.6-0.8s-0.2-0.7-0.6-0.8c-0.2-2.5-2-4.5-4.5-4.9l-4.4-0.7l-1-1.3
		c-1.6-2.1-3.9-3.4-6.5-3.5l0,0h-4.4c-6,0-11.1,4.3-12.4,9.9c-0.5,0-0.8,0.4-0.8,0.9v0.4c0,0.2,0.1,0.4,0.2,0.6
		c-0.1,0.4-0.1,0.8-0.1,1.2v0.6c0,0.5,0.4,0.9,0.9,0.9h0.4l2.6,0.1c0.1,1.9,1.7,3.5,3.6,3.5s3.5-1.5,3.6-3.3l11.5,0.2l0,0l0,0h1.5
		c0.3,1.7,1.8,3.1,3.6,3.1s3.2-1.3,3.6-2.9l3.1,0.1l0,0c0.5,0,0.9-0.4,0.9-0.9C392.9,218.3,392.5,217.9,392,217.9z M387.2,218.9
		c0,1-0.8,1.9-1.9,1.9c-1,0-1.9-0.8-1.9-1.9c0-1,0.8-1.9,1.9-1.9C386.3,217,387.2,217.9,387.2,218.9z M363.3,219.1h0.8
		c0.1,0.5,0.5,0.9,1,0.9s0.9-0.4,1-0.8h0.8c-0.1,0.9-0.9,1.6-1.9,1.6C364.2,220.8,363.4,220,363.3,219.1z M370.7,206.2h4.4
		c2.1,0.1,4,1.1,5.2,2.8l1.2,1.6c0.1,0.2,0.3,0.3,0.6,0.3l4.7,0.8c1.7,0.3,2.9,1.6,3.1,3.3c-1.1-1.3-2.7-2.1-4.5-2.1
		c-2.8,0-5.3,2-5.8,4.7l-8.3-0.2v-1.3c0-2.9-2.3-5.2-5.2-5.2h-1.7c-1.1,0-2.1,0.3-3,0.7C363.2,208.4,366.7,206.2,370.7,206.2z
		 M359.5,217.2c0.1-2.5,2.3-4.5,4.8-4.5h1.7c1.9,0,3.5,1.6,3.5,3.5v1.1L359.5,217.2L359.5,217.2z M385.3,215.3c-1.6,0-2.9,1-3.4,2.4
		h-0.6c0.5-1.8,2.1-3,4-3c2,0,3.6,1.3,4.1,3.2h-0.7C388.3,216.4,386.9,215.3,385.3,215.3z"/>
	<circle id="XMLID_118_" cx="385.3" cy="218.9" r="1.1"/>
	<path id="XMLID_115_" d="M372.5,212.1h7.1c0.3,0,0.6-0.2,0.8-0.5c0.1-0.3,0.1-0.6-0.1-0.9l-0.8-1l0,0c-1.1-1.4-2.7-2.3-4.5-2.4l0,0
		h-2.5c-0.5,0-0.9,0.4-0.9,0.9v3.1C371.7,211.7,372.1,212.1,372.5,212.1z M373.4,209h1.6c1.1,0.1,2.1,0.5,2.8,1.3h-4.4L373.4,209
		L373.4,209z"/>
	<path d="M374.7,249.5c-16,0-29.1-13.1-29.1-29.1s13.1-29.1,29.1-29.1s29.1,13.1,29.1,29.1S390.7,249.5,374.7,249.5z M374.7,193.3
		c-14.9,0-27.1,12.2-27.1,27.1c0,14.9,12.2,27.1,27.1,27.1s27.1-12.2,27.1-27.1C401.8,205.5,389.6,193.3,374.7,193.3z"/>
	<g>
		<path d="M360.7,239.9c-0.2,0-0.4-0.1-0.6-0.2c-0.3-0.2-0.5-0.6-0.4-1l0.4-2.4l-1.7-1.7c-0.3-0.3-0.4-0.7-0.3-1
			c0.1-0.4,0.4-0.6,0.8-0.7l2.4-0.4l1.1-2.2c0.2-0.3,0.5-0.6,0.9-0.6l0,0c0.4,0,0.7,0.2,0.9,0.6l1.1,2.2l2.4,0.3
			c0.4,0.1,0.7,0.3,0.8,0.7c0.1,0.4,0,0.8-0.3,1l-1.7,1.7l0.4,2.4c0.1,0.4-0.1,0.8-0.4,1c-0.3,0.2-0.7,0.3-1.1,0.1l-2.1-1.1
			l-2.1,1.1C361,239.8,360.9,239.9,360.7,239.9z M361.2,234.6l0.5,0.5c0.3,0.3,0.4,0.7,0.4,1.1L362,237l0.7-0.4
			c0.4-0.2,0.8-0.2,1.2,0l0.7,0.3l-0.1-0.7c-0.1-0.4,0.1-0.8,0.4-1.1l0.5-0.5l-0.8-0.1c-0.4-0.1-0.8-0.3-1-0.7l-0.3-0.7l-0.3,0.7
			c-0.2,0.4-0.5,0.6-1,0.7L361.2,234.6z"/>
	</g>
	<g>
		<path d="M383.6,239.9c-0.2,0-0.4-0.1-0.6-0.2c-0.3-0.2-0.5-0.6-0.4-1l0.4-2.4l-1.7-1.7c-0.3-0.3-0.4-0.7-0.3-1
			c0.1-0.4,0.4-0.6,0.8-0.7l2.4-0.4l1.1-2.2c0.2-0.3,0.5-0.6,0.9-0.6l0,0c0.4,0,0.7,0.2,0.9,0.6l1.1,2.2l2.4,0.3
			c0.4,0.1,0.7,0.3,0.8,0.7c0.1,0.4,0,0.8-0.3,1l-1.7,1.7l0.4,2.4c0.1,0.4-0.1,0.8-0.4,1c-0.3,0.2-0.7,0.3-1.1,0.1l-2.1-1.1
			l-2.1,1.1C383.9,239.8,383.8,239.9,383.6,239.9z M384.1,234.6l0.5,0.5c0.3,0.3,0.4,0.7,0.4,1.1l-0.1,0.8l0.7-0.4
			c0.4-0.2,0.8-0.2,1.2,0l0.7,0.3l-0.1-0.7c-0.1-0.4,0.1-0.8,0.4-1.1l0.5-0.5l-0.8-0.1c-0.4-0.1-0.8-0.3-1-0.7l-0.3-0.7l-0.3,0.7
			c-0.2,0.4-0.5,0.6-1,0.7L384.1,234.6z"/>
	</g>
	<g>
		<path d="M372.1,243.1c-0.2,0-0.4-0.1-0.6-0.2c-0.3-0.2-0.5-0.6-0.4-1l0.4-2.4l-1.7-1.7c-0.3-0.3-0.4-0.7-0.3-1
			c0.1-0.4,0.4-0.6,0.8-0.7l2.4-0.4l1.1-2.2c0.2-0.3,0.5-0.6,0.9-0.6l0,0c0.4,0,0.7,0.2,0.9,0.6l1.1,2.2l2.4,0.3
			c0.4,0.1,0.7,0.3,0.8,0.7c0.1,0.4,0,0.8-0.3,1l-1.7,1.7l0.4,2.4c0.1,0.4-0.1,0.8-0.4,1c-0.3,0.2-0.7,0.3-1.1,0.1l-2.1-1.1
			l-2.1,1.1C372.4,243.1,372.3,243.1,372.1,243.1z M372.6,237.9l0.5,0.5c0.3,0.3,0.4,0.7,0.4,1.1l-0.1,0.8l0.7-0.4
			c0.4-0.2,0.8-0.2,1.2,0l0.7,0.3l-0.1-0.7c-0.1-0.4,0.1-0.8,0.4-1.1l0.5-0.5l-0.8-0.1c-0.4-0.1-0.8-0.3-1-0.7l-0.3-0.7l-0.3,0.7
			c-0.2,0.4-0.5,0.6-1,0.7L372.6,237.9z"/>
	</g>
</g>
<g id="XMLID_105_">
	<path id="XMLID_110_" d="M467.5,217.9h-0.4v-1.4c0.3-0.1,0.6-0.4,0.6-0.8s-0.2-0.7-0.6-0.8c-0.2-2.5-2-4.5-4.5-4.9l-4.4-0.7l-1-1.3
		c-1.6-2.1-3.9-3.4-6.5-3.5l0,0h-4.4c-6,0-11.1,4.3-12.4,9.9c-0.5,0-0.8,0.4-0.8,0.9v0.4c0,0.2,0.1,0.4,0.2,0.6
		c-0.1,0.4-0.1,0.8-0.1,1.2v0.6c0,0.5,0.4,0.9,0.9,0.9h0.4l2.6,0.1c0.1,1.9,1.7,3.5,3.6,3.5s3.5-1.5,3.6-3.3l11.5,0.2l0,0l0,0h1.5
		c0.3,1.7,1.8,3.1,3.6,3.1s3.2-1.3,3.6-2.9l3.1,0.1l0,0c0.5,0,0.9-0.4,0.9-0.9C468.4,218.3,468,217.9,467.5,217.9z M462.6,218.9
		c0,1-0.8,1.9-1.9,1.9c-1,0-1.9-0.8-1.9-1.9c0-1,0.8-1.9,1.9-1.9S462.6,217.9,462.6,218.9z M438.7,219.1h0.8c0.1,0.5,0.5,0.9,1,0.9
		s0.9-0.4,1-0.8h0.8c-0.1,0.9-0.9,1.6-1.9,1.6C439.6,220.8,438.8,220,438.7,219.1z M446.2,206.2h4.4c2.1,0.1,4,1.1,5.2,2.8l1.2,1.6
		c0.1,0.2,0.3,0.3,0.6,0.3l4.7,0.8c1.7,0.3,2.9,1.6,3.1,3.3c-1.1-1.3-2.7-2.1-4.5-2.1c-2.8,0-5.3,2-5.8,4.7l-8.3-0.2v-1.3
		c0-2.9-2.3-5.2-5.2-5.2h-1.7c-1.1,0-2.1,0.3-3,0.7C438.7,208.4,442.2,206.2,446.2,206.2z M434.9,217.2c0.1-2.5,2.3-4.5,4.8-4.5h1.7
		c1.9,0,3.5,1.6,3.5,3.5v1.1L434.9,217.2L434.9,217.2z M460.8,215.3c-1.6,0-2.9,1-3.4,2.4h-0.6c0.5-1.8,2.1-3,4-3
		c2,0,3.6,1.3,4.1,3.2h-0.7C463.8,216.4,462.4,215.3,460.8,215.3z"/>
	<circle id="XMLID_109_" cx="460.8" cy="218.9" r="1.1"/>
	<path id="XMLID_106_" d="M448,212.1h7.1c0.3,0,0.6-0.2,0.8-0.5c0.1-0.3,0.1-0.6-0.1-0.9l-0.8-1l0,0c-1.1-1.4-2.7-2.3-4.5-2.4l0,0
		H448c-0.5,0-0.9,0.4-0.9,0.9v3.1C447.1,211.7,447.5,212.1,448,212.1z M448.9,209h1.6c1.1,0.1,2.1,0.5,2.8,1.3h-4.4L448.9,209
		L448.9,209z"/>
	<path d="M450.7,249.5c-16,0-29.1-13.1-29.1-29.1s13.1-29.1,29.1-29.1s29.1,13.1,29.1,29.1S466.7,249.5,450.7,249.5z M450.7,193.3
		c-14.9,0-27.1,12.2-27.1,27.1c0,14.9,12.2,27.1,27.1,27.1s27.1-12.2,27.1-27.1C477.8,205.5,465.6,193.3,450.7,193.3z"/>
	<g>
		<path d="M438.2,239.9c-0.2,0-0.4-0.1-0.6-0.2c-0.3-0.2-0.5-0.6-0.4-1l0.4-2.4l-1.7-1.7c-0.3-0.3-0.4-0.7-0.3-1
			c0.1-0.4,0.4-0.6,0.8-0.7l2.4-0.4l1.1-2.2c0.2-0.3,0.5-0.6,0.9-0.6l0,0c0.4,0,0.7,0.2,0.9,0.6l1.1,2.2l2.4,0.3
			c0.4,0.1,0.7,0.3,0.8,0.7c0.1,0.4,0,0.8-0.3,1l-1.7,1.7l0.4,2.4c0.1,0.4-0.1,0.8-0.4,1c-0.3,0.2-0.7,0.3-1.1,0.1l-2.1-1.1
			l-2.1,1.1C438.6,239.8,438.4,239.9,438.2,239.9z M438.8,234.6l0.5,0.5c0.3,0.3,0.4,0.7,0.4,1.1l-0.1,0.8l0.7-0.4
			c0.4-0.2,0.8-0.2,1.2,0l0.7,0.3l-0.1-0.7c-0.1-0.4,0.1-0.8,0.4-1.1l0.5-0.5l-0.8-0.1c-0.4-0.1-0.8-0.3-1-0.7l-0.3-0.7l-0.3,0.7
			c-0.2,0.4-0.5,0.6-1,0.7L438.8,234.6z"/>
	</g>
	<g>
		<path d="M458,239.9c-0.2,0-0.4-0.1-0.6-0.2c-0.3-0.2-0.5-0.6-0.4-1l0.4-2.4l-1.7-1.7c-0.3-0.3-0.4-0.7-0.3-1
			c0.1-0.4,0.4-0.6,0.8-0.7l2.4-0.4l1.1-2.2c0.2-0.3,0.5-0.6,0.9-0.6l0,0c0.4,0,0.7,0.2,0.9,0.6l1.1,2.2l2.4,0.3
			c0.4,0.1,0.7,0.3,0.8,0.7c0.1,0.4,0,0.8-0.3,1l-1.7,1.7l0.4,2.4c0.1,0.4-0.1,0.8-0.4,1c-0.3,0.2-0.7,0.3-1.1,0.1l-2.1-1.1
			l-2.1,1.1C458.3,239.8,458.2,239.9,458,239.9z M458.5,234.6l0.5,0.5c0.3,0.3,0.4,0.7,0.4,1.1l-0.1,0.8l0.7-0.4
			c0.4-0.2,0.8-0.2,1.2,0l0.7,0.3l-0.1-0.7c-0.1-0.4,0.1-0.8,0.4-1.1l0.5-0.5l-0.8-0.1c-0.4-0.1-0.8-0.3-1-0.7l-0.3-0.7l-0.3,0.7
			c-0.2,0.4-0.5,0.6-1,0.7L458.5,234.6z"/>
	</g>
	<g>
		<path d="M448.1,234.8c-0.2,0-0.4-0.1-0.6-0.2c-0.3-0.2-0.5-0.6-0.4-1l0.4-2.4l-1.7-1.7c-0.3-0.3-0.4-0.7-0.3-1
			c0.1-0.4,0.4-0.6,0.8-0.7l2.4-0.4l1.1-2.2c0.2-0.3,0.5-0.6,0.9-0.6l0,0c0.4,0,0.7,0.2,0.9,0.6l1.1,2.2l2.4,0.3
			c0.4,0.1,0.7,0.3,0.8,0.7s0,0.8-0.3,1l-1.7,1.7l0.4,2.4c0.1,0.4-0.1,0.8-0.4,1c-0.3,0.2-0.7,0.3-1.1,0.1l-2.1-1.1l-2.1,1.1
			C448.4,234.7,448.3,234.8,448.1,234.8z M448.6,229.5l0.5,0.5c0.3,0.3,0.4,0.7,0.4,1.1l-0.1,0.8l0.7-0.4c0.4-0.2,0.8-0.2,1.2,0
			l0.7,0.3l-0.1-0.7c-0.1-0.4,0.1-0.8,0.4-1.1l0.5-0.5l-0.8-0.1c-0.4-0.1-0.8-0.3-1-0.7l-0.3-0.7l-0.3,0.7c-0.2,0.4-0.5,0.6-1,0.7
			L448.6,229.5z"/>
	</g>
	<g>
		<path d="M448.1,244.6c-0.2,0-0.4-0.1-0.6-0.2c-0.3-0.2-0.5-0.6-0.4-1l0.4-2.4l-1.7-1.7c-0.3-0.3-0.4-0.7-0.3-1
			c0.1-0.4,0.4-0.6,0.8-0.7l2.4-0.4l1.1-2.2c0.2-0.3,0.5-0.6,0.9-0.6l0,0c0.4,0,0.7,0.2,0.9,0.6l1.1,2.2l2.4,0.3
			c0.4,0.1,0.7,0.3,0.8,0.7c0.1,0.4,0,0.8-0.3,1l-1.7,1.7l0.4,2.4c0.1,0.4-0.1,0.8-0.4,1c-0.3,0.2-0.7,0.3-1.1,0.1l-2.1-1.1
			l-2.1,1.1C448.4,244.5,448.3,244.6,448.1,244.6z M448.6,239.3l0.5,0.5c0.3,0.3,0.4,0.7,0.4,1.1l-0.1,0.8l0.7-0.4
			c0.4-0.2,0.8-0.2,1.2,0l0.7,0.3l-0.1-0.7c-0.1-0.4,0.1-0.8,0.4-1.1l0.5-0.5l-0.8-0.1c-0.4-0.1-0.8-0.3-1-0.7l-0.3-0.7l-0.3,0.7
			c-0.2,0.4-0.5,0.6-1,0.7L448.6,239.3z"/>
	</g>
</g>
<g id="XMLID_384_">
	<path id="XMLID_385_" d="M126.2,445.6v5.4c0,0.4,0.2,0.8,0.6,1l4,1.9c0.1,0,0.2,0.1,0.3,0.1c0.4,1.5,1.8,2.6,3.5,2.6
		c1.6,0,3-1.1,3.5-2.6h16.7c0.5,1.5,1.8,2.6,3.5,2.6c1.6,0,3-1.1,3.5-2.5h1.8l0,0c0.5,0,0.9-0.3,1-0.8l1.1-4.8
		c0.1-0.4-0.1-0.9-0.4-1.1c-3.1-2.2-10.7-2.2-12.5-2.2c-0.6-0.3-2-1.2-3.9-2.2c-0.7-0.4-1.4-0.7-2.1-0.8c-5.9-1.4-14.2,1.9-15.6,2.5
		h-1.7l-0.9-0.4c-0.5-0.2-1.1-0.2-1.6,0.1C126.5,444.5,126.2,445,126.2,445.6z M134.6,454.4c-0.8,0-1.5-0.7-1.5-1.5s0.7-1.5,1.5-1.5
		s1.5,0.7,1.5,1.5S135.4,454.4,134.6,454.4z M158.2,451.4c0.8,0,1.5,0.7,1.5,1.5s-0.7,1.5-1.5,1.5s-1.5-0.7-1.5-1.5
		C156.7,452.1,157.4,451.4,158.2,451.4z M163.4,448.6l-0.8,3.2h-1c-0.5-1.5-1.8-2.5-3.5-2.5c-1.6,0-3,1.1-3.5,2.5h-16.7
		c-0.5-1.5-1.8-2.5-3.4-2.5s-2.9,1-3.4,2.4l-2.9-1.3v-4l0.5,0.2c0.1,0.1,0.3,0.1,0.5,0.1h2c0.1,0,0.3,0,0.4-0.1
		c0.1,0,8.8-3.7,14.5-2.4c0.5,0.1,1.1,0.3,1.6,0.6c0.2,0.1,0.4,0.2,0.6,0.3h-5.1c-0.6,0-1.1,0.5-1.1,1.1s0.5,1.1,1.1,1.1h9.2l0,0
		C154.7,447.1,160.7,447.3,163.4,448.6z"/>
	<path d="M145.9,478.2c-16,0-29.1-13.1-29.1-29.1s13.1-29.1,29.1-29.1s29.1,13.1,29.1,29.1S161.9,478.2,145.9,478.2z M145.9,422
		c-14.9,0-27.1,12.2-27.1,27.1s12.2,27.1,27.1,27.1S173,464,173,449.1S160.8,422,145.9,422z"/>
</g>
<g id="XMLID_340_">
	<path id="XMLID_341_" d="M202.4,440.9v5.4c0,0.4,0.2,0.8,0.6,1l4,1.9c0.1,0,0.2,0.1,0.3,0.1c0.4,1.5,1.8,2.6,3.5,2.6
		c1.6,0,3-1.1,3.5-2.6H231c0.5,1.5,1.8,2.6,3.5,2.6c1.6,0,3-1.1,3.5-2.5h1.8l0,0c0.5,0,0.9-0.3,1-0.8l1.1-4.8
		c0.1-0.4-0.1-0.9-0.4-1.1c-3.1-2.2-10.7-2.2-12.5-2.2c-0.6-0.3-2-1.2-3.9-2.2c-0.7-0.4-1.4-0.7-2.1-0.8c-5.9-1.4-14.2,1.9-15.6,2.5
		h-1.6l-0.9-0.4c-0.5-0.2-1.1-0.2-1.6,0.1C202.7,439.8,202.4,440.4,202.4,440.9z M210.8,449.7c-0.8,0-1.5-0.7-1.5-1.5
		c0-0.8,0.7-1.5,1.5-1.5s1.5,0.7,1.5,1.5C212.3,449,211.6,449.7,210.8,449.7z M234.4,446.8c0.8,0,1.5,0.7,1.5,1.5
		c0,0.8-0.7,1.5-1.5,1.5s-1.5-0.7-1.5-1.5C232.9,447.5,233.6,446.8,234.4,446.8z M239.6,444l-0.8,3.2h-1c-0.5-1.5-1.8-2.5-3.5-2.5
		c-1.6,0-3,1.1-3.5,2.5h-16.7c-0.5-1.5-1.8-2.5-3.4-2.5s-2.9,1-3.4,2.4l-2.9-1.3v-4l0.5,0.2c0.1,0.1,0.3,0.1,0.5,0.1h2
		c0.1,0,0.3,0,0.4-0.1c0.1,0,8.8-3.7,14.5-2.4c0.5,0.1,1.1,0.3,1.6,0.6c0.2,0.1,0.4,0.2,0.6,0.3h-5.1c-0.6,0-1.1,0.5-1.1,1.1
		s0.5,1.1,1.1,1.1h9.2l0,0C230.9,442.5,236.8,442.7,239.6,444z"/>
	<path d="M222.2,478.2c-16,0-29.1-13.1-29.1-29.1s13.1-29.1,29.1-29.1s29.1,13.1,29.1,29.1S238.2,478.2,222.2,478.2z M222.2,422
		c-14.9,0-27.1,12.2-27.1,27.1s12.2,27.1,27.1,27.1s27.1-12.2,27.1-27.1C249.3,434.2,237.1,422,222.2,422z"/>
	<g>
		<path d="M219.6,467.9c-0.2,0-0.4-0.1-0.6-0.2c-0.3-0.2-0.5-0.6-0.4-1l0.4-2.4l-1.7-1.7c-0.3-0.3-0.4-0.7-0.3-1
			c0.1-0.4,0.4-0.6,0.8-0.7l2.4-0.4l1.1-2.2c0.2-0.3,0.5-0.6,0.9-0.6l0,0c0.4,0,0.7,0.2,0.9,0.6l1.1,2.2l2.4,0.3
			c0.4,0.1,0.7,0.3,0.8,0.7c0.1,0.4,0,0.8-0.3,1l-1.7,1.7l0.4,2.4c0.1,0.4-0.1,0.8-0.4,1s-0.7,0.3-1.1,0.1l-2.1-1.1l-2.1,1.1
			C220,467.9,219.8,467.9,219.6,467.9z M220.2,462.7l0.5,0.5c0.3,0.3,0.4,0.7,0.4,1.1l-0.1,0.8l0.7-0.4c0.4-0.2,0.8-0.2,1.2,0
			l0.7,0.3l-0.1-0.7c-0.1-0.4,0.1-0.8,0.4-1.1l0.5-0.5l-0.9-0.2c-0.4-0.1-0.8-0.3-1-0.7l-0.3-0.7l-0.3,0.7c-0.2,0.4-0.5,0.6-1,0.7
			L220.2,462.7z"/>
	</g>
</g>
<g id="XMLID_334_">
	<path id="XMLID_335_" d="M278.4,440.9v5.4c0,0.4,0.2,0.8,0.6,1l4,1.9c0.1,0,0.2,0.1,0.3,0.1c0.4,1.5,1.8,2.6,3.5,2.6
		c1.6,0,3-1.1,3.5-2.6H307c0.5,1.5,1.8,2.6,3.5,2.6c1.6,0,3-1.1,3.5-2.5h1.8l0,0c0.5,0,0.9-0.3,1-0.8l1.1-4.8
		c0.1-0.4-0.1-0.9-0.4-1.1c-3.1-2.2-10.7-2.2-12.5-2.2c-0.6-0.3-2-1.2-3.9-2.2c-0.7-0.4-1.4-0.7-2.1-0.8c-5.9-1.4-14.2,1.9-15.6,2.5
		h-1.6l-0.9-0.4c-0.5-0.2-1.1-0.2-1.6,0.1C278.7,439.8,278.4,440.4,278.4,440.9z M286.8,449.7c-0.8,0-1.5-0.7-1.5-1.5
		c0-0.8,0.7-1.5,1.5-1.5s1.5,0.7,1.5,1.5C288.3,449,287.6,449.7,286.8,449.7z M310.4,446.8c0.8,0,1.5,0.7,1.5,1.5
		c0,0.8-0.7,1.5-1.5,1.5s-1.5-0.7-1.5-1.5C308.9,447.5,309.6,446.8,310.4,446.8z M315.6,444l-0.8,3.2h-1c-0.5-1.5-1.8-2.5-3.5-2.5
		c-1.6,0-3,1.1-3.5,2.5h-16.7c-0.5-1.5-1.8-2.5-3.4-2.5c-1.6,0-2.9,1-3.4,2.4l-2.9-1.3v-4l0.5,0.2c0.1,0.1,0.3,0.1,0.5,0.1h2
		c0.1,0,0.3,0,0.4-0.1c0.1,0,8.8-3.7,14.5-2.4c0.5,0.1,1.1,0.3,1.6,0.6c0.2,0.1,0.4,0.2,0.6,0.3h-5.1c-0.6,0-1.1,0.5-1.1,1.1
		s0.5,1.1,1.1,1.1h9.2l0,0C306.9,442.5,312.8,442.7,315.6,444z"/>
	<path d="M298.4,478.2c-16,0-29.1-13.1-29.1-29.1s13.1-29.1,29.1-29.1s29.1,13.1,29.1,29.1S314.4,478.2,298.4,478.2z M298.4,422
		c-14.9,0-27.1,12.2-27.1,27.1s12.2,27.1,27.1,27.1c14.9,0,27.1-12.2,27.1-27.1S313.3,422,298.4,422z"/>
	<g>
		<path d="M289.1,467.9c-0.2,0-0.4-0.1-0.6-0.2c-0.3-0.2-0.5-0.6-0.4-1l0.4-2.4l-1.7-1.7c-0.3-0.3-0.4-0.7-0.3-1
			c0.1-0.4,0.4-0.6,0.8-0.7l2.4-0.4l1.1-2.2c0.2-0.3,0.5-0.6,0.9-0.6l0,0c0.4,0,0.7,0.2,0.9,0.6l1.1,2.2l2.4,0.3
			c0.4,0.1,0.7,0.3,0.8,0.7c0.1,0.4,0,0.8-0.3,1l-1.7,1.7l0.4,2.4c0.1,0.4-0.1,0.8-0.4,1c-0.3,0.2-0.7,0.3-1.1,0.1l-2.1-1.1
			l-2.1,1.1C289.5,467.9,289.3,467.9,289.1,467.9z M289.7,462.7l0.5,0.5c0.3,0.3,0.4,0.7,0.4,1.1l-0.1,0.8l0.7-0.4
			c0.4-0.2,0.8-0.2,1.2,0l0.7,0.3l-0.1-0.7c-0.1-0.4,0.1-0.8,0.4-1.1l0.5-0.5l-0.8-0.1c-0.4-0.1-0.8-0.3-1-0.7l-0.3-0.7l-0.3,0.7
			c-0.2,0.4-0.5,0.6-1,0.7L289.7,462.7z"/>
	</g>
	<g>
		<path d="M302.6,467.9c-0.2,0-0.4-0.1-0.6-0.2c-0.3-0.2-0.5-0.6-0.4-1l0.4-2.4l-1.7-1.7c-0.3-0.3-0.4-0.7-0.3-1
			c0.1-0.4,0.4-0.6,0.8-0.7l2.4-0.4l1.1-2.2c0.2-0.3,0.5-0.6,0.9-0.6l0,0c0.4,0,0.7,0.2,0.9,0.6l1.1,2.2l2.4,0.3
			c0.4,0.1,0.7,0.3,0.8,0.7c0.1,0.4,0,0.8-0.3,1l-1.7,1.7l0.4,2.4c0.1,0.4-0.1,0.8-0.4,1c-0.3,0.2-0.7,0.3-1.1,0.1l-2.1-1.1
			l-2.1,1.1C302.9,467.9,302.8,467.9,302.6,467.9z M303.1,462.7l0.5,0.5c0.3,0.3,0.4,0.7,0.4,1.1l-0.1,0.8l0.7-0.4
			c0.4-0.2,0.8-0.2,1.2,0l0.7,0.3l-0.1-0.7c-0.1-0.4,0.1-0.8,0.4-1.1l0.5-0.5l-0.8-0.2c-0.4-0.1-0.8-0.3-1-0.7l-0.3-0.7l-0.3,0.7
			c-0.2,0.4-0.5,0.6-1,0.7L303.1,462.7z"/>
	</g>
</g>
<g id="XMLID_328_">
	<path id="XMLID_329_" d="M355,440.9v5.4c0,0.4,0.2,0.8,0.6,1l4,1.9c0.1,0,0.2,0.1,0.3,0.1c0.4,1.5,1.8,2.6,3.5,2.6
		c1.6,0,3-1.1,3.5-2.6h16.7c0.5,1.5,1.8,2.6,3.5,2.6c1.6,0,3-1.1,3.5-2.5h1.8l0,0c0.5,0,0.9-0.3,1-0.8l1.1-4.8
		c0.1-0.4-0.1-0.9-0.4-1.1c-3.1-2.2-10.7-2.2-12.5-2.2c-0.6-0.3-2-1.2-3.9-2.2c-0.7-0.4-1.4-0.7-2.1-0.8c-5.9-1.4-14.2,1.9-15.6,2.5
		h-1.6l-0.9-0.4c-0.5-0.2-1.1-0.2-1.6,0.1C355.2,439.8,355,440.4,355,440.9z M363.3,449.7c-0.8,0-1.5-0.7-1.5-1.5
		c0-0.8,0.7-1.5,1.5-1.5s1.5,0.7,1.5,1.5C364.8,449,364.2,449.7,363.3,449.7z M387,446.8c0.8,0,1.5,0.7,1.5,1.5
		c0,0.8-0.7,1.5-1.5,1.5s-1.5-0.7-1.5-1.5C385.5,447.5,386.1,446.8,387,446.8z M392.2,444l-0.8,3.2h-1c-0.5-1.5-1.8-2.5-3.5-2.5
		c-1.6,0-3,1.1-3.5,2.5h-16.7c-0.5-1.5-1.8-2.5-3.4-2.5c-1.6,0-2.9,1-3.4,2.4l-2.9-1.3v-4l0.5,0.2c0.1,0.1,0.3,0.1,0.5,0.1h2
		c0.1,0,0.3,0,0.4-0.1c0.1,0,8.8-3.7,14.5-2.4c0.5,0.1,1.1,0.3,1.6,0.6c0.2,0.1,0.4,0.2,0.6,0.3H372c-0.6,0-1.1,0.5-1.1,1.1
		s0.5,1.1,1.1,1.1h9.2l0,0C383.5,442.5,389.4,442.7,392.2,444z"/>
	<path d="M374.7,478.2c-16,0-29.1-13.1-29.1-29.1s13.1-29.1,29.1-29.1s29.1,13.1,29.1,29.1S390.7,478.2,374.7,478.2z M374.7,422
		c-14.9,0-27.1,12.2-27.1,27.1s12.2,27.1,27.1,27.1c14.9,0,27.1-12.2,27.1-27.1S389.6,422,374.7,422z"/>
	<g>
		<path d="M360.7,467.9c-0.2,0-0.4-0.1-0.6-0.2c-0.3-0.2-0.5-0.6-0.4-1l0.4-2.4l-1.7-1.7c-0.3-0.3-0.4-0.7-0.3-1
			c0.1-0.4,0.4-0.6,0.8-0.7l2.4-0.4l1.1-2.2c0.2-0.3,0.5-0.6,0.9-0.6l0,0c0.4,0,0.7,0.2,0.9,0.6l1.1,2.2l2.4,0.3
			c0.4,0.1,0.7,0.3,0.8,0.7c0.1,0.4,0,0.8-0.3,1l-1.7,1.7l0.4,2.4c0.1,0.4-0.1,0.8-0.4,1c-0.3,0.2-0.7,0.3-1.1,0.1l-2.1-1.1
			l-2.1,1.1C361,467.9,360.9,467.9,360.7,467.9z M361.2,462.7l0.5,0.5c0.3,0.3,0.4,0.7,0.4,1.1l-0.1,0.8l0.7-0.4
			c0.4-0.2,0.8-0.2,1.2,0l0.7,0.3l-0.1-0.7c-0.1-0.4,0.1-0.8,0.4-1.1l0.5-0.5l-0.8-0.1c-0.4-0.1-0.8-0.3-1-0.7l-0.3-0.7l-0.3,0.7
			c-0.2,0.4-0.5,0.6-1,0.7L361.2,462.7z"/>
	</g>
	<g>
		<path d="M383.6,467.9c-0.2,0-0.4-0.1-0.6-0.2c-0.3-0.2-0.5-0.6-0.4-1l0.4-2.4l-1.7-1.7c-0.3-0.3-0.4-0.7-0.3-1
			c0.1-0.4,0.4-0.6,0.8-0.7l2.4-0.4l1.1-2.2c0.2-0.3,0.5-0.6,0.9-0.6l0,0c0.4,0,0.7,0.2,0.9,0.6l1.1,2.2l2.4,0.3
			c0.4,0.1,0.7,0.3,0.8,0.7c0.1,0.4,0,0.8-0.3,1l-1.7,1.7l0.4,2.4c0.1,0.4-0.1,0.8-0.4,1c-0.3,0.2-0.7,0.3-1.1,0.1l-2.1-1.1
			l-2.1,1.1C383.9,467.9,383.8,467.9,383.6,467.9z M384.1,462.7l0.5,0.5c0.3,0.3,0.4,0.7,0.4,1.1l-0.1,0.8l0.7-0.4
			c0.4-0.2,0.8-0.2,1.2,0l0.7,0.3l-0.1-0.7c-0.1-0.4,0.1-0.8,0.4-1.1l0.5-0.5l-0.8-0.2c-0.4-0.1-0.8-0.3-1-0.7l-0.3-0.7l-0.3,0.7
			c-0.2,0.4-0.5,0.6-1,0.7L384.1,462.7z"/>
	</g>
	<g>
		<path d="M372.1,471.2c-0.2,0-0.4-0.1-0.6-0.2c-0.3-0.2-0.5-0.6-0.4-1l0.4-2.4l-1.7-1.7c-0.3-0.3-0.4-0.7-0.3-1
			c0.1-0.4,0.4-0.6,0.8-0.7l2.4-0.4l1.1-2.2c0.2-0.3,0.5-0.6,0.9-0.6l0,0c0.4,0,0.7,0.2,0.9,0.6l1.1,2.2l2.4,0.3
			c0.4,0.1,0.7,0.3,0.8,0.7s0,0.8-0.3,1l-1.7,1.7l0.4,2.4c0.1,0.4-0.1,0.8-0.4,1c-0.3,0.2-0.7,0.3-1.1,0.1l-2.1-1.1l-2.1,1.1
			C372.4,471.1,372.3,471.2,372.1,471.2z M372.6,465.9l0.5,0.5c0.3,0.3,0.4,0.7,0.4,1.1l-0.1,0.8l0.7-0.4c0.4-0.2,0.8-0.2,1.2,0
			l0.7,0.3l-0.1-0.7c-0.1-0.4,0.1-0.8,0.4-1.1l0.5-0.5l-0.8-0.1c-0.4-0.1-0.8-0.3-1-0.7l-0.3-0.7l-0.3,0.7c-0.2,0.4-0.5,0.6-1,0.7
			L372.6,465.9z"/>
	</g>
</g>
<g id="XMLID_102_">
	<path id="XMLID_103_" d="M431,440.9v5.4c0,0.4,0.2,0.8,0.6,1l4,1.9c0.1,0,0.2,0.1,0.3,0.1c0.4,1.5,1.8,2.6,3.5,2.6
		c1.6,0,3-1.1,3.5-2.6h16.7c0.5,1.5,1.8,2.6,3.5,2.6c1.6,0,3-1.1,3.5-2.5h1.8l0,0c0.5,0,0.9-0.3,1-0.8l1.1-4.8
		c0.1-0.4-0.1-0.9-0.4-1.1c-3.1-2.2-10.7-2.2-12.5-2.2c-0.6-0.3-2-1.2-3.9-2.2c-0.7-0.4-1.4-0.7-2.1-0.8c-5.9-1.4-14.2,1.9-15.6,2.5
		h-1.6l-0.9-0.4c-0.5-0.2-1.1-0.2-1.6,0.1C431.2,439.8,431,440.4,431,440.9z M439.3,449.7c-0.8,0-1.5-0.7-1.5-1.5
		c0-0.8,0.7-1.5,1.5-1.5s1.5,0.7,1.5,1.5C440.8,449,440.2,449.7,439.3,449.7z M463,446.8c0.8,0,1.5,0.7,1.5,1.5
		c0,0.8-0.7,1.5-1.5,1.5s-1.5-0.7-1.5-1.5C461.5,447.5,462.1,446.8,463,446.8z M468.1,444l-0.8,3.2h-1c-0.5-1.5-1.8-2.5-3.5-2.5
		c-1.6,0-3,1.1-3.5,2.5h-16.7c-0.5-1.5-1.8-2.5-3.4-2.5c-1.6,0-2.9,1-3.4,2.4l-2.9-1.3v-4l0.5,0.2c0.1,0.1,0.3,0.1,0.5,0.1h2
		c0.1,0,0.3,0,0.4-0.1c0.1,0,8.8-3.7,14.5-2.4c0.5,0.1,1.1,0.3,1.6,0.6c0.2,0.1,0.4,0.2,0.6,0.3h-5.1c-0.6,0-1.1,0.5-1.1,1.1
		s0.5,1.1,1.1,1.1h9.2l0,0C459.4,442.5,465.4,442.7,468.1,444z"/>
	<path d="M450.7,478.2c-16,0-29.1-13.1-29.1-29.1s13.1-29.1,29.1-29.1s29.1,13.1,29.1,29.1S466.7,478.2,450.7,478.2z M450.7,422
		c-14.9,0-27.1,12.2-27.1,27.1s12.2,27.1,27.1,27.1c14.9,0,27.1-12.2,27.1-27.1S465.6,422,450.7,422z"/>
	<g>
		<path d="M438.2,467.9c-0.2,0-0.4-0.1-0.6-0.2c-0.3-0.2-0.5-0.6-0.4-1l0.4-2.4l-1.7-1.7c-0.3-0.3-0.4-0.7-0.3-1
			c0.1-0.4,0.4-0.6,0.8-0.7l2.4-0.4l1.1-2.2c0.2-0.3,0.5-0.6,0.9-0.6l0,0c0.4,0,0.7,0.2,0.9,0.6l1.1,2.2l2.4,0.3
			c0.4,0.1,0.7,0.3,0.8,0.7c0.1,0.4,0,0.8-0.3,1l-1.7,1.7l0.4,2.4c0.1,0.4-0.1,0.8-0.4,1c-0.3,0.2-0.7,0.3-1.1,0.1l-2.1-1.1
			l-2.1,1.1C438.6,467.9,438.4,467.9,438.2,467.9z M438.8,462.7l0.5,0.5c0.3,0.3,0.4,0.7,0.4,1.1l-0.1,0.8l0.7-0.4
			c0.4-0.2,0.8-0.2,1.2,0l0.7,0.3l-0.1-0.7c-0.1-0.4,0.1-0.8,0.4-1.1l0.5-0.5l-0.8-0.1c-0.4-0.1-0.8-0.3-1-0.7l-0.3-0.7l-0.3,0.7
			c-0.2,0.4-0.5,0.6-1,0.7L438.8,462.7z"/>
	</g>
	<g>
		<path d="M458,467.9c-0.2,0-0.4-0.1-0.6-0.2c-0.3-0.2-0.5-0.6-0.4-1l0.4-2.4l-1.7-1.7c-0.3-0.3-0.4-0.7-0.3-1
			c0.1-0.4,0.4-0.6,0.8-0.7l2.4-0.4l1.1-2.2c0.2-0.3,0.5-0.6,0.9-0.6l0,0c0.4,0,0.7,0.2,0.9,0.6l1.1,2.2l2.4,0.3
			c0.4,0.1,0.7,0.3,0.8,0.7c0.1,0.4,0,0.8-0.3,1l-1.7,1.7l0.4,2.4c0.1,0.4-0.1,0.8-0.4,1s-0.7,0.3-1.1,0.1l-2.1-1.1l-2.1,1.1
			C458.3,467.9,458.2,467.9,458,467.9z M458.5,462.7l0.5,0.5c0.3,0.3,0.4,0.7,0.4,1.1l-0.1,0.8l0.7-0.4c0.4-0.2,0.8-0.2,1.2,0
			l0.7,0.3l-0.1-0.7c-0.1-0.4,0.1-0.8,0.4-1.1l0.5-0.5l-0.8-0.1c-0.4-0.1-0.8-0.3-1-0.7l-0.3-0.7l-0.3,0.7c-0.2,0.4-0.5,0.6-1,0.7
			L458.5,462.7z"/>
	</g>
	<g>
		<path d="M448.1,462.8c-0.2,0-0.4-0.1-0.6-0.2c-0.3-0.2-0.5-0.6-0.4-1l0.4-2.4l-1.7-1.7c-0.3-0.3-0.4-0.7-0.3-1
			c0.1-0.4,0.4-0.6,0.8-0.7l2.4-0.4l1.1-2.2c0.2-0.3,0.5-0.6,0.9-0.6l0,0c0.4,0,0.7,0.2,0.9,0.6l1.1,2.2l2.4,0.3
			c0.4,0.1,0.7,0.3,0.8,0.7s0,0.8-0.3,1l-1.7,1.7l0.4,2.4c0.1,0.4-0.1,0.8-0.4,1c-0.3,0.2-0.7,0.3-1.1,0.1l-2.1-1.1l-2.1,1.1
			C448.4,462.8,448.3,462.8,448.1,462.8z M448.6,457.5l0.5,0.5c0.3,0.3,0.4,0.7,0.4,1.1l-0.1,0.8l0.7-0.4c0.4-0.2,0.8-0.2,1.2,0
			l0.7,0.3l-0.1-0.7c-0.1-0.4,0.1-0.8,0.4-1.1l0.5-0.5l-0.8-0.1c-0.4-0.1-0.8-0.3-1-0.7l-0.3-0.7l-0.3,0.7c-0.2,0.4-0.5,0.6-1,0.7
			L448.6,457.5z"/>
	</g>
	<g>
		<path d="M448.1,472.6c-0.2,0-0.4-0.1-0.6-0.2c-0.3-0.2-0.5-0.6-0.4-1l0.4-2.4l-1.7-1.7c-0.3-0.3-0.4-0.7-0.3-1
			c0.1-0.4,0.4-0.6,0.8-0.7l2.4-0.4l1.1-2.2c0.2-0.3,0.5-0.6,0.9-0.6l0,0c0.4,0,0.7,0.2,0.9,0.6l1.1,2.2l2.4,0.3
			c0.4,0.1,0.7,0.3,0.8,0.7c0.1,0.4,0,0.8-0.3,1l-1.7,1.7l0.4,2.4c0.1,0.4-0.1,0.8-0.4,1c-0.3,0.2-0.7,0.3-1.1,0.1l-2.1-1.1
			l-2.1,1.1C448.4,472.6,448.3,472.6,448.1,472.6z M448.6,467.4l0.5,0.5c0.3,0.3,0.4,0.7,0.4,1.1l-0.1,0.8l0.7-0.4
			c0.4-0.2,0.8-0.2,1.2,0l0.7,0.3l-0.1-0.7c-0.1-0.4,0.1-0.8,0.4-1.1l0.5-0.5l-0.8-0.1c-0.4-0.1-0.8-0.3-1-0.7l-0.3-0.7l-0.3,0.7
			c-0.2,0.4-0.5,0.6-1,0.7L448.6,467.4z"/>
	</g>
</g>
<g id="XMLID_452_">
	<path id="XMLID_453_" d="M166.3,526.2l-0.5-2.3c-0.1-0.4-0.4-0.7-0.8-0.7l-4.9-0.6c-1.5-1.1-3.9-2.8-4.1-3
		c-0.6-0.5-1.4-0.8-2.1-0.8h-15.4c-1.1,0-2.2,0.2-3.3,0.6c-0.8,0.3-1.6,0.7-2.3,1.2l-2.8,1.9c-0.1,0-0.1,0.1-0.2,0.1h-1.3
		c-1.1,0-2.1,0.7-2.4,1.7l-0.6,1.8c-0.2,0.6-0.2,1.3,0,1.9c0.5,1.2,1.6,1.9,2.8,1.9h1.4c0.4,1.2,1.6,2.1,3,2.1s2.5-0.9,3-2.1h20.5
		c0.4,1.2,1.6,2.1,3,2.1s2.5-0.9,3-2.1h1.1c1.3,0,2.4-0.8,2.9-2C166.4,527.3,166.4,526.8,166.3,526.2z M164.4,527.2
		c-0.1,0.4-0.6,0.7-1,0.7h-1.1c-0.4-1.2-1.6-2.1-3-2.1s-2.5,0.9-3,2.1h-20.5c-0.4-1.2-1.6-2.1-3-2.1s-2.5,0.9-3,2.1h-1.3
		c-0.4,0-0.8-0.3-1-0.7c-0.1-0.2-0.1-0.4,0-0.6l0.6-1.8c0.1-0.3,0.3-0.4,0.6-0.4h30.8l4.4,0.6l0.4,1.7
		C164.4,526.8,164.4,527,164.4,527.2z M160.5,528.9c0,0.6-0.5,1.2-1.2,1.2c-0.6,0-1.2-0.5-1.2-1.2c0-0.6,0.5-1.2,1.2-1.2
		S160.5,528.2,160.5,528.9z M134.1,528.9c0,0.6-0.5,1.2-1.2,1.2c-0.6,0-1.2-0.5-1.2-1.2c0-0.6,0.5-1.2,1.2-1.2
		C133.5,527.7,134.1,528.2,134.1,528.9z M143.5,520.7v1.8h-4v-1.8H143.5z M149.5,520.7v1.8h-4v-1.8H149.5z M151.4,522.5v-1.8h2.4
		c0.3,0,0.6,0.1,0.9,0.3c0.1,0.1,1,0.8,2,1.5H151.4L151.4,522.5z M137.6,520.8v1.7h-4.1l0.6-0.4c0.6-0.4,1.2-0.7,1.8-0.9
		C136.4,520.9,137,520.8,137.6,520.8z"/>
	<path d="M145.9,554.5c-16,0-29.1-13.1-29.1-29.1c0-16,13.1-29.1,29.1-29.1s29.1,13.1,29.1,29.1C175,541.4,161.9,554.5,145.9,554.5z
		 M145.9,498.3c-14.9,0-27.1,12.2-27.1,27.1c0,14.9,12.2,27.1,27.1,27.1s27.1-12.2,27.1-27.1C173,510.5,160.8,498.3,145.9,498.3z"/>
</g>
<g id="XMLID_408_">
	<path id="XMLID_409_" d="M242.5,522.4l-0.5-2.3c-0.1-0.4-0.4-0.7-0.8-0.7l-4.9-0.6c-1.5-1.1-3.9-2.8-4.1-3
		c-0.6-0.5-1.4-0.8-2.1-0.8h-15.3c-1.1,0-2.2,0.2-3.3,0.6c-0.8,0.3-1.6,0.7-2.3,1.2l-2.8,1.9c-0.1,0-0.1,0.1-0.2,0.1h-1.3
		c-1.1,0-2.1,0.7-2.4,1.7l-0.6,1.8c-0.2,0.6-0.2,1.3,0,1.9c0.5,1.2,1.6,1.9,2.8,1.9h1.4c0.4,1.2,1.6,2.1,3,2.1s2.5-0.9,3-2.1h20.5
		c0.4,1.2,1.6,2.1,3,2.1s2.5-0.9,3-2.1h1.1c1.3,0,2.4-0.8,2.9-2C242.6,523.5,242.6,523,242.5,522.4z M240.6,523.4
		c-0.1,0.4-0.6,0.7-1,0.7h-1.1c-0.4-1.2-1.6-2.1-3-2.1s-2.5,0.9-3,2.1H212c-0.4-1.2-1.6-2.1-3-2.1s-2.5,0.9-3,2.1h-1.4
		c-0.4,0-0.8-0.3-1-0.7c-0.1-0.2-0.1-0.4,0-0.6l0.6-1.8c0.1-0.3,0.3-0.4,0.6-0.4h30.8l4.4,0.6l0.4,1.7
		C240.7,523,240.7,523.2,240.6,523.4z M236.7,525.1c0,0.6-0.5,1.2-1.2,1.2c-0.6,0-1.2-0.5-1.2-1.2c0-0.6,0.5-1.2,1.2-1.2
		S236.7,524.4,236.7,525.1z M210.3,525.1c0,0.6-0.5,1.2-1.2,1.2c-0.6,0-1.2-0.5-1.2-1.2c0-0.6,0.5-1.2,1.2-1.2
		S210.3,524.4,210.3,525.1z M219.8,516.9v1.8h-4v-1.8H219.8z M225.7,516.9v1.8h-4v-1.8H225.7z M227.7,518.7v-1.8h2.4
		c0.3,0,0.6,0.1,0.9,0.3c0.1,0.1,1,0.8,2,1.5H227.7L227.7,518.7z M213.8,517v1.7h-4.1l0.6-0.4c0.6-0.4,1.2-0.7,1.8-0.9
		C212.7,517.2,213.2,517,213.8,517z"/>
	<g>
		<path d="M219.6,544.1c-0.2,0-0.4-0.1-0.6-0.2c-0.3-0.2-0.5-0.6-0.4-1l0.4-2.4l-1.7-1.7c-0.3-0.3-0.4-0.7-0.3-1
			c0.1-0.4,0.4-0.6,0.8-0.7l2.4-0.4l1.1-2.2c0.2-0.3,0.5-0.6,0.9-0.6l0,0c0.4,0,0.7,0.2,0.9,0.6l1.1,2.2l2.4,0.3
			c0.4,0.1,0.7,0.3,0.8,0.7s0,0.8-0.3,1l-1.7,1.7l0.4,2.4c0.1,0.4-0.1,0.8-0.4,1c-0.3,0.2-0.7,0.3-1.1,0.1l-2.1-1.1l-2.1,1.1
			C220,544.1,219.8,544.1,219.6,544.1z M220.2,538.9l0.5,0.5c0.3,0.3,0.4,0.7,0.4,1.1l-0.1,0.8l0.7-0.4c0.4-0.2,0.8-0.2,1.2,0
			l0.7,0.3l-0.1-0.7c-0.1-0.4,0.1-0.8,0.4-1.1l0.5-0.5l-0.8-0.1c-0.4-0.1-0.8-0.3-1-0.7l-0.3-0.7l-0.3,0.7c-0.2,0.4-0.5,0.6-1,0.7
			L220.2,538.9z"/>
	</g>
	<path d="M222.2,554.5c-16,0-29.1-13.1-29.1-29.1c0-16,13.1-29.1,29.1-29.1s29.1,13.1,29.1,29.1
		C251.3,541.4,238.2,554.5,222.2,554.5z M222.2,498.3c-14.9,0-27.1,12.2-27.1,27.1c0,14.9,12.2,27.1,27.1,27.1s27.1-12.2,27.1-27.1
		C249.3,510.5,237.1,498.3,222.2,498.3z"/>
</g>
<g id="XMLID_402_">
	<path id="XMLID_403_" d="M318.8,522.4l-0.5-2.3c-0.1-0.4-0.4-0.7-0.8-0.7l-4.9-0.6c-1.5-1.1-3.9-2.8-4.1-3
		c-0.6-0.5-1.4-0.8-2.1-0.8h-15.3c-1.1,0-2.2,0.2-3.3,0.6c-0.8,0.3-1.6,0.7-2.3,1.2l-2.8,1.9c-0.1,0-0.1,0.1-0.2,0.1h-1.3
		c-1.1,0-2.1,0.7-2.4,1.7l-0.6,1.8c-0.2,0.6-0.2,1.3,0,1.9c0.5,1.2,1.6,1.9,2.8,1.9h1.4c0.4,1.2,1.6,2.1,3,2.1s2.5-0.9,3-2.1h20.5
		c0.4,1.2,1.6,2.1,3,2.1s2.5-0.9,3-2.1h1.1c1.3,0,2.4-0.8,2.9-2C318.9,523.5,318.9,523,318.8,522.4z M316.9,523.4
		c-0.1,0.4-0.6,0.7-1,0.7h-1.1c-0.4-1.2-1.6-2.1-3-2.1s-2.5,0.9-3,2.1h-20.5c-0.4-1.2-1.6-2.1-3-2.1s-2.5,0.9-3,2.1h-1.4
		c-0.4,0-0.8-0.3-1-0.7c-0.1-0.2-0.1-0.4,0-0.6l0.6-1.8c0.1-0.3,0.3-0.4,0.6-0.4h30.8l4.4,0.6l0.4,1.7
		C316.9,523,316.9,523.2,316.9,523.4z M313,525.1c0,0.6-0.5,1.2-1.2,1.2c-0.6,0-1.2-0.5-1.2-1.2c0-0.6,0.5-1.2,1.2-1.2
		S313,524.4,313,525.1z M286.6,525.1c0,0.6-0.5,1.2-1.2,1.2c-0.6,0-1.2-0.5-1.2-1.2c0-0.6,0.5-1.2,1.2-1.2
		C286,523.9,286.6,524.4,286.6,525.1z M296,516.9v1.8h-4v-1.8H296z M302,516.9v1.8h-4v-1.8H302z M303.9,518.7v-1.8h2.4
		c0.3,0,0.6,0.1,0.9,0.3c0.1,0.1,1,0.8,2,1.5H303.9L303.9,518.7z M290.1,517v1.7H286l0.6-0.4c0.6-0.4,1.2-0.7,1.8-0.9
		C288.9,517.2,289.5,517,290.1,517z"/>
	<path d="M298.4,554.5c-16,0-29.1-13.1-29.1-29.1c0-16,13.1-29.1,29.1-29.1s29.1,13.1,29.1,29.1
		C327.5,541.4,314.4,554.5,298.4,554.5z M298.4,498.3c-14.9,0-27.1,12.2-27.1,27.1c0,14.9,12.2,27.1,27.1,27.1
		c14.9,0,27.1-12.2,27.1-27.1C325.5,510.5,313.3,498.3,298.4,498.3z"/>
	<g>
		<path d="M289.1,544.1c-0.2,0-0.4-0.1-0.6-0.2c-0.3-0.2-0.5-0.6-0.4-1l0.4-2.4l-1.7-1.7c-0.3-0.3-0.4-0.7-0.3-1
			c0.1-0.4,0.4-0.6,0.8-0.7l2.4-0.4l1.1-2.2c0.2-0.3,0.5-0.6,0.9-0.6l0,0c0.4,0,0.7,0.2,0.9,0.6l1.1,2.2l2.4,0.3
			c0.4,0.1,0.7,0.3,0.8,0.7s0,0.8-0.3,1l-1.7,1.7l0.4,2.4c0.1,0.4-0.1,0.8-0.4,1c-0.3,0.2-0.7,0.3-1.1,0.1l-2.1-1.1l-2.1,1.1
			C289.5,544.1,289.3,544.1,289.1,544.1z M289.7,538.9l0.5,0.5c0.3,0.3,0.4,0.7,0.4,1.1l-0.1,0.8l0.7-0.4c0.4-0.2,0.8-0.2,1.2,0
			l0.7,0.3l-0.1-0.7c-0.1-0.4,0.1-0.8,0.4-1.1l0.5-0.5l-0.8-0.1c-0.4-0.1-0.8-0.3-1-0.7l-0.3-0.7l-0.3,0.7c-0.2,0.4-0.5,0.6-1,0.7
			L289.7,538.9z"/>
	</g>
	<g>
		<path d="M302.6,544.1c-0.2,0-0.4-0.1-0.6-0.2c-0.3-0.2-0.5-0.6-0.4-1l0.4-2.4l-1.7-1.7c-0.3-0.3-0.4-0.7-0.3-1
			c0.1-0.4,0.4-0.6,0.8-0.7l2.4-0.4l1.1-2.2c0.2-0.3,0.5-0.6,0.9-0.6l0,0c0.4,0,0.7,0.2,0.9,0.6l1.1,2.2l2.4,0.3
			c0.4,0.1,0.7,0.3,0.8,0.7s0,0.8-0.3,1l-1.7,1.7l0.4,2.4c0.1,0.4-0.1,0.8-0.4,1c-0.3,0.2-0.7,0.3-1.1,0.1l-2.1-1.1l-2.1,1.1
			C302.9,544.1,302.8,544.1,302.6,544.1z M303.1,538.9l0.5,0.5c0.3,0.3,0.4,0.7,0.4,1.1l-0.1,0.8l0.7-0.4c0.4-0.2,0.8-0.2,1.2,0
			l0.7,0.3l-0.1-0.7c-0.1-0.4,0.1-0.8,0.4-1.1l0.5-0.5l-0.8-0.1c-0.4-0.1-0.8-0.3-1-0.7l-0.3-0.7l-0.3,0.7c-0.2,0.4-0.5,0.6-1,0.7
			L303.1,538.9z"/>
	</g>
</g>
<g id="XMLID_396_">
	<path id="XMLID_397_" d="M395,522.4l-0.5-2.3c-0.1-0.4-0.4-0.7-0.8-0.7l-4.9-0.6c-1.5-1.1-3.9-2.8-4.1-3c-0.6-0.5-1.4-0.8-2.1-0.8
		h-15.3c-1.1,0-2.2,0.2-3.3,0.6c-0.8,0.3-1.6,0.7-2.3,1.2l-2.8,1.9c-0.1,0-0.1,0.1-0.2,0.1h-1.2c-1.1,0-2.1,0.7-2.4,1.7l-0.6,1.8
		c-0.2,0.6-0.2,1.3,0,1.9c0.5,1.2,1.6,1.9,2.8,1.9h1.4c0.4,1.2,1.6,2.1,3,2.1s2.5-0.9,3-2.1h20.5c0.4,1.2,1.6,2.1,3,2.1
		s2.5-0.9,3-2.1h1.1c1.3,0,2.4-0.8,2.9-2C395,523.5,395.1,523,395,522.4z M393,523.4c-0.1,0.4-0.6,0.7-1,0.7h-1.1
		c-0.4-1.2-1.6-2.1-3-2.1s-2.5,0.9-3,2.1h-20.4c-0.4-1.2-1.6-2.1-3-2.1s-2.5,0.9-3,2.1h-1.4c-0.4,0-0.8-0.3-1-0.7
		c-0.1-0.2-0.1-0.4,0-0.6l0.6-1.8c0.1-0.3,0.3-0.4,0.6-0.4h30.8l4.4,0.6l0.4,1.7C393.1,523,393.1,523.2,393,523.4z M389.2,525.1
		c0,0.6-0.5,1.2-1.2,1.2c-0.6,0-1.2-0.5-1.2-1.2c0-0.6,0.5-1.2,1.2-1.2C388.6,523.9,389.2,524.4,389.2,525.1z M362.7,525.1
		c0,0.6-0.5,1.2-1.2,1.2c-0.6,0-1.2-0.5-1.2-1.2c0-0.6,0.5-1.2,1.2-1.2S362.7,524.4,362.7,525.1z M372.2,516.9v1.8h-4v-1.8H372.2z
		 M378.2,516.9v1.8h-4v-1.8H378.2z M380.1,518.7v-1.8h2.4c0.3,0,0.6,0.1,0.9,0.3c0.1,0.1,1,0.8,2,1.5H380.1L380.1,518.7z M366.2,517
		v1.7h-4.1l0.6-0.4c0.6-0.4,1.2-0.7,1.8-0.9C365.1,517.2,365.7,517,366.2,517z"/>
	<path d="M374.7,554.5c-16,0-29.1-13.1-29.1-29.1c0-16,13.1-29.1,29.1-29.1s29.1,13.1,29.1,29.1
		C403.8,541.4,390.7,554.5,374.7,554.5z M374.7,498.3c-14.9,0-27.1,12.2-27.1,27.1c0,14.9,12.2,27.1,27.1,27.1
		c14.9,0,27.1-12.2,27.1-27.1C401.8,510.5,389.6,498.3,374.7,498.3z"/>
	<g>
		<path d="M360.7,544.1c-0.2,0-0.4-0.1-0.6-0.2c-0.3-0.2-0.5-0.6-0.4-1l0.4-2.4l-1.7-1.7c-0.3-0.3-0.4-0.7-0.3-1
			c0.1-0.4,0.4-0.6,0.8-0.7l2.4-0.4l1.1-2.2c0.2-0.3,0.5-0.6,0.9-0.6l0,0c0.4,0,0.7,0.2,0.9,0.6l1.1,2.2l2.4,0.3
			c0.4,0.1,0.7,0.3,0.8,0.7s0,0.8-0.3,1l-1.7,1.7l0.4,2.4c0.1,0.4-0.1,0.8-0.4,1c-0.3,0.2-0.7,0.3-1.1,0.1l-2.1-1.1l-2.1,1.1
			C361,544.1,360.9,544.1,360.7,544.1z M361.2,538.9l0.5,0.5c0.3,0.3,0.4,0.7,0.4,1.1l-0.1,0.8l0.7-0.4c0.4-0.2,0.8-0.2,1.2,0
			l0.7,0.3l-0.1-0.7c-0.1-0.4,0.1-0.8,0.4-1.1l0.5-0.5l-0.8-0.1c-0.4-0.1-0.8-0.3-1-0.7l-0.3-0.7l-0.3,0.7c-0.2,0.4-0.5,0.6-1,0.7
			L361.2,538.9z"/>
	</g>
	<g>
		<path d="M383.6,544.1c-0.2,0-0.4-0.1-0.6-0.2c-0.3-0.2-0.5-0.6-0.4-1l0.4-2.4l-1.7-1.7c-0.3-0.3-0.4-0.7-0.3-1
			c0.1-0.4,0.4-0.6,0.8-0.7l2.4-0.4l1.1-2.2c0.2-0.3,0.5-0.6,0.9-0.6l0,0c0.4,0,0.7,0.2,0.9,0.6l1.1,2.2l2.4,0.3
			c0.4,0.1,0.7,0.3,0.8,0.7s0,0.8-0.3,1l-1.7,1.7l0.4,2.4c0.1,0.4-0.1,0.8-0.4,1c-0.3,0.2-0.7,0.3-1.1,0.1l-2.1-1.1l-2.1,1.1
			C383.9,544.1,383.8,544.1,383.6,544.1z M384.1,538.9l0.5,0.5c0.3,0.3,0.4,0.7,0.4,1.1l-0.1,0.8l0.7-0.4c0.4-0.2,0.8-0.2,1.2,0
			l0.7,0.3l-0.1-0.7c-0.1-0.4,0.1-0.8,0.4-1.1l0.5-0.5l-0.8-0.1c-0.4-0.1-0.8-0.3-1-0.7l-0.3-0.7l-0.3,0.7c-0.2,0.4-0.5,0.6-1,0.7
			L384.1,538.9z"/>
	</g>
	<g>
		<path d="M372.1,547.4c-0.2,0-0.4-0.1-0.6-0.2c-0.3-0.2-0.5-0.6-0.4-1l0.4-2.4l-1.7-1.7c-0.3-0.3-0.4-0.7-0.3-1
			c0.1-0.4,0.4-0.6,0.8-0.7l2.4-0.4l1.1-2.2c0.2-0.3,0.5-0.6,0.9-0.6l0,0c0.4,0,0.7,0.2,0.9,0.6l1.1,2.2l2.4,0.3
			c0.4,0.1,0.7,0.3,0.8,0.7s0,0.8-0.3,1l-1.7,1.7l0.4,2.4c0.1,0.4-0.1,0.8-0.4,1c-0.3,0.2-0.7,0.3-1.1,0.1l-2.1-1.1l-2.1,1.1
			C372.4,547.3,372.3,547.4,372.1,547.4z M372.6,542.1l0.5,0.5c0.3,0.3,0.4,0.7,0.4,1.1l-0.1,0.8l0.7-0.4c0.4-0.2,0.8-0.2,1.2,0
			l0.7,0.3l-0.1-0.7c-0.1-0.4,0.1-0.8,0.4-1.1l0.5-0.5L376,542c-0.4-0.1-0.8-0.3-1-0.7l-0.3-0.7l-0.3,0.7c-0.2,0.4-0.5,0.6-1,0.7
			L372.6,542.1z"/>
	</g>
</g>
<g id="XMLID_390_">
	<path id="XMLID_391_" d="M471,522.4l-0.5-2.3c-0.1-0.4-0.4-0.7-0.8-0.7l-4.9-0.6c-1.5-1.1-3.9-2.8-4.1-3c-0.6-0.5-1.4-0.8-2.1-0.8
		h-15.3c-1.1,0-2.2,0.2-3.3,0.6c-0.8,0.3-1.6,0.7-2.3,1.2l-2.8,1.9c-0.1,0-0.1,0.1-0.2,0.1h-1.3c-1.1,0-2.1,0.7-2.4,1.7l-0.6,1.8
		c-0.2,0.6-0.2,1.3,0,1.9c0.5,1.2,1.6,1.9,2.8,1.9h1.4c0.4,1.2,1.6,2.1,3,2.1s2.5-0.9,3-2.1h20.5c0.4,1.2,1.6,2.1,3,2.1
		s2.5-0.9,3-2.1h1.1c1.3,0,2.4-0.8,2.9-2C471.1,523.5,471.2,523,471,522.4z M469.1,523.4c-0.1,0.4-0.6,0.7-1,0.7H467
		c-0.4-1.2-1.6-2.1-3-2.1s-2.5,0.9-3,2.1h-20.5c-0.4-1.2-1.6-2.1-3-2.1s-2.5,0.9-3,2.1h-1.4c-0.4,0-0.8-0.3-1-0.7
		c-0.1-0.2-0.1-0.4,0-0.6l0.6-1.8c0.1-0.3,0.3-0.4,0.6-0.4h30.8l4.4,0.6l0.4,1.7C469.2,523,469.2,523.2,469.1,523.4z M465.3,525.1
		c0,0.6-0.5,1.2-1.2,1.2c-0.6,0-1.2-0.5-1.2-1.2c0-0.6,0.5-1.2,1.2-1.2C464.7,523.9,465.3,524.4,465.3,525.1z M438.8,525.1
		c0,0.6-0.5,1.2-1.2,1.2c-0.6,0-1.2-0.5-1.2-1.2c0-0.6,0.5-1.2,1.2-1.2S438.8,524.4,438.8,525.1z M448.3,516.9v1.8h-4v-1.8H448.3z
		 M454.3,516.9v1.8h-4v-1.8H454.3z M456.2,518.7v-1.8h2.4c0.3,0,0.6,0.1,0.9,0.3c0.1,0.1,1,0.8,2,1.5H456.2L456.2,518.7z M442.3,517
		v1.7h-4.1l0.6-0.4c0.6-0.4,1.2-0.7,1.8-0.9C441.2,517.2,441.8,517,442.3,517z"/>
	<path d="M450.7,554.5c-16,0-29.1-13.1-29.1-29.1c0-16,13.1-29.1,29.1-29.1s29.1,13.1,29.1,29.1
		C479.8,541.4,466.7,554.5,450.7,554.5z M450.7,498.3c-14.9,0-27.1,12.2-27.1,27.1c0,14.9,12.2,27.1,27.1,27.1
		c14.9,0,27.1-12.2,27.1-27.1C477.8,510.5,465.6,498.3,450.7,498.3z"/>
	<g>
		<path d="M438.2,544.1c-0.2,0-0.4-0.1-0.6-0.2c-0.3-0.2-0.5-0.6-0.4-1l0.4-2.4l-1.7-1.7c-0.3-0.3-0.4-0.7-0.3-1
			c0.1-0.4,0.4-0.6,0.8-0.7l2.4-0.4l1.1-2.2c0.2-0.3,0.5-0.6,0.9-0.6l0,0c0.4,0,0.7,0.2,0.9,0.6l1.1,2.2l2.4,0.3
			c0.4,0.1,0.7,0.3,0.8,0.7s0,0.8-0.3,1l-1.7,1.7l0.4,2.4c0.1,0.4-0.1,0.8-0.4,1c-0.3,0.2-0.7,0.3-1.1,0.1l-2.1-1.1l-2.1,1.1
			C438.6,544.1,438.4,544.1,438.2,544.1z M438.8,538.9l0.5,0.5c0.3,0.3,0.4,0.7,0.4,1.1l-0.1,0.8l0.7-0.4c0.4-0.2,0.8-0.2,1.2,0
			l0.7,0.3l-0.1-0.7c-0.1-0.4,0.1-0.8,0.4-1.1l0.5-0.5l-0.8-0.1c-0.4-0.1-0.8-0.3-1-0.7l-0.3-0.7l-0.3,0.7c-0.2,0.4-0.5,0.6-1,0.7
			L438.8,538.9z"/>
	</g>
	<g>
		<path d="M458,544.1c-0.2,0-0.4-0.1-0.6-0.2c-0.3-0.2-0.5-0.6-0.4-1l0.4-2.4l-1.7-1.7c-0.3-0.3-0.4-0.7-0.3-1
			c0.1-0.4,0.4-0.6,0.8-0.7l2.4-0.4l1.1-2.2c0.2-0.3,0.5-0.6,0.9-0.6l0,0c0.4,0,0.7,0.2,0.9,0.6l1.1,2.2l2.4,0.3
			c0.4,0.1,0.7,0.3,0.8,0.7s0,0.8-0.3,1l-1.7,1.7l0.4,2.4c0.1,0.4-0.1,0.8-0.4,1c-0.3,0.2-0.7,0.3-1.1,0.1l-2.1-1.1l-2.1,1.1
			C458.3,544.1,458.2,544.1,458,544.1z M458.5,538.9l0.5,0.5c0.3,0.3,0.4,0.7,0.4,1.1l-0.1,0.8l0.7-0.4c0.4-0.2,0.8-0.2,1.2,0
			l0.7,0.3l-0.1-0.7c-0.1-0.4,0.1-0.8,0.4-1.1l0.5-0.5l-0.8-0.1c-0.4-0.1-0.8-0.3-1-0.7l-0.3-0.7l-0.3,0.7c-0.2,0.4-0.5,0.6-1,0.7
			L458.5,538.9z"/>
	</g>
	<g>
		<path d="M448.1,539c-0.2,0-0.4-0.1-0.6-0.2c-0.3-0.2-0.5-0.6-0.4-1l0.4-2.4l-1.7-1.7c-0.3-0.3-0.4-0.7-0.3-1
			c0.1-0.4,0.4-0.6,0.8-0.7l2.4-0.4l1.1-2.2c0.2-0.3,0.5-0.6,0.9-0.6l0,0c0.4,0,0.7,0.2,0.9,0.6l1.1,2.2l2.4,0.3
			c0.4,0.1,0.7,0.3,0.8,0.7c0.1,0.4,0,0.8-0.3,1l-1.7,1.7l0.4,2.4c0.1,0.4-0.1,0.8-0.4,1c-0.3,0.2-0.7,0.3-1.1,0.1l-2.1-1.1
			l-2.1,1.1C448.4,539,448.3,539,448.1,539z M448.6,533.7l0.5,0.5c0.3,0.3,0.4,0.7,0.4,1.1l-0.1,0.8l0.7-0.4c0.4-0.2,0.8-0.2,1.2,0
			l0.7,0.3l-0.1-0.7c-0.1-0.4,0.1-0.8,0.4-1.1l0.5-0.5l-0.8-0.1c-0.4-0.1-0.8-0.3-1-0.7l-0.3-0.7l-0.3,0.7c-0.2,0.4-0.5,0.6-1,0.7
			L448.6,533.7z"/>
	</g>
	<g>
		<path d="M448.1,548.8c-0.2,0-0.4-0.1-0.6-0.2c-0.3-0.2-0.5-0.6-0.4-1l0.4-2.4l-1.7-1.7c-0.3-0.3-0.4-0.7-0.3-1
			c0.1-0.4,0.4-0.6,0.8-0.7l2.4-0.4l1.1-2.2c0.2-0.3,0.5-0.6,0.9-0.6l0,0c0.4,0,0.7,0.2,0.9,0.6l1.1,2.2l2.4,0.3
			c0.4,0.1,0.7,0.3,0.8,0.7c0.1,0.4,0,0.8-0.3,1l-1.7,1.7l0.4,2.4c0.1,0.4-0.1,0.8-0.4,1c-0.3,0.2-0.7,0.3-1.1,0.1l-2.1-1.1
			l-2.1,1.1C448.4,548.8,448.3,548.8,448.1,548.8z M448.6,543.6l0.5,0.5c0.3,0.3,0.4,0.7,0.4,1.1l-0.1,0.8l0.7-0.4
			c0.4-0.2,0.8-0.2,1.2,0l0.7,0.3l-0.1-0.7c-0.1-0.4,0.1-0.8,0.4-1.1l0.5-0.5l-0.8-0.1c-0.4-0.1-0.8-0.3-1-0.7l-0.3-0.7l-0.3,0.7
			c-0.2,0.4-0.5,0.6-1,0.7L448.6,543.6z"/>
	</g>
</g>
</svg>
