<?xml version="1.0" encoding="utf-8"?>
<!-- Generator: Adobe Illustrator 19.0.0, SVG Export Plug-In . SVG Version: 6.00 Build 0)  -->
<svg version="1.1" id="Layer_1" xmlns="http://www.w3.org/2000/svg" xmlns:xlink="http://www.w3.org/1999/xlink" x="0px" y="0px"
	 viewBox="6 -106 512 512" style="enable-background:new 6 -106 512 512;" xml:space="preserve">
<g>
	<g>
		<path d="M452.7,386l-68-142.2c-1.4-2.8-3.7-5-6.5-6.2l-33.8-14.9l58.6-97.1c0.1-0.2,0.3-0.5,0.4-0.7
			c11.7-22.5,17.6-46.8,17.6-72.2c0-42.8-17-82.9-47.8-113c-30.8-30-71.6-46.3-114.9-45.7c-42.1,0.6-81.7,17.3-111.5,47
			c-29.8,29.8-46.4,69-46.7,110.6c-0.2,25.4,5.9,50.7,17.6,73.2c0.1,0.2,0.3,0.5,0.4,0.7l58.6,97.1l-34,15c-2.8,1.2-5,3.4-6.3,6.1
			L68.3,386c-2.3,4.8-1.3,10.4,2.4,14.2c3.7,3.8,9.4,4.8,14.3,2.7l85.2-37.5l85.2,37.5c3.3,1.4,7.1,1.4,10.4,0l85.2-37.5l85.2,37.5
			c1.7,0.7,3.4,1.1,5.2,1.1c3.4,0,6.7-1.3,9.1-3.8C454,396.4,455,390.8,452.7,386z M140.1,113c-9.8-19.1-14.7-39.6-14.6-61.2
			c0.4-72.1,60.1-131.7,133.1-132.7c36.4-0.5,70.8,13.1,96.7,38.4c25.9,25.3,40.2,59,40.2,95c0,21.3-4.9,41.6-14.6,60.4L271.4,294.5
			c-3.3,5.5-8.8,6.1-10.9,6.1c-2.2,0-7.6-0.6-10.9-6.1L140.1,113z M356,340.1c-3.3-1.4-7.1-1.4-10.4,0l-85.2,37.5l-85.2-37.5
			c-3.3-1.4-7.1-1.4-10.4,0l-59,26l51.3-107.3l32.5-14.3l37.9,62.9c7,11.5,19.2,18.4,32.8,18.4c13.6,0,25.8-6.9,32.8-18.4l37.9-62.9
			l32.5,14.3L415,366.1L356,340.1z M318.6,52.6c0-31.7-26.1-57.4-58.1-57.4c-32,0-58.1,25.8-58.1,57.4c0,31.7,26.1,57.4,58.1,57.4
			C292.5,110.1,318.6,84.3,318.6,52.6z M227.9,52.6c0-17.8,14.6-32.3,32.6-32.3c18,0,32.6,14.5,32.6,32.3
			c0,17.8-14.6,32.3-32.6,32.3C242.5,84.9,227.9,70.4,227.9,52.6z"/>
	</g>
</g>
</svg>
