<?xml version="1.0" encoding="utf-8"?>
<!-- Generator: Adobe Illustrator 19.0.0, SVG Export Plug-In . SVG Version: 6.00 Build 0)  -->
<svg version="1.1" id="Calque_1" xmlns="http://www.w3.org/2000/svg" xmlns:xlink="http://www.w3.org/1999/xlink" x="0px" y="0px"
	 viewBox="0 0 461.1 114" style="enable-background:new 0 0 461.1 114;" xml:space="preserve">
<g id="XMLID_19_">
	<g id="XMLID_44_">
		<path id="XMLID_50_" d="M255.3,82.4h-26.7c-1,0-2-0.8-2.2-1.8l-7.7-40.7c-1.2-6.4-3.2-6.4-4.4,0l-7.7,40.7c-0.2,1-1.2,1.8-2.2,1.8
			h-26.7c-0.9,0-1.9-0.7-2.1-1.6L151.5,5c-0.5-1.6,0.5-2.9,2.1-2.9h24.9c1,0,2,0.8,2.2,1.8l7.9,43.1c1.3,6.9,3.2,6.8,4.4,0l7.2-42.5
			c0.2-1,1.2-1.9,2.2-1.9h28.4c1,0,2,0.8,2.2,1.8l7.7,42.8c1.2,6.8,3.2,6.8,4.4,0L252.8,4c0.2-1,1.2-1.8,2.2-1.8h24.3
			c1.7,0,2.6,1.3,2.1,2.9l-24,75.8C257.2,81.7,256.2,82.4,255.3,82.4z"/>
		<path id="XMLID_47_" d="M331.5,78.4L331.5,78.4c-0.2,0.4-0.6,0.9-0.9,1.1c-5.6,3.3-12.1,5-19.2,5c-13.2,0-25.7-8.3-25.7-23.8
			c0-17.1,16.2-27.7,43.5-27.7h5.1v-1.2c0-1.7,0-3.3-0.3-5.9c-0.5-4.1-3.8-7.7-9.6-7.7c-5.7,0-9.2,3.3-10.2,9.1
			c-0.2,1-1.1,1.9-2.2,1.9l-21.2,0.1c-1.4,0-2.4-1.1-2.2-2.4c1.5-17.3,17.6-27,37-27c25.4,0,34.1,11.3,35.3,25.9
			c0.3,4.1,0.5,8.7,0.5,13.7v22.6c0,5.4,0.2,10.4,1.2,17.8c0.2,1.4-0.8,2.5-2.2,2.5h-22c-1.1,0-2-0.9-2.2-1.9l-0.3-1.6
			C335.1,74.4,333.2,74.2,331.5,78.4z M334.2,53.7v-3.1c0-1.2-1-2.2-2.2-2.2c-11-0.4-18.7,2.9-18.7,10.3c0,4.8,3.8,7.5,9.2,7.5
			C327.9,66.2,334.2,62.1,334.2,53.7z"/>
		<path id="XMLID_45_" d="M430.3,82.4c-10.1,25.4-18.8,31.6-37.9,31.6c-3.6,0-6.4-0.1-9.5-0.5c-1.1-0.1-2-1.1-2-2.2l0-13.1
			c0-1.3,1-2.3,2.3-2.2c1.6,0.1,3.2,0.1,5,0.1c6.3,0,10.7-2.1,13.2-7.8l0.6-1.4c0-0.5,0-1.2,0.1-1.8l-31.7-80
			c-0.7-1.7,0.3-3.1,2.1-3.1h25.1c0.7,0.6,1.4,1.1,2.1,1.6l13.9,49.5c1.2,4.2,3.1,4.2,4.3,0L432,3.7c0.7-0.6,1.4-1.1,2.1-1.6h24.7
			c1.8,0,2.7,1.4,2.1,3.1L430.3,82.4z"/>
	</g>
	<path id="XMLID_43_" d="M112.7,0.8C106.9,0.2,102.6,0,96,0h-37c-1.7,0-3.1,1.4-3.1,3.1v39.6c0,2.7,2,3.9,4.4,2.8l26.5-12.2l-3-5.2
		c-1.5-2.6-0.3-4.7,2.7-4.7l23.3,0c3,0,4.2,2.1,2.7,4.7l-11.7,20.2c-1.5,2.6-3.9,2.6-5.4,0l-3.3-5.6v0l-12.3,6c0,0,0,0-0.1,0
		L48,64.1l0,0c-1.8,1-3.9,1.6-6.2,1.6c-8.8,0-12.5-4.6-13.4-12.5c-0.5-4.2-0.6-8.6-0.6-11.3V2.6c0-1.4-1.2-2.6-2.6-2.6H2.6
		C1.2,0,0,1.2,0,2.6v45.5c0,6.6,0.2,11.4,0.8,15.6C2.6,75,13,84.5,29.9,84.5c7.6,0,13.4-1.7,18.5-4.8l3.4-2.2c2.2-1.4,4-0.4,4,2.2v0
		c0,1.4,1.2,2.6,2.6,2.6h0.5c0,0,0,0,0,0h21.6l0,0H81c1.4,0,2.6-1.2,2.6-2.6v-0.3c0-0.1,0-0.1,0-0.2v-7c0-1.7,1.4-3.1,3.1-3.1H96
		c6.6,0,11-0.2,16.7-0.8c15.4-1.9,29.5-12.8,29.5-33.8C142.1,13.6,128.1,2.6,112.7,0.8z"/>
</g>
</svg>
