<?xml version="1.0" encoding="utf-8"?>
<!-- Generator: Adobe Illustrator 21.0.0, SVG Export Plug-In . SVG Version: 6.00 Build 0)  -->
<svg version="1.1" id="Layer_1" xmlns="http://www.w3.org/2000/svg" xmlns:xlink="http://www.w3.org/1999/xlink" x="0px" y="0px"
	 viewBox="0 0 512 512" style="enable-background:new 0 0 512 512;" xml:space="preserve">
<style type="text/css">
	.st0{fill:#FFFFFF;}
</style>
<g>
	<g>
		<path class="st0" d="M103.7,130.2c0-15.8-13.1-28.7-29.2-28.7s-29.2,12.9-29.2,28.7s13.1,28.7,29.2,28.7
			C90.5,158.9,103.7,146,103.7,130.2z M74.4,138.2c-4.5,0-8.2-3.6-8.2-8.1c0-4.4,3.7-8.1,8.2-8.1s8.2,3.6,8.2,8.1
			C82.6,134.6,79,138.2,74.4,138.2z M488.1,189.2v-72.9c0-14.1-11.7-25.6-26.1-25.6l-328.6-0.2c-2.6-3.7-5.5-7.1-8.8-10.3
			C110.9,66.9,92.7,59.7,73.4,60C34.8,60.5,3.2,91.8,3,129.8c-0.1,11.2,2.6,22.4,7.8,32.3c0.1,0.2,17.1,28.2,17.1,28.2v234.8
			c0,14.1,11.7,25.6,26.1,25.6l408,0.2c14.4,0,26.1-11.5,26.1-25.6V289.7c0,0,12-19.7,12.1-19.9c5.1-9.8,7.8-20.9,7.8-32
			C508,219.5,501,202.4,488.1,189.2z M416.2,111.3l-50.7,49.9l-50.8-49.9H416.2z M352.1,174.3l-88.4,86.9l-32.3-31.8l0,0l0,0
			l-24.3-23.8l88.4-86.9L352.1,174.3z M176,297l48.7-47.8l62.5,61.4l-48.7,47.8L176,297z M187.8,334.9l-54.6,53.6l-43.7-43
			l54.6-53.6L187.8,334.9z M29.4,152.4c-3.6-7-5.4-14.6-5.4-22.6c0.2-26.7,22.5-48.8,49.7-49.1c13.6-0.2,26.4,4.9,36.1,14.3
			c3.3,3.2,6.1,6.8,8.4,10.7c0.1,0.2,0.2,0.4,0.3,0.5c4.1,7.3,6.3,15.5,6.3,24c0,7.8-1.8,15.3-5.4,22.3l-45,74.2L29.4,152.4z
			 M48.9,224.9l7.5,12.3c3.8,6.3,10.6,10.1,18,10.1c7.5,0,14.2-3.8,18-10.1c0,0,45.5-74.9,45.6-75.1c5.1-9.8,7.8-20.9,7.8-32
			c0-6.5-0.9-12.9-2.7-19l133.1,0.1l-82.7,81.2l-29.6-29.1c-3.7-3.6-9.7-3.6-13.4,0c-3.7,3.6-3.7,9.5,0,13.1l60.6,59.5l-48.7,47.8
			L123,245c-3.7-3.6-9.7-3.6-13.4,0c-3.7,3.6-3.7,9.5,0,13.1l20.9,20.5L48.7,359V224.9H48.9z M54,430.1c-2.8,0-5.1-2.2-5.1-5v-39.7
			l27.2-26.8l72.8,71.5L54,430.1z M175.7,430.2l-29.1-28.6l54.6-53.6l83.7,82.2H175.7z M251.9,371.5l48.7-47.8l35.3,34.7l-48.7,47.8
			L251.9,371.5z M311.7,430.3l-11.1-10.9l48.7-47.8l59.8,58.8L311.7,430.3z M462,430.3h-26.2l-73.2-71.9l22-21.6
			c3.7-3.6,3.7-9.5,0-13.1s-9.7-3.6-13.4,0l-22,21.7l-42-41.3l0,0l0,0L277,274.4l35.9-35.2l18.6,18.3c2.1,2,4.7,3,7.4,3s5.4-1,7.4-3
			c4.1-4,4.1-10.6,0-14.6l-18.6-18.3L443,111.3h19c2.8,0,5.1,2.2,5.1,5v58c-9.7-4.5-20.4-6.8-31.5-6.7
			c-38.6,0.5-70.2,31.8-70.4,69.8c-0.1,11.2,2.6,22.4,7.8,32.4c0.1,0.2,45.6,75.1,45.6,75.1c3.8,6.3,10.6,10.1,18,10.1
			c7.5,0,14.2-3.8,18-10.1l12.5-20.5v101l0,0C467.1,428.1,464.8,430.3,462,430.3z M481.6,260.1L468.3,282l0,0l-31.8,52.3l-45.1-74.2
			c-3.6-7-5.4-14.6-5.4-22.6c0.2-26.8,22.5-48.9,49.7-49.2c13.6-0.2,26.4,4.9,36.1,14.3s15,21.9,15,35.3
			C487,245.7,485.2,253.1,481.6,260.1z M436.6,209.1c-16.1,0-29.2,12.9-29.2,28.7s13.1,28.7,29.2,28.7s29.2-12.9,29.2-28.7
			C465.8,222,452.7,209.1,436.6,209.1z M436.6,245.9c-4.5,0-8.2-3.6-8.2-8.1c0-4.4,3.7-8.1,8.2-8.1s8.2,3.6,8.2,8.1
			C444.8,242.3,441.1,245.9,436.6,245.9z"/>
	</g>
</g>
</svg>
