<?xml version="1.0" encoding="utf-8"?>
<!-- Generator: Adobe Illustrator 19.0.0, SVG Export Plug-In . SVG Version: 6.00 Build 0)  -->
<svg version="1.1" id="Layer_1" xmlns="http://www.w3.org/2000/svg" xmlns:xlink="http://www.w3.org/1999/xlink" x="0px" y="0px"
	 viewBox="6 -106 512 512" style="enable-background:new 6 -106 512 512;" xml:space="preserve">
<g>
	<g>
		<path d="M109.7,24.2c0-15.8-13.1-28.7-29.2-28.7c-16.1,0-29.2,12.9-29.2,28.7c0,15.8,13.1,28.7,29.2,28.7
			C96.5,52.9,109.7,40,109.7,24.2z M80.4,32.2c-4.5,0-8.2-3.6-8.2-8.1c0-4.4,3.7-8.1,8.2-8.1c4.5,0,8.2,3.6,8.2,8.1
			S85,32.2,80.4,32.2z M494.1,83.2V10.3c0-14.1-11.7-25.6-26.1-25.6l-328.6-0.2c-2.6-3.7-5.5-7.1-8.8-10.3
			C116.9-39.1,98.7-46.3,79.4-46C40.8-45.5,9.2-14.2,9,23.8C8.9,35,11.6,46.2,16.8,56.1c0.1,0.2,17.1,28.2,17.1,28.2v234.8
			c0,14.1,11.7,25.6,26.1,25.6l408,0.2c14.4,0,26.1-11.5,26.1-25.6V183.7c0,0,12-19.7,12.1-19.9c5.1-9.8,7.8-20.9,7.8-32
			C514,113.5,507,96.4,494.1,83.2z M422.2,5.3l-50.7,49.9L320.7,5.3L422.2,5.3z M358.1,68.3l-88.4,86.9l-32.3-31.8c0,0,0,0,0,0
			c0,0,0,0,0,0l-24.3-23.8l88.4-86.9L358.1,68.3z M182,191l48.7-47.8l62.5,61.4l-48.7,47.8L182,191z M193.8,228.9l-54.6,53.6
			l-43.7-43l54.6-53.6L193.8,228.9z M35.4,46.4c-3.6-7-5.4-14.6-5.4-22.6C30.2-2.9,52.5-25,79.7-25.3c13.6-0.2,26.4,4.9,36.1,14.3
			c3.3,3.2,6.1,6.8,8.4,10.7c0.1,0.2,0.2,0.4,0.3,0.5c4.1,7.3,6.3,15.5,6.3,24c0,7.8-1.8,15.3-5.4,22.3l-45,74.2L35.4,46.4z
			 M54.9,118.9l7.5,12.3c3.8,6.3,10.6,10.1,18,10.1c7.5,0,14.2-3.8,18-10.1c0,0,45.5-74.9,45.6-75.1c5.1-9.8,7.8-20.9,7.8-32
			c0-6.5-0.9-12.9-2.7-19l133.1,0.1l-82.7,81.2l-29.6-29.1c-3.7-3.6-9.7-3.6-13.4,0c-3.7,3.6-3.7,9.5,0,13.1l60.6,59.5l-48.7,47.8
			l-39.4-38.7c-3.7-3.6-9.7-3.6-13.4,0c-3.7,3.6-3.7,9.5,0,13.1l20.9,20.5l-81.8,80.4V118.9z M60,324.1c-2.8,0-5.1-2.2-5.1-5v-39.7
			l27.2-26.8l72.8,71.5L60,324.1z M181.7,324.2l-29.1-28.6l54.6-53.6l83.7,82.2L181.7,324.2z M257.9,265.5l48.7-47.8l35.3,34.7
			l-48.7,47.8L257.9,265.5z M317.7,324.3l-11.1-10.9l48.7-47.8l59.8,58.8L317.7,324.3z M468,324.3l-26.2,0l-73.2-71.9l22-21.6
			c3.7-3.6,3.7-9.5,0-13.1c-3.7-3.6-9.7-3.6-13.4,0l-22,21.7l-42-41.3c0,0,0,0,0,0c0,0,0,0,0,0L283,168.4l35.9-35.2l18.6,18.3
			c2.1,2,4.7,3,7.4,3s5.4-1,7.4-3c4.1-4,4.1-10.6,0-14.6l-18.6-18.3L449,5.3l19,0c2.8,0,5.1,2.2,5.1,5v58
			c-9.7-4.5-20.4-6.8-31.5-6.7c-38.6,0.5-70.2,31.8-70.4,69.8c-0.1,11.2,2.6,22.4,7.8,32.4c0.1,0.2,45.6,75.1,45.6,75.1
			c3.8,6.3,10.6,10.1,18,10.1c7.5,0,14.2-3.8,18-10.1l12.5-20.5v101h0C473.1,322.1,470.8,324.3,468,324.3z M487.6,154.1l-13.3,21.9
			c0,0,0,0,0,0l-31.8,52.3l-45.1-74.2c-3.6-7-5.4-14.6-5.4-22.6c0.2-26.8,22.5-48.9,49.7-49.2c13.6-0.2,26.4,4.9,36.1,14.3
			c9.7,9.4,15,21.9,15,35.3C493,139.7,491.2,147.1,487.6,154.1z M442.6,103.1c-16.1,0-29.2,12.9-29.2,28.7
			c0,15.8,13.1,28.7,29.2,28.7c16.1,0,29.2-12.9,29.2-28.7C471.8,116,458.7,103.1,442.6,103.1z M442.6,139.9c-4.5,0-8.2-3.6-8.2-8.1
			c0-4.4,3.7-8.1,8.2-8.1s8.2,3.6,8.2,8.1C450.8,136.3,447.1,139.9,442.6,139.9z"/>
	</g>
</g>
</svg>
