<?xml version="1.0" encoding="utf-8"?>
<!-- Generator: Adobe Illustrator 19.0.0, SVG Export Plug-In . SVG Version: 6.00 Build 0)  -->
<svg version="1.1" id="Layer_1" xmlns="http://www.w3.org/2000/svg" xmlns:xlink="http://www.w3.org/1999/xlink" x="0px" y="0px"
	 viewBox="6 -106 512 512" style="enable-background:new 6 -106 512 512;" xml:space="preserve">
<g>
	<g>
		<path d="M403.9,113.2c-1-76.6-62.1-138.6-136.9-138.6c-33.3,0-65.4,12.4-90.4,35c-22.3,20.1-37.5,47.1-43.5,76.6
			c-0.4,0-0.9,0-1.3,0c-64,0-116,53.4-116,119s52,119,116,119h270.6c56.7,0,102.9-47.4,102.9-105.6
			C505.3,161.1,459.9,114,403.9,113.2z M402.4,302.9H131.7c-52.5,0-95.1-43.8-95.1-97.6c0-53.8,42.7-97.6,95.1-97.6
			c2.8,0,5.8,0.2,9,0.5c5.6,0.5,10.6-3.5,11.3-9.2c3.8-28.3,17.4-54.3,38.3-73.2C211.5,6.6,238.7-3.9,267-3.9
			C331-3.9,383,49.5,383,115.2c0,2.4-0.2,4.8-0.4,7.4l-0.1,1.1c-0.2,3.2,0.9,6.2,3.1,8.4c2.2,2.2,5.3,3.3,8.3,3
			c2.8-0.3,5.6-0.4,8.3-0.4c45.2,0,82,37.8,82,84.2C484.4,265.2,447.6,302.9,402.4,302.9z M267,25c-43.7,0-81,33.5-86.9,77.9
			c-0.8,5.9,3.2,11.3,8.9,12.1c0.5,0.1,1,0.1,1.4,0.1c5.1,0,9.6-3.9,10.3-9.3c4.5-33.8,33-59.3,66.2-59.3c5.8,0,10.4-4.8,10.4-10.7
			C277.4,29.8,272.7,25,267,25z"/>
	</g>
</g>
</svg>
