<?xml version="1.0" encoding="utf-8"?>
<!-- Generator: Adobe Illustrator 21.0.0, SVG Export Plug-In . SVG Version: 6.00 Build 0)  -->
<svg version="1.1" id="Layer_1" xmlns="http://www.w3.org/2000/svg" xmlns:xlink="http://www.w3.org/1999/xlink" x="0px" y="0px"
	 viewBox="0 0 512 512" style="enable-background:new 0 0 512 512;" xml:space="preserve">
<style type="text/css">
	.st0{fill:#FFFFFF;}
</style>
<g>
	<g>
		<path class="st0" d="M397.9,219.2c-1-76.6-62.1-138.6-136.9-138.6c-33.3,0-65.4,12.4-90.4,35c-22.3,20.1-37.5,47.1-43.5,76.6
			c-0.4,0-0.9,0-1.3,0c-64,0-116,53.4-116,119s52,119,116,119h270.6c56.7,0,102.9-47.4,102.9-105.6
			C499.3,267.1,453.9,220,397.9,219.2z M396.4,408.9H125.7c-52.5,0-95.1-43.8-95.1-97.6s42.7-97.6,95.1-97.6c2.8,0,5.8,0.2,9,0.5
			c5.6,0.5,10.6-3.5,11.3-9.2c3.8-28.3,17.4-54.3,38.3-73.2c21.2-19.2,48.4-29.7,76.7-29.7c64,0,116,53.4,116,119.1
			c0,2.4-0.2,4.8-0.4,7.4l-0.1,1.1c-0.2,3.2,0.9,6.2,3.1,8.4s5.3,3.3,8.3,3c2.8-0.3,5.6-0.4,8.3-0.4c45.2,0,82,37.8,82,84.2
			C478.4,371.2,441.6,408.9,396.4,408.9z M261,131c-43.7,0-81,33.5-86.9,77.9c-0.8,5.9,3.2,11.3,8.9,12.1c0.5,0.1,1,0.1,1.4,0.1
			c5.1,0,9.6-3.9,10.3-9.3c4.5-33.8,33-59.3,66.2-59.3c5.8,0,10.4-4.8,10.4-10.7C271.4,135.8,266.7,131,261,131z"/>
	</g>
</g>
</svg>
