<?xml version="1.0" encoding="utf-8"?>
<!-- Generator: Adobe Illustrator 21.0.0, SVG Export Plug-In . SVG Version: 6.00 Build 0)  -->
<svg version="1.1" id="Calque_1" xmlns="http://www.w3.org/2000/svg" xmlns:xlink="http://www.w3.org/1999/xlink" x="0px" y="0px"
	 viewBox="0 0 500 500" style="enable-background:new 0 0 500 500;" xml:space="preserve">
<style type="text/css">
	.st0{fill:#FFFFFF;}
</style>
<g id="XMLID_182_">
	<path id="XMLID_6_" class="st0" d="M250,493C116,493,7,384,7,250S116,7,250,7s243,109,243,243S384,493,250,493z M250,23.7
		C125.2,23.7,23.7,125.2,23.7,250S125.2,476.3,250,476.3S476.3,374.8,476.3,250S374.8,23.7,250,23.7z"/>
</g>
<g id="XMLID_1_">
	<path id="XMLID_5_" class="st0" d="M246.7,127.3c2.4-3,2.5-7.2,0.5-10.6c-1.8-3.2-5.5-5.2-9.2-4.9c-32.3,2.7-62.9,16.8-85.9,39.8
		c-54,54-54.1,141.9,0,196s141.9,54.1,196,0c24.2-24.2,38.5-56.6,40.3-91.1c0.2-3.9-2-7.4-5.2-9.2s-7.4-1.3-10.4,1
		c-35,27.6-85.2,24.7-116.8-6.9C224.7,210.5,221,162.4,246.7,127.3L246.7,127.3z M241.9,255.2c33.3,33.3,83.5,40.5,124.4,20.2
		c-4.9,22-15.8,42.4-31.9,58.5c-46.4,46.4-121.9,46.2-168.1,0s-46.2-121.9,0-168.1c15-15,33.6-25.5,53.8-30.9
		C201.5,174.8,209.4,222.7,241.9,255.2z"/>
</g>
</svg>
