<?xml version="1.0" encoding="utf-8"?>
<!-- Generator: Adobe Illustrator 21.0.0, SVG Export Plug-In . SVG Version: 6.00 Build 0)  -->
<svg version="1.1" id="Layer_1" xmlns="http://www.w3.org/2000/svg" xmlns:xlink="http://www.w3.org/1999/xlink" x="0px" y="0px"
	 viewBox="0 0 512 512" style="enable-background:new 0 0 512 512;" xml:space="preserve">
<style type="text/css">
	.st0{fill:#FFFFFF;}
</style>
<g>
	<g>
		<g>
			<path class="st0" d="M256,0C114.6,0,0,114.6,0,256s114.6,256,256,256s256-114.6,256-256S397.4,0,256,0z M256,469.3
				c-117.8,0-213.3-95.5-213.3-213.3S138.2,42.7,256,42.7S469.3,138.2,469.3,256S373.8,469.3,256,469.3z"/>
			<path class="st0" d="M277.3,106.7h-64c-11.8,0-21.3,9.6-21.3,21.3v128v149.3c0,11.8,9.6,21.3,21.3,21.3
				c11.8,0,21.3-9.6,21.3-21.3v-128h42.7c47.1,0,85.3-38.2,85.3-85.3S324.5,106.7,277.3,106.7z M277.3,234.7h-42.6v-85.3h42.7
				c23.6,0,42.7,19.1,42.7,42.7S300.9,234.7,277.3,234.7z"/>
		</g>
	</g>
</g>
</svg>
