<?xml version="1.0" encoding="utf-8"?>
<!-- Generator: Adobe Illustrator 19.0.0, SVG Export Plug-In . SVG Version: 6.00 Build 0)  -->
<svg version="1.1" id="Layer_1" xmlns="http://www.w3.org/2000/svg" xmlns:xlink="http://www.w3.org/1999/xlink" x="0px" y="0px"
	 viewBox="-223 25 512 512" style="enable-background:new -223 25 512 512;" xml:space="preserve">
<g>
	<g>
		<g>
			<path d="M33,25c-141.4,0-256,114.6-256,256s114.6,256,256,256s256-114.6,256-256S174.4,25,33,25z M33,494.3
				c-117.8,0-213.3-95.5-213.3-213.3S-84.8,67.7,33,67.7S246.3,163.2,246.3,281S150.8,494.3,33,494.3z"/>
			<path d="M54.3,131.7h-64c-11.8,0-21.3,9.6-21.3,21.3v128v149.3c0,11.8,9.6,21.3,21.3,21.3c11.8,0,21.3-9.6,21.3-21.3v-128h42.7
				c47.1,0,85.3-38.2,85.3-85.3S101.5,131.7,54.3,131.7z M54.3,259.7H11.7v-85.3h42.7c23.6,0,42.7,19.1,42.7,42.7
				S77.9,259.7,54.3,259.7z"/>
		</g>
	</g>
</g>
</svg>
