<?xml version="1.0" encoding="utf-8"?>
<!-- Generator: Adobe Illustrator 21.0.0, SVG Export Plug-In . SVG Version: 6.00 Build 0)  -->
<svg version="1.1" id="Layer_1" xmlns="http://www.w3.org/2000/svg" xmlns:xlink="http://www.w3.org/1999/xlink" x="0px" y="0px"
	 viewBox="0 0 512 512" style="enable-background:new 0 0 512 512;" xml:space="preserve">
<style type="text/css">
	.st0{fill:#FFFFFF;}
</style>
<g>
	<g>
		<path class="st0" d="M200.5,256.4c-4.7-1.6-9.8,1-11.4,5.7l-9,26.9c-1.6,4.7,1,9.8,5.7,11.4c0.9,0.3,1.9,0.5,2.8,0.5
			c3.8,0,7.3-2.4,8.5-6.1l9-26.9C207.7,263.1,205.2,258,200.5,256.4z"/>
	</g>
</g>
<g>
	<g>
		<path class="st0" d="M173.5,346.3c-4.7-1.6-9.8,1-11.4,5.7l-9,26.9c-1.6,4.7,1,9.8,5.7,11.4c0.9,0.3,1.9,0.5,2.8,0.5
			c3.8,0,7.3-2.4,8.5-6.1l9-26.9C180.8,352.9,178.2,347.8,173.5,346.3z"/>
	</g>
</g>
<g>
	<g>
		<path class="st0" d="M146.6,427.1c-4.7-1.6-9.8,1-11.4,5.7l-9,26.9c-1.6,4.7,1,9.8,5.7,11.4c0.9,0.3,1.9,0.5,2.8,0.5
			c3.8,0,7.3-2.4,8.5-6.1l9-26.9C153.8,433.8,151.3,428.7,146.6,427.1z"/>
	</g>
</g>
<g>
	<g>
		<path class="st0" d="M290.3,229.5c-4.7-1.6-9.8,1-11.4,5.7l-9,26.9c-1.6,4.7,1,9.8,5.7,11.4c0.9,0.3,1.9,0.5,2.8,0.5
			c3.8,0,7.3-2.4,8.5-6.1l9-26.9C297.5,236.2,295,231.1,290.3,229.5z"/>
	</g>
</g>
<g>
	<g>
		<path class="st0" d="M263.3,319.3c-4.7-1.6-9.8,1-11.4,5.7l-9,26.9c-1.6,4.7,1,9.8,5.7,11.4c0.9,0.3,1.9,0.5,2.8,0.5
			c3.8,0,7.3-2.4,8.5-6.1l9-26.9C270.6,326,268,320.9,263.3,319.3z"/>
	</g>
</g>
<g>
	<g>
		<path class="st0" d="M236.4,400.2c-4.7-1.6-9.8,1-11.4,5.7l-9,26.9c-1.6,4.7,1,9.8,5.7,11.4c0.9,0.3,1.9,0.5,2.8,0.5
			c3.8,0,7.3-2.4,8.5-6.1l9-26.9C243.6,406.8,241.1,401.7,236.4,400.2z"/>
	</g>
</g>
<g>
	<g>
		<path class="st0" d="M353.2,310.3c-4.7-1.6-9.8,1-11.4,5.7l-9,26.9c-1.6,4.7,1,9.8,5.7,11.4c0.9,0.3,1.9,0.5,2.8,0.5
			c3.8,0,7.3-2.4,8.5-6.1l9-26.9C360.4,317,357.9,311.9,353.2,310.3z"/>
	</g>
</g>
<g>
	<g>
		<path class="st0" d="M326.2,400.2c-4.7-1.6-9.8,1-11.4,5.7l-9,26.9c-1.6,4.7,1,9.8,5.7,11.4c0.9,0.3,1.9,0.5,2.8,0.5
			c3.8,0,7.3-2.4,8.5-6.1l9-26.9C333.5,406.8,330.9,401.7,326.2,400.2z"/>
	</g>
</g>
<g>
	<g>
		<path class="st0" d="M121.3,362.4c-54.9,0-99.5-44.6-99.5-99.5s44.6-99.5,99.5-99.5c2.9,0,6,0.2,9.4,0.5
			c5.8,0.6,11.1-3.6,11.8-9.4c3.9-28.8,18.2-55.3,40.1-74.6c22.1-19.5,50.5-30.2,80.1-30.2c66.9,0,121.4,54.5,121.4,121.4
			c0,2.4-0.2,4.9-0.4,7.5l-0.1,1.1c-0.2,3.2,1,6.4,3.3,8.6s5.5,3.3,8.7,3c2.9-0.3,5.8-0.4,8.7-0.4c47.3,0,85.8,38.5,85.8,85.8
			s-38.5,85.8-85.8,85.8c-11.6,5.7-11.1,14.9,0,21.8c59.3,0,107.6-48.3,107.6-107.6c0-58.8-47.4-106.8-106-107.6
			C404.8,91,341,27.9,262.7,27.9c-34.8,0-68.4,12.7-94.5,35.7c-23.3,20.5-39.2,48-45.5,78.1c-0.5,0-0.9,0-1.4,0
			C54.4,141.5,0,196,0,262.9s54.4,121.3,121.3,121.3C131.3,378.4,131.3,368.7,121.3,362.4z"/>
	</g>
</g>
<g>
	<g>
		<path class="st0" d="M263.4,76.3c-45.7,0-84.7,34.1-90.9,79.4c-0.8,6,3.4,11.5,9.3,12.3c0.5,0.1,1,0.1,1.5,0.1
			c5.4,0,10.1-4,10.8-9.4c4.7-34.5,34.5-60.5,69.3-60.5c6,0,10.9-4.9,10.9-10.9C274.4,81.2,269.5,76.3,263.4,76.3z"/>
	</g>
</g>
</svg>
