<?xml version="1.0" encoding="utf-8"?>
<!-- Generator: Adobe Illustrator 19.0.0, SVG Export Plug-In . SVG Version: 6.00 Build 0)  -->
<svg version="1.1" id="Layer_1" xmlns="http://www.w3.org/2000/svg" xmlns:xlink="http://www.w3.org/1999/xlink" x="0px" y="0px"
	 viewBox="-41 164.9 512 512" style="enable-background:new -41 164.9 512 512;" xml:space="preserve">
<g>
	<g>
		<path d="M159.5,421.3c-4.7-1.6-9.8,1-11.4,5.7l-9,26.9c-1.6,4.7,1,9.8,5.7,11.4c0.9,0.3,1.9,0.5,2.8,0.5c3.8,0,7.3-2.4,8.5-6.1
			l9-26.9C166.7,428,164.2,422.9,159.5,421.3z"/>
	</g>
</g>
<g>
	<g>
		<path d="M132.5,511.2c-4.7-1.6-9.8,1-11.4,5.7l-9,26.9c-1.6,4.7,1,9.8,5.7,11.4c0.9,0.3,1.9,0.5,2.8,0.5c3.8,0,7.3-2.4,8.5-6.1
			l9-26.9C139.8,517.8,137.2,512.7,132.5,511.2z"/>
	</g>
</g>
<g>
	<g>
		<path d="M105.6,592c-4.7-1.6-9.8,1-11.4,5.7l-9,26.9c-1.6,4.7,1,9.8,5.7,11.4c0.9,0.3,1.9,0.5,2.8,0.5c3.8,0,7.3-2.4,8.5-6.1
			l9-26.9C112.8,598.7,110.3,593.6,105.6,592z"/>
	</g>
</g>
<g>
	<g>
		<path d="M249.3,394.4c-4.7-1.6-9.8,1-11.4,5.7l-9,26.9c-1.6,4.7,1,9.8,5.7,11.4c0.9,0.3,1.9,0.5,2.8,0.5c3.8,0,7.3-2.4,8.5-6.1
			l9-26.9C256.5,401.1,254,396,249.3,394.4z"/>
	</g>
</g>
<g>
	<g>
		<path d="M222.3,484.2c-4.7-1.6-9.8,1-11.4,5.7l-9,26.9c-1.6,4.7,1,9.8,5.7,11.4c0.9,0.3,1.9,0.5,2.8,0.5c3.8,0,7.3-2.4,8.5-6.1
			l9-26.9C229.6,490.9,227,485.8,222.3,484.2z"/>
	</g>
</g>
<g>
	<g>
		<path d="M195.4,565.1c-4.7-1.6-9.8,1-11.4,5.7l-9,26.9c-1.6,4.7,1,9.8,5.7,11.4c0.9,0.3,1.9,0.5,2.8,0.5c3.8,0,7.3-2.4,8.5-6.1
			l9-26.9C202.6,571.7,200.1,566.6,195.4,565.1z"/>
	</g>
</g>
<g>
	<g>
		<path d="M312.2,475.2c-4.7-1.6-9.8,1-11.4,5.7l-9,26.9c-1.6,4.7,1,9.8,5.7,11.4c0.9,0.3,1.9,0.5,2.8,0.5c3.8,0,7.3-2.4,8.5-6.1
			l9-26.9C319.4,481.9,316.9,476.8,312.2,475.2z"/>
	</g>
</g>
<g>
	<g>
		<path d="M285.2,565.1c-4.7-1.6-9.8,1-11.4,5.7l-9,26.9c-1.6,4.7,1,9.8,5.7,11.4c0.9,0.3,1.9,0.5,2.8,0.5c3.8,0,7.3-2.4,8.5-6.1
			l9-26.9C292.5,571.7,289.9,566.6,285.2,565.1z"/>
	</g>
</g>
<g>
	<g>
		<path d="M80.3,527.3c-54.9,0-99.5-44.6-99.5-99.5s44.6-99.5,99.5-99.5c2.9,0,6,0.2,9.4,0.5c5.8,0.6,11.1-3.6,11.8-9.4
			c3.9-28.8,18.2-55.3,40.1-74.6c22.1-19.5,50.5-30.2,80.1-30.2c66.9,0,121.4,54.5,121.4,121.4c0,2.4-0.2,4.9-0.4,7.5l-0.1,1.1
			c-0.2,3.2,1,6.4,3.3,8.6c2.3,2.2,5.5,3.3,8.7,3c2.9-0.3,5.8-0.4,8.7-0.4c47.3,0,85.8,38.5,85.8,85.8s-38.5,85.8-85.8,85.8
			c-11.6,5.7-11.1,14.9,0,21.8c59.3,0,107.6-48.3,107.6-107.6c0-58.8-47.4-106.8-106-107.6c-1.1-78.1-64.9-141.2-143.2-141.2
			c-34.8,0-68.4,12.7-94.5,35.7c-23.3,20.5-39.2,48-45.5,78.1c-0.5,0-0.9,0-1.4,0C13.4,306.4-41,360.9-41,427.8
			S13.4,549.1,80.3,549.1C90.3,543.3,90.3,533.6,80.3,527.3z"/>
	</g>
</g>
<g>
	<g>
		<path d="M222.4,241.2c-45.7,0-84.7,34.1-90.9,79.4c-0.8,6,3.4,11.5,9.3,12.3c0.5,0.1,1,0.1,1.5,0.1c5.4,0,10.1-4,10.8-9.4
			c4.7-34.5,34.5-60.5,69.3-60.5c6,0,10.9-4.9,10.9-10.9C233.4,246.1,228.5,241.2,222.4,241.2z"/>
	</g>
</g>
</svg>
