<?xml version="1.0" encoding="utf-8"?>
<!-- Generator: Adobe Illustrator 21.0.0, SVG Export Plug-In . SVG Version: 6.00 Build 0)  -->
<svg version="1.1" id="Layer_1" xmlns="http://www.w3.org/2000/svg" xmlns:xlink="http://www.w3.org/1999/xlink" x="0px" y="0px"
	 viewBox="0 0 504.1 504.1" style="enable-background:new 0 0 504.1 504.1;" xml:space="preserve">
<style type="text/css">
	.st0{fill:#FFFFFF;stroke:#FFFFFF;stroke-miterlimit:10;}
</style>
<path class="st0" d="M504.1,435.3c-0.1-2.6-0.7-5.2-1.9-7.4l-128-365.3c-2.4-6.8-8.9-11.4-16.1-11.4H145.9
	c-7.3,0-13.7,4.6-16.1,11.4L1,430.1c-1.8,5.2-1,11,2.2,15.5s8.4,7.2,13.9,7.2h469.8l0,0c0.1,0,0.1,0,0.2,0l0,0
	c9.4,0,17.1-7.7,17.1-17.1C504.1,435.6,504.1,435.5,504.1,435.3z M258.9,423.8c0,3.8-3.1,6.9-6.9,6.9s-6.9-3.1-6.9-6.9v-39.4
	c0-3.8,3.1-6.9,6.9-6.9s6.9,3.1,6.9,6.9V423.8z M258.9,322.4c0,3.8-3.1,6.9-6.9,6.9s-6.9-3.1-6.9-6.9V283c0-3.8,3.1-6.9,6.9-6.9
	s6.9,3.1,6.9,6.9V322.4z M258.9,221c0,3.8-3.1,6.9-6.9,6.9s-6.9-3.1-6.9-6.9v-39.4c0-3.8,3.1-6.9,6.9-6.9s6.9,3.1,6.9,6.9V221z
	 M258.9,119.6c0,3.8-3.1,6.9-6.9,6.9s-6.9-3.1-6.9-6.9V80.2c0-3.8,3.1-6.9,6.9-6.9s6.9,3.1,6.9,6.9V119.6z"/>
</svg>
