<?xml version="1.0" encoding="utf-8"?>
<!-- Generator: Adobe Illustrator 19.0.0, SVG Export Plug-In . SVG Version: 6.00 Build 0)  -->
<svg version="1.1" id="Layer_1" xmlns="http://www.w3.org/2000/svg" xmlns:xlink="http://www.w3.org/1999/xlink" x="0px" y="0px"
	 viewBox="-45 168.8 504.1 504.1" style="enable-background:new -45 168.8 504.1 504.1;" xml:space="preserve">
<path d="M459.1,604.1c-0.1-2.6-0.7-5.2-1.9-7.4L329.2,231.4c-2.4-6.8-8.9-11.4-16.1-11.4H100.9c-7.3,0-13.7,4.6-16.1,11.4L-44,598.9
	c-1.8,5.2-1,11,2.2,15.5c3.2,4.5,8.4,7.2,13.9,7.2h469.8h0c0.1,0,0.1,0,0.2,0h0c9.4,0,17.1-7.7,17.1-17.1
	C459.1,604.4,459.1,604.3,459.1,604.1z M213.9,592.6c0,3.8-3.1,6.9-6.9,6.9s-6.9-3.1-6.9-6.9v-39.4c0-3.8,3.1-6.9,6.9-6.9
	s6.9,3.1,6.9,6.9V592.6z M213.9,491.2c0,3.8-3.1,6.9-6.9,6.9s-6.9-3.1-6.9-6.9v-39.4c0-3.8,3.1-6.9,6.9-6.9s6.9,3.1,6.9,6.9V491.2z
	 M213.9,389.8c0,3.8-3.1,6.9-6.9,6.9s-6.9-3.1-6.9-6.9v-39.4c0-3.8,3.1-6.9,6.9-6.9s6.9,3.1,6.9,6.9V389.8z M213.9,288.4
	c0,3.8-3.1,6.9-6.9,6.9s-6.9-3.1-6.9-6.9V249c0-3.8,3.1-6.9,6.9-6.9s6.9,3.1,6.9,6.9V288.4z"/>
</svg>
