<?xml version="1.0" encoding="utf-8"?>
<!-- Generator: Adobe Illustrator 19.0.0, SVG Export Plug-In . SVG Version: 6.00 Build 0)  -->
<svg version="1.1" id="Capa_1" xmlns="http://www.w3.org/2000/svg" xmlns:xlink="http://www.w3.org/1999/xlink" x="0px" y="0px"
	 viewBox="-14 -85.6 470.6 470.6" style="enable-background:new -14 -85.6 470.6 470.6;" xml:space="preserve">
<g>
	<path d="M313.1-85.6H76.2c-15.9,0-28.9,13-28.9,28.9v412.9c0,15.9,13,28.9,28.9,28.9h290.1c15.9,0,28.9-12.9,28.9-28.9V3.6
		L313.1-85.6z M319.9-42.4l36,39.1h-36V-42.4z M371,356.1c0,2.5-2.1,4.6-4.6,4.6H76.2c-2.6,0-4.6-2.1-4.6-4.6V-56.7
		c0-2.5,2.1-4.6,4.6-4.6h219.4V8.8c0,6.7,5.4,12.1,12.1,12.1H371V356.1z M114.4,43.3h205.8c5,0,9.1,4.1,9.1,9.1s-4.1,9.1-9.1,9.1
		H114.4c-5,0-9.1-4.1-9.1-9.1C105.3,47.4,109.4,43.3,114.4,43.3z M329.2,113.4c0,5-4.1,9.1-9.1,9.1H114.4c-5,0-9.1-4.1-9.1-9.1
		s4.1-9.1,9.1-9.1h205.8C325.2,104.3,329.2,108.4,329.2,113.4z M329.2,172.4c0,5-4.1,9.1-9.1,9.1H114.4c-5,0-9.1-4.1-9.1-9.1
		s4.1-9.1,9.1-9.1h205.8C325.2,163.3,329.2,167.4,329.2,172.4z M329.2,232.4c0,5-4.1,9.1-9.1,9.1H114.4c-5,0-9.1-4.1-9.1-9.1
		s4.1-9.1,9.1-9.1h205.8C325.2,223.3,329.2,227.4,329.2,232.4z"/>
</g>
</svg>
