<?xml version="1.0" encoding="utf-8"?>
<!-- Generator: Adobe Illustrator 19.0.0, SVG Export Plug-In . SVG Version: 6.00 Build 0)  -->
<svg version="1.1" id="Capa_1" xmlns="http://www.w3.org/2000/svg" xmlns:xlink="http://www.w3.org/1999/xlink" x="0px" y="0px"
	 viewBox="-140 42.8 217.2 217.2" style="enable-background:new -140 42.8 217.2 217.2;" xml:space="preserve">
<g>
	<path d="M75,146.1L-26.1,45c-2.9-2.9-7.7-2.9-10.6,0l-101.1,101.1c-2.9,2.9-2.9,7.7,0,10.6l101.1,101.1c1.5,1.5,3.4,2.2,5.3,2.2
		s3.8-0.7,5.3-2.2L75,156.7C77.9,153.8,77.9,149,75,146.1z M-31.4,241.9l-90.5-90.5l90.5-90.5l90.5,90.5L-31.4,241.9z"/>
	<path d="M-18,123.9h-21.3c-11.6,0-21.1,9.5-21.1,21.1v39.4c0,4.1,3.4,7.5,7.5,7.5s7.5-3.4,7.5-7.5V145c0-3.4,2.7-6.1,6.1-6.1H-18
		l-6.2,6.2c-2.9,2.9-2.9,7.7,0,10.6c1.5,1.5,3.4,2.2,5.3,2.2c1.9,0,3.8-0.7,5.3-2.2l19-19c1.4-1.4,2.2-3.3,2.2-5.3
		c0-2-0.8-3.9-2.2-5.3l-18.9-18.9c-2.9-2.9-7.7-2.9-10.6,0c-2.9,2.9-2.9,7.7,0,10.6L-18,123.9z"/>
</g>
</svg>
