<?xml version="1.0" encoding="utf-8"?>
<!-- Generator: Adobe Illustrator 21.0.0, SVG Export Plug-In . SVG Version: 6.00 Build 0)  -->
<svg version="1.1" id="Capa_1" xmlns="http://www.w3.org/2000/svg" xmlns:xlink="http://www.w3.org/1999/xlink" x="0px" y="0px"
	 viewBox="0 0 217.2 217.2" style="enable-background:new 0 0 217.2 217.2;" xml:space="preserve">
<style type="text/css">
	.st0{fill:#FFFFFF;}
</style>
<g>
	<path class="st0" d="M215,103.3L113.9,2.2c-2.9-2.9-7.7-2.9-10.6,0L2.2,103.3c-2.9,2.9-2.9,7.7,0,10.6L103.3,215
		c1.5,1.5,3.4,2.2,5.3,2.2c1.9,0,3.8-0.7,5.3-2.2L215,113.9C217.9,111,217.9,106.2,215,103.3z M108.6,199.1l-90.5-90.5l90.5-90.5
		l90.5,90.5L108.6,199.1z"/>
	<path class="st0" d="M122,81.1h-21.3c-11.6,0-21.1,9.5-21.1,21.1v39.4c0,4.1,3.4,7.5,7.5,7.5s7.5-3.4,7.5-7.5v-39.4
		c0-3.4,2.7-6.1,6.1-6.1H122l-6.2,6.2c-2.9,2.9-2.9,7.7,0,10.6c1.5,1.5,3.4,2.2,5.3,2.2s3.8-0.7,5.3-2.2l19-19
		c1.4-1.4,2.2-3.3,2.2-5.3s-0.8-3.9-2.2-5.3l-18.9-18.9c-2.9-2.9-7.7-2.9-10.6,0c-2.9,2.9-2.9,7.7,0,10.6L122,81.1z"/>
</g>
</svg>
