<?xml version="1.0" encoding="utf-8"?>
<!-- Generator: Adobe Illustrator 21.0.0, SVG Export Plug-In . SVG Version: 6.00 Build 0)  -->
<svg version="1.1" id="Layer_1" xmlns="http://www.w3.org/2000/svg" xmlns:xlink="http://www.w3.org/1999/xlink" x="0px" y="0px"
	 viewBox="0 0 512 512" style="enable-background:new 0 0 512 512;" xml:space="preserve">
<style type="text/css">
	.st0{fill:#FFFFFF;}
</style>
<path class="st0" d="M480.3,337.8c-1.8-4.3-6.9-6.3-11.2-4.5l-35.3,15.1l-48.1-27.7l62.8-26.8c4.3-1.8,6.4-6.9,4.5-11.2
	c-1.9-4.3-6.9-6.3-11.2-4.5L367.2,310l-33.5-19.3l62.1-27.3c3.1-1.4,5.1-4.4,5.1-7.8s-2-6.4-5.1-7.8l-62.1-27.3l33.5-19.3l74.6,31.8
	c1.1,0.5,2.2,0.7,3.3,0.7c3.3,0,6.5-1.9,7.9-5.2c1.9-4.3-0.2-9.3-4.5-11.2l-62.8-26.8l48.1-27.7l35.3,15.1c1.1,0.5,2.2,0.7,3.3,0.7
	c3.3,0,6.5-1.9,7.9-5.2c1.9-4.3-0.2-9.3-4.5-11.2l-23.6-10.1l22.2-12.8c4.1-2.4,5.5-7.6,3.1-11.7s-7.6-5.5-11.7-3.1l-22.2,12.8
	l3.1-25.4c0.6-4.7-2.8-8.9-7.5-9.5s-8.9,2.8-9.5,7.4l-4.6,38.1L377,175.6l8.2-67.8c0.6-4.7-2.8-8.9-7.5-9.5s-8.9,2.8-9.5,7.4
	l-9.7,80.5L325,205.5l7.3-67.4c0.4-3.4-1.3-6.6-4.2-8.3c-2.9-1.7-6.1-1.5-8.8,0.5l-54.2,40v-30.1l64.4-48.6
	c3.8-2.8,4.3-8.2,1.5-11.9c-2.8-3.8-7.8-4.5-11.6-1.7l-54.3,41V55l30.3-23c3.8-2.8,4.3-8.2,1.5-11.9c-2.8-3.8-7.8-4.5-11.6-1.7
	l-20.1,15.4V8.2c0-4.7-3.8-8.5-8.5-8.5c-4.7,0-8.5,3.8-8.5,8.5v25.6l-21-15.4c-3.8-2.8-9.4-2.1-12.2,1.7s-1.7,9.1,2.1,11.9l31.1,23
	v64L193,78c-3.8-2.8-9.4-2.1-12.2,1.7s-1.7,9.1,2.1,11.9l65.3,48.6v30.1l-55.2-40c-2.7-2-6.6-2.2-9.6-0.5c-2.9,1.7-4.7,5-4.3,8.3
	l7.3,67.4l-26.1-15.1l-9.7-80.5c-0.6-4.7-4.8-8-9.5-7.4c-4.7,0.6-8,4.8-7.5,9.5l8.2,67.8l-55.5-32l-4.6-38.1c-0.6-4.7-4.8-8-9.5-7.4
	s-8,4.8-7.5,9.5l3.1,25.4l-22.4-12.8c-4.1-2.4-9.3-1-11.7,3.1c-2.4,4.1-1,9.3,3.1,11.7L59,152l-23.6,10.1c-4.3,1.8-6.4,6.9-4.5,11.2
	c1.4,3.2,4.5,5.2,7.9,5.2c1.1,0,2.3-0.2,3.3-0.7l35.3-15.1l55.5,32l-62.8,26.8c-4.3,1.9-6.4,6.9-4.5,11.2c1.4,3.2,4.5,5.2,7.9,5.2
	c1.1,0,2.3-0.2,3.4-0.7l74.6-31.8l26.1,15.1l-62.1,27.3c-3.1,1.4-5.1,4.4-5.1,7.8s2,6.4,5.1,7.8l62.1,27.3l-26.1,15.1L76.9,274
	c-4.4-1.9-9.4,0.2-11.2,4.5c-1.9,4.3,0.2,9.3,4.5,11.2l62.8,26.7l-55.5,32l-35.3-15.1c-4.3-1.8-9.4,0.2-11.2,4.5
	c-1.9,4.3,0.2,9.3,4.5,11.2l23.6,10.1l-22.2,12.8c-4.1,2.4-5.5,7.6-3.1,11.7c1.6,2.7,4.5,4.3,7.4,4.3c1.4,0,2.9-0.4,4.3-1.1
	L67.7,374l-3.1,25.4c-0.6,4.7,2.8,8.9,7.5,9.5c0.3,0,0.7,0.1,1,0.1c4.3,0,7.9-3.2,8.5-7.5l4.6-38.1l55.5-32l-8.2,67.8
	c-0.6,4.7,2.8,8.9,7.5,9.5c0.3,0,0.7,0.1,1,0.1c4.3,0,7.9-3.2,8.5-7.5l9.7-80.5l26.1-15.1l-7.3,67.4c-0.4,3.4,1.3,6.6,4.2,8.3
	s7.1,1.5,9.8-0.5l55.2-40v38.6l-65.4,48.6c-3.8,2.8-4.8,8.2-2,11.9c2.8,3.8,8.5,4.5,12.3,1.7l55-41v55.5l-31.2,23
	c-3.8,2.8-4.8,8.2-2,11.9c2.8,3.8,8.6,4.5,12.3,1.7l20.9-15.4V503c0,4.7,3.8,8.5,8.5,8.5c4.7,0,8.5-3.8,8.5-8.5v-25.6l20,15.4
	c1.5,1.2,3.1,1.7,4.9,1.7c2.6,0,5-1.2,6.7-3.4c2.8-3.8,2.5-9.1-1.3-11.9l-30.3-23v-55.5l54.2,41c1.5,1.2,3.1,1.7,4.9,1.7
	c2.6,0,5-1.2,6.7-3.4c2.8-3.8,2.5-9.1-1.3-11.9l-64.5-48.6v-38.6l54.2,40c1.5,1.1,3,1.6,4.8,1.6c1.5,0,2.8-0.4,4.1-1.1
	c2.9-1.7,4.5-5,4.2-8.3l-7.4-67.4l33.5,19.3l9.7,80.5c0.5,4.3,4.2,7.5,8.5,7.5c0.3,0,0.7,0,1-0.1c4.7-0.6,8-4.8,7.5-9.5l-8.2-67.8
	l48.1,27.7l4.6,38.1c0.5,4.3,4.2,7.5,8.5,7.5c0.3,0,0.7,0,1-0.1c4.7-0.6,8-4.8,7.5-9.5l-3.1-25.4l22.2,12.8c1.3,0.8,2.8,1.1,4.3,1.1
	c3,0,5.8-1.5,7.4-4.3c2.4-4.1,1-9.3-3.1-11.7L452.2,359l23.6-10.1C480.2,347.1,482.2,342.1,480.3,337.8z M140.2,255.5l55.8-24.6
	l42.6,24.6L196,280.1L140.2,255.5z M248.1,319.4l-49.7,36l6.8-60.6l42.9-24.6V319.4z M248.1,240.7l-42.8-24.6l-6.8-60.6l49.7,36
	L248.1,240.7L248.1,240.7z M265.2,191.6l48.7-36l-6.3,60.6l-42.4,24.6V191.6L265.2,191.6z M265.2,319.4v-49.2l42.4,24.6l6.3,60.6
	L265.2,319.4z M315.4,280.1l-42.6-24.6l42.6-24.6l55.8,24.6L315.4,280.1z"/>
</svg>
