<?xml version="1.0" encoding="utf-8"?>
<!-- Generator: Adobe Illustrator 19.0.0, SVG Export Plug-In . SVG Version: 6.00 Build 0)  -->
<svg version="1.1" id="Layer_1" xmlns="http://www.w3.org/2000/svg" xmlns:xlink="http://www.w3.org/1999/xlink" x="0px" y="0px"
	 viewBox="-41 164.9 512 512" style="enable-background:new -41 164.9 512 512;" xml:space="preserve">
<path d="M439.3,502.7c-1.8-4.3-6.9-6.3-11.2-4.5l-35.3,15.1l-48.1-27.7l62.8-26.8c4.3-1.8,6.4-6.9,4.5-11.2
	c-1.9-4.3-6.9-6.3-11.2-4.5l-74.6,31.8l-33.5-19.3l62.1-27.3c3.1-1.4,5.1-4.4,5.1-7.8s-2-6.4-5.1-7.8l-62.1-27.3l33.5-19.3
	l74.6,31.8c1.1,0.5,2.2,0.7,3.3,0.7c3.3,0,6.5-1.9,7.9-5.2c1.9-4.3-0.2-9.3-4.5-11.2l-62.8-26.8l48.1-27.7l35.3,15.1
	c1.1,0.5,2.2,0.7,3.3,0.7c3.3,0,6.5-1.9,7.9-5.2c1.9-4.3-0.2-9.3-4.5-11.2l-23.6-10.1l22.2-12.8c4.1-2.4,5.5-7.6,3.1-11.7
	c-2.4-4.1-7.6-5.5-11.7-3.1l-22.2,12.8l3.1-25.4c0.6-4.7-2.8-8.9-7.5-9.5c-4.7-0.6-8.9,2.8-9.5,7.4l-4.6,38.1l-48.1,27.7l8.2-67.8
	c0.6-4.7-2.8-8.9-7.5-9.5c-4.7-0.6-8.9,2.8-9.5,7.4l-9.7,80.5l-33.5,19.3l7.3-67.4c0.4-3.4-1.3-6.6-4.2-8.3
	c-2.9-1.7-6.1-1.5-8.8,0.5l-54.2,40v-30.1l64.4-48.6c3.8-2.8,4.3-8.2,1.5-11.9c-2.8-3.8-7.8-4.5-11.6-1.7l-54.3,41v-64l30.3-23
	c3.8-2.8,4.3-8.2,1.5-11.9c-2.8-3.8-7.8-4.5-11.6-1.7l-20.1,15.4v-25.6c0-4.7-3.8-8.5-8.5-8.5c-4.7,0-8.5,3.8-8.5,8.5v25.6l-21-15.4
	c-3.8-2.8-9.4-2.1-12.2,1.7c-2.8,3.8-1.7,9.1,2.1,11.9l31.1,23v64l-55.2-41c-3.8-2.8-9.4-2.1-12.2,1.7c-2.8,3.8-1.7,9.1,2.1,11.9
	l65.3,48.6v30.1l-55.2-40c-2.7-2-6.6-2.2-9.6-0.5c-2.9,1.7-4.7,5-4.3,8.3l7.3,67.4l-26.1-15.1l-9.7-80.5c-0.6-4.7-4.8-8-9.5-7.4
	c-4.7,0.6-8,4.8-7.5,9.5l8.2,67.8l-55.5-32l-4.6-38.1c-0.6-4.7-4.8-8-9.5-7.4c-4.7,0.6-8,4.8-7.5,9.5l3.1,25.4L4.4,289.3
	c-4.1-2.4-9.3-1-11.7,3.1c-2.4,4.1-1,9.3,3.1,11.7l22.2,12.8l-23.6,10.1c-4.3,1.8-6.4,6.9-4.5,11.2c1.4,3.2,4.5,5.2,7.9,5.2
	c1.1,0,2.3-0.2,3.3-0.7l35.3-15.1l55.5,32l-62.8,26.8c-4.3,1.9-6.4,6.9-4.5,11.2c1.4,3.2,4.5,5.2,7.9,5.2c1.1,0,2.3-0.2,3.4-0.7
	l74.6-31.8l26.1,15.1l-62.1,27.3c-3.1,1.4-5.1,4.4-5.1,7.8s2,6.4,5.1,7.8l62.1,27.3l-26.1,15.1l-74.6-31.8
	c-4.4-1.9-9.4,0.2-11.2,4.5c-1.9,4.3,0.2,9.3,4.5,11.2L92,481.3l-55.5,32L1.2,498.2c-4.3-1.8-9.4,0.2-11.2,4.5
	c-1.9,4.3,0.2,9.3,4.5,11.2l23.6,10.1l-22.2,12.8c-4.1,2.4-5.5,7.6-3.1,11.7c1.6,2.7,4.5,4.3,7.4,4.3c1.4,0,2.9-0.4,4.3-1.1
	l22.2-12.8l-3.1,25.4c-0.6,4.7,2.8,8.9,7.5,9.5c0.3,0,0.7,0.1,1,0.1c4.3,0,7.9-3.2,8.5-7.5l4.6-38.1l55.5-32l-8.2,67.8
	c-0.6,4.7,2.8,8.9,7.5,9.5c0.3,0,0.7,0.1,1,0.1c4.3,0,7.9-3.2,8.5-7.5l9.7-80.5l26.1-15.1l-7.3,67.4c-0.4,3.4,1.3,6.6,4.2,8.3
	c2.9,1.7,7.1,1.5,9.8-0.5l55.2-40v38.6l-65.4,48.6c-3.8,2.8-4.8,8.2-2,11.9c2.8,3.8,8.5,4.5,12.3,1.7l55-41v55.5l-31.2,23
	c-3.8,2.8-4.8,8.2-2,11.9c2.8,3.8,8.6,4.5,12.3,1.7l20.9-15.4v25.6c0,4.7,3.8,8.5,8.5,8.5c4.7,0,8.5-3.8,8.5-8.5v-25.6l20,15.4
	c1.5,1.2,3.1,1.7,4.9,1.7c2.6,0,5-1.2,6.7-3.4c2.8-3.8,2.5-9.1-1.3-11.9l-30.3-23v-55.5l54.2,41c1.5,1.2,3.1,1.7,4.9,1.7
	c2.6,0,5-1.2,6.7-3.4c2.8-3.8,2.5-9.1-1.3-11.9l-64.5-48.6v-38.6l54.2,40c1.5,1.1,3,1.6,4.8,1.6c1.5,0,2.8-0.4,4.1-1.1
	c2.9-1.7,4.5-5,4.2-8.3l-7.4-67.4l33.5,19.3l9.7,80.5c0.5,4.3,4.2,7.5,8.5,7.5c0.3,0,0.7,0,1-0.1c4.7-0.6,8-4.8,7.5-9.5l-8.2-67.8
	l48.1,27.7l4.6,38.1c0.5,4.3,4.2,7.5,8.5,7.5c0.3,0,0.7,0,1-0.1c4.7-0.6,8-4.8,7.5-9.5l-3.1-25.4l22.2,12.8c1.3,0.8,2.8,1.1,4.3,1.1
	c3,0,5.8-1.5,7.4-4.3c2.4-4.1,1-9.3-3.1-11.7l-22.2-12.8l23.6-10.1C439.2,512,441.2,507,439.3,502.7z M99.2,420.4l55.8-24.6
	l42.6,24.6L155,445L99.2,420.4z M207.1,484.3l-49.7,36l6.8-60.6l42.9-24.6V484.3z M207.1,405.6L164.3,381l-6.8-60.6l49.7,36V405.6
	L207.1,405.6z M224.2,356.5l48.7-36l-6.3,60.6l-42.4,24.6L224.2,356.5L224.2,356.5z M224.2,484.3v-49.2l42.4,24.6l6.3,60.6
	L224.2,484.3z M274.4,445l-42.6-24.6l42.6-24.6l55.8,24.6L274.4,445z"/>
</svg>
