<?xml version="1.0" encoding="utf-8"?>
<!-- Generator: Adobe Illustrator 19.0.0, SVG Export Plug-In . SVG Version: 6.00 Build 0)  -->
<svg version="1.1" id="Capa_1" xmlns="http://www.w3.org/2000/svg" xmlns:xlink="http://www.w3.org/1999/xlink" x="0px" y="0px"
	 viewBox="-59 182.6 476.3 476.3" style="enable-background:new -59 182.6 476.3 476.3;" xml:space="preserve">
<g>
	<g>
		<path d="M352.8,432.8H167.1V247.2c0-7.5-6-13.5-13.5-13.5C36.4,233.7-59,329.1-59,446.3s95.4,212.6,212.6,212.6
			s212.6-95.4,212.6-212.6C366.3,438.9,360.1,432.8,352.8,432.8z M153.6,631.9C51.3,631.9-32,548.6-32,446.3
			c0-97.8,76-178.2,172.1-185.1v185.1c0,7.5,6,13.5,13.5,13.5h185.1C331.9,555.9,251.5,631.9,153.6,631.9z"/>
		<path d="M417.3,394.5c-0.2-51.6-19.1-101.3-53.2-140c-40.4-45.7-98.4-71.9-159.4-71.9c-7.5,0-13.5,6-13.5,13.5v199.1
			c0,7.5,6,13.5,13.5,13.5h199.1l0,0c7.5,0,13.5-6,13.5-13.5C417.3,395,417.3,394.8,417.3,394.5z M218.1,381.8V210.2
			c48.2,3.5,93.4,25.8,125.6,62.3c27,30.5,43,68.9,46,109.3L218.1,381.8L218.1,381.8z"/>
	</g>
</g>
</svg>
