<?xml version="1.0" encoding="utf-8"?>
<!-- Generator: Adobe Illustrator 21.0.0, SVG Export Plug-In . SVG Version: 6.00 Build 0)  -->
<svg version="1.1" id="Capa_1" xmlns="http://www.w3.org/2000/svg" xmlns:xlink="http://www.w3.org/1999/xlink" x="0px" y="0px"
	 viewBox="0 0 476.3 476.3" style="enable-background:new 0 0 476.3 476.3;" xml:space="preserve">
<style type="text/css">
	.st0{fill:#FFFFFF;}
</style>
<g>
	<g>
		<path class="st0" d="M411.8,250.2H226.1V64.6c0-7.5-6-13.5-13.5-13.5C95.4,51.1,0,146.5,0,263.7s95.4,212.6,212.6,212.6
			s212.6-95.4,212.6-212.6C425.3,256.3,419.1,250.2,411.8,250.2z M212.6,449.3C110.3,449.3,27,366,27,263.7
			c0-97.8,76-178.2,172.1-185.1v185.1c0,7.5,6,13.5,13.5,13.5h185.1C390.9,373.3,310.5,449.3,212.6,449.3z"/>
		<path class="st0" d="M476.3,211.9c-0.2-51.6-19.1-101.3-53.2-140C382.7,26.2,324.7,0,263.7,0c-7.5,0-13.5,6-13.5,13.5v199.1
			c0,7.5,6,13.5,13.5,13.5h199.1l0,0c7.5,0,13.5-6,13.5-13.5C476.3,212.4,476.3,212.2,476.3,211.9z M277.1,199.2V27.6
			c48.2,3.5,93.4,25.8,125.6,62.3c27,30.5,43,68.9,46,109.3H277.1L277.1,199.2z"/>
	</g>
</g>
</svg>
