<?xml version="1.0" encoding="utf-8"?>
<!-- Generator: Adobe Illustrator 18.1.0, SVG Export Plug-In . SVG Version: 6.00 Build 0)  -->
<svg version="1.1" id="Calque_1" xmlns="http://www.w3.org/2000/svg" xmlns:xlink="http://www.w3.org/1999/xlink" x="0px" y="0px"
	 viewBox="0 0 595.3 841.9" enable-background="new 0 0 595.3 841.9" xml:space="preserve">
<g id="XMLID_19_">
	<path id="XMLID_43_" d="M472.1,248.4c-24.3-2.5-42.3-3.3-70-3.3h-155c-7.1,0-13,5.8-13,12.9v165.4c0,11.3,8.4,16.3,18.4,11.7
		l111-51l-12.6-21.7c-6.3-10.9-1.3-19.6,11.3-19.6H460c12.6,0,17.6,8.8,11.3,19.6l-49,84.4c-6.3,10.9-16.3,10.9-22.6,0l-13.8-23.4
		l0,0l-51.5,25.1c0,0,0,0-0.4,0l-132.8,64.3l0,0c-7.5,4.2-16.3,6.7-26,6.7c-36.9,0-52.4-19.2-56.1-52.2c-2.1-17.5-2.5-35.9-2.5-47.2
		V255.9c0-5.8-5-10.9-10.9-10.9H10.9C5,245,0,250,0,255.9v190c0,27.6,0.8,47.6,3.4,65.2c7.5,47.2,51.1,86.9,121.9,86.9
		c31.8,0,56.1-7.1,77.5-20l14.2-9.2c9.2-5.8,16.8-1.7,16.8,9.2l0,0c0,5.8,5,10.9,10.9,10.9h2.1l0,0h90.5l0,0h2.1
		c5.9,0,10.9-5,10.9-10.9v-1.3c0-0.4,0-0.4,0-0.8v-29.2c0-7.1,5.9-12.9,13-12.9h39c27.6,0,46.1-0.8,70-3.3
		c64.5-7.9,123.6-53.5,123.6-141.2C595.3,301.8,536.6,255.9,472.1,248.4z"/>
</g>
</svg>
