<?xml version="1.0" encoding="utf-8"?>
<!-- Generator: Adobe Illustrator 19.0.0, SVG Export Plug-In . SVG Version: 6.00 Build 0)  -->
<svg version="1.1" id="Calque_1" xmlns="http://www.w3.org/2000/svg" xmlns:xlink="http://www.w3.org/1999/xlink" x="0px" y="0px"
	 viewBox="0 0 142.1 84.5" style="enable-background:new 0 0 142.1 84.5;" xml:space="preserve">
<g id="XMLID_19_">
	<path id="XMLID_43_" d="M112.7,0.8C106.9,0.2,102.6,0,96,0h-37c-1.7,0-3.1,1.4-3.1,3.1v39.6c0,2.7,2,3.9,4.4,2.8l26.5-12.2l-3-5.2
		c-1.5-2.6-0.3-4.7,2.7-4.7l23.3,0c3,0,4.2,2.1,2.7,4.7l-11.7,20.2c-1.5,2.6-3.9,2.6-5.4,0l-3.3-5.6v0l-12.3,6c0,0,0,0-0.1,0
		L48,64.1l0,0c-1.8,1-3.9,1.6-6.2,1.6c-8.8,0-12.5-4.6-13.4-12.5c-0.5-4.2-0.6-8.6-0.6-11.3V2.6c0-1.4-1.2-2.6-2.6-2.6H2.6
		C1.2,0,0,1.2,0,2.6v45.5c0,6.6,0.2,11.4,0.8,15.6C2.6,75,13,84.5,29.9,84.5c7.6,0,13.4-1.7,18.5-4.8l3.4-2.2c2.2-1.4,4-0.4,4,2.2v0
		c0,1.4,1.2,2.6,2.6,2.6h0.5c0,0,0,0,0,0h21.6l0,0H81c1.4,0,2.6-1.2,2.6-2.6v-0.3c0-0.1,0-0.1,0-0.2v-7c0-1.7,1.4-3.1,3.1-3.1H96
		c6.6,0,11-0.2,16.7-0.8c15.4-1.9,29.5-12.8,29.5-33.8C142.1,13.6,128.1,2.6,112.7,0.8z"/>
</g>
</svg>
