<?xml version="1.0" encoding="utf-8"?>
<!-- Generator: Adobe Illustrator 21.0.0, SVG Export Plug-In . SVG Version: 6.00 Build 0)  -->
<svg version="1.1" id="Capa_1" xmlns="http://www.w3.org/2000/svg" xmlns:xlink="http://www.w3.org/1999/xlink" x="0px" y="0px"
	 viewBox="0 0 378.3 378.3" style="enable-background:new 0 0 378.3 378.3;" xml:space="preserve">
<style type="text/css">
	.st0{fill:#FFFFFF;}
</style>
<g>
	<g>
		<path class="st0" d="M189.2,0C84.9,0,0,84.9,0,189.2c0,104.3,84.9,189.2,189.2,189.2c104.3,0,189.2-84.9,189.2-189.2
			C378.3,84.9,293.5,0,189.2,0z M189.2,347.1c-87.1,0-158-70.9-158-158c0-87.1,70.9-158,158-158s158,70.9,158,158
			C347.1,276.3,276.3,347.1,189.2,347.1z"/>
		<path class="st0" d="M204.7,183V75.8c0-8.6-7-15.6-15.6-15.6c-8.6,0-15.6,7-15.6,15.6v113.3c0,4.8,2.3,9.1,5.7,12
			c0.1,0.2,0.2,0.4,0.4,0.5l58.4,66.4c3.1,3.5,7.4,5.3,11.7,5.3c3.7,0,7.3-1.3,10.3-3.9c6.5-5.7,7.1-15.5,1.4-22L204.7,183z"/>
	</g>
</g>
</svg>
